G04 #@! TF.GenerationSoftware,KiCad,Pcbnew,9.0.1*
G04 #@! TF.CreationDate,2025-05-27T23:21:40+02:00*
G04 #@! TF.ProjectId,USBC2,55534243-322e-46b6-9963-61645f706362,rev?*
G04 #@! TF.SameCoordinates,Original*
G04 #@! TF.FileFunction,Copper,L1,Top*
G04 #@! TF.FilePolarity,Positive*
%FSLAX46Y46*%
G04 Gerber Fmt 4.6, Leading zero omitted, Abs format (unit mm)*
G04 Created by KiCad (PCBNEW 9.0.1) date 2025-05-27 23:21:40*
%MOMM*%
%LPD*%
G01*
G04 APERTURE LIST*
G04 #@! TA.AperFunction,ComponentPad*
%ADD10C,0.700000*%
G04 #@! TD*
G04 #@! TA.AperFunction,ComponentPad*
%ADD11O,2.400000X0.900000*%
G04 #@! TD*
G04 #@! TA.AperFunction,ComponentPad*
%ADD12O,1.700000X0.900000*%
G04 #@! TD*
G04 #@! TA.AperFunction,SMDPad,CuDef*
%ADD13R,1.500000X1.000000*%
G04 #@! TD*
G04 #@! TA.AperFunction,ComponentPad*
%ADD14C,1.700000*%
G04 #@! TD*
G04 #@! TA.AperFunction,ComponentPad*
%ADD15R,1.700000X1.700000*%
G04 #@! TD*
G04 #@! TA.AperFunction,Conductor*
%ADD16C,0.300000*%
G04 #@! TD*
G04 #@! TA.AperFunction,Conductor*
%ADD17C,0.200000*%
G04 #@! TD*
G04 APERTURE END LIST*
D10*
X89750000Y-116405000D03*
X89750000Y-117255000D03*
X89750000Y-118105000D03*
X89750000Y-118955000D03*
X89750000Y-119805000D03*
X89750000Y-120655000D03*
X89750000Y-121505000D03*
X89750000Y-122355000D03*
X88400000Y-122355000D03*
X88400000Y-121505000D03*
X88400000Y-120655000D03*
X88400000Y-119805000D03*
X88400000Y-118955000D03*
X88400000Y-118105000D03*
X88400000Y-117255000D03*
X88400000Y-116405000D03*
D11*
X88770000Y-115055000D03*
D12*
X85390000Y-115055000D03*
D11*
X88770000Y-123705000D03*
D12*
X85390000Y-123705000D03*
D13*
X96012000Y-123922000D03*
X96012000Y-125222000D03*
X96012000Y-126522000D03*
X93218000Y-123922000D03*
X93218000Y-125222000D03*
X93218000Y-126522000D03*
X96012000Y-114858000D03*
X96012000Y-113558000D03*
X96012000Y-112258000D03*
X93218000Y-114828000D03*
X93218000Y-113528000D03*
X93218000Y-112228000D03*
D14*
X86355000Y-127000000D03*
X88895000Y-127000000D03*
X86360000Y-111760000D03*
X88900000Y-111760000D03*
D15*
X96266000Y-120904000D03*
D14*
X96266000Y-118364000D03*
D16*
X96012000Y-113558000D02*
X94812800Y-113558000D01*
X94812800Y-113558000D02*
X94615000Y-113360200D01*
X94615000Y-111379000D02*
X94107000Y-110871000D01*
X94615000Y-113360200D02*
X94615000Y-111379000D01*
X94107000Y-110871000D02*
X91567000Y-110871000D01*
X91567000Y-110871000D02*
X90678000Y-111760000D01*
X90678000Y-111760000D02*
X88900000Y-111760000D01*
X94792800Y-125222000D02*
X94615000Y-125399800D01*
X94615000Y-127635000D02*
X94361000Y-127889000D01*
X91567000Y-127889000D02*
X90678000Y-127000000D01*
X94615000Y-125399800D02*
X94615000Y-127635000D01*
X96012000Y-125222000D02*
X94792800Y-125222000D01*
X94361000Y-127889000D02*
X91567000Y-127889000D01*
X90678000Y-127000000D02*
X88895000Y-127000000D01*
X96266000Y-120904000D02*
X93167200Y-120904000D01*
X93167200Y-120904000D02*
X92068200Y-119805000D01*
X92068200Y-119805000D02*
X89750000Y-119805000D01*
X89750000Y-118955000D02*
X92322200Y-118955000D01*
X92322200Y-118955000D02*
X92913200Y-118364000D01*
X92913200Y-118364000D02*
X96266000Y-118364000D01*
D17*
X89750000Y-118955000D02*
X89424427Y-118955000D01*
X89424427Y-118955000D02*
X88574427Y-119805000D01*
X88574427Y-119805000D02*
X88400000Y-119805000D01*
D16*
X93218000Y-114828000D02*
X95982000Y-114828000D01*
X91968000Y-114828000D02*
X90391000Y-116405000D01*
X89750000Y-122355000D02*
X90351000Y-122355000D01*
X91918000Y-123922000D02*
X93218000Y-123922000D01*
X96012000Y-123922000D02*
X93218000Y-123922000D01*
X90351000Y-122355000D02*
X91918000Y-123922000D01*
X93218000Y-114828000D02*
X91968000Y-114828000D01*
X90391000Y-116405000D02*
X89750000Y-116405000D01*
X93218000Y-113528000D02*
X88128000Y-113528000D01*
X88128000Y-113528000D02*
X86360000Y-111760000D01*
X88133000Y-125222000D02*
X86355000Y-127000000D01*
X93218000Y-125222000D02*
X88133000Y-125222000D01*
G04 #@! TA.AperFunction,Conductor*
G36*
X91271002Y-110509407D02*
G01*
X91306966Y-110558907D01*
X91306966Y-110620093D01*
X91282816Y-110659501D01*
X90888922Y-111053396D01*
X90561814Y-111380504D01*
X90507297Y-111408281D01*
X90491810Y-111409500D01*
X90262604Y-111409500D01*
X90205401Y-111391301D01*
X89500730Y-110892433D01*
X89499027Y-110891241D01*
X89498842Y-110891112D01*
X89484422Y-110884988D01*
X89468125Y-110876183D01*
X89397597Y-110829058D01*
X89206418Y-110749869D01*
X89003467Y-110709500D01*
X89003465Y-110709500D01*
X88796535Y-110709500D01*
X88796532Y-110709500D01*
X88593581Y-110749869D01*
X88402402Y-110829058D01*
X88230348Y-110944020D01*
X88084020Y-111090348D01*
X87969058Y-111262402D01*
X87889869Y-111453581D01*
X87849500Y-111656532D01*
X87849500Y-111863467D01*
X87889869Y-112066418D01*
X87969058Y-112257597D01*
X88079140Y-112422347D01*
X88084023Y-112429655D01*
X88230345Y-112575977D01*
X88402402Y-112690941D01*
X88593580Y-112770130D01*
X88796535Y-112810500D01*
X88796536Y-112810500D01*
X89003464Y-112810500D01*
X89003465Y-112810500D01*
X89206420Y-112770130D01*
X89397598Y-112690941D01*
X89397603Y-112690937D01*
X89397606Y-112690936D01*
X89413132Y-112680561D01*
X89468861Y-112643324D01*
X89483501Y-112635242D01*
X89500775Y-112627534D01*
X90205401Y-112128698D01*
X90262604Y-112110500D01*
X90724142Y-112110500D01*
X90724144Y-112110500D01*
X90813288Y-112086614D01*
X90843254Y-112069313D01*
X90893212Y-112040470D01*
X91225383Y-111708299D01*
X92268000Y-111708299D01*
X92268000Y-112127999D01*
X92268001Y-112128000D01*
X93118000Y-112128000D01*
X93118000Y-111528001D01*
X93117999Y-111528000D01*
X92448299Y-111528000D01*
X92389963Y-111539603D01*
X92323810Y-111583806D01*
X92323806Y-111583810D01*
X92279603Y-111649963D01*
X92268000Y-111708299D01*
X91225383Y-111708299D01*
X91683186Y-111250496D01*
X91737703Y-111222719D01*
X91753190Y-111221500D01*
X93920810Y-111221500D01*
X93979001Y-111240407D01*
X93990814Y-111250496D01*
X94107224Y-111366906D01*
X94135001Y-111421423D01*
X94125430Y-111481855D01*
X94082165Y-111525120D01*
X94021733Y-111534691D01*
X94017908Y-111534008D01*
X93987705Y-111528000D01*
X93318001Y-111528000D01*
X93318000Y-111528001D01*
X93318000Y-112129000D01*
X93313155Y-112143911D01*
X93313155Y-112159593D01*
X93303938Y-112172278D01*
X93299093Y-112187191D01*
X93286407Y-112196407D01*
X93277191Y-112209093D01*
X93262278Y-112213938D01*
X93249593Y-112223155D01*
X93219000Y-112228000D01*
X93218000Y-112228000D01*
X93218000Y-112229000D01*
X93199093Y-112287191D01*
X93149593Y-112323155D01*
X93119000Y-112328000D01*
X92268001Y-112328000D01*
X92268000Y-112328001D01*
X92268000Y-112747700D01*
X92279603Y-112806036D01*
X92287225Y-112817442D01*
X92303834Y-112876330D01*
X92285470Y-112929986D01*
X92249911Y-112979769D01*
X92138287Y-113136043D01*
X92089078Y-113172405D01*
X92057727Y-113177500D01*
X88314190Y-113177500D01*
X88255999Y-113158593D01*
X88244186Y-113148504D01*
X87571346Y-112475664D01*
X87543766Y-112422347D01*
X87527633Y-112328000D01*
X87398250Y-111571371D01*
X87397678Y-111568178D01*
X87397622Y-111567879D01*
X87391879Y-111553770D01*
X87386476Y-111535760D01*
X87370130Y-111453580D01*
X87290941Y-111262402D01*
X87175977Y-111090345D01*
X87029655Y-110944023D01*
X86950468Y-110891112D01*
X86857597Y-110829058D01*
X86666418Y-110749869D01*
X86463467Y-110709500D01*
X86463465Y-110709500D01*
X86256535Y-110709500D01*
X86256532Y-110709500D01*
X86053581Y-110749869D01*
X85862402Y-110829058D01*
X85690348Y-110944020D01*
X85544020Y-111090348D01*
X85429058Y-111262402D01*
X85349869Y-111453581D01*
X85309500Y-111656532D01*
X85309500Y-111863467D01*
X85349869Y-112066418D01*
X85429058Y-112257597D01*
X85539140Y-112422347D01*
X85544023Y-112429655D01*
X85690345Y-112575977D01*
X85862402Y-112690941D01*
X86053580Y-112770130D01*
X86091624Y-112777697D01*
X86137646Y-112786851D01*
X86153742Y-112791498D01*
X86171371Y-112798250D01*
X87022347Y-112943766D01*
X87075664Y-112971346D01*
X87912788Y-113808470D01*
X87992712Y-113854614D01*
X88081856Y-113878500D01*
X88081857Y-113878500D01*
X88174144Y-113878500D01*
X92057729Y-113878500D01*
X92115920Y-113897407D01*
X92138288Y-113919957D01*
X92159717Y-113949958D01*
X92281502Y-114120458D01*
X92299939Y-114178799D01*
X92281501Y-114235543D01*
X92138286Y-114436043D01*
X92089078Y-114472405D01*
X92057727Y-114477500D01*
X92014144Y-114477500D01*
X91921856Y-114477500D01*
X91832712Y-114501386D01*
X91752785Y-114547532D01*
X90316788Y-115983527D01*
X90262272Y-116011304D01*
X90207260Y-116004291D01*
X90159577Y-115983527D01*
X90035440Y-115929470D01*
X90033172Y-115928867D01*
X90009086Y-115918921D01*
X89962485Y-115892016D01*
X89822475Y-115854500D01*
X89787380Y-115854500D01*
X89729189Y-115835593D01*
X89693225Y-115786093D01*
X89693225Y-115724907D01*
X89729189Y-115675407D01*
X89749494Y-115664036D01*
X89753239Y-115662484D01*
X89828127Y-115631465D01*
X89934669Y-115560276D01*
X90025276Y-115469669D01*
X90096465Y-115363127D01*
X90145501Y-115244744D01*
X90170500Y-115119069D01*
X90170500Y-114990931D01*
X90145501Y-114865256D01*
X90096465Y-114746873D01*
X90096463Y-114746870D01*
X90096461Y-114746866D01*
X90067717Y-114703848D01*
X90025276Y-114640331D01*
X89934669Y-114549724D01*
X89892226Y-114521365D01*
X89828133Y-114478538D01*
X89828125Y-114478534D01*
X89709747Y-114429500D01*
X89709745Y-114429499D01*
X89709744Y-114429499D01*
X89584069Y-114404500D01*
X87955931Y-114404500D01*
X87955930Y-114404500D01*
X87893093Y-114416999D01*
X87830256Y-114429499D01*
X87830255Y-114429499D01*
X87830252Y-114429500D01*
X87711874Y-114478534D01*
X87711866Y-114478538D01*
X87605331Y-114549724D01*
X87605327Y-114549727D01*
X87514727Y-114640327D01*
X87514724Y-114640331D01*
X87443538Y-114746866D01*
X87443534Y-114746874D01*
X87394500Y-114865252D01*
X87394499Y-114865255D01*
X87394499Y-114865256D01*
X87369500Y-114990931D01*
X87369500Y-115119069D01*
X87389568Y-115219957D01*
X87394499Y-115244742D01*
X87394500Y-115244747D01*
X87443534Y-115363125D01*
X87443538Y-115363133D01*
X87469777Y-115402401D01*
X87514724Y-115469669D01*
X87605331Y-115560276D01*
X87668848Y-115602717D01*
X87711866Y-115631461D01*
X87711870Y-115631463D01*
X87711873Y-115631465D01*
X87830256Y-115680501D01*
X87955931Y-115705500D01*
X87955932Y-115705500D01*
X88141097Y-115705500D01*
X88199288Y-115724407D01*
X88235252Y-115773907D01*
X88235252Y-115835093D01*
X88199288Y-115884593D01*
X88190597Y-115890236D01*
X88061989Y-115964487D01*
X87959487Y-116066989D01*
X87887017Y-116192510D01*
X87849500Y-116332525D01*
X87849500Y-116477474D01*
X87887017Y-116617489D01*
X87959487Y-116743010D01*
X87959489Y-116743012D01*
X87959491Y-116743015D01*
X88061985Y-116845509D01*
X88061987Y-116845510D01*
X88061989Y-116845512D01*
X88187511Y-116917982D01*
X88187512Y-116917982D01*
X88187515Y-116917984D01*
X88327525Y-116955500D01*
X88327526Y-116955500D01*
X88472474Y-116955500D01*
X88472475Y-116955500D01*
X88612485Y-116917984D01*
X88612487Y-116917982D01*
X88612489Y-116917982D01*
X88738010Y-116845512D01*
X88738010Y-116845511D01*
X88738015Y-116845509D01*
X88840509Y-116743015D01*
X88840512Y-116743010D01*
X88912982Y-116617489D01*
X88912982Y-116617487D01*
X88912984Y-116617485D01*
X88950500Y-116477475D01*
X88950500Y-116332525D01*
X88912984Y-116192515D01*
X88912982Y-116192512D01*
X88912982Y-116192510D01*
X88840512Y-116066989D01*
X88840510Y-116066987D01*
X88840509Y-116066985D01*
X88738015Y-115964491D01*
X88738012Y-115964489D01*
X88738010Y-115964487D01*
X88609403Y-115890236D01*
X88568462Y-115844767D01*
X88562066Y-115783917D01*
X88592659Y-115730929D01*
X88648555Y-115706042D01*
X88658903Y-115705500D01*
X89491097Y-115705500D01*
X89549288Y-115724407D01*
X89585252Y-115773907D01*
X89585252Y-115835093D01*
X89549288Y-115884593D01*
X89540597Y-115890236D01*
X89411989Y-115964487D01*
X89309487Y-116066989D01*
X89237017Y-116192510D01*
X89199500Y-116332525D01*
X89199500Y-116477474D01*
X89237017Y-116617489D01*
X89309487Y-116743010D01*
X89309489Y-116743012D01*
X89309491Y-116743015D01*
X89411985Y-116845509D01*
X89411987Y-116845510D01*
X89411989Y-116845512D01*
X89537511Y-116917982D01*
X89537512Y-116917982D01*
X89537515Y-116917984D01*
X89677525Y-116955500D01*
X89677526Y-116955500D01*
X89822474Y-116955500D01*
X89822475Y-116955500D01*
X89962485Y-116917984D01*
X90009099Y-116891070D01*
X90030994Y-116882607D01*
X90030807Y-116882026D01*
X90035430Y-116880531D01*
X90035440Y-116880529D01*
X90303652Y-116763733D01*
X90343178Y-116755500D01*
X90437142Y-116755500D01*
X90437144Y-116755500D01*
X90526288Y-116731614D01*
X90536982Y-116725439D01*
X90536984Y-116725439D01*
X90555533Y-116714729D01*
X90606212Y-116685470D01*
X92027918Y-115263762D01*
X92082433Y-115235987D01*
X92142865Y-115245558D01*
X92178480Y-115276226D01*
X92294194Y-115438227D01*
X92294196Y-115438229D01*
X92294197Y-115438230D01*
X92311656Y-115454905D01*
X92323448Y-115472552D01*
X92345703Y-115487423D01*
X92349783Y-115491319D01*
X92357002Y-115495990D01*
X92357005Y-115495991D01*
X92360487Y-115497867D01*
X92360312Y-115498190D01*
X92368665Y-115502766D01*
X92389767Y-115516866D01*
X92389769Y-115516867D01*
X92416644Y-115522212D01*
X92416968Y-115522355D01*
X92417427Y-115522368D01*
X92442993Y-115527453D01*
X92448246Y-115528499D01*
X92448247Y-115528499D01*
X92448252Y-115528500D01*
X92448257Y-115528500D01*
X93987747Y-115528500D01*
X93987748Y-115528500D01*
X94046231Y-115516867D01*
X94073454Y-115498676D01*
X94075752Y-115497881D01*
X94083350Y-115493141D01*
X94087319Y-115489412D01*
X94112552Y-115472552D01*
X94118550Y-115463574D01*
X94133076Y-115446428D01*
X94141802Y-115438232D01*
X94297714Y-115219955D01*
X94346922Y-115183595D01*
X94378273Y-115178500D01*
X94849821Y-115178500D01*
X94908012Y-115197407D01*
X94930966Y-115220787D01*
X95040669Y-115377758D01*
X95057892Y-115402401D01*
X95068617Y-115427546D01*
X95069401Y-115427222D01*
X95073132Y-115436230D01*
X95114327Y-115497881D01*
X95117448Y-115502552D01*
X95183769Y-115546867D01*
X95228231Y-115555711D01*
X95242241Y-115558498D01*
X95242246Y-115558498D01*
X95242252Y-115558500D01*
X95242253Y-115558500D01*
X96781747Y-115558500D01*
X96781748Y-115558500D01*
X96840231Y-115546867D01*
X96906552Y-115502552D01*
X96950867Y-115436231D01*
X96962500Y-115377748D01*
X96962500Y-114338252D01*
X96950867Y-114279769D01*
X96939663Y-114263002D01*
X96923054Y-114204115D01*
X96939664Y-114152997D01*
X96942328Y-114149010D01*
X96950867Y-114136231D01*
X96962500Y-114077748D01*
X96962500Y-113038252D01*
X96950867Y-112979769D01*
X96939363Y-112962552D01*
X96922754Y-112903663D01*
X96939363Y-112852548D01*
X96950396Y-112836036D01*
X96961999Y-112777700D01*
X96962000Y-112777697D01*
X96962000Y-112358001D01*
X96961999Y-112358000D01*
X96111000Y-112358000D01*
X96096088Y-112353155D01*
X96080407Y-112353155D01*
X96067721Y-112343938D01*
X96052809Y-112339093D01*
X96043592Y-112326407D01*
X96030907Y-112317191D01*
X96026061Y-112302278D01*
X96016845Y-112289593D01*
X96012000Y-112259000D01*
X96012000Y-112258000D01*
X96011000Y-112258000D01*
X95952809Y-112239093D01*
X95916845Y-112189593D01*
X95912000Y-112159000D01*
X95912000Y-111558001D01*
X96112000Y-111558001D01*
X96112000Y-112158000D01*
X96961999Y-112158000D01*
X96962000Y-112157999D01*
X96962000Y-111738302D01*
X96961999Y-111738299D01*
X96950396Y-111679963D01*
X96906193Y-111613810D01*
X96906189Y-111613806D01*
X96840036Y-111569603D01*
X96781700Y-111558000D01*
X96112001Y-111558000D01*
X96112000Y-111558001D01*
X95912000Y-111558001D01*
X95911999Y-111558000D01*
X95242299Y-111558000D01*
X95183963Y-111569603D01*
X95119502Y-111612676D01*
X95060614Y-111629285D01*
X95003210Y-111608108D01*
X94969217Y-111557234D01*
X94965500Y-111530361D01*
X94965500Y-111332857D01*
X94965500Y-111332856D01*
X94941614Y-111243712D01*
X94914999Y-111197614D01*
X94895469Y-111163787D01*
X94391183Y-110659501D01*
X94363408Y-110604987D01*
X94372979Y-110544555D01*
X94416244Y-110501290D01*
X94461189Y-110490500D01*
X97149437Y-110490500D01*
X97160520Y-110491121D01*
X97277001Y-110504245D01*
X97291532Y-110506995D01*
X97315019Y-110513288D01*
X97322084Y-110515468D01*
X97419289Y-110549482D01*
X97436091Y-110557190D01*
X97438727Y-110558712D01*
X97441896Y-110560622D01*
X97541158Y-110622993D01*
X97558490Y-110636814D01*
X97643185Y-110721509D01*
X97657007Y-110738842D01*
X97719377Y-110838103D01*
X97721286Y-110841271D01*
X97722808Y-110843907D01*
X97730517Y-110860712D01*
X97764528Y-110957910D01*
X97766710Y-110964983D01*
X97773003Y-110988467D01*
X97775754Y-111003007D01*
X97788877Y-111119470D01*
X97789500Y-111130555D01*
X97789500Y-127629444D01*
X97788877Y-127640529D01*
X97775754Y-127756991D01*
X97773003Y-127771531D01*
X97766710Y-127795015D01*
X97764528Y-127802088D01*
X97730517Y-127899286D01*
X97722808Y-127916091D01*
X97721286Y-127918727D01*
X97719377Y-127921895D01*
X97657007Y-128021157D01*
X97643185Y-128038490D01*
X97558490Y-128123185D01*
X97541157Y-128137007D01*
X97441895Y-128199377D01*
X97438727Y-128201286D01*
X97436091Y-128202808D01*
X97419286Y-128210517D01*
X97322088Y-128244528D01*
X97315015Y-128246710D01*
X97291531Y-128253003D01*
X97276991Y-128255754D01*
X97160529Y-128268877D01*
X97149444Y-128269500D01*
X94715189Y-128269500D01*
X94656998Y-128250593D01*
X94621034Y-128201093D01*
X94621034Y-128139907D01*
X94645185Y-128100497D01*
X94707192Y-128038490D01*
X94895469Y-127850212D01*
X94941614Y-127770288D01*
X94965500Y-127681144D01*
X94965500Y-127249638D01*
X94984407Y-127191447D01*
X95033907Y-127155483D01*
X95095093Y-127155483D01*
X95119502Y-127167323D01*
X95183964Y-127210396D01*
X95183963Y-127210396D01*
X95242299Y-127221999D01*
X95242303Y-127222000D01*
X95911999Y-127222000D01*
X95912000Y-127221999D01*
X96112000Y-127221999D01*
X96112001Y-127222000D01*
X96781697Y-127222000D01*
X96781700Y-127221999D01*
X96840036Y-127210396D01*
X96906189Y-127166193D01*
X96906193Y-127166189D01*
X96950396Y-127100036D01*
X96961999Y-127041700D01*
X96962000Y-127041697D01*
X96962000Y-126622001D01*
X96961999Y-126622000D01*
X96112000Y-126622000D01*
X96112000Y-127221999D01*
X95912000Y-127221999D01*
X95912000Y-126621000D01*
X95916845Y-126606088D01*
X95916845Y-126590407D01*
X95926061Y-126577721D01*
X95930907Y-126562809D01*
X95943592Y-126553592D01*
X95952809Y-126540907D01*
X95967721Y-126536061D01*
X95980407Y-126526845D01*
X96011000Y-126522000D01*
X96012000Y-126522000D01*
X96012000Y-126521000D01*
X96030907Y-126462809D01*
X96080407Y-126426845D01*
X96111000Y-126422000D01*
X96961999Y-126422000D01*
X96962000Y-126421999D01*
X96962000Y-126002302D01*
X96961999Y-126002299D01*
X96950396Y-125943964D01*
X96939362Y-125927450D01*
X96922754Y-125868562D01*
X96939364Y-125817446D01*
X96940176Y-125816231D01*
X96950867Y-125800231D01*
X96962500Y-125741748D01*
X96962500Y-124702252D01*
X96950867Y-124643769D01*
X96939663Y-124627002D01*
X96923054Y-124568115D01*
X96939664Y-124516997D01*
X96950867Y-124500231D01*
X96962500Y-124441748D01*
X96962500Y-123402252D01*
X96950867Y-123343769D01*
X96906552Y-123277448D01*
X96906548Y-123277445D01*
X96840233Y-123233134D01*
X96840231Y-123233133D01*
X96840228Y-123233132D01*
X96840227Y-123233132D01*
X96781758Y-123221501D01*
X96781748Y-123221500D01*
X95242252Y-123221500D01*
X95242249Y-123221500D01*
X95183768Y-123233132D01*
X95183768Y-123233133D01*
X95164029Y-123246319D01*
X95164030Y-123246320D01*
X95156532Y-123251329D01*
X95154230Y-123252128D01*
X95146632Y-123256869D01*
X95142660Y-123260598D01*
X95135855Y-123265146D01*
X95117450Y-123277445D01*
X95117447Y-123277448D01*
X95111451Y-123286421D01*
X95096928Y-123303565D01*
X95088200Y-123311765D01*
X95088198Y-123311766D01*
X94932286Y-123530043D01*
X94883078Y-123566405D01*
X94851727Y-123571500D01*
X94378273Y-123571500D01*
X94320082Y-123552593D01*
X94297714Y-123530043D01*
X94141805Y-123311771D01*
X94141801Y-123311767D01*
X94132229Y-123302626D01*
X94132228Y-123302625D01*
X94124343Y-123295095D01*
X94112552Y-123277448D01*
X94090282Y-123262567D01*
X94086199Y-123258668D01*
X94086198Y-123258667D01*
X94078984Y-123254000D01*
X94075496Y-123252121D01*
X94075669Y-123251799D01*
X94067313Y-123247220D01*
X94065966Y-123246320D01*
X94057371Y-123240576D01*
X94046230Y-123233132D01*
X94023226Y-123228556D01*
X94023226Y-123228555D01*
X94019362Y-123227786D01*
X94019044Y-123227647D01*
X94018591Y-123227633D01*
X94010500Y-123226024D01*
X94010498Y-123226024D01*
X93987756Y-123221500D01*
X93987748Y-123221500D01*
X92448252Y-123221500D01*
X92448249Y-123221500D01*
X92389768Y-123233132D01*
X92389768Y-123233133D01*
X92370029Y-123246319D01*
X92370030Y-123246320D01*
X92362532Y-123251329D01*
X92360230Y-123252128D01*
X92352632Y-123256869D01*
X92348660Y-123260598D01*
X92341855Y-123265146D01*
X92323450Y-123277445D01*
X92323447Y-123277448D01*
X92317451Y-123286421D01*
X92302928Y-123303565D01*
X92294200Y-123311765D01*
X92294198Y-123311766D01*
X92157645Y-123502939D01*
X92108437Y-123539301D01*
X92047253Y-123539794D01*
X92007082Y-123515400D01*
X91287191Y-122795509D01*
X90566212Y-122074530D01*
X90486288Y-122028386D01*
X90397144Y-122004500D01*
X90397142Y-122004500D01*
X90343180Y-122004500D01*
X90303654Y-121996267D01*
X90035447Y-121879473D01*
X90035446Y-121879472D01*
X90035440Y-121879470D01*
X90033172Y-121878867D01*
X90009086Y-121868921D01*
X89977520Y-121850696D01*
X89962487Y-121842017D01*
X89962486Y-121842016D01*
X89962485Y-121842016D01*
X89822475Y-121804500D01*
X89677525Y-121804500D01*
X89615790Y-121821041D01*
X89537510Y-121842017D01*
X89411989Y-121914487D01*
X89309487Y-122016989D01*
X89237017Y-122142510D01*
X89199500Y-122282525D01*
X89199500Y-122427474D01*
X89237017Y-122567489D01*
X89309487Y-122693010D01*
X89309489Y-122693012D01*
X89309491Y-122693015D01*
X89411985Y-122795509D01*
X89411987Y-122795510D01*
X89411989Y-122795512D01*
X89540597Y-122869764D01*
X89581538Y-122915233D01*
X89587934Y-122976083D01*
X89557341Y-123029071D01*
X89501445Y-123053958D01*
X89491097Y-123054500D01*
X88658903Y-123054500D01*
X88600712Y-123035593D01*
X88564748Y-122986093D01*
X88564748Y-122924907D01*
X88600712Y-122875407D01*
X88609403Y-122869764D01*
X88738010Y-122795512D01*
X88738010Y-122795511D01*
X88738015Y-122795509D01*
X88840509Y-122693015D01*
X88912984Y-122567485D01*
X88950500Y-122427475D01*
X88950500Y-122282525D01*
X88912984Y-122142515D01*
X88912982Y-122142512D01*
X88912982Y-122142510D01*
X88840512Y-122016989D01*
X88840510Y-122016987D01*
X88840509Y-122016985D01*
X88738015Y-121914491D01*
X88738012Y-121914489D01*
X88738010Y-121914487D01*
X88612488Y-121842017D01*
X88612489Y-121842017D01*
X88575952Y-121832227D01*
X88472475Y-121804500D01*
X88327525Y-121804500D01*
X88265790Y-121821041D01*
X88187510Y-121842017D01*
X88061989Y-121914487D01*
X87959487Y-122016989D01*
X87887017Y-122142510D01*
X87849500Y-122282525D01*
X87849500Y-122427474D01*
X87887017Y-122567489D01*
X87959487Y-122693010D01*
X87959489Y-122693012D01*
X87959491Y-122693015D01*
X88061985Y-122795509D01*
X88061987Y-122795510D01*
X88061989Y-122795512D01*
X88190597Y-122869764D01*
X88231538Y-122915233D01*
X88237934Y-122976083D01*
X88207341Y-123029071D01*
X88151445Y-123053958D01*
X88141097Y-123054500D01*
X87955930Y-123054500D01*
X87893093Y-123066999D01*
X87830256Y-123079499D01*
X87830255Y-123079499D01*
X87830252Y-123079500D01*
X87711874Y-123128534D01*
X87711866Y-123128538D01*
X87605331Y-123199724D01*
X87605327Y-123199727D01*
X87514727Y-123290327D01*
X87514724Y-123290331D01*
X87443538Y-123396866D01*
X87443534Y-123396874D01*
X87394500Y-123515252D01*
X87394499Y-123515255D01*
X87394499Y-123515256D01*
X87391558Y-123530043D01*
X87369500Y-123640930D01*
X87369500Y-123769069D01*
X87394499Y-123894742D01*
X87394500Y-123894747D01*
X87443534Y-124013125D01*
X87443538Y-124013133D01*
X87486365Y-124077226D01*
X87514724Y-124119669D01*
X87605331Y-124210276D01*
X87662708Y-124248614D01*
X87711866Y-124281461D01*
X87711870Y-124281463D01*
X87711873Y-124281465D01*
X87830256Y-124330501D01*
X87955931Y-124355500D01*
X87955932Y-124355500D01*
X89584068Y-124355500D01*
X89584069Y-124355500D01*
X89709744Y-124330501D01*
X89828127Y-124281465D01*
X89934669Y-124210276D01*
X90025276Y-124119669D01*
X90096465Y-124013127D01*
X90145501Y-123894744D01*
X90170500Y-123769069D01*
X90170500Y-123640931D01*
X90145501Y-123515256D01*
X90096465Y-123396873D01*
X90096463Y-123396870D01*
X90096461Y-123396866D01*
X90060980Y-123343766D01*
X90025276Y-123290331D01*
X89934669Y-123199724D01*
X89892226Y-123171365D01*
X89828133Y-123128538D01*
X89828125Y-123128534D01*
X89749494Y-123095964D01*
X89702969Y-123056227D01*
X89688685Y-122996732D01*
X89712100Y-122940205D01*
X89764269Y-122908235D01*
X89787380Y-122905500D01*
X89822474Y-122905500D01*
X89822475Y-122905500D01*
X89962485Y-122867984D01*
X90009103Y-122841067D01*
X90019847Y-122835706D01*
X90028432Y-122832053D01*
X90035440Y-122830529D01*
X90179830Y-122767652D01*
X90180167Y-122767509D01*
X90210258Y-122764852D01*
X90240293Y-122761944D01*
X90240697Y-122762165D01*
X90241115Y-122762129D01*
X90246264Y-122765217D01*
X90288923Y-122788605D01*
X91702788Y-124202470D01*
X91782712Y-124248614D01*
X91871856Y-124272500D01*
X91871857Y-124272500D01*
X91964144Y-124272500D01*
X92057729Y-124272500D01*
X92115920Y-124291407D01*
X92138288Y-124313957D01*
X92150105Y-124330501D01*
X92281502Y-124514458D01*
X92299939Y-124572799D01*
X92281501Y-124629543D01*
X92138286Y-124830043D01*
X92089078Y-124866405D01*
X92057727Y-124871500D01*
X88086856Y-124871500D01*
X87997712Y-124895386D01*
X87917785Y-124941532D01*
X87070664Y-125788651D01*
X87017348Y-125816231D01*
X86166359Y-125961751D01*
X86163164Y-125962323D01*
X86162877Y-125962377D01*
X86148765Y-125968121D01*
X86130761Y-125973521D01*
X86048587Y-125989867D01*
X86048581Y-125989869D01*
X85857402Y-126069058D01*
X85685348Y-126184020D01*
X85539020Y-126330348D01*
X85424058Y-126502402D01*
X85344869Y-126693581D01*
X85304500Y-126896532D01*
X85304500Y-127103467D01*
X85344869Y-127306418D01*
X85424058Y-127497597D01*
X85539020Y-127669651D01*
X85539023Y-127669655D01*
X85685345Y-127815977D01*
X85857402Y-127930941D01*
X86048580Y-128010130D01*
X86251535Y-128050500D01*
X86251536Y-128050500D01*
X86458464Y-128050500D01*
X86458465Y-128050500D01*
X86661420Y-128010130D01*
X86852598Y-127930941D01*
X87024655Y-127815977D01*
X87170977Y-127669655D01*
X87285941Y-127497598D01*
X87365130Y-127306420D01*
X87381853Y-127222345D01*
X87386496Y-127206260D01*
X87393250Y-127188628D01*
X87538766Y-126337650D01*
X87566347Y-126284334D01*
X88249187Y-125601496D01*
X88303703Y-125573719D01*
X88319190Y-125572500D01*
X92057729Y-125572500D01*
X92115920Y-125591407D01*
X92138289Y-125613958D01*
X92285470Y-125820013D01*
X92303907Y-125878354D01*
X92287226Y-125932555D01*
X92279604Y-125943961D01*
X92279603Y-125943963D01*
X92268000Y-126002299D01*
X92268000Y-126421999D01*
X92268001Y-126422000D01*
X93119000Y-126422000D01*
X93133912Y-126426845D01*
X93149593Y-126426845D01*
X93162278Y-126436061D01*
X93177191Y-126440907D01*
X93186407Y-126453592D01*
X93199093Y-126462809D01*
X93203938Y-126477721D01*
X93213155Y-126490407D01*
X93218000Y-126521000D01*
X93218000Y-126522000D01*
X93219000Y-126522000D01*
X93277191Y-126540907D01*
X93313155Y-126590407D01*
X93318000Y-126621000D01*
X93318000Y-127221999D01*
X93318001Y-127222000D01*
X93987697Y-127222000D01*
X93987700Y-127221999D01*
X94046036Y-127210396D01*
X94110498Y-127167323D01*
X94169386Y-127150714D01*
X94226789Y-127171891D01*
X94260783Y-127222764D01*
X94264500Y-127249638D01*
X94264500Y-127439500D01*
X94245593Y-127497691D01*
X94196093Y-127533655D01*
X94165500Y-127538500D01*
X91753190Y-127538500D01*
X91694999Y-127519593D01*
X91683186Y-127509504D01*
X91324396Y-127150714D01*
X90893212Y-126719530D01*
X90813288Y-126673386D01*
X90724144Y-126649500D01*
X90724142Y-126649500D01*
X90257604Y-126649500D01*
X90200401Y-126631301D01*
X90187264Y-126622001D01*
X92268000Y-126622001D01*
X92268000Y-127041700D01*
X92279603Y-127100036D01*
X92323806Y-127166189D01*
X92323810Y-127166193D01*
X92389963Y-127210396D01*
X92448299Y-127221999D01*
X92448303Y-127222000D01*
X93117999Y-127222000D01*
X93118000Y-127221999D01*
X93118000Y-126622000D01*
X92268001Y-126622000D01*
X92268000Y-126622001D01*
X90187264Y-126622001D01*
X90185850Y-126621000D01*
X90018326Y-126502402D01*
X89495730Y-126132433D01*
X89494027Y-126131241D01*
X89493842Y-126131112D01*
X89479422Y-126124988D01*
X89463125Y-126116183D01*
X89392597Y-126069058D01*
X89201418Y-125989869D01*
X88998467Y-125949500D01*
X88998465Y-125949500D01*
X88791535Y-125949500D01*
X88791532Y-125949500D01*
X88588581Y-125989869D01*
X88397402Y-126069058D01*
X88225348Y-126184020D01*
X88079020Y-126330348D01*
X87964058Y-126502402D01*
X87884869Y-126693581D01*
X87844500Y-126896532D01*
X87844500Y-127103467D01*
X87884869Y-127306418D01*
X87964058Y-127497597D01*
X88079020Y-127669651D01*
X88079023Y-127669655D01*
X88225345Y-127815977D01*
X88397402Y-127930941D01*
X88588580Y-128010130D01*
X88791535Y-128050500D01*
X88791536Y-128050500D01*
X88998464Y-128050500D01*
X88998465Y-128050500D01*
X89201420Y-128010130D01*
X89392598Y-127930941D01*
X89392603Y-127930937D01*
X89392606Y-127930936D01*
X89408132Y-127920561D01*
X89463861Y-127883324D01*
X89478501Y-127875242D01*
X89495775Y-127867534D01*
X90200401Y-127368698D01*
X90257604Y-127350500D01*
X90491810Y-127350500D01*
X90550001Y-127369407D01*
X90561814Y-127379496D01*
X91282816Y-128100498D01*
X91310592Y-128155013D01*
X91301021Y-128215445D01*
X91257756Y-128258710D01*
X91212811Y-128269500D01*
X84460556Y-128269500D01*
X84449471Y-128268877D01*
X84333007Y-128255754D01*
X84318467Y-128253003D01*
X84294983Y-128246710D01*
X84287910Y-128244528D01*
X84190712Y-128210517D01*
X84173907Y-128202808D01*
X84171271Y-128201286D01*
X84168103Y-128199377D01*
X84068842Y-128137007D01*
X84051509Y-128123185D01*
X83966814Y-128038490D01*
X83952993Y-128021158D01*
X83890622Y-127921896D01*
X83888712Y-127918727D01*
X83887190Y-127916091D01*
X83879481Y-127899286D01*
X83868369Y-127867531D01*
X83845468Y-127802084D01*
X83843287Y-127795013D01*
X83836996Y-127771535D01*
X83834245Y-127756996D01*
X83834244Y-127756991D01*
X83821122Y-127640520D01*
X83820500Y-127629436D01*
X83820500Y-123640930D01*
X84339500Y-123640930D01*
X84339500Y-123769069D01*
X84364499Y-123894742D01*
X84364500Y-123894747D01*
X84413534Y-124013125D01*
X84413538Y-124013133D01*
X84456365Y-124077226D01*
X84484724Y-124119669D01*
X84575331Y-124210276D01*
X84632708Y-124248614D01*
X84681866Y-124281461D01*
X84681870Y-124281463D01*
X84681873Y-124281465D01*
X84800256Y-124330501D01*
X84925931Y-124355500D01*
X84925932Y-124355500D01*
X85854068Y-124355500D01*
X85854069Y-124355500D01*
X85979744Y-124330501D01*
X86098127Y-124281465D01*
X86204669Y-124210276D01*
X86295276Y-124119669D01*
X86366465Y-124013127D01*
X86415501Y-123894744D01*
X86440500Y-123769069D01*
X86440500Y-123640931D01*
X86415501Y-123515256D01*
X86366465Y-123396873D01*
X86366463Y-123396870D01*
X86366461Y-123396866D01*
X86330980Y-123343766D01*
X86295276Y-123290331D01*
X86204669Y-123199724D01*
X86162226Y-123171365D01*
X86098133Y-123128538D01*
X86098125Y-123128534D01*
X85979747Y-123079500D01*
X85979745Y-123079499D01*
X85979744Y-123079499D01*
X85854069Y-123054500D01*
X84925931Y-123054500D01*
X84925930Y-123054500D01*
X84863093Y-123066999D01*
X84800256Y-123079499D01*
X84800255Y-123079499D01*
X84800252Y-123079500D01*
X84681874Y-123128534D01*
X84681866Y-123128538D01*
X84575331Y-123199724D01*
X84575327Y-123199727D01*
X84484727Y-123290327D01*
X84484724Y-123290331D01*
X84413538Y-123396866D01*
X84413534Y-123396874D01*
X84364500Y-123515252D01*
X84364499Y-123515255D01*
X84364499Y-123515256D01*
X84361558Y-123530043D01*
X84339500Y-123640930D01*
X83820500Y-123640930D01*
X83820500Y-118032525D01*
X87849500Y-118032525D01*
X87849500Y-118177474D01*
X87887017Y-118317489D01*
X87959487Y-118443010D01*
X87959492Y-118443016D01*
X87976473Y-118459998D01*
X88004250Y-118514515D01*
X87994677Y-118574947D01*
X87976473Y-118600002D01*
X87959492Y-118616983D01*
X87959487Y-118616989D01*
X87887017Y-118742510D01*
X87849500Y-118882525D01*
X87849500Y-119027474D01*
X87887017Y-119167489D01*
X87959487Y-119293010D01*
X87959492Y-119293016D01*
X87976473Y-119309998D01*
X88004250Y-119364515D01*
X87994677Y-119424947D01*
X87976473Y-119450002D01*
X87959492Y-119466983D01*
X87959487Y-119466989D01*
X87887017Y-119592510D01*
X87887016Y-119592515D01*
X87849500Y-119732525D01*
X87849500Y-119877475D01*
X87858067Y-119909448D01*
X87887017Y-120017489D01*
X87959487Y-120143010D01*
X87959492Y-120143016D01*
X87976473Y-120159998D01*
X88004250Y-120214515D01*
X87994677Y-120274947D01*
X87976473Y-120300002D01*
X87959492Y-120316983D01*
X87959487Y-120316989D01*
X87887017Y-120442510D01*
X87849500Y-120582525D01*
X87849500Y-120727474D01*
X87887017Y-120867489D01*
X87959487Y-120993010D01*
X87959489Y-120993012D01*
X87959491Y-120993015D01*
X88061985Y-121095509D01*
X88061987Y-121095510D01*
X88061989Y-121095512D01*
X88187511Y-121167982D01*
X88187512Y-121167982D01*
X88187515Y-121167984D01*
X88327525Y-121205500D01*
X88327526Y-121205500D01*
X88472474Y-121205500D01*
X88472475Y-121205500D01*
X88612485Y-121167984D01*
X88612487Y-121167982D01*
X88612489Y-121167982D01*
X88738010Y-121095512D01*
X88738010Y-121095511D01*
X88738015Y-121095509D01*
X88840509Y-120993015D01*
X88912984Y-120867485D01*
X88950500Y-120727475D01*
X88950500Y-120582525D01*
X88912984Y-120442515D01*
X88912982Y-120442512D01*
X88912982Y-120442510D01*
X88840512Y-120316989D01*
X88840510Y-120316987D01*
X88840509Y-120316985D01*
X88823525Y-120300001D01*
X88795750Y-120245487D01*
X88805321Y-120185055D01*
X88814090Y-120170922D01*
X88818406Y-120165117D01*
X88840509Y-120143015D01*
X88860172Y-120108954D01*
X88863593Y-120104356D01*
X88864562Y-120103667D01*
X88867829Y-120099051D01*
X88876366Y-120089081D01*
X89015055Y-119842115D01*
X89060030Y-119800638D01*
X89120800Y-119793518D01*
X89174149Y-119823477D01*
X89196649Y-119871521D01*
X89197821Y-119871208D01*
X89199500Y-119877474D01*
X89199500Y-119877475D01*
X89208067Y-119909448D01*
X89237017Y-120017489D01*
X89309487Y-120143010D01*
X89309492Y-120143016D01*
X89326473Y-120159998D01*
X89354250Y-120214515D01*
X89344677Y-120274947D01*
X89326473Y-120300002D01*
X89309492Y-120316983D01*
X89309487Y-120316989D01*
X89237017Y-120442510D01*
X89199500Y-120582525D01*
X89199500Y-120727474D01*
X89237017Y-120867489D01*
X89309487Y-120993010D01*
X89309489Y-120993012D01*
X89309491Y-120993015D01*
X89411985Y-121095509D01*
X89411987Y-121095510D01*
X89411989Y-121095512D01*
X89537511Y-121167982D01*
X89537512Y-121167982D01*
X89537515Y-121167984D01*
X89677525Y-121205500D01*
X89677526Y-121205500D01*
X89822474Y-121205500D01*
X89822475Y-121205500D01*
X89962485Y-121167984D01*
X89962487Y-121167982D01*
X89962489Y-121167982D01*
X90088010Y-121095512D01*
X90088010Y-121095511D01*
X90088015Y-121095509D01*
X90190509Y-120993015D01*
X90262984Y-120867485D01*
X90300500Y-120727475D01*
X90300500Y-120582525D01*
X90262984Y-120442515D01*
X90262982Y-120442512D01*
X90262982Y-120442510D01*
X90197965Y-120329898D01*
X90193580Y-120309273D01*
X90185162Y-120289939D01*
X90187358Y-120280004D01*
X90185243Y-120270050D01*
X90193820Y-120250784D01*
X90198373Y-120230197D01*
X90205989Y-120223451D01*
X90210129Y-120214154D01*
X90244171Y-120189634D01*
X90303655Y-120163731D01*
X90343176Y-120155500D01*
X91882010Y-120155500D01*
X91940201Y-120174407D01*
X91952014Y-120184496D01*
X92951988Y-121184470D01*
X93031912Y-121230614D01*
X93121056Y-121254500D01*
X93121057Y-121254500D01*
X93213344Y-121254500D01*
X94816611Y-121254500D01*
X94874802Y-121273407D01*
X94901235Y-121302121D01*
X95232611Y-121847920D01*
X95232620Y-121847933D01*
X95246581Y-121868101D01*
X95246599Y-121868126D01*
X95248313Y-121870310D01*
X95260753Y-121885171D01*
X95260569Y-121885324D01*
X95269927Y-121896277D01*
X95271446Y-121898551D01*
X95271448Y-121898552D01*
X95337769Y-121942867D01*
X95382231Y-121951711D01*
X95396241Y-121954498D01*
X95396246Y-121954498D01*
X95396252Y-121954500D01*
X95396253Y-121954500D01*
X97135747Y-121954500D01*
X97135748Y-121954500D01*
X97194231Y-121942867D01*
X97260552Y-121898552D01*
X97304867Y-121832231D01*
X97316500Y-121773748D01*
X97316500Y-120034252D01*
X97304867Y-119975769D01*
X97260552Y-119909448D01*
X97212702Y-119877475D01*
X97194233Y-119865134D01*
X97194231Y-119865133D01*
X97194228Y-119865132D01*
X97194227Y-119865132D01*
X97135758Y-119853501D01*
X97135748Y-119853500D01*
X95396252Y-119853500D01*
X95396251Y-119853500D01*
X95396241Y-119853501D01*
X95337772Y-119865132D01*
X95337766Y-119865134D01*
X95271451Y-119909445D01*
X95271447Y-119909449D01*
X95255276Y-119933649D01*
X95245936Y-119945546D01*
X95232612Y-119960077D01*
X95232612Y-119960078D01*
X95145433Y-120103667D01*
X95020602Y-120309273D01*
X94901234Y-120505879D01*
X94854873Y-120545807D01*
X94816610Y-120553500D01*
X93353390Y-120553500D01*
X93295199Y-120534593D01*
X93283386Y-120524504D01*
X92793123Y-120034241D01*
X92283412Y-119524530D01*
X92224011Y-119490235D01*
X92183072Y-119444767D01*
X92176676Y-119383917D01*
X92207269Y-119330929D01*
X92263165Y-119306042D01*
X92273513Y-119305500D01*
X92368342Y-119305500D01*
X92368344Y-119305500D01*
X92457488Y-119281614D01*
X92468182Y-119275439D01*
X92468184Y-119275439D01*
X92486733Y-119264729D01*
X92537412Y-119235470D01*
X93029386Y-118743496D01*
X93083903Y-118715719D01*
X93099390Y-118714500D01*
X94903396Y-118714500D01*
X94960598Y-118732698D01*
X95665224Y-119231534D01*
X95667026Y-119232795D01*
X95667276Y-119232968D01*
X95681649Y-119239066D01*
X95697975Y-119247883D01*
X95768402Y-119294941D01*
X95959580Y-119374130D01*
X96162535Y-119414500D01*
X96162536Y-119414500D01*
X96369464Y-119414500D01*
X96369465Y-119414500D01*
X96572420Y-119374130D01*
X96763598Y-119294941D01*
X96935655Y-119179977D01*
X97081977Y-119033655D01*
X97196941Y-118861598D01*
X97276130Y-118670420D01*
X97316500Y-118467465D01*
X97316500Y-118260535D01*
X97276130Y-118057580D01*
X97196941Y-117866402D01*
X97081977Y-117694345D01*
X96935655Y-117548023D01*
X96858491Y-117496464D01*
X96763597Y-117433058D01*
X96572418Y-117353869D01*
X96369467Y-117313500D01*
X96369465Y-117313500D01*
X96162535Y-117313500D01*
X96162532Y-117313500D01*
X95959581Y-117353869D01*
X95768403Y-117433058D01*
X95697143Y-117480671D01*
X95682487Y-117488761D01*
X95665231Y-117496461D01*
X95665222Y-117496466D01*
X94960597Y-117995301D01*
X94903394Y-118013500D01*
X92867056Y-118013500D01*
X92796054Y-118032525D01*
X92796053Y-118032524D01*
X92777913Y-118037385D01*
X92697988Y-118083530D01*
X92206014Y-118575504D01*
X92151497Y-118603281D01*
X92136010Y-118604500D01*
X90343180Y-118604500D01*
X90303654Y-118596267D01*
X90244176Y-118570366D01*
X90198373Y-118529798D01*
X90185163Y-118470056D01*
X90197965Y-118430100D01*
X90262984Y-118317485D01*
X90300500Y-118177475D01*
X90300500Y-118032525D01*
X90262984Y-117892515D01*
X90262982Y-117892512D01*
X90262982Y-117892510D01*
X90190512Y-117766989D01*
X90190510Y-117766987D01*
X90190509Y-117766985D01*
X90088015Y-117664491D01*
X90088012Y-117664489D01*
X90088010Y-117664487D01*
X89962488Y-117592017D01*
X89962489Y-117592017D01*
X89932896Y-117584087D01*
X89822475Y-117554500D01*
X89677525Y-117554500D01*
X89615790Y-117571041D01*
X89537510Y-117592017D01*
X89411989Y-117664487D01*
X89309487Y-117766989D01*
X89237017Y-117892510D01*
X89199500Y-118032525D01*
X89199500Y-118177474D01*
X89237017Y-118317489D01*
X89309487Y-118443010D01*
X89309492Y-118443016D01*
X89326473Y-118459998D01*
X89332412Y-118471655D01*
X89342146Y-118480399D01*
X89345962Y-118498248D01*
X89354250Y-118514515D01*
X89352202Y-118527438D01*
X89354938Y-118540232D01*
X89347802Y-118555214D01*
X89344677Y-118574947D01*
X89330118Y-118596157D01*
X89328343Y-118598132D01*
X89309491Y-118616985D01*
X89306039Y-118622962D01*
X89299126Y-118630659D01*
X89298734Y-118630885D01*
X89297958Y-118631936D01*
X89097883Y-118846989D01*
X89044404Y-118876714D01*
X88983666Y-118869328D01*
X88938869Y-118827651D01*
X88929776Y-118805183D01*
X88912984Y-118742515D01*
X88912982Y-118742512D01*
X88912982Y-118742510D01*
X88840512Y-118616989D01*
X88840510Y-118616987D01*
X88840509Y-118616985D01*
X88823525Y-118600001D01*
X88795750Y-118545487D01*
X88805321Y-118485055D01*
X88823526Y-118459998D01*
X88840509Y-118443015D01*
X88912984Y-118317485D01*
X88950500Y-118177475D01*
X88950500Y-118032525D01*
X88912984Y-117892515D01*
X88912982Y-117892512D01*
X88912982Y-117892510D01*
X88840512Y-117766989D01*
X88840510Y-117766987D01*
X88840509Y-117766985D01*
X88738015Y-117664491D01*
X88738012Y-117664489D01*
X88738010Y-117664487D01*
X88612488Y-117592017D01*
X88612489Y-117592017D01*
X88582896Y-117584087D01*
X88472475Y-117554500D01*
X88327525Y-117554500D01*
X88265790Y-117571041D01*
X88187510Y-117592017D01*
X88061989Y-117664487D01*
X87959487Y-117766989D01*
X87887017Y-117892510D01*
X87849500Y-118032525D01*
X83820500Y-118032525D01*
X83820500Y-114990931D01*
X84339500Y-114990931D01*
X84339500Y-115119069D01*
X84359568Y-115219957D01*
X84364499Y-115244742D01*
X84364500Y-115244747D01*
X84413534Y-115363125D01*
X84413538Y-115363133D01*
X84439777Y-115402401D01*
X84484724Y-115469669D01*
X84575331Y-115560276D01*
X84638848Y-115602717D01*
X84681866Y-115631461D01*
X84681870Y-115631463D01*
X84681873Y-115631465D01*
X84800256Y-115680501D01*
X84925931Y-115705500D01*
X84925932Y-115705500D01*
X85854068Y-115705500D01*
X85854069Y-115705500D01*
X85979744Y-115680501D01*
X86098127Y-115631465D01*
X86204669Y-115560276D01*
X86295276Y-115469669D01*
X86366465Y-115363127D01*
X86415501Y-115244744D01*
X86440500Y-115119069D01*
X86440500Y-114990931D01*
X86415501Y-114865256D01*
X86366465Y-114746873D01*
X86366463Y-114746870D01*
X86366461Y-114746866D01*
X86337717Y-114703848D01*
X86295276Y-114640331D01*
X86204669Y-114549724D01*
X86162226Y-114521365D01*
X86098133Y-114478538D01*
X86098125Y-114478534D01*
X85979747Y-114429500D01*
X85979745Y-114429499D01*
X85979744Y-114429499D01*
X85854069Y-114404500D01*
X84925931Y-114404500D01*
X84925930Y-114404500D01*
X84863093Y-114416999D01*
X84800256Y-114429499D01*
X84800255Y-114429499D01*
X84800252Y-114429500D01*
X84681874Y-114478534D01*
X84681866Y-114478538D01*
X84575331Y-114549724D01*
X84575327Y-114549727D01*
X84484727Y-114640327D01*
X84484724Y-114640331D01*
X84413538Y-114746866D01*
X84413534Y-114746874D01*
X84364500Y-114865252D01*
X84364499Y-114865255D01*
X84364499Y-114865256D01*
X84339500Y-114990931D01*
X83820500Y-114990931D01*
X83820500Y-111130563D01*
X83821122Y-111119479D01*
X83824404Y-111090348D01*
X83834246Y-111002993D01*
X83836994Y-110988472D01*
X83843292Y-110964965D01*
X83845463Y-110957930D01*
X83879485Y-110860702D01*
X83887181Y-110843923D01*
X83888756Y-110841195D01*
X83890588Y-110838157D01*
X83952995Y-110738836D01*
X83966808Y-110721515D01*
X84051515Y-110636808D01*
X84068836Y-110622995D01*
X84168157Y-110560588D01*
X84171195Y-110558756D01*
X84173923Y-110557181D01*
X84190702Y-110549485D01*
X84287930Y-110515463D01*
X84294965Y-110513292D01*
X84318472Y-110506994D01*
X84332993Y-110504246D01*
X84449479Y-110491121D01*
X84460563Y-110490500D01*
X91212811Y-110490500D01*
X91271002Y-110509407D01*
G37*
G04 #@! TD.AperFunction*
G04 #@! TA.AperFunction,NonConductor*
G36*
X94337501Y-113578383D02*
G01*
X94597587Y-113838469D01*
X94625551Y-113854614D01*
X94677512Y-113884614D01*
X94766656Y-113908500D01*
X94851729Y-113908500D01*
X94909920Y-113927407D01*
X94932289Y-113949958D01*
X95074468Y-114149010D01*
X95092905Y-114207351D01*
X95073528Y-114265387D01*
X95071922Y-114267501D01*
X94937588Y-114439449D01*
X94886864Y-114473664D01*
X94859574Y-114477500D01*
X94378273Y-114477500D01*
X94320082Y-114458593D01*
X94297714Y-114436043D01*
X94150841Y-114230422D01*
X94132403Y-114172080D01*
X94149084Y-114117878D01*
X94156867Y-114106231D01*
X94168500Y-114047748D01*
X94168500Y-113648389D01*
X94187407Y-113590198D01*
X94236907Y-113554234D01*
X94298093Y-113554234D01*
X94337501Y-113578383D01*
G37*
G04 #@! TD.AperFunction*
G04 #@! TA.AperFunction,NonConductor*
G36*
X94909920Y-124291407D02*
G01*
X94932288Y-124313957D01*
X94944105Y-124330501D01*
X95075502Y-124514458D01*
X95093939Y-124572799D01*
X95075501Y-124629543D01*
X94932286Y-124830043D01*
X94883078Y-124866405D01*
X94851727Y-124871500D01*
X94746656Y-124871500D01*
X94657512Y-124895386D01*
X94577588Y-124941530D01*
X94337501Y-125181616D01*
X94282987Y-125209392D01*
X94222555Y-125199821D01*
X94179290Y-125156556D01*
X94168500Y-125111611D01*
X94168500Y-124702253D01*
X94168498Y-124702241D01*
X94165711Y-124688231D01*
X94156867Y-124643769D01*
X94149084Y-124632121D01*
X94132476Y-124573236D01*
X94150841Y-124519578D01*
X94297714Y-124313957D01*
X94346922Y-124277595D01*
X94378273Y-124272500D01*
X94851729Y-124272500D01*
X94909920Y-124291407D01*
G37*
G04 #@! TD.AperFunction*
G04 #@! TA.AperFunction,Conductor*
G36*
X95271423Y-113064273D02*
G01*
X95787700Y-113408000D01*
X95998372Y-113548261D01*
X96003359Y-113555698D01*
X96001627Y-113564484D01*
X95998372Y-113567739D01*
X95271424Y-114051725D01*
X95262638Y-114053457D01*
X95255419Y-114048786D01*
X95014179Y-113711050D01*
X95012000Y-113704250D01*
X95012000Y-113411749D01*
X95014179Y-113404949D01*
X95255419Y-113067213D01*
X95263017Y-113062472D01*
X95271423Y-113064273D01*
G37*
G04 #@! TD.AperFunction*
G04 #@! TA.AperFunction,Conductor*
G36*
X89381786Y-111060016D02*
G01*
X89382001Y-111060165D01*
X90153727Y-111606503D01*
X90158500Y-111614079D01*
X90158667Y-111616051D01*
X90158667Y-111903948D01*
X90155240Y-111912221D01*
X90153727Y-111913497D01*
X89382036Y-112459810D01*
X89373304Y-112461794D01*
X89365727Y-112457021D01*
X89365554Y-112456771D01*
X88903359Y-111766510D01*
X88901604Y-111757729D01*
X88903359Y-111753490D01*
X89365554Y-111063228D01*
X89373005Y-111058261D01*
X89381786Y-111060016D01*
G37*
G04 #@! TD.AperFunction*
G04 #@! TA.AperFunction,Conductor*
G36*
X95271423Y-124728273D02*
G01*
X95787700Y-125072000D01*
X95998372Y-125212261D01*
X96003359Y-125219698D01*
X96001627Y-125228484D01*
X95998372Y-125231739D01*
X95271424Y-125715725D01*
X95262638Y-125717457D01*
X95255419Y-125712786D01*
X95014179Y-125375050D01*
X95012000Y-125368250D01*
X95012000Y-125075749D01*
X95014179Y-125068949D01*
X95255419Y-124731213D01*
X95263017Y-124726472D01*
X95271423Y-124728273D01*
G37*
G04 #@! TD.AperFunction*
G04 #@! TA.AperFunction,Conductor*
G36*
X89376786Y-126300016D02*
G01*
X89377001Y-126300165D01*
X90148727Y-126846503D01*
X90153500Y-126854079D01*
X90153667Y-126856051D01*
X90153667Y-127143948D01*
X90150240Y-127152221D01*
X90148727Y-127153497D01*
X89377036Y-127699810D01*
X89368304Y-127701794D01*
X89360727Y-127697021D01*
X89360554Y-127696771D01*
X88898359Y-127006510D01*
X88896604Y-126997729D01*
X88898359Y-126993490D01*
X89360554Y-126303228D01*
X89368005Y-126298261D01*
X89376786Y-126300016D01*
G37*
G04 #@! TD.AperFunction*
G04 #@! TA.AperFunction,Conductor*
G36*
X95424342Y-120062803D02*
G01*
X95426538Y-120064526D01*
X96258712Y-120895722D01*
X96262144Y-120903993D01*
X96258722Y-120912268D01*
X96258712Y-120912278D01*
X95426538Y-121743473D01*
X95418263Y-121746895D01*
X95409992Y-121743463D01*
X95408269Y-121741267D01*
X94992699Y-121056798D01*
X94991000Y-121050726D01*
X94991000Y-120757273D01*
X94992699Y-120751201D01*
X95408270Y-120066730D01*
X95415492Y-120061439D01*
X95424342Y-120062803D01*
G37*
G04 #@! TD.AperFunction*
G04 #@! TA.AperFunction,Conductor*
G36*
X89953394Y-119517881D02*
G01*
X90261246Y-119651939D01*
X90267463Y-119658384D01*
X90268275Y-119662666D01*
X90268275Y-119947333D01*
X90264848Y-119955606D01*
X90261246Y-119958060D01*
X89953394Y-120092118D01*
X89944441Y-120092279D01*
X89939010Y-120087914D01*
X89921620Y-120062022D01*
X89753379Y-119811520D01*
X89751612Y-119802745D01*
X89753378Y-119798480D01*
X89939011Y-119522084D01*
X89946468Y-119517127D01*
X89953394Y-119517881D01*
G37*
G04 #@! TD.AperFunction*
G04 #@! TA.AperFunction,Conductor*
G36*
X89953394Y-118667881D02*
G01*
X90261246Y-118801939D01*
X90267463Y-118808384D01*
X90268275Y-118812666D01*
X90268275Y-119097333D01*
X90264848Y-119105606D01*
X90261246Y-119108060D01*
X89953394Y-119242118D01*
X89944441Y-119242279D01*
X89939010Y-119237914D01*
X89921620Y-119212022D01*
X89753379Y-118961520D01*
X89751612Y-118952745D01*
X89753378Y-118948480D01*
X89939011Y-118672084D01*
X89946468Y-118667127D01*
X89953394Y-118667881D01*
G37*
G04 #@! TD.AperFunction*
G04 #@! TA.AperFunction,Conductor*
G36*
X95800272Y-117666978D02*
G01*
X95800445Y-117667228D01*
X96262640Y-118357490D01*
X96264395Y-118366271D01*
X96262640Y-118370510D01*
X95800445Y-119060771D01*
X95792994Y-119065738D01*
X95784213Y-119063983D01*
X95783963Y-119063810D01*
X95779670Y-119060771D01*
X95012273Y-118517497D01*
X95007500Y-118509920D01*
X95007333Y-118507948D01*
X95007333Y-118220051D01*
X95010760Y-118211778D01*
X95012267Y-118210506D01*
X95783965Y-117664188D01*
X95792695Y-117662205D01*
X95800272Y-117666978D01*
G37*
G04 #@! TD.AperFunction*
G04 #@! TA.AperFunction,Conductor*
G36*
X89467257Y-118766043D02*
G01*
X89682281Y-118908849D01*
X89744163Y-118949947D01*
X89749159Y-118957378D01*
X89749162Y-118961994D01*
X89692383Y-119245101D01*
X89687396Y-119252538D01*
X89680911Y-119254500D01*
X89677522Y-119254500D01*
X89618229Y-119270387D01*
X89610858Y-119269950D01*
X89355922Y-119168047D01*
X89351992Y-119165456D01*
X89220250Y-119033714D01*
X89216823Y-119025441D01*
X89219955Y-119017474D01*
X89452222Y-118767819D01*
X89460364Y-118764098D01*
X89467257Y-118766043D01*
G37*
G04 #@! TD.AperFunction*
G04 #@! TA.AperFunction,Conductor*
G36*
X88762224Y-119471006D02*
G01*
X88770127Y-119474427D01*
X88902003Y-119606303D01*
X88905430Y-119614576D01*
X88903931Y-119620305D01*
X88697186Y-119988458D01*
X88690148Y-119993993D01*
X88681256Y-119992930D01*
X88680512Y-119992475D01*
X88405836Y-119810052D01*
X88400840Y-119802621D01*
X88400837Y-119798008D01*
X88457617Y-119514898D01*
X88462604Y-119507462D01*
X88469089Y-119505500D01*
X88472476Y-119505500D01*
X88472476Y-119505499D01*
X88612485Y-119467984D01*
X88612491Y-119467980D01*
X88613195Y-119467690D01*
X88613249Y-119467822D01*
X88618615Y-119466472D01*
X88762224Y-119471006D01*
G37*
G04 #@! TD.AperFunction*
G04 #@! TA.AperFunction,Conductor*
G36*
X95271027Y-114364010D02*
G01*
X95998036Y-114848037D01*
X96003023Y-114855474D01*
X96001291Y-114864260D01*
X95997832Y-114867648D01*
X95271452Y-115329704D01*
X95262632Y-115331253D01*
X95255582Y-115326534D01*
X95014110Y-114981019D01*
X95012000Y-114974317D01*
X95012000Y-114682028D01*
X95014480Y-114674825D01*
X95255323Y-114366546D01*
X95263117Y-114362136D01*
X95271027Y-114364010D01*
G37*
G04 #@! TD.AperFunction*
G04 #@! TA.AperFunction,Conductor*
G36*
X93974580Y-114337212D02*
G01*
X94215821Y-114674950D01*
X94218000Y-114681749D01*
X94218000Y-114974250D01*
X94215821Y-114981051D01*
X93974580Y-115318787D01*
X93966982Y-115323527D01*
X93958575Y-115321725D01*
X93923217Y-115298184D01*
X93231626Y-114837737D01*
X93226640Y-114830302D01*
X93228372Y-114821516D01*
X93231625Y-114818262D01*
X93958577Y-114334273D01*
X93967361Y-114332542D01*
X93974580Y-114337212D01*
G37*
G04 #@! TD.AperFunction*
G04 #@! TA.AperFunction,Conductor*
G36*
X89953394Y-122067881D02*
G01*
X90261246Y-122201939D01*
X90267463Y-122208384D01*
X90268275Y-122212666D01*
X90268275Y-122497333D01*
X90264848Y-122505606D01*
X90261246Y-122508060D01*
X89953394Y-122642118D01*
X89944441Y-122642279D01*
X89939010Y-122637914D01*
X89921620Y-122612022D01*
X89753379Y-122361520D01*
X89751612Y-122352745D01*
X89753378Y-122348480D01*
X89939011Y-122072084D01*
X89946468Y-122067127D01*
X89953394Y-122067881D01*
G37*
G04 #@! TD.AperFunction*
G04 #@! TA.AperFunction,Conductor*
G36*
X92477423Y-123428273D02*
G01*
X92993700Y-123772000D01*
X93204372Y-123912261D01*
X93209359Y-123919698D01*
X93207627Y-123928484D01*
X93204372Y-123931739D01*
X92477424Y-124415725D01*
X92468638Y-124417457D01*
X92461419Y-124412786D01*
X92220179Y-124075050D01*
X92218000Y-124068250D01*
X92218000Y-123775749D01*
X92220179Y-123768949D01*
X92461419Y-123431213D01*
X92469017Y-123426472D01*
X92477423Y-123428273D01*
G37*
G04 #@! TD.AperFunction*
G04 #@! TA.AperFunction,Conductor*
G36*
X95271423Y-123428273D02*
G01*
X95787700Y-123772000D01*
X95998372Y-123912261D01*
X96003359Y-123919698D01*
X96001627Y-123928484D01*
X95998372Y-123931739D01*
X95271424Y-124415725D01*
X95262638Y-124417457D01*
X95255419Y-124412786D01*
X95014179Y-124075050D01*
X95012000Y-124068250D01*
X95012000Y-123775749D01*
X95014179Y-123768949D01*
X95255419Y-123431213D01*
X95263017Y-123426472D01*
X95271423Y-123428273D01*
G37*
G04 #@! TD.AperFunction*
G04 #@! TA.AperFunction,Conductor*
G36*
X93974580Y-123431212D02*
G01*
X94215821Y-123768950D01*
X94218000Y-123775749D01*
X94218000Y-124068250D01*
X94215821Y-124075051D01*
X93974580Y-124412787D01*
X93966982Y-124417527D01*
X93958575Y-124415725D01*
X93923217Y-124392184D01*
X93231626Y-123931737D01*
X93226640Y-123924302D01*
X93228372Y-123915516D01*
X93231625Y-123912262D01*
X93958577Y-123428273D01*
X93967361Y-123426542D01*
X93974580Y-123431212D01*
G37*
G04 #@! TD.AperFunction*
G04 #@! TA.AperFunction,Conductor*
G36*
X92477423Y-114334273D02*
G01*
X92993700Y-114678000D01*
X93204372Y-114818261D01*
X93209359Y-114825698D01*
X93207627Y-114834484D01*
X93204372Y-114837739D01*
X92477424Y-115321725D01*
X92468638Y-115323457D01*
X92461419Y-115318786D01*
X92220179Y-114981050D01*
X92218000Y-114974250D01*
X92218000Y-114681749D01*
X92220179Y-114674949D01*
X92461419Y-114337213D01*
X92469017Y-114332472D01*
X92477423Y-114334273D01*
G37*
G04 #@! TD.AperFunction*
G04 #@! TA.AperFunction,Conductor*
G36*
X89953394Y-116117881D02*
G01*
X90261246Y-116251939D01*
X90267463Y-116258384D01*
X90268275Y-116262666D01*
X90268275Y-116547333D01*
X90264848Y-116555606D01*
X90261246Y-116558060D01*
X89953394Y-116692118D01*
X89944441Y-116692279D01*
X89939010Y-116687914D01*
X89921620Y-116662022D01*
X89753379Y-116411520D01*
X89751612Y-116402745D01*
X89753378Y-116398480D01*
X89939011Y-116122084D01*
X89946468Y-116117127D01*
X89953394Y-116117881D01*
G37*
G04 #@! TD.AperFunction*
G04 #@! TA.AperFunction,Conductor*
G36*
X92477423Y-113034273D02*
G01*
X92993700Y-113378000D01*
X93204372Y-113518261D01*
X93209359Y-113525698D01*
X93207627Y-113534484D01*
X93204372Y-113537739D01*
X92477424Y-114021725D01*
X92468638Y-114023457D01*
X92461419Y-114018786D01*
X92220179Y-113681050D01*
X92218000Y-113674250D01*
X92218000Y-113381749D01*
X92220179Y-113374949D01*
X92461419Y-113037213D01*
X92469017Y-113032472D01*
X92477423Y-113034273D01*
G37*
G04 #@! TD.AperFunction*
G04 #@! TA.AperFunction,Conductor*
G36*
X87190667Y-111598259D02*
G01*
X87195634Y-111605710D01*
X87195690Y-111606009D01*
X87355057Y-112537981D01*
X87353073Y-112546713D01*
X87351797Y-112548226D01*
X87148226Y-112751797D01*
X87139953Y-112755224D01*
X87137981Y-112755057D01*
X86206009Y-112595690D01*
X86198432Y-112590917D01*
X86196448Y-112582185D01*
X86196504Y-112581886D01*
X86203166Y-112548226D01*
X86357772Y-111766977D01*
X86362739Y-111759527D01*
X86366977Y-111757772D01*
X87181887Y-111596504D01*
X87190667Y-111598259D01*
G37*
G04 #@! TD.AperFunction*
G04 #@! TA.AperFunction,Conductor*
G36*
X87141713Y-126006926D02*
G01*
X87143226Y-126008202D01*
X87346797Y-126211773D01*
X87350224Y-126220046D01*
X87350057Y-126222018D01*
X87190690Y-127153990D01*
X87185917Y-127161567D01*
X87177185Y-127163551D01*
X87176886Y-127163495D01*
X86361978Y-127002227D01*
X86354527Y-126997260D01*
X86352772Y-126993021D01*
X86200193Y-126222018D01*
X86191504Y-126178112D01*
X86193259Y-126169332D01*
X86200710Y-126164365D01*
X86201009Y-126164309D01*
X87132981Y-126004942D01*
X87141713Y-126006926D01*
G37*
G04 #@! TD.AperFunction*
G04 #@! TA.AperFunction,Conductor*
G36*
X92477423Y-124728273D02*
G01*
X92993700Y-125072000D01*
X93204372Y-125212261D01*
X93209359Y-125219698D01*
X93207627Y-125228484D01*
X93204372Y-125231739D01*
X92477424Y-125715725D01*
X92468638Y-125717457D01*
X92461419Y-125712786D01*
X92220179Y-125375050D01*
X92218000Y-125368250D01*
X92218000Y-125075749D01*
X92220179Y-125068949D01*
X92461419Y-124731213D01*
X92469017Y-124726472D01*
X92477423Y-124728273D01*
G37*
G04 #@! TD.AperFunction*
M02*
