G04 #@! TF.GenerationSoftware,KiCad,Pcbnew,9.0.1*
G04 #@! TF.CreationDate,2025-05-27T23:21:40+02:00*
G04 #@! TF.ProjectId,USBC2,55534243-322e-46b6-9963-61645f706362,rev?*
G04 #@! TF.SameCoordinates,Original*
G04 #@! TF.FileFunction,Soldermask,Top*
G04 #@! TF.FilePolarity,Negative*
%FSLAX46Y46*%
G04 Gerber Fmt 4.6, Leading zero omitted, Abs format (unit mm)*
G04 Created by KiCad (PCBNEW 9.0.1) date 2025-05-27 23:21:40*
%MOMM*%
%LPD*%
G01*
G04 APERTURE LIST*
%ADD10C,0.700000*%
%ADD11O,2.400000X0.900000*%
%ADD12O,1.700000X0.900000*%
%ADD13R,1.500000X1.000000*%
%ADD14C,1.700000*%
%ADD15R,1.700000X1.700000*%
G04 APERTURE END LIST*
G36*
X96762000Y-124422000D02*
G01*
X95262000Y-124422000D01*
X95262000Y-126022000D01*
X96762000Y-126022000D01*
X96762000Y-124422000D01*
G37*
G36*
X93968000Y-124422000D02*
G01*
X92468000Y-124422000D01*
X92468000Y-126022000D01*
X93968000Y-126022000D01*
X93968000Y-124422000D01*
G37*
G36*
X95262000Y-114358000D02*
G01*
X96762000Y-114358000D01*
X96762000Y-112758000D01*
X95262000Y-112758000D01*
X95262000Y-114358000D01*
G37*
G36*
X92468000Y-114328000D02*
G01*
X93968000Y-114328000D01*
X93968000Y-112728000D01*
X92468000Y-112728000D01*
X92468000Y-114328000D01*
G37*
D10*
X89750000Y-116405000D03*
X89750000Y-117255000D03*
X89750000Y-118105000D03*
X89750000Y-118955000D03*
X89750000Y-119805000D03*
X89750000Y-120655000D03*
X89750000Y-121505000D03*
X89750000Y-122355000D03*
X88400000Y-122355000D03*
X88400000Y-121505000D03*
X88400000Y-120655000D03*
X88400000Y-119805000D03*
X88400000Y-118955000D03*
X88400000Y-118105000D03*
X88400000Y-117255000D03*
X88400000Y-116405000D03*
D11*
X88770000Y-115055000D03*
D12*
X85390000Y-115055000D03*
D11*
X88770000Y-123705000D03*
D12*
X85390000Y-123705000D03*
D13*
X96012000Y-123922000D03*
X96012000Y-125222000D03*
X96012000Y-126522000D03*
X93218000Y-123922000D03*
X93218000Y-125222000D03*
X93218000Y-126522000D03*
X96012000Y-114858000D03*
X96012000Y-113558000D03*
X96012000Y-112258000D03*
X93218000Y-114828000D03*
X93218000Y-113528000D03*
X93218000Y-112228000D03*
D14*
X86355000Y-127000000D03*
X88895000Y-127000000D03*
X86360000Y-111760000D03*
X88900000Y-111760000D03*
D15*
X96266000Y-120904000D03*
D14*
X96266000Y-118364000D03*
M02*
