G04 #@! TF.GenerationSoftware,KiCad,Pcbnew,9.0.1*
G04 #@! TF.CreationDate,2025-05-27T23:21:40+02:00*
G04 #@! TF.ProjectId,USBC2,55534243-322e-46b6-9963-61645f706362,rev?*
G04 #@! TF.SameCoordinates,Original*
G04 #@! TF.FileFunction,Copper,L2,Bot*
G04 #@! TF.FilePolarity,Positive*
%FSLAX46Y46*%
G04 Gerber Fmt 4.6, Leading zero omitted, Abs format (unit mm)*
G04 Created by KiCad (PCBNEW 9.0.1) date 2025-05-27 23:21:40*
%MOMM*%
%LPD*%
G01*
G04 APERTURE LIST*
G04 Aperture macros list*
%AMRoundRect*
0 Rectangle with rounded corners*
0 $1 Rounding radius*
0 $2 $3 $4 $5 $6 $7 $8 $9 X,Y pos of 4 corners*
0 Add a 4 corners polygon primitive as box body*
4,1,4,$2,$3,$4,$5,$6,$7,$8,$9,$2,$3,0*
0 Add four circle primitives for the rounded corners*
1,1,$1+$1,$2,$3*
1,1,$1+$1,$4,$5*
1,1,$1+$1,$6,$7*
1,1,$1+$1,$8,$9*
0 Add four rect primitives between the rounded corners*
20,1,$1+$1,$2,$3,$4,$5,0*
20,1,$1+$1,$4,$5,$6,$7,0*
20,1,$1+$1,$6,$7,$8,$9,0*
20,1,$1+$1,$8,$9,$2,$3,0*%
G04 Aperture macros list end*
G04 #@! TA.AperFunction,ComponentPad*
%ADD10C,0.700000*%
G04 #@! TD*
G04 #@! TA.AperFunction,ComponentPad*
%ADD11O,2.400000X0.900000*%
G04 #@! TD*
G04 #@! TA.AperFunction,ComponentPad*
%ADD12O,1.700000X0.900000*%
G04 #@! TD*
G04 #@! TA.AperFunction,ComponentPad*
%ADD13C,1.700000*%
G04 #@! TD*
G04 #@! TA.AperFunction,SMDPad,CuDef*
%ADD14RoundRect,0.250000X0.625000X-0.400000X0.625000X0.400000X-0.625000X0.400000X-0.625000X-0.400000X0*%
G04 #@! TD*
G04 #@! TA.AperFunction,SMDPad,CuDef*
%ADD15RoundRect,0.250000X-0.625000X0.400000X-0.625000X-0.400000X0.625000X-0.400000X0.625000X0.400000X0*%
G04 #@! TD*
G04 #@! TA.AperFunction,ComponentPad*
%ADD16R,1.700000X1.700000*%
G04 #@! TD*
G04 #@! TA.AperFunction,Conductor*
%ADD17C,0.200000*%
G04 #@! TD*
G04 APERTURE END LIST*
D10*
X89750000Y-116405000D03*
X89750000Y-117255000D03*
X89750000Y-118105000D03*
X89750000Y-118955000D03*
X89750000Y-119805000D03*
X89750000Y-120655000D03*
X89750000Y-121505000D03*
X89750000Y-122355000D03*
X88400000Y-122355000D03*
X88400000Y-121505000D03*
X88400000Y-120655000D03*
X88400000Y-119805000D03*
X88400000Y-118955000D03*
X88400000Y-118105000D03*
X88400000Y-117255000D03*
X88400000Y-116405000D03*
D11*
X88770000Y-115055000D03*
D12*
X85390000Y-115055000D03*
D11*
X88770000Y-123705000D03*
D12*
X85390000Y-123705000D03*
D13*
X86355000Y-127000000D03*
X88895000Y-127000000D03*
D14*
X85725000Y-120650000D03*
X85725000Y-117550000D03*
D15*
X92710000Y-118110000D03*
X92710000Y-121210000D03*
D13*
X86360000Y-111760000D03*
X88900000Y-111760000D03*
D16*
X96266000Y-120904000D03*
D13*
X96266000Y-118364000D03*
D17*
X92705000Y-118105000D02*
X92710000Y-118110000D01*
X89750000Y-118105000D02*
X92705000Y-118105000D01*
X88400000Y-118955000D02*
X88829346Y-118955000D01*
X88829346Y-118955000D02*
X89679346Y-119805000D01*
X89679346Y-119805000D02*
X89750000Y-119805000D01*
X85730000Y-120655000D02*
X85725000Y-120650000D01*
X88400000Y-120655000D02*
X85730000Y-120655000D01*
G04 #@! TA.AperFunction,Conductor*
G36*
X97160520Y-110491121D02*
G01*
X97277001Y-110504245D01*
X97291532Y-110506995D01*
X97315019Y-110513288D01*
X97322084Y-110515468D01*
X97419289Y-110549482D01*
X97436091Y-110557190D01*
X97438727Y-110558712D01*
X97441896Y-110560622D01*
X97541158Y-110622993D01*
X97558490Y-110636814D01*
X97643185Y-110721509D01*
X97657007Y-110738842D01*
X97719377Y-110838103D01*
X97721286Y-110841271D01*
X97722808Y-110843907D01*
X97730517Y-110860712D01*
X97764528Y-110957910D01*
X97766710Y-110964983D01*
X97773003Y-110988467D01*
X97775754Y-111003007D01*
X97788877Y-111119470D01*
X97789500Y-111130555D01*
X97789500Y-127629444D01*
X97788877Y-127640529D01*
X97775754Y-127756991D01*
X97773003Y-127771531D01*
X97766710Y-127795015D01*
X97764528Y-127802088D01*
X97730517Y-127899286D01*
X97722808Y-127916091D01*
X97721286Y-127918727D01*
X97719377Y-127921895D01*
X97657007Y-128021157D01*
X97643185Y-128038490D01*
X97558490Y-128123185D01*
X97541157Y-128137007D01*
X97441895Y-128199377D01*
X97438727Y-128201286D01*
X97436091Y-128202808D01*
X97419286Y-128210517D01*
X97322088Y-128244528D01*
X97315015Y-128246710D01*
X97291531Y-128253003D01*
X97276991Y-128255754D01*
X97160529Y-128268877D01*
X97149444Y-128269500D01*
X84460556Y-128269500D01*
X84449471Y-128268877D01*
X84333007Y-128255754D01*
X84318467Y-128253003D01*
X84294983Y-128246710D01*
X84287910Y-128244528D01*
X84190712Y-128210517D01*
X84173907Y-128202808D01*
X84171271Y-128201286D01*
X84168103Y-128199377D01*
X84068842Y-128137007D01*
X84051509Y-128123185D01*
X83966814Y-128038490D01*
X83952993Y-128021158D01*
X83890622Y-127921896D01*
X83888712Y-127918727D01*
X83887190Y-127916091D01*
X83879481Y-127899286D01*
X83860912Y-127846220D01*
X83845468Y-127802084D01*
X83843287Y-127795013D01*
X83836996Y-127771535D01*
X83834245Y-127756996D01*
X83834244Y-127756991D01*
X83821122Y-127640520D01*
X83820500Y-127629436D01*
X83820500Y-126896532D01*
X85304500Y-126896532D01*
X85304500Y-127103467D01*
X85344869Y-127306418D01*
X85424058Y-127497597D01*
X85539020Y-127669651D01*
X85539023Y-127669655D01*
X85685345Y-127815977D01*
X85857402Y-127930941D01*
X86048580Y-128010130D01*
X86251535Y-128050500D01*
X86251536Y-128050500D01*
X86458464Y-128050500D01*
X86458465Y-128050500D01*
X86661420Y-128010130D01*
X86852598Y-127930941D01*
X87024655Y-127815977D01*
X87170977Y-127669655D01*
X87285941Y-127497598D01*
X87365130Y-127306420D01*
X87405500Y-127103465D01*
X87405500Y-126896535D01*
X87405499Y-126896532D01*
X87844500Y-126896532D01*
X87844500Y-127103467D01*
X87884869Y-127306418D01*
X87964058Y-127497597D01*
X88079020Y-127669651D01*
X88079023Y-127669655D01*
X88225345Y-127815977D01*
X88397402Y-127930941D01*
X88588580Y-128010130D01*
X88791535Y-128050500D01*
X88791536Y-128050500D01*
X88998464Y-128050500D01*
X88998465Y-128050500D01*
X89201420Y-128010130D01*
X89392598Y-127930941D01*
X89564655Y-127815977D01*
X89710977Y-127669655D01*
X89825941Y-127497598D01*
X89905130Y-127306420D01*
X89945500Y-127103465D01*
X89945500Y-126896535D01*
X89905130Y-126693580D01*
X89825941Y-126502402D01*
X89710977Y-126330345D01*
X89564655Y-126184023D01*
X89392598Y-126069059D01*
X89392599Y-126069059D01*
X89392597Y-126069058D01*
X89201418Y-125989869D01*
X88998467Y-125949500D01*
X88998465Y-125949500D01*
X88791535Y-125949500D01*
X88791532Y-125949500D01*
X88588581Y-125989869D01*
X88397402Y-126069058D01*
X88225348Y-126184020D01*
X88079020Y-126330348D01*
X87964058Y-126502402D01*
X87884869Y-126693581D01*
X87844500Y-126896532D01*
X87405499Y-126896532D01*
X87365130Y-126693580D01*
X87285941Y-126502402D01*
X87170977Y-126330345D01*
X87024655Y-126184023D01*
X86852598Y-126069059D01*
X86852599Y-126069059D01*
X86852597Y-126069058D01*
X86661418Y-125989869D01*
X86458467Y-125949500D01*
X86458465Y-125949500D01*
X86251535Y-125949500D01*
X86251532Y-125949500D01*
X86048581Y-125989869D01*
X85857402Y-126069058D01*
X85685348Y-126184020D01*
X85539020Y-126330348D01*
X85424058Y-126502402D01*
X85344869Y-126693581D01*
X85304500Y-126896532D01*
X83820500Y-126896532D01*
X83820500Y-120195725D01*
X84649500Y-120195725D01*
X84649500Y-121104274D01*
X84652353Y-121134694D01*
X84652355Y-121134703D01*
X84697207Y-121262883D01*
X84777845Y-121372144D01*
X84777847Y-121372146D01*
X84777850Y-121372150D01*
X84777853Y-121372152D01*
X84777855Y-121372154D01*
X84887116Y-121452792D01*
X84887117Y-121452792D01*
X84887118Y-121452793D01*
X85015301Y-121497646D01*
X85045725Y-121500499D01*
X85045727Y-121500500D01*
X85045734Y-121500500D01*
X86404273Y-121500500D01*
X86404273Y-121500499D01*
X86434699Y-121497646D01*
X86562882Y-121452793D01*
X86672150Y-121372150D01*
X86675575Y-121367508D01*
X86687731Y-121354895D01*
X86687302Y-121354454D01*
X86690785Y-121351064D01*
X86690791Y-121351060D01*
X86995017Y-120990643D01*
X87047000Y-120958371D01*
X87070669Y-120955500D01*
X87790133Y-120955500D01*
X87840432Y-120969230D01*
X87930533Y-121022378D01*
X87971047Y-121068228D01*
X87976874Y-121129135D01*
X87962027Y-121160957D01*
X87962735Y-121161366D01*
X87887017Y-121292510D01*
X87849500Y-121432525D01*
X87849500Y-121577474D01*
X87887017Y-121717489D01*
X87959487Y-121843010D01*
X87959489Y-121843012D01*
X87959491Y-121843015D01*
X88061985Y-121945509D01*
X88061987Y-121945510D01*
X88061989Y-121945512D01*
X88187511Y-122017982D01*
X88187512Y-122017982D01*
X88187515Y-122017984D01*
X88327525Y-122055500D01*
X88327526Y-122055500D01*
X88472474Y-122055500D01*
X88472475Y-122055500D01*
X88612485Y-122017984D01*
X88612487Y-122017982D01*
X88612489Y-122017982D01*
X88738010Y-121945512D01*
X88738010Y-121945511D01*
X88738015Y-121945509D01*
X88840509Y-121843015D01*
X88846735Y-121832231D01*
X88912982Y-121717489D01*
X88912982Y-121717487D01*
X88912984Y-121717485D01*
X88950500Y-121577475D01*
X88950500Y-121432525D01*
X88912984Y-121292515D01*
X88912982Y-121292512D01*
X88912982Y-121292510D01*
X88840512Y-121166989D01*
X88840510Y-121166987D01*
X88840509Y-121166985D01*
X88823525Y-121150001D01*
X88795750Y-121095487D01*
X88805321Y-121035055D01*
X88823526Y-121009998D01*
X88840509Y-120993015D01*
X88840512Y-120993010D01*
X88912982Y-120867489D01*
X88912982Y-120867487D01*
X88912984Y-120867485D01*
X88950500Y-120727475D01*
X88950500Y-120582525D01*
X88912984Y-120442515D01*
X88912982Y-120442512D01*
X88912982Y-120442510D01*
X88840512Y-120316989D01*
X88840510Y-120316987D01*
X88840509Y-120316985D01*
X88823525Y-120300001D01*
X88795750Y-120245487D01*
X88805321Y-120185055D01*
X88823526Y-120159998D01*
X88840509Y-120143015D01*
X88912984Y-120017485D01*
X88950500Y-119877475D01*
X88950500Y-119796882D01*
X88969407Y-119738691D01*
X89018907Y-119702727D01*
X89080093Y-119702727D01*
X89129593Y-119738691D01*
X89141634Y-119760657D01*
X89158028Y-119802355D01*
X89211904Y-119939391D01*
X89211906Y-119939395D01*
X89213086Y-119941428D01*
X89223082Y-119965485D01*
X89237016Y-120017485D01*
X89237017Y-120017487D01*
X89237018Y-120017490D01*
X89309487Y-120143010D01*
X89309492Y-120143016D01*
X89326473Y-120159998D01*
X89354250Y-120214515D01*
X89344677Y-120274947D01*
X89326473Y-120300002D01*
X89309492Y-120316983D01*
X89309487Y-120316989D01*
X89237017Y-120442510D01*
X89199500Y-120582525D01*
X89199500Y-120727474D01*
X89237017Y-120867489D01*
X89309487Y-120993010D01*
X89309492Y-120993016D01*
X89326473Y-121009998D01*
X89354250Y-121064515D01*
X89344677Y-121124947D01*
X89326473Y-121150002D01*
X89309492Y-121166983D01*
X89309487Y-121166989D01*
X89237017Y-121292510D01*
X89199500Y-121432525D01*
X89199500Y-121577474D01*
X89237017Y-121717489D01*
X89309487Y-121843010D01*
X89309489Y-121843012D01*
X89309491Y-121843015D01*
X89411985Y-121945509D01*
X89411987Y-121945510D01*
X89411989Y-121945512D01*
X89537511Y-122017982D01*
X89537512Y-122017982D01*
X89537515Y-122017984D01*
X89677525Y-122055500D01*
X89677526Y-122055500D01*
X89822474Y-122055500D01*
X89822475Y-122055500D01*
X89962485Y-122017984D01*
X89962487Y-122017982D01*
X89962489Y-122017982D01*
X90088010Y-121945512D01*
X90088010Y-121945511D01*
X90088015Y-121945509D01*
X90190509Y-121843015D01*
X90196735Y-121832231D01*
X90262982Y-121717489D01*
X90262982Y-121717487D01*
X90262984Y-121717485D01*
X90300500Y-121577475D01*
X90300500Y-121432525D01*
X90262984Y-121292515D01*
X90262982Y-121292512D01*
X90262982Y-121292510D01*
X90190512Y-121166989D01*
X90190510Y-121166987D01*
X90190509Y-121166985D01*
X90173525Y-121150001D01*
X90145750Y-121095487D01*
X90155321Y-121035055D01*
X90173526Y-121009998D01*
X90190509Y-120993015D01*
X90190512Y-120993010D01*
X90262982Y-120867489D01*
X90262982Y-120867487D01*
X90262984Y-120867485D01*
X90300500Y-120727475D01*
X90300500Y-120582525D01*
X90262984Y-120442515D01*
X90262982Y-120442512D01*
X90262982Y-120442510D01*
X90190512Y-120316989D01*
X90190510Y-120316987D01*
X90190509Y-120316985D01*
X90173525Y-120300001D01*
X90145750Y-120245487D01*
X90155321Y-120185055D01*
X90173526Y-120159998D01*
X90190509Y-120143015D01*
X90253303Y-120034253D01*
X95215500Y-120034253D01*
X95215500Y-121773746D01*
X95215501Y-121773758D01*
X95227132Y-121832227D01*
X95227134Y-121832233D01*
X95271445Y-121898548D01*
X95271448Y-121898552D01*
X95337769Y-121942867D01*
X95382231Y-121951711D01*
X95396241Y-121954498D01*
X95396246Y-121954498D01*
X95396252Y-121954500D01*
X95396253Y-121954500D01*
X97135747Y-121954500D01*
X97135748Y-121954500D01*
X97194231Y-121942867D01*
X97260552Y-121898552D01*
X97304867Y-121832231D01*
X97316500Y-121773748D01*
X97316500Y-120034252D01*
X97304867Y-119975769D01*
X97260552Y-119909448D01*
X97212702Y-119877475D01*
X97194233Y-119865134D01*
X97194231Y-119865133D01*
X97194228Y-119865132D01*
X97194227Y-119865132D01*
X97135758Y-119853501D01*
X97135748Y-119853500D01*
X95396252Y-119853500D01*
X95396251Y-119853500D01*
X95396241Y-119853501D01*
X95337772Y-119865132D01*
X95337766Y-119865134D01*
X95271451Y-119909445D01*
X95271445Y-119909451D01*
X95227134Y-119975766D01*
X95227132Y-119975772D01*
X95215501Y-120034241D01*
X95215500Y-120034253D01*
X90253303Y-120034253D01*
X90262984Y-120017485D01*
X90300500Y-119877475D01*
X90300500Y-119732525D01*
X90262984Y-119592515D01*
X90262982Y-119592512D01*
X90262982Y-119592510D01*
X90190512Y-119466989D01*
X90190510Y-119466987D01*
X90190509Y-119466985D01*
X90173525Y-119450001D01*
X90145750Y-119395487D01*
X90155321Y-119335055D01*
X90173526Y-119309998D01*
X90190509Y-119293015D01*
X90262984Y-119167485D01*
X90300500Y-119027475D01*
X90300500Y-118882525D01*
X90262984Y-118742515D01*
X90262982Y-118742512D01*
X90262982Y-118742510D01*
X90187265Y-118611365D01*
X90188626Y-118610579D01*
X90184047Y-118597653D01*
X90173123Y-118579132D01*
X90174051Y-118569430D01*
X90170798Y-118560245D01*
X90176903Y-118539627D01*
X90178952Y-118518225D01*
X90185404Y-118510922D01*
X90188172Y-118501578D01*
X90219465Y-118472377D01*
X90259827Y-118448570D01*
X90309570Y-118419229D01*
X90359867Y-118405500D01*
X91362503Y-118405500D01*
X91420694Y-118424407D01*
X91438810Y-118441427D01*
X91742859Y-118809272D01*
X91745982Y-118812425D01*
X91745820Y-118812585D01*
X91758007Y-118825588D01*
X91762845Y-118832144D01*
X91762850Y-118832150D01*
X91801634Y-118860774D01*
X91872116Y-118912792D01*
X91872117Y-118912792D01*
X91872118Y-118912793D01*
X92000301Y-118957646D01*
X92030725Y-118960499D01*
X92030727Y-118960500D01*
X92030734Y-118960500D01*
X93389273Y-118960500D01*
X93389273Y-118960499D01*
X93419699Y-118957646D01*
X93547882Y-118912793D01*
X93657150Y-118832150D01*
X93737793Y-118722882D01*
X93782646Y-118594699D01*
X93785499Y-118564273D01*
X93785500Y-118564273D01*
X93785500Y-118260532D01*
X95215500Y-118260532D01*
X95215500Y-118467467D01*
X95255869Y-118670418D01*
X95335058Y-118861597D01*
X95450020Y-119033651D01*
X95450023Y-119033655D01*
X95596345Y-119179977D01*
X95768402Y-119294941D01*
X95959580Y-119374130D01*
X96162535Y-119414500D01*
X96162536Y-119414500D01*
X96369464Y-119414500D01*
X96369465Y-119414500D01*
X96572420Y-119374130D01*
X96763598Y-119294941D01*
X96935655Y-119179977D01*
X97081977Y-119033655D01*
X97196941Y-118861598D01*
X97276130Y-118670420D01*
X97316500Y-118467465D01*
X97316500Y-118260535D01*
X97276130Y-118057580D01*
X97196941Y-117866402D01*
X97081977Y-117694345D01*
X96935655Y-117548023D01*
X96763598Y-117433059D01*
X96763599Y-117433059D01*
X96763597Y-117433058D01*
X96572418Y-117353869D01*
X96369467Y-117313500D01*
X96369465Y-117313500D01*
X96162535Y-117313500D01*
X96162532Y-117313500D01*
X95959581Y-117353869D01*
X95768402Y-117433058D01*
X95596348Y-117548020D01*
X95450020Y-117694348D01*
X95335058Y-117866402D01*
X95255869Y-118057581D01*
X95215500Y-118260532D01*
X93785500Y-118260532D01*
X93785500Y-117655727D01*
X93785499Y-117655725D01*
X93782646Y-117625301D01*
X93737793Y-117497118D01*
X93657154Y-117387856D01*
X93657154Y-117387855D01*
X93657152Y-117387853D01*
X93657150Y-117387850D01*
X93657146Y-117387847D01*
X93657144Y-117387845D01*
X93547883Y-117307207D01*
X93419703Y-117262355D01*
X93419694Y-117262353D01*
X93389274Y-117259500D01*
X93389266Y-117259500D01*
X92030734Y-117259500D01*
X92030725Y-117259500D01*
X92000305Y-117262353D01*
X92000296Y-117262355D01*
X91872116Y-117307207D01*
X91762855Y-117387845D01*
X91762844Y-117387856D01*
X91759419Y-117392497D01*
X91747274Y-117405113D01*
X91747696Y-117405547D01*
X91744205Y-117408942D01*
X91439983Y-117769357D01*
X91388001Y-117801629D01*
X91364331Y-117804500D01*
X90359868Y-117804500D01*
X90309570Y-117790771D01*
X90269242Y-117766983D01*
X90219466Y-117737621D01*
X90178952Y-117691772D01*
X90173125Y-117630864D01*
X90187976Y-117599045D01*
X90187265Y-117598635D01*
X90262982Y-117467489D01*
X90262982Y-117467487D01*
X90262984Y-117467485D01*
X90300500Y-117327475D01*
X90300500Y-117182525D01*
X90262984Y-117042515D01*
X90262982Y-117042512D01*
X90262982Y-117042510D01*
X90190512Y-116916989D01*
X90190510Y-116916987D01*
X90190509Y-116916985D01*
X90088015Y-116814491D01*
X90088012Y-116814489D01*
X90088010Y-116814487D01*
X89962488Y-116742017D01*
X89962489Y-116742017D01*
X89932896Y-116734087D01*
X89822475Y-116704500D01*
X89677525Y-116704500D01*
X89615790Y-116721041D01*
X89537510Y-116742017D01*
X89411989Y-116814487D01*
X89309487Y-116916989D01*
X89237017Y-117042510D01*
X89237016Y-117042515D01*
X89199500Y-117182525D01*
X89199500Y-117327475D01*
X89206573Y-117353870D01*
X89237017Y-117467489D01*
X89309487Y-117593010D01*
X89309492Y-117593016D01*
X89326473Y-117609998D01*
X89354250Y-117664515D01*
X89344677Y-117724947D01*
X89326473Y-117750002D01*
X89309492Y-117766983D01*
X89309487Y-117766989D01*
X89237017Y-117892510D01*
X89199500Y-118032525D01*
X89199500Y-118177474D01*
X89237017Y-118317489D01*
X89309487Y-118443010D01*
X89309492Y-118443016D01*
X89326473Y-118459998D01*
X89354250Y-118514515D01*
X89344677Y-118574947D01*
X89326473Y-118600002D01*
X89309492Y-118616983D01*
X89309487Y-118616989D01*
X89233771Y-118748134D01*
X89232623Y-118747471D01*
X89217832Y-118764785D01*
X89198912Y-118787747D01*
X89198019Y-118787977D01*
X89197420Y-118788680D01*
X89168484Y-118795622D01*
X89139679Y-118803079D01*
X89138868Y-118802729D01*
X89137923Y-118802956D01*
X89082746Y-118780665D01*
X89078559Y-118777215D01*
X89077589Y-118776107D01*
X89072026Y-118771832D01*
X89070723Y-118770758D01*
X89070411Y-118770269D01*
X89063677Y-118764359D01*
X89013858Y-118714540D01*
X88953652Y-118679780D01*
X88942827Y-118672541D01*
X88844628Y-118597074D01*
X88810010Y-118546624D01*
X88811657Y-118485461D01*
X88834954Y-118448570D01*
X88835293Y-118448230D01*
X88840509Y-118443015D01*
X88912984Y-118317485D01*
X88950500Y-118177475D01*
X88950500Y-118032525D01*
X88912984Y-117892515D01*
X88912982Y-117892512D01*
X88912982Y-117892510D01*
X88840512Y-117766989D01*
X88840510Y-117766987D01*
X88840509Y-117766985D01*
X88823525Y-117750001D01*
X88795750Y-117695487D01*
X88805321Y-117635055D01*
X88823526Y-117609998D01*
X88840509Y-117593015D01*
X88866487Y-117548020D01*
X88912982Y-117467489D01*
X88912982Y-117467487D01*
X88912984Y-117467485D01*
X88950500Y-117327475D01*
X88950500Y-117182525D01*
X88912984Y-117042515D01*
X88912982Y-117042512D01*
X88912982Y-117042510D01*
X88840512Y-116916989D01*
X88840510Y-116916987D01*
X88840509Y-116916985D01*
X88738015Y-116814491D01*
X88738012Y-116814489D01*
X88738010Y-116814487D01*
X88612488Y-116742017D01*
X88612489Y-116742017D01*
X88582896Y-116734087D01*
X88472475Y-116704500D01*
X88327525Y-116704500D01*
X88265790Y-116721041D01*
X88187510Y-116742017D01*
X88061989Y-116814487D01*
X87959487Y-116916989D01*
X87887017Y-117042510D01*
X87887016Y-117042515D01*
X87849500Y-117182525D01*
X87849500Y-117327475D01*
X87856573Y-117353870D01*
X87887017Y-117467489D01*
X87959487Y-117593010D01*
X87959492Y-117593016D01*
X87976473Y-117609998D01*
X88004250Y-117664515D01*
X87994677Y-117724947D01*
X87976473Y-117750002D01*
X87959492Y-117766983D01*
X87959487Y-117766989D01*
X87887017Y-117892510D01*
X87849500Y-118032525D01*
X87849500Y-118177474D01*
X87887017Y-118317489D01*
X87959487Y-118443010D01*
X87959492Y-118443016D01*
X87976473Y-118459998D01*
X88004250Y-118514515D01*
X87994677Y-118574947D01*
X87976473Y-118600002D01*
X87959492Y-118616983D01*
X87959487Y-118616989D01*
X87887017Y-118742510D01*
X87849500Y-118882525D01*
X87849500Y-119027474D01*
X87887017Y-119167489D01*
X87959487Y-119293010D01*
X87959492Y-119293016D01*
X87976473Y-119309998D01*
X88004250Y-119364515D01*
X87994677Y-119424947D01*
X87976473Y-119450002D01*
X87959492Y-119466983D01*
X87959487Y-119466989D01*
X87887017Y-119592510D01*
X87887016Y-119592515D01*
X87849500Y-119732525D01*
X87849500Y-119877475D01*
X87873084Y-119965492D01*
X87887017Y-120017489D01*
X87962735Y-120148635D01*
X87961374Y-120149420D01*
X87965952Y-120162348D01*
X87976873Y-120180862D01*
X87975944Y-120190570D01*
X87979199Y-120199763D01*
X87973093Y-120220370D01*
X87971047Y-120241769D01*
X87964589Y-120249077D01*
X87961819Y-120258428D01*
X87930533Y-120287620D01*
X87886009Y-120313883D01*
X87840429Y-120340770D01*
X87790131Y-120354500D01*
X87072497Y-120354500D01*
X87014306Y-120335593D01*
X86996190Y-120318573D01*
X86692139Y-119950726D01*
X86689017Y-119947574D01*
X86689177Y-119947415D01*
X86676994Y-119934413D01*
X86674093Y-119930483D01*
X86672150Y-119927850D01*
X86672149Y-119927849D01*
X86672148Y-119927847D01*
X86562883Y-119847207D01*
X86434703Y-119802355D01*
X86434694Y-119802353D01*
X86404274Y-119799500D01*
X86404266Y-119799500D01*
X85045734Y-119799500D01*
X85045725Y-119799500D01*
X85015305Y-119802353D01*
X85015296Y-119802355D01*
X84887116Y-119847207D01*
X84777855Y-119927845D01*
X84777845Y-119927855D01*
X84697207Y-120037116D01*
X84652355Y-120165296D01*
X84652353Y-120165305D01*
X84649500Y-120195725D01*
X83820500Y-120195725D01*
X83820500Y-111656532D01*
X85309500Y-111656532D01*
X85309500Y-111863467D01*
X85349869Y-112066418D01*
X85429058Y-112257597D01*
X85429059Y-112257598D01*
X85544023Y-112429655D01*
X85690345Y-112575977D01*
X85862402Y-112690941D01*
X86053580Y-112770130D01*
X86256535Y-112810500D01*
X86256536Y-112810500D01*
X86463464Y-112810500D01*
X86463465Y-112810500D01*
X86666420Y-112770130D01*
X86857598Y-112690941D01*
X87029655Y-112575977D01*
X87175977Y-112429655D01*
X87290941Y-112257598D01*
X87370130Y-112066420D01*
X87410500Y-111863465D01*
X87410500Y-111656535D01*
X87410499Y-111656532D01*
X87849500Y-111656532D01*
X87849500Y-111863467D01*
X87889869Y-112066418D01*
X87969058Y-112257597D01*
X87969059Y-112257598D01*
X88084023Y-112429655D01*
X88230345Y-112575977D01*
X88402402Y-112690941D01*
X88593580Y-112770130D01*
X88796535Y-112810500D01*
X88796536Y-112810500D01*
X89003464Y-112810500D01*
X89003465Y-112810500D01*
X89206420Y-112770130D01*
X89397598Y-112690941D01*
X89569655Y-112575977D01*
X89715977Y-112429655D01*
X89830941Y-112257598D01*
X89910130Y-112066420D01*
X89950500Y-111863465D01*
X89950500Y-111656535D01*
X89910130Y-111453580D01*
X89830941Y-111262402D01*
X89715977Y-111090345D01*
X89569655Y-110944023D01*
X89524393Y-110913780D01*
X89397597Y-110829058D01*
X89206418Y-110749869D01*
X89003467Y-110709500D01*
X89003465Y-110709500D01*
X88796535Y-110709500D01*
X88796532Y-110709500D01*
X88593581Y-110749869D01*
X88402402Y-110829058D01*
X88230348Y-110944020D01*
X88084020Y-111090348D01*
X87969058Y-111262402D01*
X87889869Y-111453581D01*
X87849500Y-111656532D01*
X87410499Y-111656532D01*
X87370130Y-111453580D01*
X87290941Y-111262402D01*
X87175977Y-111090345D01*
X87029655Y-110944023D01*
X86984393Y-110913780D01*
X86857597Y-110829058D01*
X86666418Y-110749869D01*
X86463467Y-110709500D01*
X86463465Y-110709500D01*
X86256535Y-110709500D01*
X86256532Y-110709500D01*
X86053581Y-110749869D01*
X85862402Y-110829058D01*
X85690348Y-110944020D01*
X85544020Y-111090348D01*
X85429058Y-111262402D01*
X85349869Y-111453581D01*
X85309500Y-111656532D01*
X83820500Y-111656532D01*
X83820500Y-111130563D01*
X83821122Y-111119479D01*
X83824404Y-111090348D01*
X83834246Y-111002993D01*
X83836994Y-110988472D01*
X83843292Y-110964965D01*
X83845463Y-110957930D01*
X83879485Y-110860702D01*
X83887181Y-110843923D01*
X83888756Y-110841195D01*
X83890588Y-110838157D01*
X83952995Y-110738836D01*
X83966808Y-110721515D01*
X84051515Y-110636808D01*
X84068836Y-110622995D01*
X84168157Y-110560588D01*
X84171195Y-110558756D01*
X84173923Y-110557181D01*
X84190702Y-110549485D01*
X84287930Y-110515463D01*
X84294965Y-110513292D01*
X84318472Y-110506994D01*
X84332993Y-110504246D01*
X84449479Y-110491121D01*
X84460563Y-110490500D01*
X97149437Y-110490500D01*
X97160520Y-110491121D01*
G37*
G04 #@! TD.AperFunction*
G04 #@! TA.AperFunction,Conductor*
G36*
X89953953Y-117819591D02*
G01*
X90262519Y-118001605D01*
X90267904Y-118008758D01*
X90268275Y-118011681D01*
X90268275Y-118198318D01*
X90264848Y-118206591D01*
X90262519Y-118208395D01*
X89953954Y-118390407D01*
X89945087Y-118391659D01*
X89938297Y-118386853D01*
X89753379Y-118111520D01*
X89751612Y-118102745D01*
X89753378Y-118098480D01*
X89938298Y-117823144D01*
X89945755Y-117818188D01*
X89953953Y-117819591D01*
G37*
G04 #@! TD.AperFunction*
G04 #@! TA.AperFunction,Conductor*
G36*
X91917011Y-117539537D02*
G01*
X92697774Y-118100498D01*
X92702493Y-118108109D01*
X92700449Y-118116827D01*
X92697774Y-118119502D01*
X91917102Y-118680397D01*
X91908384Y-118682441D01*
X91901257Y-118678349D01*
X91512682Y-118208244D01*
X91510000Y-118200790D01*
X91510000Y-118009278D01*
X91512759Y-118001731D01*
X91901243Y-117541492D01*
X91909198Y-117537381D01*
X91917011Y-117539537D01*
G37*
G04 #@! TD.AperFunction*
G04 #@! TA.AperFunction,Conductor*
G36*
X88603732Y-118671148D02*
G01*
X88604315Y-118671567D01*
X88952367Y-118939048D01*
X88956839Y-118946806D01*
X88954515Y-118955454D01*
X88953511Y-118956598D01*
X88822261Y-119087848D01*
X88820654Y-119089190D01*
X88604226Y-119239235D01*
X88595475Y-119241133D01*
X88587945Y-119236286D01*
X88587835Y-119236126D01*
X88403655Y-118960814D01*
X88401904Y-118952032D01*
X88403668Y-118947783D01*
X88587496Y-118674330D01*
X88594955Y-118669376D01*
X88603732Y-118671148D01*
G37*
G04 #@! TD.AperFunction*
G04 #@! TA.AperFunction,Conductor*
G36*
X89424730Y-119403995D02*
G01*
X89425155Y-119404057D01*
X89429286Y-119405498D01*
X89537512Y-119467983D01*
X89537516Y-119467985D01*
X89647936Y-119497571D01*
X89677522Y-119505499D01*
X89677524Y-119505500D01*
X89795460Y-119505500D01*
X89803733Y-119508927D01*
X89807160Y-119517200D01*
X89806941Y-119519455D01*
X89752221Y-119797995D01*
X89747263Y-119805453D01*
X89742995Y-119807221D01*
X89416298Y-119871401D01*
X89407520Y-119869633D01*
X89403155Y-119864202D01*
X89280291Y-119551694D01*
X89280453Y-119542742D01*
X89282904Y-119539144D01*
X89414753Y-119407295D01*
X89423025Y-119403869D01*
X89424730Y-119403995D01*
G37*
G04 #@! TD.AperFunction*
G04 #@! TA.AperFunction,Conductor*
G36*
X88211702Y-120373146D02*
G01*
X88396619Y-120648477D01*
X88398387Y-120657255D01*
X88396619Y-120661523D01*
X88211702Y-120936853D01*
X88204244Y-120941811D01*
X88196045Y-120940407D01*
X87887481Y-120758395D01*
X87882096Y-120751241D01*
X87881725Y-120748318D01*
X87881725Y-120561681D01*
X87885152Y-120553408D01*
X87887477Y-120551607D01*
X88196046Y-120369591D01*
X88204912Y-120368340D01*
X88211702Y-120373146D01*
G37*
G04 #@! TD.AperFunction*
G04 #@! TA.AperFunction,Conductor*
G36*
X86533742Y-120081650D02*
G01*
X86922318Y-120551755D01*
X86925000Y-120559209D01*
X86925000Y-120750721D01*
X86922241Y-120758268D01*
X86533756Y-121218507D01*
X86525801Y-121222618D01*
X86517988Y-121220462D01*
X85737225Y-120659502D01*
X85732506Y-120651891D01*
X85734550Y-120643173D01*
X85737225Y-120640498D01*
X86517899Y-120079601D01*
X86526615Y-120077558D01*
X86533742Y-120081650D01*
G37*
G04 #@! TD.AperFunction*
M02*
