G04 #@! TF.GenerationSoftware,KiCad,Pcbnew,9.0.1*
G04 #@! TF.CreationDate,2025-05-25T20:29:29+02:00*
G04 #@! TF.ProjectId,USBC2,55534243-322e-46b6-9963-61645f706362,rev?*
G04 #@! TF.SameCoordinates,Original*
G04 #@! TF.FileFunction,Copper,L2,Bot*
G04 #@! TF.FilePolarity,Positive*
%FSLAX46Y46*%
G04 Gerber Fmt 4.6, Leading zero omitted, Abs format (unit mm)*
G04 Created by KiCad (PCBNEW 9.0.1) date 2025-05-25 20:29:29*
%MOMM*%
%LPD*%
G01*
G04 APERTURE LIST*
G04 Aperture macros list*
%AMRoundRect*
0 Rectangle with rounded corners*
0 $1 Rounding radius*
0 $2 $3 $4 $5 $6 $7 $8 $9 X,Y pos of 4 corners*
0 Add a 4 corners polygon primitive as box body*
4,1,4,$2,$3,$4,$5,$6,$7,$8,$9,$2,$3,0*
0 Add four circle primitives for the rounded corners*
1,1,$1+$1,$2,$3*
1,1,$1+$1,$4,$5*
1,1,$1+$1,$6,$7*
1,1,$1+$1,$8,$9*
0 Add four rect primitives between the rounded corners*
20,1,$1+$1,$2,$3,$4,$5,0*
20,1,$1+$1,$4,$5,$6,$7,0*
20,1,$1+$1,$6,$7,$8,$9,0*
20,1,$1+$1,$8,$9,$2,$3,0*%
G04 Aperture macros list end*
G04 #@! TA.AperFunction,ComponentPad*
%ADD10C,0.700000*%
G04 #@! TD*
G04 #@! TA.AperFunction,ComponentPad*
%ADD11O,2.400000X0.900000*%
G04 #@! TD*
G04 #@! TA.AperFunction,ComponentPad*
%ADD12O,1.700000X0.900000*%
G04 #@! TD*
G04 #@! TA.AperFunction,ComponentPad*
%ADD13R,1.700000X1.700000*%
G04 #@! TD*
G04 #@! TA.AperFunction,ComponentPad*
%ADD14O,1.700000X1.700000*%
G04 #@! TD*
G04 #@! TA.AperFunction,ComponentPad*
%ADD15C,1.700000*%
G04 #@! TD*
G04 #@! TA.AperFunction,SMDPad,CuDef*
%ADD16RoundRect,0.250000X0.625000X-0.400000X0.625000X0.400000X-0.625000X0.400000X-0.625000X-0.400000X0*%
G04 #@! TD*
G04 #@! TA.AperFunction,SMDPad,CuDef*
%ADD17RoundRect,0.250000X-0.625000X0.400000X-0.625000X-0.400000X0.625000X-0.400000X0.625000X0.400000X0*%
G04 #@! TD*
G04 #@! TA.AperFunction,Conductor*
%ADD18C,0.200000*%
G04 #@! TD*
G04 APERTURE END LIST*
D10*
X89750000Y-116405000D03*
X89750000Y-117255000D03*
X89750000Y-118105000D03*
X89750000Y-118955000D03*
X89750000Y-119805000D03*
X89750000Y-120655000D03*
X89750000Y-121505000D03*
X89750000Y-122355000D03*
X88400000Y-122355000D03*
X88400000Y-121505000D03*
X88400000Y-120655000D03*
X88400000Y-119805000D03*
X88400000Y-118955000D03*
X88400000Y-118105000D03*
X88400000Y-117255000D03*
X88400000Y-116405000D03*
D11*
X88770000Y-115055000D03*
D12*
X85390000Y-115055000D03*
D11*
X88770000Y-123705000D03*
D12*
X85390000Y-123705000D03*
D13*
X86360000Y-127000000D03*
D14*
X88900000Y-127000000D03*
D15*
X96520000Y-111760000D03*
D14*
X96520000Y-114300000D03*
D15*
X96520000Y-127000000D03*
D14*
X96520000Y-124460000D03*
D13*
X86360000Y-111760000D03*
D14*
X88900000Y-111760000D03*
D16*
X85725000Y-120650000D03*
X85725000Y-117550000D03*
D17*
X92710000Y-118110000D03*
X92710000Y-121210000D03*
D13*
X88900000Y-109220000D03*
D15*
X86360000Y-109220000D03*
D13*
X88900000Y-129540000D03*
D15*
X86360000Y-129540000D03*
D18*
X94615000Y-126365000D02*
X95250000Y-127000000D01*
X95250000Y-111760000D02*
X94615000Y-112395000D01*
X96520000Y-111760000D02*
X95250000Y-111760000D01*
X95250000Y-127000000D02*
X96520000Y-127000000D01*
X94615000Y-112395000D02*
X94615000Y-126365000D01*
X92705000Y-118105000D02*
X92710000Y-118110000D01*
X89750000Y-118105000D02*
X92705000Y-118105000D01*
X88400000Y-118955000D02*
X88829346Y-118955000D01*
X96520000Y-114300000D02*
X96520000Y-124460000D01*
X88829346Y-118955000D02*
X89679346Y-119805000D01*
X89679346Y-119805000D02*
X89750000Y-119805000D01*
X85730000Y-120655000D02*
X85725000Y-120650000D01*
X88400000Y-120655000D02*
X85730000Y-120655000D01*
G04 #@! TA.AperFunction,Conductor*
G36*
X90175520Y-107951121D02*
G01*
X90292001Y-107964245D01*
X90306532Y-107966995D01*
X90330019Y-107973288D01*
X90337084Y-107975468D01*
X90434289Y-108009482D01*
X90451091Y-108017190D01*
X90453727Y-108018712D01*
X90456896Y-108020622D01*
X90556158Y-108082993D01*
X90573490Y-108096814D01*
X90658185Y-108181509D01*
X90672007Y-108198842D01*
X90734377Y-108298103D01*
X90736286Y-108301271D01*
X90737808Y-108303907D01*
X90745517Y-108320712D01*
X90779528Y-108417910D01*
X90781710Y-108424983D01*
X90788003Y-108448467D01*
X90790754Y-108463007D01*
X90803877Y-108579470D01*
X90804500Y-108590555D01*
X90804500Y-109926606D01*
X90836366Y-110066217D01*
X90836368Y-110066224D01*
X90845057Y-110084266D01*
X90849085Y-110092632D01*
X90850806Y-110099052D01*
X90859070Y-110113366D01*
X90860680Y-110116709D01*
X90898500Y-110195243D01*
X90922281Y-110225064D01*
X90926908Y-110230866D01*
X90934047Y-110243231D01*
X90947485Y-110256669D01*
X90987790Y-110307210D01*
X90987794Y-110307213D01*
X90987797Y-110307216D01*
X91033979Y-110344045D01*
X91033980Y-110344045D01*
X91038329Y-110347513D01*
X91051769Y-110360953D01*
X91064133Y-110368091D01*
X91099754Y-110396498D01*
X91181626Y-110435925D01*
X91195948Y-110444194D01*
X91202368Y-110445913D01*
X91222938Y-110455820D01*
X91228777Y-110458632D01*
X91228778Y-110458632D01*
X91228780Y-110458633D01*
X91368396Y-110490500D01*
X91439793Y-110490500D01*
X97149437Y-110490500D01*
X97160520Y-110491121D01*
X97277001Y-110504245D01*
X97291532Y-110506995D01*
X97315019Y-110513288D01*
X97322084Y-110515468D01*
X97419289Y-110549482D01*
X97436091Y-110557190D01*
X97438727Y-110558712D01*
X97441896Y-110560622D01*
X97541158Y-110622993D01*
X97558490Y-110636814D01*
X97643185Y-110721509D01*
X97657007Y-110738842D01*
X97719377Y-110838103D01*
X97721286Y-110841271D01*
X97722808Y-110843907D01*
X97730517Y-110860712D01*
X97764528Y-110957910D01*
X97766710Y-110964983D01*
X97773003Y-110988467D01*
X97775754Y-111003007D01*
X97788877Y-111119470D01*
X97789500Y-111130555D01*
X97789500Y-127629444D01*
X97788877Y-127640529D01*
X97775754Y-127756991D01*
X97773003Y-127771531D01*
X97766710Y-127795015D01*
X97764528Y-127802088D01*
X97730517Y-127899286D01*
X97722808Y-127916091D01*
X97721286Y-127918727D01*
X97719377Y-127921895D01*
X97657007Y-128021157D01*
X97643185Y-128038490D01*
X97558490Y-128123185D01*
X97541157Y-128137007D01*
X97441895Y-128199377D01*
X97438727Y-128201286D01*
X97436091Y-128202808D01*
X97419286Y-128210517D01*
X97322088Y-128244528D01*
X97315015Y-128246710D01*
X97291531Y-128253003D01*
X97276991Y-128255754D01*
X97160529Y-128268877D01*
X97149444Y-128269500D01*
X91368393Y-128269500D01*
X91228784Y-128301365D01*
X91228780Y-128301367D01*
X91210732Y-128310058D01*
X91210731Y-128310058D01*
X91202363Y-128314086D01*
X91195948Y-128315806D01*
X91181652Y-128324059D01*
X91178289Y-128325679D01*
X91099757Y-128363499D01*
X91099754Y-128363501D01*
X91069930Y-128387282D01*
X91069931Y-128387283D01*
X91064124Y-128391913D01*
X91051769Y-128399047D01*
X91038337Y-128412478D01*
X91033987Y-128415948D01*
X90987793Y-128452786D01*
X90987786Y-128452793D01*
X90950948Y-128498987D01*
X90947478Y-128503337D01*
X90934047Y-128516769D01*
X90926914Y-128529123D01*
X90922286Y-128534927D01*
X90898501Y-128564754D01*
X90898499Y-128564757D01*
X90860681Y-128643282D01*
X90860682Y-128643283D01*
X90859059Y-128646652D01*
X90850806Y-128660948D01*
X90849087Y-128667360D01*
X90845059Y-128675727D01*
X90845058Y-128675732D01*
X90836367Y-128693780D01*
X90836365Y-128693784D01*
X90804500Y-128833393D01*
X90804500Y-130169444D01*
X90803877Y-130180529D01*
X90790754Y-130296991D01*
X90788003Y-130311531D01*
X90781710Y-130335015D01*
X90779528Y-130342088D01*
X90745517Y-130439286D01*
X90737808Y-130456091D01*
X90736286Y-130458727D01*
X90734377Y-130461895D01*
X90672007Y-130561157D01*
X90658185Y-130578490D01*
X90573490Y-130663185D01*
X90556157Y-130677007D01*
X90456895Y-130739377D01*
X90453727Y-130741286D01*
X90451091Y-130742808D01*
X90434286Y-130750517D01*
X90337088Y-130784528D01*
X90330015Y-130786710D01*
X90306531Y-130793003D01*
X90291991Y-130795754D01*
X90175529Y-130808877D01*
X90164444Y-130809500D01*
X84460556Y-130809500D01*
X84449471Y-130808877D01*
X84333007Y-130795754D01*
X84318467Y-130793003D01*
X84294983Y-130786710D01*
X84287910Y-130784528D01*
X84190712Y-130750517D01*
X84173907Y-130742808D01*
X84171271Y-130741286D01*
X84168103Y-130739377D01*
X84068842Y-130677007D01*
X84051509Y-130663185D01*
X83966814Y-130578490D01*
X83952993Y-130561158D01*
X83890622Y-130461896D01*
X83888712Y-130458727D01*
X83887190Y-130456091D01*
X83879481Y-130439286D01*
X83869145Y-130409748D01*
X83845468Y-130342084D01*
X83843287Y-130335013D01*
X83836996Y-130311535D01*
X83834245Y-130296996D01*
X83834244Y-130296991D01*
X83821122Y-130180520D01*
X83820500Y-130169436D01*
X83820500Y-128670253D01*
X87849500Y-128670253D01*
X87849500Y-130409746D01*
X87849501Y-130409758D01*
X87859873Y-130461896D01*
X87861133Y-130468231D01*
X87905448Y-130534552D01*
X87971769Y-130578867D01*
X88016231Y-130587711D01*
X88030241Y-130590498D01*
X88030246Y-130590498D01*
X88030252Y-130590500D01*
X88030253Y-130590500D01*
X89769747Y-130590500D01*
X89769748Y-130590500D01*
X89828231Y-130578867D01*
X89894552Y-130534552D01*
X89938867Y-130468231D01*
X89950500Y-130409748D01*
X89950500Y-128670252D01*
X89938867Y-128611769D01*
X89894552Y-128545448D01*
X89894548Y-128545445D01*
X89828233Y-128501134D01*
X89828231Y-128501133D01*
X89828228Y-128501132D01*
X89828227Y-128501132D01*
X89769758Y-128489501D01*
X89769748Y-128489500D01*
X88030252Y-128489500D01*
X88030251Y-128489500D01*
X88030241Y-128489501D01*
X87971772Y-128501132D01*
X87971766Y-128501134D01*
X87905451Y-128545445D01*
X87905445Y-128545451D01*
X87861134Y-128611766D01*
X87861132Y-128611772D01*
X87849501Y-128670241D01*
X87849500Y-128670253D01*
X83820500Y-128670253D01*
X83820500Y-126130253D01*
X85309500Y-126130253D01*
X85309500Y-127869746D01*
X85309501Y-127869758D01*
X85321132Y-127928227D01*
X85321134Y-127928233D01*
X85352548Y-127975246D01*
X85365448Y-127994552D01*
X85431769Y-128038867D01*
X85476231Y-128047711D01*
X85490241Y-128050498D01*
X85490246Y-128050498D01*
X85490252Y-128050500D01*
X85490253Y-128050500D01*
X87229747Y-128050500D01*
X87229748Y-128050500D01*
X87288231Y-128038867D01*
X87354552Y-127994552D01*
X87398867Y-127928231D01*
X87410500Y-127869748D01*
X87410500Y-126130252D01*
X87398867Y-126071769D01*
X87354552Y-126005448D01*
X87354548Y-126005445D01*
X87288233Y-125961134D01*
X87288231Y-125961133D01*
X87288228Y-125961132D01*
X87288227Y-125961132D01*
X87229758Y-125949501D01*
X87229748Y-125949500D01*
X85490252Y-125949500D01*
X85490251Y-125949500D01*
X85490241Y-125949501D01*
X85431772Y-125961132D01*
X85431766Y-125961134D01*
X85365451Y-126005445D01*
X85365445Y-126005451D01*
X85321134Y-126071766D01*
X85321132Y-126071772D01*
X85309501Y-126130241D01*
X85309500Y-126130253D01*
X83820500Y-126130253D01*
X83820500Y-120195725D01*
X84649500Y-120195725D01*
X84649500Y-121104274D01*
X84652353Y-121134694D01*
X84652355Y-121134703D01*
X84697207Y-121262883D01*
X84777845Y-121372144D01*
X84777847Y-121372146D01*
X84777850Y-121372150D01*
X84777853Y-121372152D01*
X84777855Y-121372154D01*
X84887116Y-121452792D01*
X84887117Y-121452792D01*
X84887118Y-121452793D01*
X85015301Y-121497646D01*
X85045725Y-121500499D01*
X85045727Y-121500500D01*
X85045734Y-121500500D01*
X86404273Y-121500500D01*
X86404273Y-121500499D01*
X86434699Y-121497646D01*
X86562882Y-121452793D01*
X86672150Y-121372150D01*
X86752793Y-121262882D01*
X86797646Y-121134699D01*
X86800499Y-121104273D01*
X86800500Y-121104273D01*
X86800500Y-121054500D01*
X86819407Y-120996309D01*
X86868907Y-120960345D01*
X86899500Y-120955500D01*
X87881884Y-120955500D01*
X87890344Y-120958248D01*
X87899156Y-120957018D01*
X87913645Y-120965819D01*
X87940075Y-120974407D01*
X87953156Y-120985788D01*
X87958546Y-120991379D01*
X87959491Y-120993015D01*
X87977095Y-121010619D01*
X87977740Y-121011288D01*
X87990746Y-121038011D01*
X88004250Y-121064515D01*
X88004101Y-121065452D01*
X88004516Y-121066304D01*
X87999331Y-121095561D01*
X87994677Y-121124947D01*
X87993947Y-121125951D01*
X87993841Y-121126551D01*
X87992741Y-121127611D01*
X87976473Y-121150002D01*
X87959492Y-121166983D01*
X87959487Y-121166989D01*
X87887017Y-121292510D01*
X87849500Y-121432525D01*
X87849500Y-121577474D01*
X87887017Y-121717489D01*
X87959487Y-121843010D01*
X87959489Y-121843012D01*
X87959491Y-121843015D01*
X88061985Y-121945509D01*
X88061987Y-121945510D01*
X88061989Y-121945512D01*
X88187511Y-122017982D01*
X88187512Y-122017982D01*
X88187515Y-122017984D01*
X88327525Y-122055500D01*
X88327526Y-122055500D01*
X88472474Y-122055500D01*
X88472475Y-122055500D01*
X88612485Y-122017984D01*
X88612487Y-122017982D01*
X88612489Y-122017982D01*
X88738010Y-121945512D01*
X88738010Y-121945511D01*
X88738015Y-121945509D01*
X88840509Y-121843015D01*
X88912984Y-121717485D01*
X88950500Y-121577475D01*
X88950500Y-121432525D01*
X88912984Y-121292515D01*
X88912982Y-121292512D01*
X88912982Y-121292510D01*
X88840512Y-121166989D01*
X88840510Y-121166987D01*
X88840509Y-121166985D01*
X88823525Y-121150001D01*
X88795750Y-121095487D01*
X88805321Y-121035055D01*
X88823526Y-121009998D01*
X88840509Y-120993015D01*
X88844682Y-120985788D01*
X88912982Y-120867489D01*
X88912982Y-120867487D01*
X88912984Y-120867485D01*
X88950500Y-120727475D01*
X88950500Y-120582525D01*
X88912984Y-120442515D01*
X88912982Y-120442512D01*
X88912982Y-120442510D01*
X88840512Y-120316989D01*
X88840510Y-120316987D01*
X88840509Y-120316985D01*
X88823525Y-120300001D01*
X88795750Y-120245487D01*
X88805321Y-120185055D01*
X88823526Y-120159998D01*
X88840509Y-120143015D01*
X88912984Y-120017485D01*
X88950500Y-119877475D01*
X88950500Y-119740133D01*
X88957663Y-119718085D01*
X88961290Y-119695188D01*
X88966938Y-119689539D01*
X88969407Y-119681942D01*
X88988163Y-119668314D01*
X89004555Y-119651923D01*
X89012444Y-119650673D01*
X89018907Y-119645978D01*
X89042092Y-119645978D01*
X89064987Y-119642352D01*
X89072104Y-119645978D01*
X89080093Y-119645978D01*
X89119504Y-119670129D01*
X89170504Y-119721129D01*
X89198281Y-119775646D01*
X89199500Y-119791133D01*
X89199500Y-119877475D01*
X89229087Y-119987896D01*
X89237017Y-120017489D01*
X89309487Y-120143010D01*
X89309492Y-120143016D01*
X89326473Y-120159998D01*
X89354250Y-120214515D01*
X89344677Y-120274947D01*
X89326473Y-120300002D01*
X89309492Y-120316983D01*
X89309487Y-120316989D01*
X89237017Y-120442510D01*
X89199500Y-120582525D01*
X89199500Y-120727474D01*
X89237017Y-120867489D01*
X89309487Y-120993010D01*
X89309492Y-120993016D01*
X89326473Y-121009998D01*
X89354250Y-121064515D01*
X89344677Y-121124947D01*
X89326473Y-121150002D01*
X89309492Y-121166983D01*
X89309487Y-121166989D01*
X89237017Y-121292510D01*
X89199500Y-121432525D01*
X89199500Y-121577474D01*
X89237017Y-121717489D01*
X89309487Y-121843010D01*
X89309489Y-121843012D01*
X89309491Y-121843015D01*
X89411985Y-121945509D01*
X89411987Y-121945510D01*
X89411989Y-121945512D01*
X89537511Y-122017982D01*
X89537512Y-122017982D01*
X89537515Y-122017984D01*
X89677525Y-122055500D01*
X89677526Y-122055500D01*
X89822474Y-122055500D01*
X89822475Y-122055500D01*
X89962485Y-122017984D01*
X89962487Y-122017982D01*
X89962489Y-122017982D01*
X90088010Y-121945512D01*
X90088010Y-121945511D01*
X90088015Y-121945509D01*
X90190509Y-121843015D01*
X90262984Y-121717485D01*
X90300500Y-121577475D01*
X90300500Y-121432525D01*
X90262984Y-121292515D01*
X90262982Y-121292512D01*
X90262982Y-121292510D01*
X90190512Y-121166989D01*
X90190510Y-121166987D01*
X90190509Y-121166985D01*
X90173525Y-121150001D01*
X90145750Y-121095487D01*
X90155321Y-121035055D01*
X90173526Y-121009998D01*
X90190509Y-120993015D01*
X90194682Y-120985788D01*
X90262982Y-120867489D01*
X90262982Y-120867487D01*
X90262984Y-120867485D01*
X90300500Y-120727475D01*
X90300500Y-120582525D01*
X90262984Y-120442515D01*
X90262982Y-120442512D01*
X90262982Y-120442510D01*
X90190512Y-120316989D01*
X90190510Y-120316987D01*
X90190509Y-120316985D01*
X90173525Y-120300001D01*
X90145750Y-120245487D01*
X90155321Y-120185055D01*
X90173526Y-120159998D01*
X90190509Y-120143015D01*
X90262984Y-120017485D01*
X90300500Y-119877475D01*
X90300500Y-119732525D01*
X90262984Y-119592515D01*
X90262982Y-119592512D01*
X90262982Y-119592510D01*
X90190512Y-119466989D01*
X90190510Y-119466987D01*
X90190509Y-119466985D01*
X90173525Y-119450001D01*
X90145750Y-119395487D01*
X90155321Y-119335055D01*
X90173526Y-119309998D01*
X90190509Y-119293015D01*
X90262984Y-119167485D01*
X90300500Y-119027475D01*
X90300500Y-118882525D01*
X90262984Y-118742515D01*
X90262982Y-118742512D01*
X90262982Y-118742510D01*
X90190512Y-118616989D01*
X90190510Y-118616987D01*
X90190509Y-118616985D01*
X90173525Y-118600001D01*
X90166808Y-118586818D01*
X90156157Y-118576549D01*
X90153267Y-118560242D01*
X90145750Y-118545487D01*
X90148064Y-118530872D01*
X90145483Y-118516302D01*
X90152651Y-118501908D01*
X90155321Y-118485055D01*
X90172260Y-118461287D01*
X90172877Y-118460646D01*
X90190509Y-118443015D01*
X90191453Y-118441379D01*
X90196845Y-118435787D01*
X90219156Y-118423900D01*
X90239989Y-118409580D01*
X90248299Y-118408374D01*
X90250846Y-118407018D01*
X90254312Y-118407502D01*
X90268116Y-118405500D01*
X91535500Y-118405500D01*
X91593691Y-118424407D01*
X91629655Y-118473907D01*
X91634500Y-118504500D01*
X91634500Y-118564274D01*
X91637353Y-118594694D01*
X91637355Y-118594703D01*
X91682207Y-118722883D01*
X91762845Y-118832144D01*
X91762847Y-118832146D01*
X91762850Y-118832150D01*
X91762853Y-118832152D01*
X91762855Y-118832154D01*
X91872116Y-118912792D01*
X91872117Y-118912792D01*
X91872118Y-118912793D01*
X92000301Y-118957646D01*
X92030725Y-118960499D01*
X92030727Y-118960500D01*
X92030734Y-118960500D01*
X93389273Y-118960500D01*
X93389273Y-118960499D01*
X93419699Y-118957646D01*
X93547882Y-118912793D01*
X93657150Y-118832150D01*
X93737793Y-118722882D01*
X93782646Y-118594699D01*
X93785499Y-118564273D01*
X93785500Y-118564273D01*
X93785500Y-117655727D01*
X93785499Y-117655725D01*
X93782646Y-117625301D01*
X93737793Y-117497118D01*
X93657150Y-117387850D01*
X93657146Y-117387847D01*
X93657144Y-117387845D01*
X93547883Y-117307207D01*
X93419703Y-117262355D01*
X93419694Y-117262353D01*
X93389274Y-117259500D01*
X93389266Y-117259500D01*
X92030734Y-117259500D01*
X92030725Y-117259500D01*
X92000305Y-117262353D01*
X92000296Y-117262355D01*
X91872116Y-117307207D01*
X91762855Y-117387845D01*
X91762845Y-117387855D01*
X91682207Y-117497116D01*
X91637355Y-117625296D01*
X91637353Y-117625305D01*
X91634500Y-117655725D01*
X91634500Y-117705500D01*
X91615593Y-117763691D01*
X91566093Y-117799655D01*
X91535500Y-117804500D01*
X90268116Y-117804500D01*
X90259655Y-117801751D01*
X90250846Y-117802982D01*
X90236357Y-117794181D01*
X90209925Y-117785593D01*
X90196845Y-117774213D01*
X90191453Y-117768620D01*
X90190509Y-117766985D01*
X90172877Y-117749353D01*
X90172260Y-117748713D01*
X90159248Y-117721979D01*
X90145750Y-117695487D01*
X90145898Y-117694551D01*
X90145483Y-117693698D01*
X90150670Y-117664415D01*
X90155321Y-117635055D01*
X90156050Y-117634050D01*
X90156157Y-117633451D01*
X90157256Y-117632390D01*
X90173526Y-117609998D01*
X90190509Y-117593015D01*
X90190512Y-117593010D01*
X90262982Y-117467489D01*
X90262982Y-117467487D01*
X90262984Y-117467485D01*
X90300500Y-117327475D01*
X90300500Y-117182525D01*
X90262984Y-117042515D01*
X90262982Y-117042512D01*
X90262982Y-117042510D01*
X90190512Y-116916989D01*
X90190510Y-116916987D01*
X90190509Y-116916985D01*
X90088015Y-116814491D01*
X90088012Y-116814489D01*
X90088010Y-116814487D01*
X89962488Y-116742017D01*
X89962489Y-116742017D01*
X89932896Y-116734087D01*
X89822475Y-116704500D01*
X89677525Y-116704500D01*
X89615790Y-116721041D01*
X89537510Y-116742017D01*
X89411989Y-116814487D01*
X89309487Y-116916989D01*
X89237017Y-117042510D01*
X89199500Y-117182525D01*
X89199500Y-117327474D01*
X89237017Y-117467489D01*
X89309487Y-117593010D01*
X89309492Y-117593016D01*
X89326473Y-117609998D01*
X89354250Y-117664515D01*
X89344677Y-117724947D01*
X89326473Y-117750002D01*
X89309492Y-117766983D01*
X89309487Y-117766989D01*
X89237017Y-117892510D01*
X89199500Y-118032525D01*
X89199500Y-118177474D01*
X89237017Y-118317489D01*
X89309487Y-118443010D01*
X89309492Y-118443016D01*
X89326473Y-118459998D01*
X89354250Y-118514515D01*
X89344677Y-118574947D01*
X89326473Y-118600002D01*
X89309492Y-118616983D01*
X89309487Y-118616989D01*
X89237016Y-118742512D01*
X89236544Y-118743653D01*
X89235970Y-118744324D01*
X89233771Y-118748134D01*
X89233064Y-118747726D01*
X89196803Y-118790175D01*
X89137307Y-118804453D01*
X89080781Y-118781034D01*
X89075092Y-118775775D01*
X89013857Y-118714540D01*
X89013854Y-118714538D01*
X88945338Y-118674980D01*
X88945334Y-118674978D01*
X88900543Y-118662976D01*
X88851617Y-118632491D01*
X88845262Y-118625219D01*
X88840509Y-118616985D01*
X88821168Y-118597644D01*
X88818981Y-118595141D01*
X88808200Y-118569922D01*
X88795750Y-118545487D01*
X88796291Y-118542066D01*
X88794930Y-118538881D01*
X88801030Y-118512142D01*
X88805321Y-118485055D01*
X88808077Y-118481261D01*
X88808541Y-118479229D01*
X88811314Y-118476805D01*
X88823526Y-118459998D01*
X88840509Y-118443015D01*
X88844682Y-118435787D01*
X88912982Y-118317489D01*
X88912982Y-118317487D01*
X88912984Y-118317485D01*
X88950500Y-118177475D01*
X88950500Y-118032525D01*
X88912984Y-117892515D01*
X88912982Y-117892512D01*
X88912982Y-117892510D01*
X88840512Y-117766989D01*
X88840510Y-117766987D01*
X88840509Y-117766985D01*
X88823525Y-117750001D01*
X88795750Y-117695487D01*
X88805321Y-117635055D01*
X88823526Y-117609998D01*
X88840509Y-117593015D01*
X88840512Y-117593010D01*
X88912982Y-117467489D01*
X88912982Y-117467487D01*
X88912984Y-117467485D01*
X88950500Y-117327475D01*
X88950500Y-117182525D01*
X88912984Y-117042515D01*
X88912982Y-117042512D01*
X88912982Y-117042510D01*
X88840512Y-116916989D01*
X88840510Y-116916987D01*
X88840509Y-116916985D01*
X88738015Y-116814491D01*
X88738012Y-116814489D01*
X88738010Y-116814487D01*
X88612488Y-116742017D01*
X88612489Y-116742017D01*
X88582896Y-116734087D01*
X88472475Y-116704500D01*
X88327525Y-116704500D01*
X88265790Y-116721041D01*
X88187510Y-116742017D01*
X88061989Y-116814487D01*
X87959487Y-116916989D01*
X87887017Y-117042510D01*
X87849500Y-117182525D01*
X87849500Y-117327474D01*
X87887017Y-117467489D01*
X87959487Y-117593010D01*
X87959492Y-117593016D01*
X87976473Y-117609998D01*
X88004250Y-117664515D01*
X87994677Y-117724947D01*
X87976473Y-117750002D01*
X87959492Y-117766983D01*
X87959487Y-117766989D01*
X87887017Y-117892510D01*
X87849500Y-118032525D01*
X87849500Y-118177474D01*
X87887017Y-118317489D01*
X87959487Y-118443010D01*
X87959492Y-118443016D01*
X87976473Y-118459998D01*
X88004250Y-118514515D01*
X87994677Y-118574947D01*
X87976473Y-118600002D01*
X87959492Y-118616983D01*
X87959487Y-118616989D01*
X87887017Y-118742510D01*
X87849500Y-118882525D01*
X87849500Y-119027474D01*
X87887017Y-119167489D01*
X87959487Y-119293010D01*
X87959492Y-119293016D01*
X87976473Y-119309998D01*
X88004250Y-119364515D01*
X87994677Y-119424947D01*
X87976473Y-119450002D01*
X87959492Y-119466983D01*
X87959487Y-119466989D01*
X87887017Y-119592510D01*
X87853369Y-119718085D01*
X87849500Y-119732525D01*
X87849500Y-119877475D01*
X87879087Y-119987896D01*
X87887017Y-120017489D01*
X87959487Y-120143010D01*
X87959492Y-120143016D01*
X87976473Y-120159998D01*
X87983189Y-120173179D01*
X87993841Y-120183449D01*
X87996730Y-120199756D01*
X88004250Y-120214515D01*
X88001934Y-120229129D01*
X88004516Y-120243696D01*
X87997347Y-120258089D01*
X87994677Y-120274947D01*
X87977740Y-120298712D01*
X87977095Y-120299380D01*
X87959491Y-120316985D01*
X87958546Y-120318620D01*
X87953156Y-120324212D01*
X87930842Y-120336099D01*
X87910011Y-120350420D01*
X87901702Y-120351625D01*
X87899156Y-120352982D01*
X87895688Y-120352497D01*
X87881884Y-120354500D01*
X86899500Y-120354500D01*
X86841309Y-120335593D01*
X86805345Y-120286093D01*
X86800500Y-120255500D01*
X86800500Y-120195727D01*
X86800499Y-120195725D01*
X86797646Y-120165301D01*
X86752793Y-120037118D01*
X86738306Y-120017489D01*
X86672154Y-119927855D01*
X86672152Y-119927853D01*
X86672150Y-119927850D01*
X86672146Y-119927847D01*
X86672144Y-119927845D01*
X86562883Y-119847207D01*
X86434703Y-119802355D01*
X86434694Y-119802353D01*
X86404274Y-119799500D01*
X86404266Y-119799500D01*
X85045734Y-119799500D01*
X85045725Y-119799500D01*
X85015305Y-119802353D01*
X85015296Y-119802355D01*
X84887116Y-119847207D01*
X84777855Y-119927845D01*
X84777845Y-119927855D01*
X84697207Y-120037116D01*
X84652355Y-120165296D01*
X84652353Y-120165305D01*
X84649500Y-120195725D01*
X83820500Y-120195725D01*
X83820500Y-110890253D01*
X85309500Y-110890253D01*
X85309500Y-112629746D01*
X85309501Y-112629758D01*
X85321132Y-112688227D01*
X85321134Y-112688233D01*
X85365445Y-112754548D01*
X85365448Y-112754552D01*
X85431769Y-112798867D01*
X85476231Y-112807711D01*
X85490241Y-112810498D01*
X85490246Y-112810498D01*
X85490252Y-112810500D01*
X85490253Y-112810500D01*
X87229747Y-112810500D01*
X87229748Y-112810500D01*
X87288231Y-112798867D01*
X87354552Y-112754552D01*
X87398867Y-112688231D01*
X87410500Y-112629748D01*
X87410500Y-112355435D01*
X94314500Y-112355435D01*
X94314500Y-126404564D01*
X94334978Y-126480988D01*
X94334980Y-126480992D01*
X94374538Y-126549508D01*
X94374540Y-126549511D01*
X95065489Y-127240460D01*
X95065491Y-127240461D01*
X95065493Y-127240463D01*
X95134008Y-127280020D01*
X95134006Y-127280020D01*
X95134010Y-127280021D01*
X95134012Y-127280022D01*
X95210438Y-127300500D01*
X95441268Y-127300500D01*
X95499459Y-127319407D01*
X95532732Y-127361614D01*
X95589058Y-127497597D01*
X95704020Y-127669651D01*
X95704023Y-127669655D01*
X95850345Y-127815977D01*
X96022402Y-127930941D01*
X96213580Y-128010130D01*
X96416535Y-128050500D01*
X96416536Y-128050500D01*
X96623464Y-128050500D01*
X96623465Y-128050500D01*
X96826420Y-128010130D01*
X97017598Y-127930941D01*
X97189655Y-127815977D01*
X97335977Y-127669655D01*
X97450941Y-127497598D01*
X97530130Y-127306420D01*
X97570500Y-127103465D01*
X97570500Y-126896535D01*
X97530130Y-126693580D01*
X97450941Y-126502402D01*
X97335977Y-126330345D01*
X97189655Y-126184023D01*
X97109182Y-126130253D01*
X97017597Y-126069058D01*
X96826418Y-125989869D01*
X96623467Y-125949500D01*
X96623465Y-125949500D01*
X96416535Y-125949500D01*
X96416532Y-125949500D01*
X96213581Y-125989869D01*
X96022402Y-126069058D01*
X95850348Y-126184020D01*
X95704020Y-126330348D01*
X95589058Y-126502402D01*
X95532732Y-126638386D01*
X95515268Y-126658832D01*
X95499459Y-126680593D01*
X95495617Y-126681841D01*
X95492995Y-126684912D01*
X95441268Y-126699500D01*
X95415479Y-126699500D01*
X95357288Y-126680593D01*
X95345475Y-126670504D01*
X94944496Y-126269525D01*
X94916719Y-126215008D01*
X94915500Y-126199521D01*
X94915500Y-114196532D01*
X95469500Y-114196532D01*
X95469500Y-114403467D01*
X95509869Y-114606418D01*
X95589058Y-114797597D01*
X95589059Y-114797598D01*
X95704023Y-114969655D01*
X95850345Y-115115977D01*
X96022402Y-115230941D01*
X96158385Y-115287267D01*
X96204911Y-115327003D01*
X96219500Y-115378731D01*
X96219500Y-123381267D01*
X96200593Y-123439458D01*
X96158387Y-123472731D01*
X96022401Y-123529059D01*
X95850348Y-123644020D01*
X95704020Y-123790348D01*
X95589058Y-123962402D01*
X95509869Y-124153581D01*
X95469500Y-124356532D01*
X95469500Y-124563467D01*
X95509869Y-124766418D01*
X95589058Y-124957597D01*
X95589059Y-124957598D01*
X95704023Y-125129655D01*
X95850345Y-125275977D01*
X96022402Y-125390941D01*
X96213580Y-125470130D01*
X96416535Y-125510500D01*
X96416536Y-125510500D01*
X96623464Y-125510500D01*
X96623465Y-125510500D01*
X96826420Y-125470130D01*
X97017598Y-125390941D01*
X97189655Y-125275977D01*
X97335977Y-125129655D01*
X97450941Y-124957598D01*
X97530130Y-124766420D01*
X97570500Y-124563465D01*
X97570500Y-124356535D01*
X97530130Y-124153580D01*
X97450941Y-123962402D01*
X97335977Y-123790345D01*
X97189655Y-123644023D01*
X97017598Y-123529059D01*
X96881613Y-123472731D01*
X96835088Y-123432994D01*
X96820500Y-123381267D01*
X96820500Y-115378731D01*
X96839407Y-115320540D01*
X96881614Y-115287267D01*
X97017598Y-115230941D01*
X97189655Y-115115977D01*
X97335977Y-114969655D01*
X97450941Y-114797598D01*
X97530130Y-114606420D01*
X97570500Y-114403465D01*
X97570500Y-114196535D01*
X97530130Y-113993580D01*
X97450941Y-113802402D01*
X97335977Y-113630345D01*
X97189655Y-113484023D01*
X97017598Y-113369059D01*
X97017599Y-113369059D01*
X97017597Y-113369058D01*
X96826418Y-113289869D01*
X96623467Y-113249500D01*
X96623465Y-113249500D01*
X96416535Y-113249500D01*
X96416532Y-113249500D01*
X96213581Y-113289869D01*
X96022402Y-113369058D01*
X95850348Y-113484020D01*
X95704020Y-113630348D01*
X95589058Y-113802402D01*
X95509869Y-113993581D01*
X95469500Y-114196532D01*
X94915500Y-114196532D01*
X94915500Y-112560479D01*
X94934407Y-112502288D01*
X94944496Y-112490475D01*
X95345475Y-112089496D01*
X95352592Y-112085869D01*
X95357288Y-112079407D01*
X95379336Y-112072243D01*
X95399992Y-112061719D01*
X95415479Y-112060500D01*
X95441268Y-112060500D01*
X95499459Y-112079407D01*
X95532732Y-112121614D01*
X95589058Y-112257597D01*
X95654431Y-112355435D01*
X95704023Y-112429655D01*
X95850345Y-112575977D01*
X96022402Y-112690941D01*
X96213580Y-112770130D01*
X96416535Y-112810500D01*
X96416536Y-112810500D01*
X96623464Y-112810500D01*
X96623465Y-112810500D01*
X96826420Y-112770130D01*
X97017598Y-112690941D01*
X97189655Y-112575977D01*
X97335977Y-112429655D01*
X97450941Y-112257598D01*
X97530130Y-112066420D01*
X97570500Y-111863465D01*
X97570500Y-111656535D01*
X97530130Y-111453580D01*
X97450941Y-111262402D01*
X97335977Y-111090345D01*
X97189655Y-110944023D01*
X97109182Y-110890253D01*
X97017597Y-110829058D01*
X96826418Y-110749869D01*
X96623467Y-110709500D01*
X96623465Y-110709500D01*
X96416535Y-110709500D01*
X96416532Y-110709500D01*
X96213581Y-110749869D01*
X96022402Y-110829058D01*
X95850348Y-110944020D01*
X95704020Y-111090348D01*
X95589058Y-111262402D01*
X95532732Y-111398386D01*
X95492995Y-111444912D01*
X95441268Y-111459500D01*
X95289562Y-111459500D01*
X95210438Y-111459500D01*
X95163661Y-111472033D01*
X95134007Y-111479979D01*
X95065493Y-111519536D01*
X94430489Y-112154540D01*
X94430488Y-112154539D01*
X94374539Y-112210489D01*
X94334980Y-112279007D01*
X94334978Y-112279011D01*
X94314500Y-112355435D01*
X87410500Y-112355435D01*
X87410500Y-110890252D01*
X87398867Y-110831769D01*
X87354552Y-110765448D01*
X87354548Y-110765445D01*
X87288233Y-110721134D01*
X87288231Y-110721133D01*
X87288228Y-110721132D01*
X87288227Y-110721132D01*
X87229758Y-110709501D01*
X87229748Y-110709500D01*
X85490252Y-110709500D01*
X85490251Y-110709500D01*
X85490241Y-110709501D01*
X85431772Y-110721132D01*
X85431766Y-110721134D01*
X85365451Y-110765445D01*
X85365445Y-110765451D01*
X85321134Y-110831766D01*
X85321132Y-110831772D01*
X85309501Y-110890241D01*
X85309500Y-110890253D01*
X83820500Y-110890253D01*
X83820500Y-108590563D01*
X83821122Y-108579479D01*
X83821123Y-108579470D01*
X83834246Y-108462993D01*
X83836994Y-108448472D01*
X83843292Y-108424965D01*
X83845463Y-108417930D01*
X83869145Y-108350253D01*
X87849500Y-108350253D01*
X87849500Y-110089746D01*
X87849501Y-110089758D01*
X87857566Y-110130299D01*
X87861133Y-110148231D01*
X87905448Y-110214552D01*
X87905451Y-110214554D01*
X87968485Y-110256673D01*
X87971769Y-110258867D01*
X88016231Y-110267711D01*
X88030241Y-110270498D01*
X88030246Y-110270498D01*
X88030252Y-110270500D01*
X88030253Y-110270500D01*
X89769747Y-110270500D01*
X89769748Y-110270500D01*
X89828231Y-110258867D01*
X89894552Y-110214552D01*
X89938867Y-110148231D01*
X89950500Y-110089748D01*
X89950500Y-108350252D01*
X89938867Y-108291769D01*
X89894552Y-108225448D01*
X89894548Y-108225445D01*
X89828233Y-108181134D01*
X89828231Y-108181133D01*
X89828228Y-108181132D01*
X89828227Y-108181132D01*
X89769758Y-108169501D01*
X89769748Y-108169500D01*
X88030252Y-108169500D01*
X88030251Y-108169500D01*
X88030241Y-108169501D01*
X87971772Y-108181132D01*
X87971766Y-108181134D01*
X87905451Y-108225445D01*
X87905445Y-108225451D01*
X87861134Y-108291766D01*
X87861132Y-108291772D01*
X87849501Y-108350241D01*
X87849500Y-108350253D01*
X83869145Y-108350253D01*
X83879485Y-108320702D01*
X83887181Y-108303923D01*
X83888757Y-108301194D01*
X83890573Y-108298180D01*
X83952995Y-108198836D01*
X83966808Y-108181515D01*
X84051515Y-108096808D01*
X84068836Y-108082995D01*
X84168157Y-108020588D01*
X84171195Y-108018756D01*
X84173923Y-108017181D01*
X84190702Y-108009485D01*
X84287930Y-107975463D01*
X84294965Y-107973292D01*
X84318472Y-107966994D01*
X84332993Y-107964246D01*
X84449479Y-107951121D01*
X84460563Y-107950500D01*
X90164437Y-107950500D01*
X90175520Y-107951121D01*
G37*
G04 #@! TD.AperFunction*
M02*
