M48
; DRILL file {KiCad 9.0.1} date 2025-05-25T20:29:21+0200
; FORMAT={-:-/ absolute / metric / decimal}
; #@! TF.CreationDate,2025-05-25T20:29:21+02:00
; #@! TF.GenerationSoftware,Kicad,Pcbnew,9.0.1
; #@! TF.FileFunction,Plated,1,2,PTH
FMAT,2
METRIC
; #@! TA.AperFunction,Plated,PTH,ComponentDrill
T1C0.400
; #@! TA.AperFunction,Plated,PTH,ComponentDrill
T2C0.600
; #@! TA.AperFunction,Plated,PTH,ComponentDrill
T3C1.000
%
G90
G05
T1
X88.4Y-116.405
X88.4Y-117.255
X88.4Y-118.105
X88.4Y-118.955
X88.4Y-119.805
X88.4Y-120.655
X88.4Y-121.505
X88.4Y-122.355
X89.75Y-116.405
X89.75Y-117.255
X89.75Y-118.105
X89.75Y-118.955
X89.75Y-119.805
X89.75Y-120.655
X89.75Y-121.505
X89.75Y-122.355
T3
X86.36Y-109.22
X86.36Y-111.76
X86.36Y-127.0
X86.36Y-129.54
X88.9Y-109.22
X88.9Y-111.76
X88.9Y-127.0
X88.9Y-129.54
X96.52Y-111.76
X96.52Y-114.3
X96.52Y-124.46
X96.52Y-127.0
T2
G00X85.79Y-115.055
M15
G01X84.99Y-115.055
M16
G05
G00X85.79Y-123.705
M15
G01X84.99Y-123.705
M16
G05
G00X89.52Y-115.055
M15
G01X88.02Y-115.055
M16
G05
G00X89.52Y-123.705
M15
G01X88.02Y-123.705
M16
G05
M30
