G04 #@! TF.GenerationSoftware,KiCad,Pcbnew,9.0.1*
G04 #@! TF.CreationDate,2025-05-25T20:29:29+02:00*
G04 #@! TF.ProjectId,USBC2,55534243-322e-46b6-9963-61645f706362,rev?*
G04 #@! TF.SameCoordinates,Original*
G04 #@! TF.FileFunction,Copper,L1,Top*
G04 #@! TF.FilePolarity,Positive*
%FSLAX46Y46*%
G04 Gerber Fmt 4.6, Leading zero omitted, Abs format (unit mm)*
G04 Created by KiCad (PCBNEW 9.0.1) date 2025-05-25 20:29:29*
%MOMM*%
%LPD*%
G01*
G04 APERTURE LIST*
G04 #@! TA.AperFunction,ComponentPad*
%ADD10C,0.700000*%
G04 #@! TD*
G04 #@! TA.AperFunction,ComponentPad*
%ADD11O,2.400000X0.900000*%
G04 #@! TD*
G04 #@! TA.AperFunction,ComponentPad*
%ADD12O,1.700000X0.900000*%
G04 #@! TD*
G04 #@! TA.AperFunction,ComponentPad*
%ADD13R,1.700000X1.700000*%
G04 #@! TD*
G04 #@! TA.AperFunction,ComponentPad*
%ADD14O,1.700000X1.700000*%
G04 #@! TD*
G04 #@! TA.AperFunction,ComponentPad*
%ADD15C,1.700000*%
G04 #@! TD*
G04 #@! TA.AperFunction,Conductor*
%ADD16C,0.200000*%
G04 #@! TD*
G04 APERTURE END LIST*
D10*
X89750000Y-116405000D03*
X89750000Y-117255000D03*
X89750000Y-118105000D03*
X89750000Y-118955000D03*
X89750000Y-119805000D03*
X89750000Y-120655000D03*
X89750000Y-121505000D03*
X89750000Y-122355000D03*
X88400000Y-122355000D03*
X88400000Y-121505000D03*
X88400000Y-120655000D03*
X88400000Y-119805000D03*
X88400000Y-118955000D03*
X88400000Y-118105000D03*
X88400000Y-117255000D03*
X88400000Y-116405000D03*
D11*
X88770000Y-115055000D03*
D12*
X85390000Y-115055000D03*
D11*
X88770000Y-123705000D03*
D12*
X85390000Y-123705000D03*
D13*
X86360000Y-127000000D03*
D14*
X88900000Y-127000000D03*
D15*
X96520000Y-111760000D03*
D14*
X96520000Y-114300000D03*
D15*
X96520000Y-127000000D03*
D14*
X96520000Y-124460000D03*
D13*
X86360000Y-111760000D03*
D14*
X88900000Y-111760000D03*
D13*
X88900000Y-109220000D03*
D15*
X86360000Y-109220000D03*
D13*
X88900000Y-129540000D03*
D15*
X86360000Y-129540000D03*
D16*
X94615000Y-116205000D02*
X94615000Y-112395000D01*
X89750000Y-118955000D02*
X91865000Y-118955000D01*
X94615000Y-112395000D02*
X95250000Y-111760000D01*
X91865000Y-118955000D02*
X94615000Y-116205000D01*
X89320654Y-118955000D02*
X88470654Y-119805000D01*
X88470654Y-119805000D02*
X88400000Y-119805000D01*
X89750000Y-118955000D02*
X89320654Y-118955000D01*
X95250000Y-111760000D02*
X96520000Y-111760000D01*
X94615000Y-122555000D02*
X94615000Y-123825000D01*
X89750000Y-119805000D02*
X91865000Y-119805000D01*
X96520000Y-124460000D02*
X95250000Y-124460000D01*
X95250000Y-124460000D02*
X94615000Y-123825000D01*
X91865000Y-119805000D02*
X94615000Y-122555000D01*
G04 #@! TA.AperFunction,Conductor*
G36*
X90175520Y-107951121D02*
G01*
X90292001Y-107964245D01*
X90306532Y-107966995D01*
X90330019Y-107973288D01*
X90337084Y-107975468D01*
X90434289Y-108009482D01*
X90451091Y-108017190D01*
X90453727Y-108018712D01*
X90456896Y-108020622D01*
X90556158Y-108082993D01*
X90573490Y-108096814D01*
X90658185Y-108181509D01*
X90672007Y-108198842D01*
X90734377Y-108298103D01*
X90736286Y-108301271D01*
X90737808Y-108303907D01*
X90745517Y-108320712D01*
X90779528Y-108417910D01*
X90781710Y-108424983D01*
X90788003Y-108448467D01*
X90790754Y-108463007D01*
X90803877Y-108579470D01*
X90804500Y-108590555D01*
X90804500Y-109926606D01*
X90836366Y-110066217D01*
X90836368Y-110066224D01*
X90845057Y-110084266D01*
X90849085Y-110092632D01*
X90850806Y-110099052D01*
X90859070Y-110113366D01*
X90860680Y-110116709D01*
X90898500Y-110195243D01*
X90922281Y-110225064D01*
X90926908Y-110230866D01*
X90934047Y-110243231D01*
X90947485Y-110256669D01*
X90987790Y-110307210D01*
X90987794Y-110307213D01*
X90987797Y-110307216D01*
X91033979Y-110344045D01*
X91033980Y-110344045D01*
X91038329Y-110347513D01*
X91051769Y-110360953D01*
X91064133Y-110368091D01*
X91099754Y-110396498D01*
X91181626Y-110435925D01*
X91195948Y-110444194D01*
X91202368Y-110445913D01*
X91222938Y-110455820D01*
X91228777Y-110458632D01*
X91228778Y-110458632D01*
X91228780Y-110458633D01*
X91368396Y-110490500D01*
X91439793Y-110490500D01*
X97149437Y-110490500D01*
X97160520Y-110491121D01*
X97277001Y-110504245D01*
X97291532Y-110506995D01*
X97315019Y-110513288D01*
X97322084Y-110515468D01*
X97419289Y-110549482D01*
X97436091Y-110557190D01*
X97438727Y-110558712D01*
X97441896Y-110560622D01*
X97541158Y-110622993D01*
X97558490Y-110636814D01*
X97643185Y-110721509D01*
X97657007Y-110738842D01*
X97719377Y-110838103D01*
X97721286Y-110841271D01*
X97722808Y-110843907D01*
X97730517Y-110860712D01*
X97764528Y-110957910D01*
X97766710Y-110964983D01*
X97773003Y-110988467D01*
X97775754Y-111003007D01*
X97788877Y-111119470D01*
X97789500Y-111130555D01*
X97789500Y-127629444D01*
X97788877Y-127640529D01*
X97775754Y-127756991D01*
X97773003Y-127771531D01*
X97766710Y-127795015D01*
X97764528Y-127802088D01*
X97730517Y-127899286D01*
X97722808Y-127916091D01*
X97721286Y-127918727D01*
X97719377Y-127921895D01*
X97657007Y-128021157D01*
X97643185Y-128038490D01*
X97558490Y-128123185D01*
X97541157Y-128137007D01*
X97441895Y-128199377D01*
X97438727Y-128201286D01*
X97436091Y-128202808D01*
X97419286Y-128210517D01*
X97322088Y-128244528D01*
X97315015Y-128246710D01*
X97291531Y-128253003D01*
X97276991Y-128255754D01*
X97160529Y-128268877D01*
X97149444Y-128269500D01*
X91368393Y-128269500D01*
X91228784Y-128301365D01*
X91228780Y-128301367D01*
X91210732Y-128310058D01*
X91210731Y-128310058D01*
X91202363Y-128314086D01*
X91195948Y-128315806D01*
X91181652Y-128324059D01*
X91178289Y-128325679D01*
X91099757Y-128363499D01*
X91099754Y-128363501D01*
X91069930Y-128387282D01*
X91069931Y-128387283D01*
X91064124Y-128391913D01*
X91051769Y-128399047D01*
X91038337Y-128412478D01*
X91033987Y-128415948D01*
X90987793Y-128452786D01*
X90987786Y-128452793D01*
X90950948Y-128498987D01*
X90947478Y-128503337D01*
X90934047Y-128516769D01*
X90926914Y-128529123D01*
X90922286Y-128534927D01*
X90898501Y-128564754D01*
X90898499Y-128564757D01*
X90860681Y-128643282D01*
X90860682Y-128643283D01*
X90859059Y-128646652D01*
X90850806Y-128660948D01*
X90849087Y-128667360D01*
X90845059Y-128675727D01*
X90845058Y-128675732D01*
X90836367Y-128693780D01*
X90836365Y-128693784D01*
X90804500Y-128833393D01*
X90804500Y-130169444D01*
X90803877Y-130180529D01*
X90790754Y-130296991D01*
X90788003Y-130311531D01*
X90781710Y-130335015D01*
X90779528Y-130342088D01*
X90745517Y-130439286D01*
X90737808Y-130456091D01*
X90736286Y-130458727D01*
X90734377Y-130461895D01*
X90672007Y-130561157D01*
X90658185Y-130578490D01*
X90573490Y-130663185D01*
X90556157Y-130677007D01*
X90456895Y-130739377D01*
X90453727Y-130741286D01*
X90451091Y-130742808D01*
X90434286Y-130750517D01*
X90337088Y-130784528D01*
X90330015Y-130786710D01*
X90306531Y-130793003D01*
X90291991Y-130795754D01*
X90175529Y-130808877D01*
X90164444Y-130809500D01*
X84460556Y-130809500D01*
X84449471Y-130808877D01*
X84333007Y-130795754D01*
X84318467Y-130793003D01*
X84294983Y-130786710D01*
X84287910Y-130784528D01*
X84190712Y-130750517D01*
X84173907Y-130742808D01*
X84171271Y-130741286D01*
X84168103Y-130739377D01*
X84068842Y-130677007D01*
X84051509Y-130663185D01*
X83966814Y-130578490D01*
X83952993Y-130561158D01*
X83890622Y-130461896D01*
X83888712Y-130458727D01*
X83887190Y-130456091D01*
X83879481Y-130439286D01*
X83860912Y-130386220D01*
X83845468Y-130342084D01*
X83843287Y-130335013D01*
X83836996Y-130311535D01*
X83834245Y-130296996D01*
X83834244Y-130296991D01*
X83821122Y-130180520D01*
X83820500Y-130169436D01*
X83820500Y-129436532D01*
X85309500Y-129436532D01*
X85309500Y-129643467D01*
X85349869Y-129846418D01*
X85429058Y-130037597D01*
X85544020Y-130209651D01*
X85544023Y-130209655D01*
X85690345Y-130355977D01*
X85862402Y-130470941D01*
X86053580Y-130550130D01*
X86256535Y-130590500D01*
X86256536Y-130590500D01*
X86463464Y-130590500D01*
X86463465Y-130590500D01*
X86666420Y-130550130D01*
X86857598Y-130470941D01*
X87029655Y-130355977D01*
X87175977Y-130209655D01*
X87290941Y-130037598D01*
X87370130Y-129846420D01*
X87410500Y-129643465D01*
X87410500Y-129436535D01*
X87370130Y-129233580D01*
X87290941Y-129042402D01*
X87175977Y-128870345D01*
X87029655Y-128724023D01*
X86957382Y-128675732D01*
X86857597Y-128609058D01*
X86666418Y-128529869D01*
X86463467Y-128489500D01*
X86463465Y-128489500D01*
X86256535Y-128489500D01*
X86256532Y-128489500D01*
X86053581Y-128529869D01*
X85862402Y-128609058D01*
X85690348Y-128724020D01*
X85544020Y-128870348D01*
X85429058Y-129042402D01*
X85349869Y-129233581D01*
X85309500Y-129436532D01*
X83820500Y-129436532D01*
X83820500Y-126896532D01*
X87849500Y-126896532D01*
X87849500Y-127103467D01*
X87889869Y-127306418D01*
X87969058Y-127497597D01*
X88084020Y-127669651D01*
X88084023Y-127669655D01*
X88230345Y-127815977D01*
X88402402Y-127930941D01*
X88593580Y-128010130D01*
X88796535Y-128050500D01*
X88796536Y-128050500D01*
X89003464Y-128050500D01*
X89003465Y-128050500D01*
X89206420Y-128010130D01*
X89397598Y-127930941D01*
X89569655Y-127815977D01*
X89715977Y-127669655D01*
X89830941Y-127497598D01*
X89910130Y-127306420D01*
X89950500Y-127103465D01*
X89950500Y-126896535D01*
X89950499Y-126896532D01*
X95469500Y-126896532D01*
X95469500Y-127103467D01*
X95509869Y-127306418D01*
X95589058Y-127497597D01*
X95704020Y-127669651D01*
X95704023Y-127669655D01*
X95850345Y-127815977D01*
X96022402Y-127930941D01*
X96213580Y-128010130D01*
X96416535Y-128050500D01*
X96416536Y-128050500D01*
X96623464Y-128050500D01*
X96623465Y-128050500D01*
X96826420Y-128010130D01*
X97017598Y-127930941D01*
X97189655Y-127815977D01*
X97335977Y-127669655D01*
X97450941Y-127497598D01*
X97530130Y-127306420D01*
X97570500Y-127103465D01*
X97570500Y-126896535D01*
X97530130Y-126693580D01*
X97450941Y-126502402D01*
X97335977Y-126330345D01*
X97189655Y-126184023D01*
X97017598Y-126069059D01*
X97017599Y-126069059D01*
X97017597Y-126069058D01*
X96826418Y-125989869D01*
X96623467Y-125949500D01*
X96623465Y-125949500D01*
X96416535Y-125949500D01*
X96416532Y-125949500D01*
X96213581Y-125989869D01*
X96022402Y-126069058D01*
X95850348Y-126184020D01*
X95704020Y-126330348D01*
X95589058Y-126502402D01*
X95509869Y-126693581D01*
X95469500Y-126896532D01*
X89950499Y-126896532D01*
X89910130Y-126693580D01*
X89830941Y-126502402D01*
X89715977Y-126330345D01*
X89569655Y-126184023D01*
X89397598Y-126069059D01*
X89397599Y-126069059D01*
X89397597Y-126069058D01*
X89206418Y-125989869D01*
X89003467Y-125949500D01*
X89003465Y-125949500D01*
X88796535Y-125949500D01*
X88796532Y-125949500D01*
X88593581Y-125989869D01*
X88402402Y-126069058D01*
X88230348Y-126184020D01*
X88084020Y-126330348D01*
X87969058Y-126502402D01*
X87889869Y-126693581D01*
X87849500Y-126896532D01*
X83820500Y-126896532D01*
X83820500Y-123640931D01*
X84339500Y-123640931D01*
X84339500Y-123769069D01*
X84358495Y-123864562D01*
X84364499Y-123894742D01*
X84364500Y-123894747D01*
X84413534Y-124013125D01*
X84413538Y-124013133D01*
X84456365Y-124077226D01*
X84484724Y-124119669D01*
X84575331Y-124210276D01*
X84638848Y-124252717D01*
X84681866Y-124281461D01*
X84681870Y-124281463D01*
X84681873Y-124281465D01*
X84800256Y-124330501D01*
X84925931Y-124355500D01*
X84925932Y-124355500D01*
X85854068Y-124355500D01*
X85854069Y-124355500D01*
X85979744Y-124330501D01*
X86098127Y-124281465D01*
X86204669Y-124210276D01*
X86295276Y-124119669D01*
X86366465Y-124013127D01*
X86415501Y-123894744D01*
X86440500Y-123769069D01*
X86440500Y-123640931D01*
X87369500Y-123640931D01*
X87369500Y-123769069D01*
X87388495Y-123864562D01*
X87394499Y-123894742D01*
X87394500Y-123894747D01*
X87443534Y-124013125D01*
X87443538Y-124013133D01*
X87486365Y-124077226D01*
X87514724Y-124119669D01*
X87605331Y-124210276D01*
X87668848Y-124252717D01*
X87711866Y-124281461D01*
X87711870Y-124281463D01*
X87711873Y-124281465D01*
X87830256Y-124330501D01*
X87955931Y-124355500D01*
X87955932Y-124355500D01*
X89584068Y-124355500D01*
X89584069Y-124355500D01*
X89709744Y-124330501D01*
X89828127Y-124281465D01*
X89934669Y-124210276D01*
X90025276Y-124119669D01*
X90096465Y-124013127D01*
X90145501Y-123894744D01*
X90170500Y-123769069D01*
X90170500Y-123640931D01*
X90145501Y-123515256D01*
X90096465Y-123396873D01*
X90096463Y-123396870D01*
X90096461Y-123396866D01*
X90067717Y-123353848D01*
X90025276Y-123290331D01*
X89934669Y-123199724D01*
X89892226Y-123171365D01*
X89828133Y-123128538D01*
X89828125Y-123128534D01*
X89749494Y-123095964D01*
X89702969Y-123056227D01*
X89688685Y-122996732D01*
X89712100Y-122940205D01*
X89764269Y-122908235D01*
X89787380Y-122905500D01*
X89822474Y-122905500D01*
X89822475Y-122905500D01*
X89962485Y-122867984D01*
X89962487Y-122867982D01*
X89962489Y-122867982D01*
X90088010Y-122795512D01*
X90088010Y-122795511D01*
X90088015Y-122795509D01*
X90190509Y-122693015D01*
X90262984Y-122567485D01*
X90300500Y-122427475D01*
X90300500Y-122282525D01*
X90262984Y-122142515D01*
X90262982Y-122142512D01*
X90262982Y-122142510D01*
X90190512Y-122016989D01*
X90190510Y-122016987D01*
X90190509Y-122016985D01*
X90088015Y-121914491D01*
X90088012Y-121914489D01*
X90088010Y-121914487D01*
X89962488Y-121842017D01*
X89962489Y-121842017D01*
X89932896Y-121834087D01*
X89822475Y-121804500D01*
X89677525Y-121804500D01*
X89615790Y-121821041D01*
X89537510Y-121842017D01*
X89411989Y-121914487D01*
X89309487Y-122016989D01*
X89237017Y-122142510D01*
X89199500Y-122282525D01*
X89199500Y-122427474D01*
X89237017Y-122567489D01*
X89309487Y-122693010D01*
X89309489Y-122693012D01*
X89309491Y-122693015D01*
X89411985Y-122795509D01*
X89411987Y-122795510D01*
X89411989Y-122795512D01*
X89540597Y-122869764D01*
X89581538Y-122915233D01*
X89587934Y-122976083D01*
X89557341Y-123029071D01*
X89501445Y-123053958D01*
X89491097Y-123054500D01*
X88658903Y-123054500D01*
X88600712Y-123035593D01*
X88564748Y-122986093D01*
X88564748Y-122924907D01*
X88600712Y-122875407D01*
X88609403Y-122869764D01*
X88738010Y-122795512D01*
X88738010Y-122795511D01*
X88738015Y-122795509D01*
X88840509Y-122693015D01*
X88912984Y-122567485D01*
X88950500Y-122427475D01*
X88950500Y-122282525D01*
X88912984Y-122142515D01*
X88912982Y-122142512D01*
X88912982Y-122142510D01*
X88840512Y-122016989D01*
X88840510Y-122016987D01*
X88840509Y-122016985D01*
X88738015Y-121914491D01*
X88738012Y-121914489D01*
X88738010Y-121914487D01*
X88612488Y-121842017D01*
X88612489Y-121842017D01*
X88582896Y-121834087D01*
X88472475Y-121804500D01*
X88327525Y-121804500D01*
X88265790Y-121821041D01*
X88187510Y-121842017D01*
X88061989Y-121914487D01*
X87959487Y-122016989D01*
X87887017Y-122142510D01*
X87849500Y-122282525D01*
X87849500Y-122427474D01*
X87887017Y-122567489D01*
X87959487Y-122693010D01*
X87959489Y-122693012D01*
X87959491Y-122693015D01*
X88061985Y-122795509D01*
X88061987Y-122795510D01*
X88061989Y-122795512D01*
X88190597Y-122869764D01*
X88231538Y-122915233D01*
X88237934Y-122976083D01*
X88207341Y-123029071D01*
X88151445Y-123053958D01*
X88141097Y-123054500D01*
X87955930Y-123054500D01*
X87893093Y-123066999D01*
X87830256Y-123079499D01*
X87830255Y-123079499D01*
X87830252Y-123079500D01*
X87711874Y-123128534D01*
X87711866Y-123128538D01*
X87605331Y-123199724D01*
X87605327Y-123199727D01*
X87514727Y-123290327D01*
X87514724Y-123290331D01*
X87443538Y-123396866D01*
X87443534Y-123396874D01*
X87394500Y-123515252D01*
X87394499Y-123515255D01*
X87394499Y-123515256D01*
X87369500Y-123640931D01*
X86440500Y-123640931D01*
X86415501Y-123515256D01*
X86366465Y-123396873D01*
X86366463Y-123396870D01*
X86366461Y-123396866D01*
X86337717Y-123353848D01*
X86295276Y-123290331D01*
X86204669Y-123199724D01*
X86162226Y-123171365D01*
X86098133Y-123128538D01*
X86098125Y-123128534D01*
X85979747Y-123079500D01*
X85979745Y-123079499D01*
X85979744Y-123079499D01*
X85854069Y-123054500D01*
X84925931Y-123054500D01*
X84925930Y-123054500D01*
X84863093Y-123066999D01*
X84800256Y-123079499D01*
X84800255Y-123079499D01*
X84800252Y-123079500D01*
X84681874Y-123128534D01*
X84681866Y-123128538D01*
X84575331Y-123199724D01*
X84575327Y-123199727D01*
X84484727Y-123290327D01*
X84484724Y-123290331D01*
X84413538Y-123396866D01*
X84413534Y-123396874D01*
X84364500Y-123515252D01*
X84364499Y-123515255D01*
X84364499Y-123515256D01*
X84339500Y-123640931D01*
X83820500Y-123640931D01*
X83820500Y-118032525D01*
X87849500Y-118032525D01*
X87849500Y-118177474D01*
X87887017Y-118317489D01*
X87959487Y-118443010D01*
X87959492Y-118443016D01*
X87976473Y-118459998D01*
X88004250Y-118514515D01*
X87994677Y-118574947D01*
X87976473Y-118600002D01*
X87959492Y-118616983D01*
X87959487Y-118616989D01*
X87887017Y-118742510D01*
X87849500Y-118882525D01*
X87849500Y-119027474D01*
X87887017Y-119167489D01*
X87959487Y-119293010D01*
X87959492Y-119293016D01*
X87976473Y-119309998D01*
X88004250Y-119364515D01*
X87994677Y-119424947D01*
X87976473Y-119450002D01*
X87959492Y-119466983D01*
X87959487Y-119466989D01*
X87887017Y-119592510D01*
X87849500Y-119732525D01*
X87849500Y-119877474D01*
X87887017Y-120017489D01*
X87959487Y-120143010D01*
X87959492Y-120143016D01*
X87976473Y-120159998D01*
X88004250Y-120214515D01*
X87994677Y-120274947D01*
X87976473Y-120300002D01*
X87959492Y-120316983D01*
X87959487Y-120316989D01*
X87887017Y-120442510D01*
X87849500Y-120582525D01*
X87849500Y-120727474D01*
X87887017Y-120867489D01*
X87959487Y-120993010D01*
X87959489Y-120993012D01*
X87959491Y-120993015D01*
X88061985Y-121095509D01*
X88061987Y-121095510D01*
X88061989Y-121095512D01*
X88187511Y-121167982D01*
X88187512Y-121167982D01*
X88187515Y-121167984D01*
X88327525Y-121205500D01*
X88327526Y-121205500D01*
X88472474Y-121205500D01*
X88472475Y-121205500D01*
X88612485Y-121167984D01*
X88612487Y-121167982D01*
X88612489Y-121167982D01*
X88738010Y-121095512D01*
X88738010Y-121095511D01*
X88738015Y-121095509D01*
X88840509Y-120993015D01*
X88912984Y-120867485D01*
X88950500Y-120727475D01*
X88950500Y-120582525D01*
X88912984Y-120442515D01*
X88912982Y-120442512D01*
X88912982Y-120442510D01*
X88840512Y-120316989D01*
X88840510Y-120316987D01*
X88840509Y-120316985D01*
X88823525Y-120300001D01*
X88795750Y-120245487D01*
X88805321Y-120185055D01*
X88823526Y-120159998D01*
X88840509Y-120143015D01*
X88844682Y-120135787D01*
X88912982Y-120017489D01*
X88912982Y-120017487D01*
X88912984Y-120017485D01*
X88950500Y-119877475D01*
X88950500Y-119791131D01*
X88952968Y-119783533D01*
X88951719Y-119775644D01*
X88962243Y-119754988D01*
X88969407Y-119732940D01*
X88979484Y-119721140D01*
X89030499Y-119670125D01*
X89085013Y-119642350D01*
X89145445Y-119651921D01*
X89188710Y-119695186D01*
X89199500Y-119740131D01*
X89199500Y-119877474D01*
X89237017Y-120017489D01*
X89309487Y-120143010D01*
X89309492Y-120143016D01*
X89326473Y-120159998D01*
X89354250Y-120214515D01*
X89344677Y-120274947D01*
X89326473Y-120300002D01*
X89309492Y-120316983D01*
X89309487Y-120316989D01*
X89237017Y-120442510D01*
X89199500Y-120582525D01*
X89199500Y-120727474D01*
X89237017Y-120867489D01*
X89309487Y-120993010D01*
X89309489Y-120993012D01*
X89309491Y-120993015D01*
X89411985Y-121095509D01*
X89411987Y-121095510D01*
X89411989Y-121095512D01*
X89537511Y-121167982D01*
X89537512Y-121167982D01*
X89537515Y-121167984D01*
X89677525Y-121205500D01*
X89677526Y-121205500D01*
X89822474Y-121205500D01*
X89822475Y-121205500D01*
X89962485Y-121167984D01*
X89962487Y-121167982D01*
X89962489Y-121167982D01*
X90088010Y-121095512D01*
X90088010Y-121095511D01*
X90088015Y-121095509D01*
X90190509Y-120993015D01*
X90262984Y-120867485D01*
X90300500Y-120727475D01*
X90300500Y-120582525D01*
X90262984Y-120442515D01*
X90262982Y-120442512D01*
X90262982Y-120442510D01*
X90190512Y-120316989D01*
X90190510Y-120316987D01*
X90190509Y-120316985D01*
X90173525Y-120300001D01*
X90166808Y-120286818D01*
X90156157Y-120276549D01*
X90153267Y-120260242D01*
X90145750Y-120245487D01*
X90148064Y-120230872D01*
X90145483Y-120216302D01*
X90152651Y-120201908D01*
X90155321Y-120185055D01*
X90172260Y-120161287D01*
X90172877Y-120160646D01*
X90190509Y-120143015D01*
X90191453Y-120141379D01*
X90196845Y-120135787D01*
X90219156Y-120123900D01*
X90239989Y-120109580D01*
X90248299Y-120108374D01*
X90250846Y-120107018D01*
X90254312Y-120107502D01*
X90268116Y-120105500D01*
X91699521Y-120105500D01*
X91757712Y-120124407D01*
X91769525Y-120134496D01*
X94285504Y-122650475D01*
X94313281Y-122704992D01*
X94314500Y-122720479D01*
X94314500Y-123864564D01*
X94334978Y-123940988D01*
X94334980Y-123940992D01*
X94374538Y-124009508D01*
X94374540Y-124009511D01*
X95065489Y-124700460D01*
X95065491Y-124700461D01*
X95065493Y-124700463D01*
X95134008Y-124740020D01*
X95134006Y-124740020D01*
X95134010Y-124740021D01*
X95134012Y-124740022D01*
X95210438Y-124760500D01*
X95289562Y-124760500D01*
X95441268Y-124760500D01*
X95499459Y-124779407D01*
X95532732Y-124821614D01*
X95589058Y-124957597D01*
X95589059Y-124957598D01*
X95704023Y-125129655D01*
X95850345Y-125275977D01*
X96022402Y-125390941D01*
X96213580Y-125470130D01*
X96416535Y-125510500D01*
X96416536Y-125510500D01*
X96623464Y-125510500D01*
X96623465Y-125510500D01*
X96826420Y-125470130D01*
X97017598Y-125390941D01*
X97189655Y-125275977D01*
X97335977Y-125129655D01*
X97450941Y-124957598D01*
X97530130Y-124766420D01*
X97570500Y-124563465D01*
X97570500Y-124356535D01*
X97530130Y-124153580D01*
X97450941Y-123962402D01*
X97335977Y-123790345D01*
X97189655Y-123644023D01*
X97185029Y-123640932D01*
X97017597Y-123529058D01*
X96826418Y-123449869D01*
X96623467Y-123409500D01*
X96623465Y-123409500D01*
X96416535Y-123409500D01*
X96416532Y-123409500D01*
X96213581Y-123449869D01*
X96022402Y-123529058D01*
X95850348Y-123644020D01*
X95704020Y-123790348D01*
X95589058Y-123962402D01*
X95532732Y-124098386D01*
X95515268Y-124118832D01*
X95499459Y-124140593D01*
X95495617Y-124141841D01*
X95492995Y-124144912D01*
X95441268Y-124159500D01*
X95415479Y-124159500D01*
X95357288Y-124140593D01*
X95345475Y-124130504D01*
X94944496Y-123729525D01*
X94916719Y-123675008D01*
X94915500Y-123659521D01*
X94915500Y-122515437D01*
X94915499Y-122515435D01*
X94895021Y-122439011D01*
X94895019Y-122439007D01*
X94855460Y-122370489D01*
X94799511Y-122314539D01*
X94799511Y-122314540D01*
X92049511Y-119564540D01*
X92049508Y-119564538D01*
X91980992Y-119524980D01*
X91980988Y-119524978D01*
X91904564Y-119504500D01*
X91904562Y-119504500D01*
X90268116Y-119504500D01*
X90259655Y-119501751D01*
X90250846Y-119502982D01*
X90236357Y-119494181D01*
X90209925Y-119485593D01*
X90196845Y-119474213D01*
X90191453Y-119468620D01*
X90190509Y-119466985D01*
X90172877Y-119449353D01*
X90172260Y-119448713D01*
X90159248Y-119421979D01*
X90145750Y-119395487D01*
X90145898Y-119394551D01*
X90145483Y-119393698D01*
X90150670Y-119364415D01*
X90155321Y-119335055D01*
X90156050Y-119334050D01*
X90156157Y-119333451D01*
X90157256Y-119332390D01*
X90173526Y-119309998D01*
X90190509Y-119293015D01*
X90190510Y-119293012D01*
X90195097Y-119288426D01*
X90196290Y-119289619D01*
X90239989Y-119259580D01*
X90268116Y-119255500D01*
X91904563Y-119255500D01*
X91904563Y-119255499D01*
X91980989Y-119235021D01*
X92049511Y-119195460D01*
X92105460Y-119139511D01*
X94855460Y-116389511D01*
X94880759Y-116345691D01*
X94895021Y-116320989D01*
X94915500Y-116244562D01*
X94915500Y-114196532D01*
X95469500Y-114196532D01*
X95469500Y-114403467D01*
X95509869Y-114606418D01*
X95589058Y-114797597D01*
X95634266Y-114865256D01*
X95704023Y-114969655D01*
X95850345Y-115115977D01*
X96022402Y-115230941D01*
X96213580Y-115310130D01*
X96416535Y-115350500D01*
X96416536Y-115350500D01*
X96623464Y-115350500D01*
X96623465Y-115350500D01*
X96826420Y-115310130D01*
X97017598Y-115230941D01*
X97189655Y-115115977D01*
X97335977Y-114969655D01*
X97450941Y-114797598D01*
X97530130Y-114606420D01*
X97570500Y-114403465D01*
X97570500Y-114196535D01*
X97530130Y-113993580D01*
X97450941Y-113802402D01*
X97335977Y-113630345D01*
X97189655Y-113484023D01*
X97017598Y-113369059D01*
X97017599Y-113369059D01*
X97017597Y-113369058D01*
X96826418Y-113289869D01*
X96623467Y-113249500D01*
X96623465Y-113249500D01*
X96416535Y-113249500D01*
X96416532Y-113249500D01*
X96213581Y-113289869D01*
X96022402Y-113369058D01*
X95850348Y-113484020D01*
X95704020Y-113630348D01*
X95589058Y-113802402D01*
X95509869Y-113993581D01*
X95469500Y-114196532D01*
X94915500Y-114196532D01*
X94915500Y-112560479D01*
X94934407Y-112502288D01*
X94944496Y-112490475D01*
X95345475Y-112089496D01*
X95352592Y-112085869D01*
X95357288Y-112079407D01*
X95379336Y-112072243D01*
X95399992Y-112061719D01*
X95415479Y-112060500D01*
X95441268Y-112060500D01*
X95499459Y-112079407D01*
X95532732Y-112121614D01*
X95589058Y-112257597D01*
X95654431Y-112355435D01*
X95704023Y-112429655D01*
X95850345Y-112575977D01*
X96022402Y-112690941D01*
X96213580Y-112770130D01*
X96416535Y-112810500D01*
X96416536Y-112810500D01*
X96623464Y-112810500D01*
X96623465Y-112810500D01*
X96826420Y-112770130D01*
X97017598Y-112690941D01*
X97189655Y-112575977D01*
X97335977Y-112429655D01*
X97450941Y-112257598D01*
X97530130Y-112066420D01*
X97570500Y-111863465D01*
X97570500Y-111656535D01*
X97530130Y-111453580D01*
X97450941Y-111262402D01*
X97335977Y-111090345D01*
X97189655Y-110944023D01*
X97144393Y-110913780D01*
X97017597Y-110829058D01*
X96826418Y-110749869D01*
X96623467Y-110709500D01*
X96623465Y-110709500D01*
X96416535Y-110709500D01*
X96416532Y-110709500D01*
X96213581Y-110749869D01*
X96022402Y-110829058D01*
X95850348Y-110944020D01*
X95704020Y-111090348D01*
X95589058Y-111262402D01*
X95532732Y-111398386D01*
X95492995Y-111444912D01*
X95441268Y-111459500D01*
X95289562Y-111459500D01*
X95210438Y-111459500D01*
X95163661Y-111472033D01*
X95134007Y-111479979D01*
X95065493Y-111519536D01*
X94430489Y-112154540D01*
X94430488Y-112154539D01*
X94374539Y-112210489D01*
X94334980Y-112279007D01*
X94334978Y-112279011D01*
X94314500Y-112355435D01*
X94314500Y-116039521D01*
X94295593Y-116097712D01*
X94285504Y-116109525D01*
X91769525Y-118625504D01*
X91715008Y-118653281D01*
X91699521Y-118654500D01*
X90268116Y-118654500D01*
X90259655Y-118651751D01*
X90250846Y-118652982D01*
X90236357Y-118644181D01*
X90209925Y-118635593D01*
X90196845Y-118624213D01*
X90191453Y-118618620D01*
X90190509Y-118616985D01*
X90172877Y-118599353D01*
X90172260Y-118598713D01*
X90159248Y-118571979D01*
X90145750Y-118545487D01*
X90145898Y-118544551D01*
X90145483Y-118543698D01*
X90150670Y-118514415D01*
X90155321Y-118485055D01*
X90156050Y-118484050D01*
X90156157Y-118483451D01*
X90157256Y-118482390D01*
X90173526Y-118459998D01*
X90190509Y-118443015D01*
X90262984Y-118317485D01*
X90300500Y-118177475D01*
X90300500Y-118032525D01*
X90262984Y-117892515D01*
X90262982Y-117892512D01*
X90262982Y-117892510D01*
X90190512Y-117766989D01*
X90190510Y-117766987D01*
X90190509Y-117766985D01*
X90088015Y-117664491D01*
X90088012Y-117664489D01*
X90088010Y-117664487D01*
X89962488Y-117592017D01*
X89962489Y-117592017D01*
X89932896Y-117584087D01*
X89822475Y-117554500D01*
X89677525Y-117554500D01*
X89615790Y-117571041D01*
X89537510Y-117592017D01*
X89411989Y-117664487D01*
X89309487Y-117766989D01*
X89237017Y-117892510D01*
X89199500Y-118032525D01*
X89199500Y-118177474D01*
X89237017Y-118317489D01*
X89309487Y-118443010D01*
X89309492Y-118443016D01*
X89326473Y-118459998D01*
X89332109Y-118471060D01*
X89341458Y-118479229D01*
X89345664Y-118497664D01*
X89354250Y-118514515D01*
X89352307Y-118526778D01*
X89355069Y-118538881D01*
X89347995Y-118554000D01*
X89344677Y-118574947D01*
X89331018Y-118595141D01*
X89328823Y-118597652D01*
X89309491Y-118616985D01*
X89304739Y-118625215D01*
X89298382Y-118632491D01*
X89280001Y-118643471D01*
X89264089Y-118657795D01*
X89249459Y-118662975D01*
X89204666Y-118674978D01*
X89204664Y-118674978D01*
X89204660Y-118674980D01*
X89136147Y-118714536D01*
X89136142Y-118714540D01*
X89074919Y-118775763D01*
X89020402Y-118803540D01*
X88959970Y-118793968D01*
X88916706Y-118750703D01*
X88913451Y-118743642D01*
X88912982Y-118742511D01*
X88840512Y-118616989D01*
X88840510Y-118616987D01*
X88840509Y-118616985D01*
X88823525Y-118600001D01*
X88795750Y-118545487D01*
X88805321Y-118485055D01*
X88823526Y-118459998D01*
X88840509Y-118443015D01*
X88912984Y-118317485D01*
X88950500Y-118177475D01*
X88950500Y-118032525D01*
X88912984Y-117892515D01*
X88912982Y-117892512D01*
X88912982Y-117892510D01*
X88840512Y-117766989D01*
X88840510Y-117766987D01*
X88840509Y-117766985D01*
X88738015Y-117664491D01*
X88738012Y-117664489D01*
X88738010Y-117664487D01*
X88612488Y-117592017D01*
X88612489Y-117592017D01*
X88582896Y-117584087D01*
X88472475Y-117554500D01*
X88327525Y-117554500D01*
X88265790Y-117571041D01*
X88187510Y-117592017D01*
X88061989Y-117664487D01*
X87959487Y-117766989D01*
X87887017Y-117892510D01*
X87849500Y-118032525D01*
X83820500Y-118032525D01*
X83820500Y-114990931D01*
X84339500Y-114990931D01*
X84339500Y-115119069D01*
X84361753Y-115230941D01*
X84364499Y-115244742D01*
X84364500Y-115244747D01*
X84413534Y-115363125D01*
X84413538Y-115363133D01*
X84456365Y-115427226D01*
X84484724Y-115469669D01*
X84575331Y-115560276D01*
X84638848Y-115602717D01*
X84681866Y-115631461D01*
X84681870Y-115631463D01*
X84681873Y-115631465D01*
X84800256Y-115680501D01*
X84925931Y-115705500D01*
X84925932Y-115705500D01*
X85854068Y-115705500D01*
X85854069Y-115705500D01*
X85979744Y-115680501D01*
X86098127Y-115631465D01*
X86204669Y-115560276D01*
X86295276Y-115469669D01*
X86366465Y-115363127D01*
X86415501Y-115244744D01*
X86440500Y-115119069D01*
X86440500Y-114990931D01*
X87369500Y-114990931D01*
X87369500Y-115119069D01*
X87391753Y-115230941D01*
X87394499Y-115244742D01*
X87394500Y-115244747D01*
X87443534Y-115363125D01*
X87443538Y-115363133D01*
X87486365Y-115427226D01*
X87514724Y-115469669D01*
X87605331Y-115560276D01*
X87668848Y-115602717D01*
X87711866Y-115631461D01*
X87711870Y-115631463D01*
X87711873Y-115631465D01*
X87830256Y-115680501D01*
X87955931Y-115705500D01*
X87955932Y-115705500D01*
X88141097Y-115705500D01*
X88199288Y-115724407D01*
X88235252Y-115773907D01*
X88235252Y-115835093D01*
X88199288Y-115884593D01*
X88190597Y-115890236D01*
X88061989Y-115964487D01*
X87959487Y-116066989D01*
X87887017Y-116192510D01*
X87849500Y-116332525D01*
X87849500Y-116477474D01*
X87887017Y-116617489D01*
X87959487Y-116743010D01*
X87959489Y-116743012D01*
X87959491Y-116743015D01*
X88061985Y-116845509D01*
X88061987Y-116845510D01*
X88061989Y-116845512D01*
X88187511Y-116917982D01*
X88187512Y-116917982D01*
X88187515Y-116917984D01*
X88327525Y-116955500D01*
X88327526Y-116955500D01*
X88472474Y-116955500D01*
X88472475Y-116955500D01*
X88612485Y-116917984D01*
X88612487Y-116917982D01*
X88612489Y-116917982D01*
X88738010Y-116845512D01*
X88738010Y-116845511D01*
X88738015Y-116845509D01*
X88840509Y-116743015D01*
X88912984Y-116617485D01*
X88950500Y-116477475D01*
X88950500Y-116332525D01*
X88912984Y-116192515D01*
X88912982Y-116192512D01*
X88912982Y-116192510D01*
X88840512Y-116066989D01*
X88840510Y-116066987D01*
X88840509Y-116066985D01*
X88738015Y-115964491D01*
X88738012Y-115964489D01*
X88738010Y-115964487D01*
X88609403Y-115890236D01*
X88568462Y-115844767D01*
X88562066Y-115783917D01*
X88592659Y-115730929D01*
X88648555Y-115706042D01*
X88658903Y-115705500D01*
X89491097Y-115705500D01*
X89549288Y-115724407D01*
X89585252Y-115773907D01*
X89585252Y-115835093D01*
X89549288Y-115884593D01*
X89540597Y-115890236D01*
X89411989Y-115964487D01*
X89309487Y-116066989D01*
X89237017Y-116192510D01*
X89199500Y-116332525D01*
X89199500Y-116477474D01*
X89237017Y-116617489D01*
X89309487Y-116743010D01*
X89309489Y-116743012D01*
X89309491Y-116743015D01*
X89411985Y-116845509D01*
X89411987Y-116845510D01*
X89411989Y-116845512D01*
X89537511Y-116917982D01*
X89537512Y-116917982D01*
X89537515Y-116917984D01*
X89677525Y-116955500D01*
X89677526Y-116955500D01*
X89822474Y-116955500D01*
X89822475Y-116955500D01*
X89962485Y-116917984D01*
X89962487Y-116917982D01*
X89962489Y-116917982D01*
X90088010Y-116845512D01*
X90088010Y-116845511D01*
X90088015Y-116845509D01*
X90190509Y-116743015D01*
X90262984Y-116617485D01*
X90300500Y-116477475D01*
X90300500Y-116332525D01*
X90262984Y-116192515D01*
X90262982Y-116192512D01*
X90262982Y-116192510D01*
X90190512Y-116066989D01*
X90190510Y-116066987D01*
X90190509Y-116066985D01*
X90088015Y-115964491D01*
X90088012Y-115964489D01*
X90088010Y-115964487D01*
X89962488Y-115892017D01*
X89962489Y-115892017D01*
X89932896Y-115884087D01*
X89822475Y-115854500D01*
X89787380Y-115854500D01*
X89729189Y-115835593D01*
X89693225Y-115786093D01*
X89693225Y-115724907D01*
X89729189Y-115675407D01*
X89749494Y-115664036D01*
X89753239Y-115662484D01*
X89828127Y-115631465D01*
X89934669Y-115560276D01*
X90025276Y-115469669D01*
X90096465Y-115363127D01*
X90145501Y-115244744D01*
X90170500Y-115119069D01*
X90170500Y-114990931D01*
X90145501Y-114865256D01*
X90096465Y-114746873D01*
X90096463Y-114746870D01*
X90096461Y-114746866D01*
X90067717Y-114703848D01*
X90025276Y-114640331D01*
X89934669Y-114549724D01*
X89892226Y-114521365D01*
X89828133Y-114478538D01*
X89828125Y-114478534D01*
X89709747Y-114429500D01*
X89709745Y-114429499D01*
X89709744Y-114429499D01*
X89584069Y-114404500D01*
X87955931Y-114404500D01*
X87955930Y-114404500D01*
X87893093Y-114416999D01*
X87830256Y-114429499D01*
X87830255Y-114429499D01*
X87830252Y-114429500D01*
X87711874Y-114478534D01*
X87711866Y-114478538D01*
X87605331Y-114549724D01*
X87605327Y-114549727D01*
X87514727Y-114640327D01*
X87514724Y-114640331D01*
X87443538Y-114746866D01*
X87443534Y-114746874D01*
X87394500Y-114865252D01*
X87394499Y-114865255D01*
X87394499Y-114865256D01*
X87369500Y-114990931D01*
X86440500Y-114990931D01*
X86415501Y-114865256D01*
X86366465Y-114746873D01*
X86366463Y-114746870D01*
X86366461Y-114746866D01*
X86337717Y-114703848D01*
X86295276Y-114640331D01*
X86204669Y-114549724D01*
X86162226Y-114521365D01*
X86098133Y-114478538D01*
X86098125Y-114478534D01*
X85979747Y-114429500D01*
X85979745Y-114429499D01*
X85979744Y-114429499D01*
X85854069Y-114404500D01*
X84925931Y-114404500D01*
X84925930Y-114404500D01*
X84863093Y-114416999D01*
X84800256Y-114429499D01*
X84800255Y-114429499D01*
X84800252Y-114429500D01*
X84681874Y-114478534D01*
X84681866Y-114478538D01*
X84575331Y-114549724D01*
X84575327Y-114549727D01*
X84484727Y-114640327D01*
X84484724Y-114640331D01*
X84413538Y-114746866D01*
X84413534Y-114746874D01*
X84364500Y-114865252D01*
X84364499Y-114865255D01*
X84364499Y-114865256D01*
X84339500Y-114990931D01*
X83820500Y-114990931D01*
X83820500Y-111656532D01*
X87849500Y-111656532D01*
X87849500Y-111863467D01*
X87889869Y-112066418D01*
X87969058Y-112257597D01*
X88034431Y-112355435D01*
X88084023Y-112429655D01*
X88230345Y-112575977D01*
X88402402Y-112690941D01*
X88593580Y-112770130D01*
X88796535Y-112810500D01*
X88796536Y-112810500D01*
X89003464Y-112810500D01*
X89003465Y-112810500D01*
X89206420Y-112770130D01*
X89397598Y-112690941D01*
X89569655Y-112575977D01*
X89715977Y-112429655D01*
X89830941Y-112257598D01*
X89910130Y-112066420D01*
X89950500Y-111863465D01*
X89950500Y-111656535D01*
X89910130Y-111453580D01*
X89830941Y-111262402D01*
X89715977Y-111090345D01*
X89569655Y-110944023D01*
X89524393Y-110913780D01*
X89397597Y-110829058D01*
X89206418Y-110749869D01*
X89003467Y-110709500D01*
X89003465Y-110709500D01*
X88796535Y-110709500D01*
X88796532Y-110709500D01*
X88593581Y-110749869D01*
X88402402Y-110829058D01*
X88230348Y-110944020D01*
X88084020Y-111090348D01*
X87969058Y-111262402D01*
X87889869Y-111453581D01*
X87849500Y-111656532D01*
X83820500Y-111656532D01*
X83820500Y-109116532D01*
X85309500Y-109116532D01*
X85309500Y-109323467D01*
X85349869Y-109526418D01*
X85429058Y-109717597D01*
X85429059Y-109717598D01*
X85544023Y-109889655D01*
X85690345Y-110035977D01*
X85862402Y-110150941D01*
X86053580Y-110230130D01*
X86256535Y-110270500D01*
X86256536Y-110270500D01*
X86463464Y-110270500D01*
X86463465Y-110270500D01*
X86666420Y-110230130D01*
X86857598Y-110150941D01*
X87029655Y-110035977D01*
X87175977Y-109889655D01*
X87290941Y-109717598D01*
X87370130Y-109526420D01*
X87410500Y-109323465D01*
X87410500Y-109116535D01*
X87370130Y-108913580D01*
X87290941Y-108722402D01*
X87175977Y-108550345D01*
X87029655Y-108404023D01*
X86984393Y-108373780D01*
X86857597Y-108289058D01*
X86666418Y-108209869D01*
X86463467Y-108169500D01*
X86463465Y-108169500D01*
X86256535Y-108169500D01*
X86256532Y-108169500D01*
X86053581Y-108209869D01*
X85862402Y-108289058D01*
X85690348Y-108404020D01*
X85544020Y-108550348D01*
X85429058Y-108722402D01*
X85349869Y-108913581D01*
X85309500Y-109116532D01*
X83820500Y-109116532D01*
X83820500Y-108590563D01*
X83821122Y-108579479D01*
X83824404Y-108550348D01*
X83834246Y-108462993D01*
X83836994Y-108448472D01*
X83843292Y-108424965D01*
X83845463Y-108417930D01*
X83879485Y-108320702D01*
X83887181Y-108303923D01*
X83888756Y-108301195D01*
X83890588Y-108298157D01*
X83952995Y-108198836D01*
X83966808Y-108181515D01*
X84051515Y-108096808D01*
X84068836Y-108082995D01*
X84168157Y-108020588D01*
X84171195Y-108018756D01*
X84173923Y-108017181D01*
X84190702Y-108009485D01*
X84287930Y-107975463D01*
X84294965Y-107973292D01*
X84318472Y-107966994D01*
X84332993Y-107964246D01*
X84449479Y-107951121D01*
X84460563Y-107950500D01*
X90164437Y-107950500D01*
X90175520Y-107951121D01*
G37*
G04 #@! TD.AperFunction*
M02*
