%TF.GenerationSoftware,KiCad,Pcbnew,9.0.1*%
%TF.CreationDate,2025-05-25T20:32:58+02:00*%
%TF.ProjectId,TQFP48,54514650-3438-42e6-9b69-6361645f7063,rev?*%
%TF.SameCoordinates,Original*%
%TF.FileFunction,Copper,L1,Top*%
%TF.FilePolarity,Positive*%
%FSLAX46Y46*%
G04 Gerber Fmt 4.6, Leading zero omitted, Abs format (unit mm)*
G04 Created by KiCad (PCBNEW 9.0.1) date 2025-05-25 20:32:58*
%MOMM*%
%LPD*%
G01*
G04 APERTURE LIST*
G04 Aperture macros list*
%AMRoundRect*
0 Rectangle with rounded corners*
0 $1 Rounding radius*
0 $2 $3 $4 $5 $6 $7 $8 $9 X,Y pos of 4 corners*
0 Add a 4 corners polygon primitive as box body*
4,1,4,$2,$3,$4,$5,$6,$7,$8,$9,$2,$3,0*
0 Add four circle primitives for the rounded corners*
1,1,$1+$1,$2,$3*
1,1,$1+$1,$4,$5*
1,1,$1+$1,$6,$7*
1,1,$1+$1,$8,$9*
0 Add four rect primitives between the rounded corners*
20,1,$1+$1,$2,$3,$4,$5,0*
20,1,$1+$1,$4,$5,$6,$7,0*
20,1,$1+$1,$6,$7,$8,$9,0*
20,1,$1+$1,$8,$9,$2,$3,0*%
G04 Aperture macros list end*
%TA.AperFunction,SMDPad,CuDef*%
%ADD10RoundRect,0.075000X-0.415425X-0.521491X0.521491X0.415425X0.415425X0.521491X-0.521491X-0.415425X0*%
%TD*%
%TA.AperFunction,SMDPad,CuDef*%
%ADD11RoundRect,0.075000X0.415425X-0.521491X0.521491X-0.415425X-0.415425X0.521491X-0.521491X0.415425X0*%
%TD*%
%TA.AperFunction,ComponentPad*%
%ADD12C,1.700000*%
%TD*%
%TA.AperFunction,Conductor*%
%ADD13C,0.200000*%
%TD*%
G04 APERTURE END LIST*
D10*
%TO.P,U1,1,P1*%
%TO.N,P1*%
X87822124Y-59418788D03*
%TO.P,U1,2,P2*%
%TO.N,P2*%
X88175678Y-59772342D03*
%TO.P,U1,3,P3*%
%TO.N,P3*%
X88529231Y-60125895D03*
%TO.P,U1,4,P4*%
%TO.N,P4*%
X88882785Y-60479449D03*
%TO.P,U1,5,P5*%
%TO.N,P5*%
X89236338Y-60833002D03*
%TO.P,U1,6,P6*%
%TO.N,P6*%
X89589891Y-61186555D03*
%TO.P,U1,7,P7*%
%TO.N,P7*%
X89943445Y-61540109D03*
%TO.P,U1,8,P8*%
%TO.N,P8*%
X90296998Y-61893662D03*
%TO.P,U1,9,P9*%
%TO.N,P9*%
X90650551Y-62247215D03*
%TO.P,U1,10,P10*%
%TO.N,P10*%
X91004105Y-62600769D03*
%TO.P,U1,11,P11*%
%TO.N,P11*%
X91357658Y-62954322D03*
%TO.P,U1,12,P12*%
%TO.N,P12*%
X91711212Y-63307876D03*
D11*
%TO.P,U1,13,P13*%
%TO.N,P13*%
X93708788Y-63307876D03*
%TO.P,U1,14,P14*%
%TO.N,P14*%
X94062342Y-62954322D03*
%TO.P,U1,15,P15*%
%TO.N,P15*%
X94415895Y-62600769D03*
%TO.P,U1,16,P16*%
%TO.N,P16*%
X94769449Y-62247215D03*
%TO.P,U1,17,P17*%
%TO.N,P17*%
X95123002Y-61893662D03*
%TO.P,U1,18,P18*%
%TO.N,P18*%
X95476555Y-61540109D03*
%TO.P,U1,19,P19*%
%TO.N,P19*%
X95830109Y-61186555D03*
%TO.P,U1,20,P20*%
%TO.N,P20*%
X96183662Y-60833002D03*
%TO.P,U1,21,P21*%
%TO.N,P21*%
X96537215Y-60479449D03*
%TO.P,U1,22,P22*%
%TO.N,P22*%
X96890769Y-60125895D03*
%TO.P,U1,23,P23*%
%TO.N,P23*%
X97244322Y-59772342D03*
%TO.P,U1,24,P24*%
%TO.N,P24*%
X97597876Y-59418788D03*
D10*
%TO.P,U1,25,P25*%
%TO.N,P25*%
X97597876Y-57421212D03*
%TO.P,U1,26,P26*%
%TO.N,P26*%
X97244322Y-57067658D03*
%TO.P,U1,27,P27*%
%TO.N,P27*%
X96890769Y-56714105D03*
%TO.P,U1,28,P28*%
%TO.N,P28*%
X96537215Y-56360551D03*
%TO.P,U1,29,P29*%
%TO.N,P29*%
X96183662Y-56006998D03*
%TO.P,U1,30,P30*%
%TO.N,P30*%
X95830109Y-55653445D03*
%TO.P,U1,31,P31*%
%TO.N,P31*%
X95476555Y-55299891D03*
%TO.P,U1,32,P32*%
%TO.N,P32*%
X95123002Y-54946338D03*
%TO.P,U1,33,P33*%
%TO.N,P33*%
X94769449Y-54592785D03*
%TO.P,U1,34,P34*%
%TO.N,P34*%
X94415895Y-54239231D03*
%TO.P,U1,35,P35*%
%TO.N,P35*%
X94062342Y-53885678D03*
%TO.P,U1,36,P36*%
%TO.N,P36*%
X93708788Y-53532124D03*
D11*
%TO.P,U1,37,P37*%
%TO.N,P37*%
X91711212Y-53532124D03*
%TO.P,U1,38,P38*%
%TO.N,P38*%
X91357658Y-53885678D03*
%TO.P,U1,39,P39*%
%TO.N,P39*%
X91004105Y-54239231D03*
%TO.P,U1,40,P40*%
%TO.N,P40*%
X90650551Y-54592785D03*
%TO.P,U1,41,P41*%
%TO.N,P41*%
X90296998Y-54946338D03*
%TO.P,U1,42,P42*%
%TO.N,P42*%
X89943445Y-55299891D03*
%TO.P,U1,43,P43*%
%TO.N,P43*%
X89589891Y-55653445D03*
%TO.P,U1,44,P44*%
%TO.N,P44*%
X89236338Y-56006998D03*
%TO.P,U1,45,P45*%
%TO.N,P45*%
X88882785Y-56360551D03*
%TO.P,U1,46,P46*%
%TO.N,P46*%
X88529231Y-56714105D03*
%TO.P,U1,47,P47*%
%TO.N,P47*%
X88175678Y-57067658D03*
%TO.P,U1,48,P48*%
%TO.N,P48*%
X87822124Y-57421212D03*
%TD*%
D12*
%TO.P,J1,1,Pin_1*%
%TO.N,P1*%
X63500000Y-66040000D03*
%TO.P,J1,2,Pin_2*%
%TO.N,P2*%
X66040000Y-66040000D03*
%TO.P,J1,3,Pin_3*%
%TO.N,P3*%
X68580000Y-66040000D03*
%TO.P,J1,4,Pin_4*%
%TO.N,P4*%
X71120000Y-66040000D03*
%TO.P,J1,5,Pin_5*%
%TO.N,P5*%
X73660000Y-66040000D03*
%TO.P,J1,6,Pin_6*%
%TO.N,P6*%
X76200000Y-66040000D03*
%TO.P,J1,7,Pin_7*%
%TO.N,P7*%
X78740000Y-66040000D03*
%TO.P,J1,8,Pin_8*%
%TO.N,P8*%
X81280000Y-66040000D03*
%TO.P,J1,9,Pin_9*%
%TO.N,P9*%
X83820000Y-66040000D03*
%TO.P,J1,10,Pin_10*%
%TO.N,P10*%
X86360000Y-66040000D03*
%TO.P,J1,11,Pin_11*%
%TO.N,P11*%
X88900000Y-66040000D03*
%TO.P,J1,12,Pin_12*%
%TO.N,P12*%
X91440000Y-66040000D03*
%TO.P,J1,13,Pin_13*%
%TO.N,P13*%
X93980000Y-66040000D03*
%TO.P,J1,14,Pin_14*%
%TO.N,P14*%
X96520000Y-66040000D03*
%TO.P,J1,15,Pin_15*%
%TO.N,P15*%
X99060000Y-66040000D03*
%TO.P,J1,16,Pin_16*%
%TO.N,P16*%
X101600000Y-66040000D03*
%TO.P,J1,17,Pin_17*%
%TO.N,P17*%
X104140000Y-66040000D03*
%TO.P,J1,18,Pin_18*%
%TO.N,P18*%
X106680000Y-66040000D03*
%TO.P,J1,19,Pin_19*%
%TO.N,P19*%
X109220000Y-66040000D03*
%TO.P,J1,20,Pin_20*%
%TO.N,P20*%
X111760000Y-66040000D03*
%TO.P,J1,21,Pin_21*%
%TO.N,P21*%
X114300000Y-66040000D03*
%TO.P,J1,22,Pin_22*%
%TO.N,P22*%
X116840000Y-66040000D03*
%TO.P,J1,23,Pin_23*%
%TO.N,P23*%
X119380000Y-66040000D03*
%TO.P,J1,24,Pin_24*%
%TO.N,P24*%
X121920000Y-66040000D03*
%TD*%
%TO.P,J2,1,Pin_1*%
%TO.N,P25*%
X121920000Y-50800000D03*
%TO.P,J2,2,Pin_2*%
%TO.N,P26*%
X119380000Y-50800000D03*
%TO.P,J2,3,Pin_3*%
%TO.N,P27*%
X116840000Y-50800000D03*
%TO.P,J2,4,Pin_4*%
%TO.N,P28*%
X114300000Y-50800000D03*
%TO.P,J2,5,Pin_5*%
%TO.N,P29*%
X111760000Y-50800000D03*
%TO.P,J2,6,Pin_6*%
%TO.N,P30*%
X109220000Y-50800000D03*
%TO.P,J2,7,Pin_7*%
%TO.N,P31*%
X106680000Y-50800000D03*
%TO.P,J2,8,Pin_8*%
%TO.N,P32*%
X104140000Y-50800000D03*
%TO.P,J2,9,Pin_9*%
%TO.N,P33*%
X101600000Y-50800000D03*
%TO.P,J2,10,Pin_10*%
%TO.N,P34*%
X99060000Y-50800000D03*
%TO.P,J2,11,Pin_11*%
%TO.N,P35*%
X96520000Y-50800000D03*
%TO.P,J2,12,Pin_12*%
%TO.N,P36*%
X93980000Y-50800000D03*
%TO.P,J2,13,Pin_13*%
%TO.N,P37*%
X91440000Y-50800000D03*
%TO.P,J2,14,Pin_14*%
%TO.N,P38*%
X88900000Y-50800000D03*
%TO.P,J2,15,Pin_15*%
%TO.N,P39*%
X86360000Y-50800000D03*
%TO.P,J2,16,Pin_16*%
%TO.N,P40*%
X83820000Y-50800000D03*
%TO.P,J2,17,Pin_17*%
%TO.N,P41*%
X81280000Y-50800000D03*
%TO.P,J2,18,Pin_18*%
%TO.N,P42*%
X78740000Y-50800000D03*
%TO.P,J2,19,Pin_19*%
%TO.N,P43*%
X76200000Y-50800000D03*
%TO.P,J2,20,Pin_20*%
%TO.N,P44*%
X73660000Y-50800000D03*
%TO.P,J2,21,Pin_21*%
%TO.N,P45*%
X71120000Y-50800000D03*
%TO.P,J2,22,Pin_22*%
%TO.N,P46*%
X68580000Y-50800000D03*
%TO.P,J2,23,Pin_23*%
%TO.N,P47*%
X66040000Y-50800000D03*
%TO.P,J2,24,Pin_24*%
%TO.N,P48*%
X63500000Y-50800000D03*
%TD*%
D13*
%TO.N,P41*%
X90296998Y-54946338D02*
X88222660Y-52872000D01*
X88222660Y-52872000D02*
X83352000Y-52872000D01*
X83352000Y-52872000D02*
X81280000Y-50800000D01*
%TO.N,P38*%
X88900000Y-51428020D02*
X88900000Y-50800000D01*
X91357658Y-53885678D02*
X88900000Y-51428020D01*
%TO.N,P4*%
X88882785Y-60479449D02*
X88882785Y-60548743D01*
X87067528Y-62364000D02*
X74796000Y-62364000D01*
X74796000Y-62364000D02*
X71120000Y-66040000D01*
X88882785Y-60548743D02*
X87067528Y-62364000D01*
%TO.N,P17*%
X101996163Y-63896163D02*
X104140000Y-66040000D01*
X95123002Y-61893662D02*
X97125503Y-63896163D01*
X97125503Y-63896163D02*
X101996163Y-63896163D01*
%TO.N,P28*%
X98421766Y-54476000D02*
X110624000Y-54476000D01*
X96537215Y-56360551D02*
X98421766Y-54476000D01*
X110624000Y-54476000D02*
X114300000Y-50800000D01*
%TO.N,P25*%
X99340088Y-55679000D02*
X99695000Y-55679000D01*
X97597876Y-57421212D02*
X99340088Y-55679000D01*
X117041000Y-55679000D02*
X121920000Y-50800000D01*
X99340088Y-55679000D02*
X117041000Y-55679000D01*
%TO.N,P11*%
X88900000Y-65411980D02*
X91357658Y-62954322D01*
X88900000Y-66040000D02*
X88900000Y-65411980D01*
%TO.N,P30*%
X97809554Y-53674000D02*
X106346000Y-53674000D01*
X106346000Y-53674000D02*
X109220000Y-50800000D01*
X95830109Y-55653445D02*
X97809554Y-53674000D01*
%TO.N,P26*%
X99033980Y-55278000D02*
X114902000Y-55278000D01*
X97244322Y-57067658D02*
X99033980Y-55278000D01*
X114902000Y-55278000D02*
X119380000Y-50800000D01*
%TO.N,P10*%
X91004105Y-62600769D02*
X88834874Y-64770000D01*
X88834874Y-64770000D02*
X87630000Y-64770000D01*
X87630000Y-64770000D02*
X86360000Y-66040000D01*
%TO.N,P46*%
X88529231Y-56714105D02*
X86692126Y-54877000D01*
X72657000Y-54877000D02*
X68580000Y-50800000D01*
X86692126Y-54877000D02*
X72657000Y-54877000D01*
%TO.N,P33*%
X96891234Y-52471000D02*
X99929000Y-52471000D01*
X99929000Y-52471000D02*
X101600000Y-50800000D01*
X94769449Y-54592785D02*
X96891234Y-52471000D01*
%TO.N,P47*%
X88175678Y-57067658D02*
X86386020Y-55278000D01*
X86386020Y-55278000D02*
X70518000Y-55278000D01*
X70518000Y-55278000D02*
X66040000Y-50800000D01*
%TO.N,P3*%
X86692126Y-61963000D02*
X72657000Y-61963000D01*
X72657000Y-61963000D02*
X68580000Y-66040000D01*
X88529231Y-60125895D02*
X86692126Y-61963000D01*
%TO.N,P21*%
X110552163Y-62292163D02*
X114300000Y-66040000D01*
X96537215Y-60479449D02*
X98349929Y-62292163D01*
X98349929Y-62292163D02*
X110552163Y-62292163D01*
%TO.N,P5*%
X76935000Y-62765000D02*
X73660000Y-66040000D01*
X87304340Y-62765000D02*
X76935000Y-62765000D01*
X89236338Y-60833002D02*
X87304340Y-62765000D01*
%TO.N,P34*%
X94415895Y-54239231D02*
X96585126Y-52070000D01*
X96585126Y-52070000D02*
X97790000Y-52070000D01*
X97790000Y-52070000D02*
X99060000Y-50800000D01*
%TO.N,P19*%
X95830109Y-61186555D02*
X97737717Y-63094163D01*
X106274163Y-63094163D02*
X109220000Y-66040000D01*
X97737717Y-63094163D02*
X106274163Y-63094163D01*
%TO.N,P8*%
X88222660Y-63968000D02*
X83352000Y-63968000D01*
X90296998Y-61893662D02*
X88222660Y-63968000D01*
X83352000Y-63968000D02*
X81280000Y-66040000D01*
%TO.N,P31*%
X97503446Y-53273000D02*
X104207000Y-53273000D01*
X95476555Y-55299891D02*
X97503446Y-53273000D01*
X104207000Y-53273000D02*
X106680000Y-50800000D01*
%TO.N,P29*%
X98115660Y-54075000D02*
X108485000Y-54075000D01*
X108485000Y-54075000D02*
X111760000Y-50800000D01*
X96183662Y-56006998D02*
X98115660Y-54075000D01*
%TO.N,P2*%
X86386020Y-61562000D02*
X73660000Y-61562000D01*
X66040000Y-66040000D02*
X70518000Y-61562000D01*
X70518000Y-61562000D02*
X73660000Y-61562000D01*
X88175678Y-59772342D02*
X86386020Y-61562000D01*
%TO.N,P39*%
X88834874Y-52070000D02*
X87630000Y-52070000D01*
X87630000Y-52070000D02*
X86360000Y-50800000D01*
X91004105Y-54239231D02*
X88834874Y-52070000D01*
%TO.N,P32*%
X102068000Y-52872000D02*
X104140000Y-50800000D01*
X97197340Y-52872000D02*
X102068000Y-52872000D01*
X95123002Y-54946338D02*
X97197340Y-52872000D01*
%TO.N,P44*%
X76935000Y-54075000D02*
X73660000Y-50800000D01*
X89236338Y-56006998D02*
X87304340Y-54075000D01*
X87304340Y-54075000D02*
X76935000Y-54075000D01*
%TO.N,P24*%
X99268251Y-61089163D02*
X97597876Y-59418788D01*
X116969163Y-61089163D02*
X99268251Y-61089163D01*
X121920000Y-66040000D02*
X116969163Y-61089163D01*
%TO.N,P1*%
X86079912Y-61161000D02*
X68379000Y-61161000D01*
X87822124Y-59418788D02*
X86079912Y-61161000D01*
X68379000Y-61161000D02*
X63500000Y-66040000D01*
%TO.N,P35*%
X96520000Y-51428020D02*
X96520000Y-50800000D01*
X94062342Y-53885678D02*
X96520000Y-51428020D01*
%TO.N,P14*%
X96520000Y-65411980D02*
X94062342Y-62954322D01*
X96520000Y-66040000D02*
X96520000Y-65411980D01*
%TO.N,P16*%
X94769449Y-62247215D02*
X96891234Y-64369000D01*
X99929000Y-64369000D02*
X101600000Y-66040000D01*
X96891234Y-64369000D02*
X99929000Y-64369000D01*
%TO.N,P40*%
X85491000Y-52471000D02*
X83820000Y-50800000D01*
X88528766Y-52471000D02*
X85491000Y-52471000D01*
X90650551Y-54592785D02*
X88528766Y-52471000D01*
%TO.N,P15*%
X96585126Y-64770000D02*
X97790000Y-64770000D01*
X94415895Y-62600769D02*
X96585126Y-64770000D01*
X97790000Y-64770000D02*
X99060000Y-66040000D01*
%TO.N,P7*%
X89943445Y-61540109D02*
X87916554Y-63567000D01*
X81213000Y-63567000D02*
X78740000Y-66040000D01*
X87916554Y-63567000D02*
X81213000Y-63567000D01*
%TO.N,P12*%
X91711212Y-63307876D02*
X91440000Y-63579088D01*
X91440000Y-63579088D02*
X91440000Y-66040000D01*
%TO.N,P9*%
X90650551Y-62247215D02*
X88528766Y-64369000D01*
X85491000Y-64369000D02*
X83820000Y-66040000D01*
X88528766Y-64369000D02*
X85491000Y-64369000D01*
%TO.N,P23*%
X98962143Y-61490163D02*
X114830163Y-61490163D01*
X97244322Y-59772342D02*
X98962143Y-61490163D01*
X114830163Y-61490163D02*
X119380000Y-66040000D01*
%TO.N,P20*%
X108413163Y-62693163D02*
X111760000Y-66040000D01*
X96183662Y-60833002D02*
X98043823Y-62693163D01*
X98043823Y-62693163D02*
X108413163Y-62693163D01*
%TO.N,P43*%
X89589891Y-55653445D02*
X87610446Y-53674000D01*
X79074000Y-53674000D02*
X76200000Y-50800000D01*
X87610446Y-53674000D02*
X79074000Y-53674000D01*
%TO.N,P42*%
X89943445Y-55299891D02*
X87916554Y-53273000D01*
X81213000Y-53273000D02*
X78740000Y-50800000D01*
X87916554Y-53273000D02*
X81213000Y-53273000D01*
%TO.N,P48*%
X87822124Y-57421212D02*
X86360000Y-55959088D01*
X68379000Y-55679000D02*
X63500000Y-50800000D01*
X86360000Y-55959088D02*
X86079912Y-55679000D01*
X86079912Y-55679000D02*
X68379000Y-55679000D01*
%TO.N,P6*%
X87610446Y-63166000D02*
X79074000Y-63166000D01*
X79074000Y-63166000D02*
X76200000Y-66040000D01*
X89589891Y-61186555D02*
X87610446Y-63166000D01*
%TO.N,P36*%
X93708788Y-51071212D02*
X93980000Y-50800000D01*
X93708788Y-53532124D02*
X93708788Y-51071212D01*
%TO.N,P37*%
X91711212Y-53532124D02*
X91711212Y-51071212D01*
X91711212Y-51071212D02*
X91440000Y-50800000D01*
%TO.N,P27*%
X96890769Y-56714105D02*
X98727874Y-54877000D01*
X112763000Y-54877000D02*
X116840000Y-50800000D01*
X98727874Y-54877000D02*
X112763000Y-54877000D01*
%TO.N,P22*%
X96890769Y-60125895D02*
X98656037Y-61891163D01*
X98656037Y-61891163D02*
X112691163Y-61891163D01*
X112691163Y-61891163D02*
X116840000Y-66040000D01*
%TO.N,P45*%
X86998234Y-54476000D02*
X74796000Y-54476000D01*
X88882785Y-56360551D02*
X86998234Y-54476000D01*
X74796000Y-54476000D02*
X71120000Y-50800000D01*
%TO.N,P18*%
X95476555Y-61540109D02*
X97431609Y-63495163D01*
X104135163Y-63495163D02*
X106680000Y-66040000D01*
X97431609Y-63495163D02*
X104135163Y-63495163D01*
%TO.N,P13*%
X93980000Y-66040000D02*
X93980000Y-63579088D01*
X93980000Y-63579088D02*
X93708788Y-63307876D01*
%TD*%
%TA.AperFunction,NonConductor*%
G36*
X98082483Y-50050185D02*
G01*
X98128238Y-50102989D01*
X98138182Y-50172147D01*
X98121171Y-50219290D01*
X98118770Y-50223206D01*
X98040128Y-50377552D01*
X97986597Y-50542302D01*
X97959500Y-50713389D01*
X97959500Y-50886610D01*
X97986597Y-51057698D01*
X98041597Y-51226970D01*
X98043592Y-51296811D01*
X98011347Y-51352969D01*
X97681135Y-51683182D01*
X97654206Y-51697886D01*
X97628391Y-51714477D01*
X97622190Y-51715368D01*
X97619814Y-51716666D01*
X97593456Y-51719500D01*
X97455378Y-51719500D01*
X97388339Y-51699815D01*
X97342584Y-51647011D01*
X97332640Y-51577853D01*
X97357953Y-51521888D01*
X97356550Y-51520869D01*
X97359413Y-51516929D01*
X97359414Y-51516928D01*
X97461232Y-51376788D01*
X97539873Y-51222445D01*
X97593402Y-51057701D01*
X97620500Y-50886611D01*
X97620500Y-50713389D01*
X97593402Y-50542299D01*
X97539873Y-50377555D01*
X97461232Y-50223212D01*
X97461229Y-50223206D01*
X97458829Y-50219290D01*
X97440584Y-50151844D01*
X97461700Y-50085242D01*
X97515472Y-50040628D01*
X97564556Y-50030500D01*
X98015444Y-50030500D01*
X98082483Y-50050185D01*
G37*
%TD.AperFunction*%
%TA.AperFunction,NonConductor*%
G36*
X87922483Y-50050185D02*
G01*
X87968238Y-50102989D01*
X87978182Y-50172147D01*
X87961171Y-50219290D01*
X87958770Y-50223206D01*
X87880128Y-50377552D01*
X87826597Y-50542302D01*
X87799500Y-50713389D01*
X87799500Y-50886610D01*
X87826597Y-51057697D01*
X87826597Y-51057699D01*
X87826598Y-51057701D01*
X87880127Y-51222445D01*
X87958768Y-51376788D01*
X88060586Y-51516928D01*
X88060587Y-51516929D01*
X88063450Y-51520869D01*
X88062024Y-51521905D01*
X88066030Y-51530849D01*
X88077416Y-51543989D01*
X88080015Y-51562070D01*
X88087485Y-51578745D01*
X88084885Y-51595937D01*
X88087360Y-51613147D01*
X88079770Y-51629766D01*
X88077039Y-51647829D01*
X88065558Y-51660885D01*
X88058335Y-51676703D01*
X88042965Y-51686580D01*
X88030902Y-51700300D01*
X88013997Y-51705197D01*
X87999557Y-51714477D01*
X87964622Y-51719500D01*
X87826544Y-51719500D01*
X87759505Y-51699815D01*
X87738863Y-51683181D01*
X87408652Y-51352970D01*
X87375167Y-51291647D01*
X87378402Y-51226971D01*
X87379873Y-51222445D01*
X87433402Y-51057701D01*
X87460500Y-50886611D01*
X87460500Y-50713389D01*
X87433402Y-50542299D01*
X87379873Y-50377555D01*
X87301232Y-50223212D01*
X87301229Y-50223206D01*
X87298829Y-50219290D01*
X87280584Y-50151844D01*
X87301700Y-50085242D01*
X87355472Y-50040628D01*
X87404556Y-50030500D01*
X87855444Y-50030500D01*
X87922483Y-50050185D01*
G37*
%TD.AperFunction*%
%TA.AperFunction,NonConductor*%
G36*
X100622483Y-50050185D02*
G01*
X100668238Y-50102989D01*
X100678182Y-50172147D01*
X100661171Y-50219290D01*
X100658770Y-50223206D01*
X100580128Y-50377552D01*
X100526597Y-50542302D01*
X100499500Y-50713389D01*
X100499500Y-50886610D01*
X100526597Y-51057698D01*
X100581597Y-51226970D01*
X100583592Y-51296811D01*
X100551347Y-51352969D01*
X99820137Y-52084181D01*
X99758814Y-52117666D01*
X99732456Y-52120500D01*
X99333154Y-52120500D01*
X99266115Y-52100815D01*
X99220360Y-52048011D01*
X99210416Y-51978853D01*
X99239441Y-51915297D01*
X99298219Y-51877523D01*
X99313756Y-51874027D01*
X99314602Y-51873892D01*
X99317701Y-51873402D01*
X99482445Y-51819873D01*
X99636788Y-51741232D01*
X99776928Y-51639414D01*
X99899414Y-51516928D01*
X100001232Y-51376788D01*
X100079873Y-51222445D01*
X100133402Y-51057701D01*
X100160500Y-50886611D01*
X100160500Y-50713389D01*
X100133402Y-50542299D01*
X100079873Y-50377555D01*
X100001232Y-50223212D01*
X100001229Y-50223206D01*
X99998829Y-50219290D01*
X99980584Y-50151844D01*
X100001700Y-50085242D01*
X100055472Y-50040628D01*
X100104556Y-50030500D01*
X100555444Y-50030500D01*
X100622483Y-50050185D01*
G37*
%TD.AperFunction*%
%TA.AperFunction,NonConductor*%
G36*
X98631767Y-51817999D02*
G01*
X98637241Y-51819713D01*
X98637555Y-51819873D01*
X98802299Y-51873402D01*
X98815223Y-51875449D01*
X98823903Y-51878167D01*
X98881996Y-51916986D01*
X98909880Y-51981050D01*
X98898701Y-52050020D01*
X98852010Y-52101997D01*
X98786846Y-52120500D01*
X98534543Y-52120500D01*
X98467504Y-52100815D01*
X98421749Y-52048011D01*
X98411805Y-51978853D01*
X98440830Y-51915297D01*
X98446842Y-51908838D01*
X98507032Y-51848648D01*
X98519813Y-51841669D01*
X98529546Y-51830835D01*
X98549860Y-51825262D01*
X98568351Y-51815166D01*
X98583843Y-51815940D01*
X98596927Y-51812352D01*
X98631767Y-51817999D01*
G37*
%TD.AperFunction*%
%TA.AperFunction,NonConductor*%
G36*
X86857429Y-51816761D02*
G01*
X86858091Y-51816750D01*
X86867086Y-51822306D01*
X86912970Y-51848652D01*
X86973137Y-51908819D01*
X87006622Y-51970142D01*
X87001638Y-52039834D01*
X86959766Y-52095767D01*
X86894302Y-52120184D01*
X86885456Y-52120500D01*
X86633154Y-52120500D01*
X86566115Y-52100815D01*
X86520360Y-52048011D01*
X86510416Y-51978853D01*
X86539441Y-51915297D01*
X86596098Y-51878166D01*
X86604771Y-51875449D01*
X86617701Y-51873402D01*
X86782445Y-51819873D01*
X86782758Y-51819713D01*
X86788233Y-51817999D01*
X86822573Y-51817385D01*
X86856812Y-51816407D01*
X86857429Y-51816761D01*
G37*
%TD.AperFunction*%
%TA.AperFunction,NonConductor*%
G36*
X85382483Y-50050185D02*
G01*
X85428238Y-50102989D01*
X85438182Y-50172147D01*
X85421171Y-50219290D01*
X85418770Y-50223206D01*
X85340128Y-50377552D01*
X85286597Y-50542302D01*
X85259500Y-50713389D01*
X85259500Y-50886610D01*
X85286597Y-51057697D01*
X85286597Y-51057699D01*
X85286598Y-51057701D01*
X85340127Y-51222445D01*
X85418768Y-51376788D01*
X85520586Y-51516928D01*
X85643072Y-51639414D01*
X85783212Y-51741232D01*
X85937555Y-51819873D01*
X86102299Y-51873402D01*
X86105190Y-51873860D01*
X86106244Y-51874027D01*
X86169379Y-51903956D01*
X86206310Y-51963268D01*
X86205312Y-52033131D01*
X86166702Y-52091363D01*
X86102738Y-52119477D01*
X86086846Y-52120500D01*
X85687544Y-52120500D01*
X85620505Y-52100815D01*
X85599863Y-52084181D01*
X84868652Y-51352970D01*
X84835167Y-51291647D01*
X84838402Y-51226971D01*
X84839873Y-51222445D01*
X84893402Y-51057701D01*
X84920500Y-50886611D01*
X84920500Y-50713389D01*
X84893402Y-50542299D01*
X84839873Y-50377555D01*
X84761232Y-50223212D01*
X84761229Y-50223206D01*
X84758829Y-50219290D01*
X84740584Y-50151844D01*
X84761700Y-50085242D01*
X84815472Y-50040628D01*
X84864556Y-50030500D01*
X85315444Y-50030500D01*
X85382483Y-50050185D01*
G37*
%TD.AperFunction*%
%TA.AperFunction,NonConductor*%
G36*
X103162483Y-50050185D02*
G01*
X103208238Y-50102989D01*
X103218182Y-50172147D01*
X103201171Y-50219290D01*
X103198770Y-50223206D01*
X103120128Y-50377552D01*
X103066597Y-50542302D01*
X103039500Y-50713389D01*
X103039500Y-50886610D01*
X103066597Y-51057698D01*
X103121597Y-51226970D01*
X103123592Y-51296811D01*
X103091347Y-51352969D01*
X101959137Y-52485181D01*
X101897814Y-52518666D01*
X101871456Y-52521500D01*
X100673544Y-52521500D01*
X100606505Y-52501815D01*
X100560750Y-52449011D01*
X100550806Y-52379853D01*
X100579831Y-52316297D01*
X100585863Y-52309819D01*
X100925539Y-51970142D01*
X101047031Y-51848649D01*
X101108352Y-51815166D01*
X101173029Y-51818401D01*
X101177547Y-51819869D01*
X101177555Y-51819873D01*
X101342299Y-51873402D01*
X101513389Y-51900500D01*
X101513390Y-51900500D01*
X101686610Y-51900500D01*
X101686611Y-51900500D01*
X101857701Y-51873402D01*
X102022445Y-51819873D01*
X102176788Y-51741232D01*
X102316928Y-51639414D01*
X102439414Y-51516928D01*
X102541232Y-51376788D01*
X102619873Y-51222445D01*
X102673402Y-51057701D01*
X102700500Y-50886611D01*
X102700500Y-50713389D01*
X102673402Y-50542299D01*
X102619873Y-50377555D01*
X102541232Y-50223212D01*
X102541229Y-50223206D01*
X102538829Y-50219290D01*
X102520584Y-50151844D01*
X102541700Y-50085242D01*
X102595472Y-50040628D01*
X102644556Y-50030500D01*
X103095444Y-50030500D01*
X103162483Y-50050185D01*
G37*
%TD.AperFunction*%
%TA.AperFunction,NonConductor*%
G36*
X82842483Y-50050185D02*
G01*
X82888238Y-50102989D01*
X82898182Y-50172147D01*
X82881171Y-50219290D01*
X82878770Y-50223206D01*
X82800128Y-50377552D01*
X82746597Y-50542302D01*
X82719500Y-50713389D01*
X82719500Y-50886610D01*
X82746597Y-51057697D01*
X82746597Y-51057699D01*
X82746598Y-51057701D01*
X82800127Y-51222445D01*
X82878768Y-51376788D01*
X82980586Y-51516928D01*
X83103072Y-51639414D01*
X83243212Y-51741232D01*
X83397555Y-51819873D01*
X83562299Y-51873402D01*
X83733389Y-51900500D01*
X83733390Y-51900500D01*
X83906610Y-51900500D01*
X83906611Y-51900500D01*
X84077701Y-51873402D01*
X84242445Y-51819873D01*
X84242447Y-51819871D01*
X84246971Y-51818402D01*
X84316812Y-51816407D01*
X84372970Y-51848652D01*
X84834137Y-52309819D01*
X84867622Y-52371142D01*
X84862638Y-52440834D01*
X84820766Y-52496767D01*
X84755302Y-52521184D01*
X84746456Y-52521500D01*
X83548544Y-52521500D01*
X83481505Y-52501815D01*
X83460863Y-52485181D01*
X82328652Y-51352970D01*
X82295167Y-51291647D01*
X82298402Y-51226971D01*
X82299873Y-51222445D01*
X82353402Y-51057701D01*
X82380500Y-50886611D01*
X82380500Y-50713389D01*
X82353402Y-50542299D01*
X82299873Y-50377555D01*
X82221232Y-50223212D01*
X82221229Y-50223206D01*
X82218829Y-50219290D01*
X82200584Y-50151844D01*
X82221700Y-50085242D01*
X82275472Y-50040628D01*
X82324556Y-50030500D01*
X82775444Y-50030500D01*
X82842483Y-50050185D01*
G37*
%TD.AperFunction*%
%TA.AperFunction,NonConductor*%
G36*
X95542483Y-50050185D02*
G01*
X95588238Y-50102989D01*
X95598182Y-50172147D01*
X95581171Y-50219290D01*
X95578770Y-50223206D01*
X95500128Y-50377552D01*
X95446597Y-50542302D01*
X95419500Y-50713389D01*
X95419500Y-50886610D01*
X95446597Y-51057697D01*
X95446597Y-51057699D01*
X95446598Y-51057701D01*
X95500127Y-51222445D01*
X95578768Y-51376788D01*
X95680586Y-51516928D01*
X95680588Y-51516930D01*
X95720316Y-51556658D01*
X95753801Y-51617981D01*
X95748817Y-51687673D01*
X95720316Y-51732020D01*
X94600802Y-52851534D01*
X94539479Y-52885019D01*
X94469787Y-52880035D01*
X94425443Y-52851537D01*
X94327408Y-52753503D01*
X94327403Y-52753499D01*
X94327402Y-52753498D01*
X94289475Y-52724394D01*
X94289474Y-52724393D01*
X94289472Y-52724392D01*
X94289474Y-52724392D01*
X94181608Y-52685133D01*
X94170922Y-52683249D01*
X94171214Y-52681587D01*
X94116249Y-52665448D01*
X94070494Y-52612644D01*
X94059288Y-52561133D01*
X94059288Y-52007565D01*
X94078973Y-51940526D01*
X94131777Y-51894771D01*
X94163881Y-51885093D01*
X94237701Y-51873402D01*
X94402445Y-51819873D01*
X94556788Y-51741232D01*
X94696928Y-51639414D01*
X94819414Y-51516928D01*
X94921232Y-51376788D01*
X94999873Y-51222445D01*
X95053402Y-51057701D01*
X95080500Y-50886611D01*
X95080500Y-50713389D01*
X95053402Y-50542299D01*
X94999873Y-50377555D01*
X94921232Y-50223212D01*
X94921229Y-50223206D01*
X94918829Y-50219290D01*
X94900584Y-50151844D01*
X94921700Y-50085242D01*
X94975472Y-50040628D01*
X95024556Y-50030500D01*
X95475444Y-50030500D01*
X95542483Y-50050185D01*
G37*
%TD.AperFunction*%
%TA.AperFunction,NonConductor*%
G36*
X90462483Y-50050185D02*
G01*
X90508238Y-50102989D01*
X90518182Y-50172147D01*
X90501171Y-50219290D01*
X90498770Y-50223206D01*
X90420128Y-50377552D01*
X90366597Y-50542302D01*
X90339500Y-50713389D01*
X90339500Y-50886610D01*
X90366597Y-51057697D01*
X90366597Y-51057699D01*
X90366598Y-51057701D01*
X90420127Y-51222445D01*
X90498768Y-51376788D01*
X90600586Y-51516928D01*
X90723072Y-51639414D01*
X90863212Y-51741232D01*
X91017555Y-51819873D01*
X91182299Y-51873402D01*
X91256113Y-51885093D01*
X91319244Y-51915020D01*
X91356176Y-51974332D01*
X91360712Y-52007565D01*
X91360712Y-52561133D01*
X91341027Y-52628172D01*
X91288223Y-52673927D01*
X91248941Y-52682472D01*
X91249078Y-52683249D01*
X91238391Y-52685133D01*
X91130525Y-52724393D01*
X91130524Y-52724394D01*
X91092596Y-52753497D01*
X91092586Y-52753506D01*
X90994558Y-52851535D01*
X90933235Y-52885020D01*
X90863543Y-52880036D01*
X90819196Y-52851535D01*
X89699683Y-51732021D01*
X89666198Y-51670698D01*
X89671182Y-51601006D01*
X89699683Y-51556659D01*
X89712353Y-51543989D01*
X89739414Y-51516928D01*
X89841232Y-51376788D01*
X89919873Y-51222445D01*
X89973402Y-51057701D01*
X90000500Y-50886611D01*
X90000500Y-50713389D01*
X89973402Y-50542299D01*
X89919873Y-50377555D01*
X89841232Y-50223212D01*
X89841229Y-50223206D01*
X89838829Y-50219290D01*
X89820584Y-50151844D01*
X89841700Y-50085242D01*
X89895472Y-50040628D01*
X89944556Y-50030500D01*
X90395444Y-50030500D01*
X90462483Y-50050185D01*
G37*
%TD.AperFunction*%
%TA.AperFunction,NonConductor*%
G36*
X105702483Y-50050185D02*
G01*
X105748238Y-50102989D01*
X105758182Y-50172147D01*
X105741171Y-50219290D01*
X105738770Y-50223206D01*
X105660128Y-50377552D01*
X105606597Y-50542302D01*
X105579500Y-50713389D01*
X105579500Y-50886610D01*
X105606597Y-51057698D01*
X105661597Y-51226970D01*
X105663592Y-51296811D01*
X105631347Y-51352969D01*
X104098137Y-52886181D01*
X104036814Y-52919666D01*
X104010456Y-52922500D01*
X102812544Y-52922500D01*
X102745505Y-52902815D01*
X102699750Y-52850011D01*
X102689806Y-52780853D01*
X102718831Y-52717297D01*
X102724863Y-52710819D01*
X102938915Y-52496767D01*
X103587031Y-51848649D01*
X103648352Y-51815166D01*
X103713029Y-51818401D01*
X103717547Y-51819869D01*
X103717555Y-51819873D01*
X103882299Y-51873402D01*
X104053389Y-51900500D01*
X104053390Y-51900500D01*
X104226610Y-51900500D01*
X104226611Y-51900500D01*
X104397701Y-51873402D01*
X104562445Y-51819873D01*
X104716788Y-51741232D01*
X104856928Y-51639414D01*
X104979414Y-51516928D01*
X105081232Y-51376788D01*
X105159873Y-51222445D01*
X105213402Y-51057701D01*
X105240500Y-50886611D01*
X105240500Y-50713389D01*
X105213402Y-50542299D01*
X105159873Y-50377555D01*
X105081232Y-50223212D01*
X105081229Y-50223206D01*
X105078829Y-50219290D01*
X105060584Y-50151844D01*
X105081700Y-50085242D01*
X105135472Y-50040628D01*
X105184556Y-50030500D01*
X105635444Y-50030500D01*
X105702483Y-50050185D01*
G37*
%TD.AperFunction*%
%TA.AperFunction,NonConductor*%
G36*
X80302483Y-50050185D02*
G01*
X80348238Y-50102989D01*
X80358182Y-50172147D01*
X80341171Y-50219290D01*
X80338770Y-50223206D01*
X80260128Y-50377552D01*
X80206597Y-50542302D01*
X80179500Y-50713389D01*
X80179500Y-50886610D01*
X80206597Y-51057697D01*
X80206597Y-51057699D01*
X80206598Y-51057701D01*
X80260127Y-51222445D01*
X80338768Y-51376788D01*
X80440586Y-51516928D01*
X80563072Y-51639414D01*
X80703212Y-51741232D01*
X80857555Y-51819873D01*
X81022299Y-51873402D01*
X81193389Y-51900500D01*
X81193390Y-51900500D01*
X81366610Y-51900500D01*
X81366611Y-51900500D01*
X81537701Y-51873402D01*
X81702445Y-51819873D01*
X81702447Y-51819871D01*
X81706971Y-51818402D01*
X81776812Y-51816407D01*
X81832970Y-51848652D01*
X82695137Y-52710819D01*
X82728622Y-52772142D01*
X82723638Y-52841834D01*
X82681766Y-52897767D01*
X82616302Y-52922184D01*
X82607456Y-52922500D01*
X81409544Y-52922500D01*
X81342505Y-52902815D01*
X81321863Y-52886181D01*
X79788652Y-51352970D01*
X79755167Y-51291647D01*
X79758402Y-51226971D01*
X79759873Y-51222445D01*
X79813402Y-51057701D01*
X79840500Y-50886611D01*
X79840500Y-50713389D01*
X79813402Y-50542299D01*
X79759873Y-50377555D01*
X79681232Y-50223212D01*
X79681229Y-50223206D01*
X79678829Y-50219290D01*
X79660584Y-50151844D01*
X79681700Y-50085242D01*
X79735472Y-50040628D01*
X79784556Y-50030500D01*
X80235444Y-50030500D01*
X80302483Y-50050185D01*
G37*
%TD.AperFunction*%
%TA.AperFunction,NonConductor*%
G36*
X108242483Y-50050185D02*
G01*
X108288238Y-50102989D01*
X108298182Y-50172147D01*
X108281171Y-50219290D01*
X108278770Y-50223206D01*
X108200128Y-50377552D01*
X108146597Y-50542302D01*
X108119500Y-50713389D01*
X108119500Y-50886610D01*
X108146597Y-51057698D01*
X108201597Y-51226970D01*
X108203592Y-51296811D01*
X108171347Y-51352969D01*
X106237137Y-53287181D01*
X106175814Y-53320666D01*
X106149456Y-53323500D01*
X104951544Y-53323500D01*
X104884505Y-53303815D01*
X104838750Y-53251011D01*
X104828806Y-53181853D01*
X104857831Y-53118297D01*
X104863863Y-53111819D01*
X105133848Y-52841834D01*
X106127031Y-51848649D01*
X106188352Y-51815166D01*
X106253029Y-51818401D01*
X106257547Y-51819869D01*
X106257555Y-51819873D01*
X106422299Y-51873402D01*
X106593389Y-51900500D01*
X106593390Y-51900500D01*
X106766610Y-51900500D01*
X106766611Y-51900500D01*
X106937701Y-51873402D01*
X107102445Y-51819873D01*
X107256788Y-51741232D01*
X107396928Y-51639414D01*
X107519414Y-51516928D01*
X107621232Y-51376788D01*
X107699873Y-51222445D01*
X107753402Y-51057701D01*
X107780500Y-50886611D01*
X107780500Y-50713389D01*
X107753402Y-50542299D01*
X107699873Y-50377555D01*
X107621232Y-50223212D01*
X107621229Y-50223206D01*
X107618829Y-50219290D01*
X107600584Y-50151844D01*
X107621700Y-50085242D01*
X107675472Y-50040628D01*
X107724556Y-50030500D01*
X108175444Y-50030500D01*
X108242483Y-50050185D01*
G37*
%TD.AperFunction*%
%TA.AperFunction,NonConductor*%
G36*
X77762483Y-50050185D02*
G01*
X77808238Y-50102989D01*
X77818182Y-50172147D01*
X77801171Y-50219290D01*
X77798770Y-50223206D01*
X77720128Y-50377552D01*
X77666597Y-50542302D01*
X77639500Y-50713389D01*
X77639500Y-50886610D01*
X77666597Y-51057697D01*
X77666597Y-51057699D01*
X77666598Y-51057701D01*
X77720127Y-51222445D01*
X77798768Y-51376788D01*
X77900586Y-51516928D01*
X78023072Y-51639414D01*
X78163212Y-51741232D01*
X78317555Y-51819873D01*
X78482299Y-51873402D01*
X78653389Y-51900500D01*
X78653390Y-51900500D01*
X78826610Y-51900500D01*
X78826611Y-51900500D01*
X78997701Y-51873402D01*
X79162445Y-51819873D01*
X79162447Y-51819871D01*
X79166971Y-51818402D01*
X79236812Y-51816407D01*
X79292970Y-51848652D01*
X80556137Y-53111819D01*
X80589622Y-53173142D01*
X80584638Y-53242834D01*
X80542766Y-53298767D01*
X80477302Y-53323184D01*
X80468456Y-53323500D01*
X79270544Y-53323500D01*
X79203505Y-53303815D01*
X79182863Y-53287181D01*
X77248652Y-51352970D01*
X77215167Y-51291647D01*
X77218402Y-51226971D01*
X77219873Y-51222445D01*
X77273402Y-51057701D01*
X77300500Y-50886611D01*
X77300500Y-50713389D01*
X77273402Y-50542299D01*
X77219873Y-50377555D01*
X77141232Y-50223212D01*
X77141229Y-50223206D01*
X77138829Y-50219290D01*
X77120584Y-50151844D01*
X77141700Y-50085242D01*
X77195472Y-50040628D01*
X77244556Y-50030500D01*
X77695444Y-50030500D01*
X77762483Y-50050185D01*
G37*
%TD.AperFunction*%
%TA.AperFunction,NonConductor*%
G36*
X110782483Y-50050185D02*
G01*
X110828238Y-50102989D01*
X110838182Y-50172147D01*
X110821171Y-50219290D01*
X110818770Y-50223206D01*
X110740128Y-50377552D01*
X110686597Y-50542302D01*
X110659500Y-50713389D01*
X110659500Y-50886610D01*
X110686597Y-51057698D01*
X110741597Y-51226971D01*
X110743592Y-51296812D01*
X110711347Y-51352970D01*
X108376137Y-53688181D01*
X108314814Y-53721666D01*
X108288456Y-53724500D01*
X107090544Y-53724500D01*
X107023505Y-53704815D01*
X106977750Y-53652011D01*
X106967806Y-53582853D01*
X106996831Y-53519297D01*
X107002863Y-53512819D01*
X107403863Y-53111819D01*
X108667031Y-51848649D01*
X108728352Y-51815166D01*
X108793029Y-51818401D01*
X108797547Y-51819869D01*
X108797555Y-51819873D01*
X108962299Y-51873402D01*
X109133389Y-51900500D01*
X109133390Y-51900500D01*
X109306610Y-51900500D01*
X109306611Y-51900500D01*
X109477701Y-51873402D01*
X109642445Y-51819873D01*
X109796788Y-51741232D01*
X109936928Y-51639414D01*
X110059414Y-51516928D01*
X110161232Y-51376788D01*
X110239873Y-51222445D01*
X110293402Y-51057701D01*
X110320500Y-50886611D01*
X110320500Y-50713389D01*
X110293402Y-50542299D01*
X110239873Y-50377555D01*
X110161232Y-50223212D01*
X110161229Y-50223206D01*
X110158829Y-50219290D01*
X110140584Y-50151844D01*
X110161700Y-50085242D01*
X110215472Y-50040628D01*
X110264556Y-50030500D01*
X110715444Y-50030500D01*
X110782483Y-50050185D01*
G37*
%TD.AperFunction*%
%TA.AperFunction,NonConductor*%
G36*
X75222483Y-50050185D02*
G01*
X75268238Y-50102989D01*
X75278182Y-50172147D01*
X75261171Y-50219290D01*
X75258770Y-50223206D01*
X75180128Y-50377552D01*
X75126597Y-50542302D01*
X75099500Y-50713389D01*
X75099500Y-50886610D01*
X75126597Y-51057697D01*
X75126597Y-51057699D01*
X75126598Y-51057701D01*
X75180127Y-51222445D01*
X75258768Y-51376788D01*
X75360586Y-51516928D01*
X75483072Y-51639414D01*
X75623212Y-51741232D01*
X75777555Y-51819873D01*
X75942299Y-51873402D01*
X76113389Y-51900500D01*
X76113390Y-51900500D01*
X76286610Y-51900500D01*
X76286611Y-51900500D01*
X76457701Y-51873402D01*
X76622445Y-51819873D01*
X76622447Y-51819871D01*
X76626971Y-51818402D01*
X76696812Y-51816407D01*
X76752970Y-51848652D01*
X78417137Y-53512819D01*
X78450622Y-53574142D01*
X78445638Y-53643834D01*
X78403766Y-53699767D01*
X78338302Y-53724184D01*
X78329456Y-53724500D01*
X77131543Y-53724500D01*
X77064504Y-53704815D01*
X77043862Y-53688181D01*
X74708652Y-51352970D01*
X74675167Y-51291647D01*
X74678402Y-51226971D01*
X74679873Y-51222445D01*
X74733402Y-51057701D01*
X74760500Y-50886611D01*
X74760500Y-50713389D01*
X74733402Y-50542299D01*
X74679873Y-50377555D01*
X74601232Y-50223212D01*
X74601229Y-50223206D01*
X74598829Y-50219290D01*
X74580584Y-50151844D01*
X74601700Y-50085242D01*
X74655472Y-50040628D01*
X74704556Y-50030500D01*
X75155444Y-50030500D01*
X75222483Y-50050185D01*
G37*
%TD.AperFunction*%
%TA.AperFunction,NonConductor*%
G36*
X113322483Y-50050185D02*
G01*
X113368238Y-50102989D01*
X113378182Y-50172147D01*
X113361171Y-50219290D01*
X113358770Y-50223206D01*
X113280128Y-50377552D01*
X113226597Y-50542302D01*
X113199500Y-50713389D01*
X113199500Y-50886610D01*
X113226597Y-51057698D01*
X113281597Y-51226970D01*
X113283592Y-51296811D01*
X113251347Y-51352969D01*
X110515137Y-54089181D01*
X110453814Y-54122666D01*
X110427456Y-54125500D01*
X109229544Y-54125500D01*
X109162505Y-54105815D01*
X109116750Y-54053011D01*
X109106806Y-53983853D01*
X109135831Y-53920297D01*
X109141863Y-53913819D01*
X110170662Y-52885019D01*
X111207030Y-51848649D01*
X111268351Y-51815166D01*
X111333028Y-51818401D01*
X111337549Y-51819869D01*
X111337555Y-51819873D01*
X111502299Y-51873402D01*
X111673389Y-51900500D01*
X111673390Y-51900500D01*
X111846610Y-51900500D01*
X111846611Y-51900500D01*
X112017701Y-51873402D01*
X112182445Y-51819873D01*
X112336788Y-51741232D01*
X112476928Y-51639414D01*
X112599414Y-51516928D01*
X112701232Y-51376788D01*
X112779873Y-51222445D01*
X112833402Y-51057701D01*
X112860500Y-50886611D01*
X112860500Y-50713389D01*
X112833402Y-50542299D01*
X112779873Y-50377555D01*
X112701232Y-50223212D01*
X112701229Y-50223206D01*
X112698829Y-50219290D01*
X112680584Y-50151844D01*
X112701700Y-50085242D01*
X112755472Y-50040628D01*
X112804556Y-50030500D01*
X113255444Y-50030500D01*
X113322483Y-50050185D01*
G37*
%TD.AperFunction*%
%TA.AperFunction,NonConductor*%
G36*
X72682483Y-50050185D02*
G01*
X72728238Y-50102989D01*
X72738182Y-50172147D01*
X72721171Y-50219290D01*
X72718770Y-50223206D01*
X72640128Y-50377552D01*
X72586597Y-50542302D01*
X72559500Y-50713389D01*
X72559500Y-50886610D01*
X72586597Y-51057697D01*
X72586597Y-51057699D01*
X72586598Y-51057701D01*
X72640127Y-51222445D01*
X72718768Y-51376788D01*
X72820586Y-51516928D01*
X72943072Y-51639414D01*
X73083212Y-51741232D01*
X73237555Y-51819873D01*
X73402299Y-51873402D01*
X73573389Y-51900500D01*
X73573390Y-51900500D01*
X73746610Y-51900500D01*
X73746611Y-51900500D01*
X73917701Y-51873402D01*
X74082445Y-51819873D01*
X74082447Y-51819871D01*
X74086971Y-51818402D01*
X74156812Y-51816407D01*
X74212970Y-51848652D01*
X75306919Y-52942601D01*
X76278138Y-53913819D01*
X76311623Y-53975142D01*
X76306639Y-54044834D01*
X76264767Y-54100767D01*
X76199303Y-54125184D01*
X76190457Y-54125500D01*
X74992544Y-54125500D01*
X74925505Y-54105815D01*
X74904863Y-54089181D01*
X72168652Y-51352970D01*
X72135167Y-51291647D01*
X72138402Y-51226971D01*
X72139873Y-51222445D01*
X72193402Y-51057701D01*
X72220500Y-50886611D01*
X72220500Y-50713389D01*
X72193402Y-50542299D01*
X72139873Y-50377555D01*
X72061232Y-50223212D01*
X72061229Y-50223206D01*
X72058829Y-50219290D01*
X72040584Y-50151844D01*
X72061700Y-50085242D01*
X72115472Y-50040628D01*
X72164556Y-50030500D01*
X72615444Y-50030500D01*
X72682483Y-50050185D01*
G37*
%TD.AperFunction*%
%TA.AperFunction,NonConductor*%
G36*
X115862483Y-50050185D02*
G01*
X115908238Y-50102989D01*
X115918182Y-50172147D01*
X115901171Y-50219290D01*
X115898770Y-50223206D01*
X115820128Y-50377552D01*
X115766597Y-50542302D01*
X115739500Y-50713389D01*
X115739500Y-50886610D01*
X115766597Y-51057698D01*
X115821597Y-51226970D01*
X115823592Y-51296811D01*
X115791347Y-51352969D01*
X112654137Y-54490181D01*
X112592814Y-54523666D01*
X112566456Y-54526500D01*
X111368544Y-54526500D01*
X111301505Y-54506815D01*
X111255750Y-54454011D01*
X111245806Y-54384853D01*
X111274831Y-54321297D01*
X111280863Y-54314819D01*
X111895915Y-53699767D01*
X113747031Y-51848649D01*
X113808352Y-51815166D01*
X113873029Y-51818401D01*
X113877547Y-51819869D01*
X113877555Y-51819873D01*
X114042299Y-51873402D01*
X114213389Y-51900500D01*
X114213390Y-51900500D01*
X114386610Y-51900500D01*
X114386611Y-51900500D01*
X114557701Y-51873402D01*
X114722445Y-51819873D01*
X114876788Y-51741232D01*
X115016928Y-51639414D01*
X115139414Y-51516928D01*
X115241232Y-51376788D01*
X115319873Y-51222445D01*
X115373402Y-51057701D01*
X115400500Y-50886611D01*
X115400500Y-50713389D01*
X115373402Y-50542299D01*
X115319873Y-50377555D01*
X115241232Y-50223212D01*
X115241229Y-50223206D01*
X115238829Y-50219290D01*
X115220584Y-50151844D01*
X115241700Y-50085242D01*
X115295472Y-50040628D01*
X115344556Y-50030500D01*
X115795444Y-50030500D01*
X115862483Y-50050185D01*
G37*
%TD.AperFunction*%
%TA.AperFunction,NonConductor*%
G36*
X70142483Y-50050185D02*
G01*
X70188238Y-50102989D01*
X70198182Y-50172147D01*
X70181171Y-50219290D01*
X70178770Y-50223206D01*
X70100128Y-50377552D01*
X70046597Y-50542302D01*
X70019500Y-50713389D01*
X70019500Y-50886610D01*
X70046597Y-51057697D01*
X70046597Y-51057699D01*
X70046598Y-51057701D01*
X70100127Y-51222445D01*
X70178768Y-51376788D01*
X70280586Y-51516928D01*
X70403072Y-51639414D01*
X70543212Y-51741232D01*
X70697555Y-51819873D01*
X70862299Y-51873402D01*
X71033389Y-51900500D01*
X71033390Y-51900500D01*
X71206610Y-51900500D01*
X71206611Y-51900500D01*
X71377701Y-51873402D01*
X71542445Y-51819873D01*
X71542447Y-51819871D01*
X71546971Y-51818402D01*
X71616812Y-51816407D01*
X71672970Y-51848652D01*
X74139137Y-54314819D01*
X74172622Y-54376142D01*
X74167638Y-54445834D01*
X74125766Y-54501767D01*
X74060302Y-54526184D01*
X74051456Y-54526500D01*
X72853544Y-54526500D01*
X72786505Y-54506815D01*
X72765863Y-54490181D01*
X69628652Y-51352970D01*
X69595167Y-51291647D01*
X69598402Y-51226971D01*
X69599873Y-51222445D01*
X69653402Y-51057701D01*
X69680500Y-50886611D01*
X69680500Y-50713389D01*
X69653402Y-50542299D01*
X69599873Y-50377555D01*
X69521232Y-50223212D01*
X69521229Y-50223206D01*
X69518829Y-50219290D01*
X69500584Y-50151844D01*
X69521700Y-50085242D01*
X69575472Y-50040628D01*
X69624556Y-50030500D01*
X70075444Y-50030500D01*
X70142483Y-50050185D01*
G37*
%TD.AperFunction*%
%TA.AperFunction,NonConductor*%
G36*
X118402483Y-50050185D02*
G01*
X118448238Y-50102989D01*
X118458182Y-50172147D01*
X118441171Y-50219290D01*
X118438770Y-50223206D01*
X118360128Y-50377552D01*
X118306597Y-50542302D01*
X118279500Y-50713389D01*
X118279500Y-50886610D01*
X118306597Y-51057698D01*
X118361597Y-51226971D01*
X118363592Y-51296812D01*
X118331347Y-51352970D01*
X114793137Y-54891181D01*
X114731814Y-54924666D01*
X114705456Y-54927500D01*
X113507544Y-54927500D01*
X113440505Y-54907815D01*
X113394750Y-54855011D01*
X113384806Y-54785853D01*
X113413831Y-54722297D01*
X113419863Y-54715819D01*
X114130741Y-54004941D01*
X116287031Y-51848649D01*
X116348352Y-51815166D01*
X116413029Y-51818401D01*
X116417547Y-51819869D01*
X116417555Y-51819873D01*
X116582299Y-51873402D01*
X116753389Y-51900500D01*
X116753390Y-51900500D01*
X116926610Y-51900500D01*
X116926611Y-51900500D01*
X117097701Y-51873402D01*
X117262445Y-51819873D01*
X117416788Y-51741232D01*
X117556928Y-51639414D01*
X117679414Y-51516928D01*
X117781232Y-51376788D01*
X117859873Y-51222445D01*
X117913402Y-51057701D01*
X117940500Y-50886611D01*
X117940500Y-50713389D01*
X117913402Y-50542299D01*
X117859873Y-50377555D01*
X117781232Y-50223212D01*
X117781229Y-50223206D01*
X117778829Y-50219290D01*
X117760584Y-50151844D01*
X117781700Y-50085242D01*
X117835472Y-50040628D01*
X117884556Y-50030500D01*
X118335444Y-50030500D01*
X118402483Y-50050185D01*
G37*
%TD.AperFunction*%
%TA.AperFunction,NonConductor*%
G36*
X67602483Y-50050185D02*
G01*
X67648238Y-50102989D01*
X67658182Y-50172147D01*
X67641171Y-50219290D01*
X67638770Y-50223206D01*
X67560128Y-50377552D01*
X67506597Y-50542302D01*
X67479500Y-50713389D01*
X67479500Y-50886610D01*
X67506597Y-51057697D01*
X67506597Y-51057699D01*
X67506598Y-51057701D01*
X67560127Y-51222445D01*
X67638768Y-51376788D01*
X67740586Y-51516928D01*
X67863072Y-51639414D01*
X68003212Y-51741232D01*
X68157555Y-51819873D01*
X68322299Y-51873402D01*
X68493389Y-51900500D01*
X68493390Y-51900500D01*
X68666610Y-51900500D01*
X68666611Y-51900500D01*
X68837701Y-51873402D01*
X69002445Y-51819873D01*
X69002447Y-51819871D01*
X69006971Y-51818402D01*
X69076812Y-51816407D01*
X69132970Y-51848652D01*
X72000137Y-54715819D01*
X72033622Y-54777142D01*
X72028638Y-54846834D01*
X71986766Y-54902767D01*
X71921302Y-54927184D01*
X71912456Y-54927500D01*
X70714543Y-54927500D01*
X70647504Y-54907815D01*
X70626862Y-54891181D01*
X67088652Y-51352970D01*
X67055167Y-51291647D01*
X67058402Y-51226971D01*
X67059873Y-51222445D01*
X67113402Y-51057701D01*
X67140500Y-50886611D01*
X67140500Y-50713389D01*
X67113402Y-50542299D01*
X67059873Y-50377555D01*
X66981232Y-50223212D01*
X66981229Y-50223206D01*
X66978829Y-50219290D01*
X66960584Y-50151844D01*
X66981700Y-50085242D01*
X67035472Y-50040628D01*
X67084556Y-50030500D01*
X67535444Y-50030500D01*
X67602483Y-50050185D01*
G37*
%TD.AperFunction*%
%TA.AperFunction,NonConductor*%
G36*
X120942483Y-50050185D02*
G01*
X120988238Y-50102989D01*
X120998182Y-50172147D01*
X120981171Y-50219290D01*
X120978770Y-50223206D01*
X120900128Y-50377552D01*
X120846597Y-50542302D01*
X120819500Y-50713389D01*
X120819500Y-50886610D01*
X120846597Y-51057698D01*
X120901597Y-51226970D01*
X120903592Y-51296811D01*
X120871347Y-51352969D01*
X116932137Y-55292181D01*
X116870814Y-55325666D01*
X116844456Y-55328500D01*
X115646544Y-55328500D01*
X115579505Y-55308815D01*
X115533750Y-55256011D01*
X115523806Y-55186853D01*
X115552831Y-55123297D01*
X115558863Y-55116819D01*
X116011383Y-54664299D01*
X118827030Y-51848649D01*
X118888351Y-51815166D01*
X118953028Y-51818401D01*
X118957549Y-51819869D01*
X118957555Y-51819873D01*
X119122299Y-51873402D01*
X119293389Y-51900500D01*
X119293390Y-51900500D01*
X119466610Y-51900500D01*
X119466611Y-51900500D01*
X119637701Y-51873402D01*
X119802445Y-51819873D01*
X119956788Y-51741232D01*
X120096928Y-51639414D01*
X120219414Y-51516928D01*
X120321232Y-51376788D01*
X120399873Y-51222445D01*
X120453402Y-51057701D01*
X120480500Y-50886611D01*
X120480500Y-50713389D01*
X120453402Y-50542299D01*
X120399873Y-50377555D01*
X120321232Y-50223212D01*
X120321229Y-50223206D01*
X120318829Y-50219290D01*
X120300584Y-50151844D01*
X120321700Y-50085242D01*
X120375472Y-50040628D01*
X120424556Y-50030500D01*
X120875444Y-50030500D01*
X120942483Y-50050185D01*
G37*
%TD.AperFunction*%
%TA.AperFunction,NonConductor*%
G36*
X65062483Y-50050185D02*
G01*
X65108238Y-50102989D01*
X65118182Y-50172147D01*
X65101171Y-50219290D01*
X65098770Y-50223206D01*
X65020128Y-50377552D01*
X64966597Y-50542302D01*
X64939500Y-50713389D01*
X64939500Y-50886610D01*
X64966597Y-51057697D01*
X64966597Y-51057699D01*
X64966598Y-51057701D01*
X65020127Y-51222445D01*
X65098768Y-51376788D01*
X65200586Y-51516928D01*
X65323072Y-51639414D01*
X65463212Y-51741232D01*
X65617555Y-51819873D01*
X65782299Y-51873402D01*
X65953389Y-51900500D01*
X65953390Y-51900500D01*
X66126610Y-51900500D01*
X66126611Y-51900500D01*
X66297701Y-51873402D01*
X66462445Y-51819873D01*
X66462447Y-51819871D01*
X66466971Y-51818402D01*
X66536812Y-51816407D01*
X66592970Y-51848652D01*
X68263615Y-53519297D01*
X69861138Y-55116819D01*
X69894623Y-55178142D01*
X69889639Y-55247834D01*
X69847767Y-55303767D01*
X69782303Y-55328184D01*
X69773457Y-55328500D01*
X68575544Y-55328500D01*
X68508505Y-55308815D01*
X68487863Y-55292181D01*
X64548652Y-51352970D01*
X64515167Y-51291647D01*
X64518402Y-51226971D01*
X64519873Y-51222445D01*
X64573402Y-51057701D01*
X64600500Y-50886611D01*
X64600500Y-50713389D01*
X64573402Y-50542299D01*
X64519873Y-50377555D01*
X64441232Y-50223212D01*
X64441229Y-50223206D01*
X64438829Y-50219290D01*
X64420584Y-50151844D01*
X64441700Y-50085242D01*
X64495472Y-50040628D01*
X64544556Y-50030500D01*
X64995444Y-50030500D01*
X65062483Y-50050185D01*
G37*
%TD.AperFunction*%
%TA.AperFunction,NonConductor*%
G36*
X98802910Y-64724217D02*
G01*
X98819649Y-64723918D01*
X98835739Y-64733856D01*
X98853885Y-64739185D01*
X98864848Y-64751837D01*
X98879093Y-64760636D01*
X98887256Y-64777697D01*
X98899640Y-64791989D01*
X98902022Y-64808558D01*
X98909249Y-64823662D01*
X98906892Y-64842427D01*
X98909584Y-64861147D01*
X98902629Y-64876376D01*
X98900543Y-64892988D01*
X98888415Y-64907500D01*
X98880559Y-64924703D01*
X98866475Y-64933754D01*
X98855739Y-64946601D01*
X98823901Y-64961834D01*
X98815225Y-64964550D01*
X98802299Y-64966598D01*
X98637555Y-65020127D01*
X98637249Y-65020282D01*
X98631765Y-65022000D01*
X98597472Y-65022612D01*
X98563186Y-65023592D01*
X98562595Y-65023235D01*
X98561907Y-65023248D01*
X98507029Y-64991347D01*
X98446863Y-64931181D01*
X98413378Y-64869858D01*
X98418362Y-64800166D01*
X98460234Y-64744233D01*
X98525698Y-64719816D01*
X98534544Y-64719500D01*
X98786846Y-64719500D01*
X98802910Y-64724217D01*
G37*
%TD.AperFunction*%
%TA.AperFunction,NonConductor*%
G36*
X86952494Y-64739185D02*
G01*
X86998249Y-64791989D01*
X87008193Y-64861147D01*
X86979168Y-64924703D01*
X86973144Y-64931172D01*
X86942483Y-64961834D01*
X86912969Y-64991348D01*
X86900184Y-64998328D01*
X86890452Y-65009163D01*
X86870134Y-65014736D01*
X86851645Y-65024832D01*
X86835894Y-65024128D01*
X86823072Y-65027646D01*
X86789790Y-65022069D01*
X86788232Y-65022000D01*
X86782754Y-65020284D01*
X86782445Y-65020127D01*
X86617701Y-64966598D01*
X86604772Y-64964550D01*
X86596098Y-64961834D01*
X86574304Y-64947271D01*
X86550621Y-64936044D01*
X86545717Y-64928168D01*
X86538005Y-64923015D01*
X86527544Y-64898982D01*
X86513690Y-64876732D01*
X86513822Y-64867457D01*
X86510120Y-64858951D01*
X86514313Y-64833075D01*
X86514688Y-64806869D01*
X86519813Y-64799138D01*
X86521298Y-64789981D01*
X86538813Y-64770482D01*
X86553298Y-64748637D01*
X86561790Y-64744904D01*
X86567990Y-64738003D01*
X86593268Y-64731068D01*
X86617262Y-64720523D01*
X86633154Y-64719500D01*
X86885455Y-64719500D01*
X86952494Y-64739185D01*
G37*
%TD.AperFunction*%
%TA.AperFunction,NonConductor*%
G36*
X116839658Y-61459348D02*
G01*
X116860300Y-61475982D01*
X120871347Y-65487029D01*
X120904832Y-65548352D01*
X120901597Y-65613028D01*
X120846597Y-65782301D01*
X120819500Y-65953389D01*
X120819500Y-66126610D01*
X120846597Y-66297697D01*
X120900128Y-66462447D01*
X120978770Y-66616793D01*
X120981171Y-66620710D01*
X120999416Y-66688156D01*
X120978300Y-66754758D01*
X120924528Y-66799372D01*
X120875444Y-66809500D01*
X120424556Y-66809500D01*
X120357517Y-66789815D01*
X120311762Y-66737011D01*
X120301818Y-66667853D01*
X120318829Y-66620710D01*
X120321229Y-66616793D01*
X120321232Y-66616788D01*
X120399873Y-66462445D01*
X120453402Y-66297701D01*
X120480500Y-66126611D01*
X120480500Y-65953389D01*
X120453402Y-65782299D01*
X120399873Y-65617555D01*
X120321232Y-65463212D01*
X120219414Y-65323072D01*
X120096928Y-65200586D01*
X119956788Y-65098768D01*
X119869848Y-65054470D01*
X119802447Y-65020128D01*
X119802446Y-65020127D01*
X119802445Y-65020127D01*
X119637701Y-64966598D01*
X119637699Y-64966597D01*
X119637698Y-64966597D01*
X119506271Y-64945781D01*
X119466611Y-64939500D01*
X119293389Y-64939500D01*
X119261192Y-64944599D01*
X119122301Y-64966597D01*
X118953028Y-65021597D01*
X118883186Y-65023592D01*
X118827029Y-64991347D01*
X115487026Y-61651344D01*
X115453541Y-61590021D01*
X115458525Y-61520329D01*
X115500397Y-61464396D01*
X115565861Y-61439979D01*
X115574707Y-61439663D01*
X116772619Y-61439663D01*
X116839658Y-61459348D01*
G37*
%TD.AperFunction*%
%TA.AperFunction,NonConductor*%
G36*
X114700658Y-61860348D02*
G01*
X114721300Y-61876982D01*
X118331347Y-65487029D01*
X118364832Y-65548352D01*
X118361597Y-65613028D01*
X118306597Y-65782301D01*
X118279500Y-65953389D01*
X118279500Y-66126610D01*
X118306597Y-66297697D01*
X118360128Y-66462447D01*
X118438770Y-66616793D01*
X118441171Y-66620710D01*
X118459416Y-66688156D01*
X118438300Y-66754758D01*
X118384528Y-66799372D01*
X118335444Y-66809500D01*
X117884556Y-66809500D01*
X117817517Y-66789815D01*
X117771762Y-66737011D01*
X117761818Y-66667853D01*
X117778829Y-66620710D01*
X117781229Y-66616793D01*
X117781232Y-66616788D01*
X117859873Y-66462445D01*
X117913402Y-66297701D01*
X117940500Y-66126611D01*
X117940500Y-65953389D01*
X117913402Y-65782299D01*
X117859873Y-65617555D01*
X117781232Y-65463212D01*
X117679414Y-65323072D01*
X117556928Y-65200586D01*
X117416788Y-65098768D01*
X117329848Y-65054470D01*
X117262447Y-65020128D01*
X117262446Y-65020127D01*
X117262445Y-65020127D01*
X117097701Y-64966598D01*
X117097699Y-64966597D01*
X117097698Y-64966597D01*
X116966271Y-64945781D01*
X116926611Y-64939500D01*
X116753389Y-64939500D01*
X116721192Y-64944599D01*
X116582301Y-64966597D01*
X116413028Y-65021597D01*
X116343186Y-65023592D01*
X116287029Y-64991347D01*
X113348026Y-62052344D01*
X113314541Y-61991021D01*
X113319525Y-61921329D01*
X113361397Y-61865396D01*
X113426861Y-61840979D01*
X113435707Y-61840663D01*
X114633619Y-61840663D01*
X114700658Y-61860348D01*
G37*
%TD.AperFunction*%
%TA.AperFunction,NonConductor*%
G36*
X112561658Y-62261348D02*
G01*
X112582300Y-62277982D01*
X115791347Y-65487029D01*
X115824832Y-65548352D01*
X115821597Y-65613028D01*
X115766597Y-65782301D01*
X115739500Y-65953389D01*
X115739500Y-66126610D01*
X115766597Y-66297697D01*
X115820128Y-66462447D01*
X115898770Y-66616793D01*
X115901171Y-66620710D01*
X115919416Y-66688156D01*
X115898300Y-66754758D01*
X115844528Y-66799372D01*
X115795444Y-66809500D01*
X115344556Y-66809500D01*
X115277517Y-66789815D01*
X115231762Y-66737011D01*
X115221818Y-66667853D01*
X115238829Y-66620710D01*
X115241229Y-66616793D01*
X115241232Y-66616788D01*
X115319873Y-66462445D01*
X115373402Y-66297701D01*
X115400500Y-66126611D01*
X115400500Y-65953389D01*
X115373402Y-65782299D01*
X115319873Y-65617555D01*
X115241232Y-65463212D01*
X115139414Y-65323072D01*
X115016928Y-65200586D01*
X114876788Y-65098768D01*
X114789848Y-65054470D01*
X114722447Y-65020128D01*
X114722446Y-65020127D01*
X114722445Y-65020127D01*
X114557701Y-64966598D01*
X114557699Y-64966597D01*
X114557698Y-64966597D01*
X114426271Y-64945781D01*
X114386611Y-64939500D01*
X114213389Y-64939500D01*
X114181192Y-64944599D01*
X114042301Y-64966597D01*
X113873028Y-65021597D01*
X113803186Y-65023592D01*
X113747029Y-64991347D01*
X111209026Y-62453344D01*
X111175541Y-62392021D01*
X111180525Y-62322329D01*
X111222397Y-62266396D01*
X111287861Y-62241979D01*
X111296707Y-62241663D01*
X112494619Y-62241663D01*
X112561658Y-62261348D01*
G37*
%TD.AperFunction*%
%TA.AperFunction,NonConductor*%
G36*
X110422658Y-62662348D02*
G01*
X110443300Y-62678982D01*
X113251347Y-65487029D01*
X113284832Y-65548352D01*
X113281597Y-65613028D01*
X113226597Y-65782301D01*
X113199500Y-65953389D01*
X113199500Y-66126610D01*
X113226597Y-66297697D01*
X113280128Y-66462447D01*
X113358770Y-66616793D01*
X113361171Y-66620710D01*
X113379416Y-66688156D01*
X113358300Y-66754758D01*
X113304528Y-66799372D01*
X113255444Y-66809500D01*
X112804556Y-66809500D01*
X112737517Y-66789815D01*
X112691762Y-66737011D01*
X112681818Y-66667853D01*
X112698829Y-66620710D01*
X112701229Y-66616793D01*
X112701232Y-66616788D01*
X112779873Y-66462445D01*
X112833402Y-66297701D01*
X112860500Y-66126611D01*
X112860500Y-65953389D01*
X112833402Y-65782299D01*
X112779873Y-65617555D01*
X112701232Y-65463212D01*
X112599414Y-65323072D01*
X112476928Y-65200586D01*
X112336788Y-65098768D01*
X112249848Y-65054470D01*
X112182447Y-65020128D01*
X112182446Y-65020127D01*
X112182445Y-65020127D01*
X112017701Y-64966598D01*
X112017699Y-64966597D01*
X112017698Y-64966597D01*
X111886271Y-64945781D01*
X111846611Y-64939500D01*
X111673389Y-64939500D01*
X111641192Y-64944599D01*
X111502301Y-64966597D01*
X111502297Y-64966598D01*
X111333026Y-65021597D01*
X111263185Y-65023592D01*
X111207028Y-64991347D01*
X109070026Y-62854344D01*
X109036541Y-62793021D01*
X109041525Y-62723329D01*
X109083397Y-62667396D01*
X109148861Y-62642979D01*
X109157707Y-62642663D01*
X110355619Y-62642663D01*
X110422658Y-62662348D01*
G37*
%TD.AperFunction*%
%TA.AperFunction,NonConductor*%
G36*
X108283658Y-63063348D02*
G01*
X108304300Y-63079982D01*
X110711347Y-65487028D01*
X110744832Y-65548351D01*
X110741597Y-65613026D01*
X110686598Y-65782297D01*
X110686597Y-65782301D01*
X110659500Y-65953389D01*
X110659500Y-66126610D01*
X110686597Y-66297697D01*
X110740128Y-66462447D01*
X110818770Y-66616793D01*
X110821171Y-66620710D01*
X110839416Y-66688156D01*
X110818300Y-66754758D01*
X110764528Y-66799372D01*
X110715444Y-66809500D01*
X110264556Y-66809500D01*
X110197517Y-66789815D01*
X110151762Y-66737011D01*
X110141818Y-66667853D01*
X110158829Y-66620710D01*
X110161229Y-66616793D01*
X110161232Y-66616788D01*
X110239873Y-66462445D01*
X110293402Y-66297701D01*
X110320500Y-66126611D01*
X110320500Y-65953389D01*
X110293402Y-65782299D01*
X110239873Y-65617555D01*
X110161232Y-65463212D01*
X110059414Y-65323072D01*
X109936928Y-65200586D01*
X109796788Y-65098768D01*
X109709848Y-65054470D01*
X109642447Y-65020128D01*
X109642446Y-65020127D01*
X109642445Y-65020127D01*
X109477701Y-64966598D01*
X109477699Y-64966597D01*
X109477698Y-64966597D01*
X109346271Y-64945781D01*
X109306611Y-64939500D01*
X109133389Y-64939500D01*
X109101192Y-64944599D01*
X108962301Y-64966597D01*
X108793028Y-65021597D01*
X108723186Y-65023592D01*
X108667029Y-64991347D01*
X106931026Y-63255344D01*
X106897541Y-63194021D01*
X106902525Y-63124329D01*
X106944397Y-63068396D01*
X107009861Y-63043979D01*
X107018707Y-63043663D01*
X108216619Y-63043663D01*
X108283658Y-63063348D01*
G37*
%TD.AperFunction*%
%TA.AperFunction,NonConductor*%
G36*
X106144658Y-63464348D02*
G01*
X106165300Y-63480982D01*
X108171347Y-65487029D01*
X108204832Y-65548352D01*
X108201597Y-65613028D01*
X108146597Y-65782301D01*
X108119500Y-65953389D01*
X108119500Y-66126610D01*
X108146597Y-66297697D01*
X108200128Y-66462447D01*
X108278770Y-66616793D01*
X108281171Y-66620710D01*
X108299416Y-66688156D01*
X108278300Y-66754758D01*
X108224528Y-66799372D01*
X108175444Y-66809500D01*
X107724556Y-66809500D01*
X107657517Y-66789815D01*
X107611762Y-66737011D01*
X107601818Y-66667853D01*
X107618829Y-66620710D01*
X107621229Y-66616793D01*
X107621232Y-66616788D01*
X107699873Y-66462445D01*
X107753402Y-66297701D01*
X107780500Y-66126611D01*
X107780500Y-65953389D01*
X107753402Y-65782299D01*
X107699873Y-65617555D01*
X107621232Y-65463212D01*
X107519414Y-65323072D01*
X107396928Y-65200586D01*
X107256788Y-65098768D01*
X107169848Y-65054470D01*
X107102447Y-65020128D01*
X107102446Y-65020127D01*
X107102445Y-65020127D01*
X106937701Y-64966598D01*
X106937699Y-64966597D01*
X106937698Y-64966597D01*
X106806271Y-64945781D01*
X106766611Y-64939500D01*
X106593389Y-64939500D01*
X106561192Y-64944599D01*
X106422301Y-64966597D01*
X106253028Y-65021597D01*
X106183186Y-65023592D01*
X106127029Y-64991347D01*
X104792026Y-63656344D01*
X104758541Y-63595021D01*
X104763525Y-63525329D01*
X104805397Y-63469396D01*
X104870861Y-63444979D01*
X104879707Y-63444663D01*
X106077619Y-63444663D01*
X106144658Y-63464348D01*
G37*
%TD.AperFunction*%
%TA.AperFunction,NonConductor*%
G36*
X104005658Y-63865348D02*
G01*
X104026300Y-63881982D01*
X105631347Y-65487029D01*
X105664832Y-65548352D01*
X105661597Y-65613028D01*
X105606597Y-65782301D01*
X105579500Y-65953389D01*
X105579500Y-66126610D01*
X105606597Y-66297697D01*
X105660128Y-66462447D01*
X105738770Y-66616793D01*
X105741171Y-66620710D01*
X105759416Y-66688156D01*
X105738300Y-66754758D01*
X105684528Y-66799372D01*
X105635444Y-66809500D01*
X105184556Y-66809500D01*
X105117517Y-66789815D01*
X105071762Y-66737011D01*
X105061818Y-66667853D01*
X105078829Y-66620710D01*
X105081229Y-66616793D01*
X105081232Y-66616788D01*
X105159873Y-66462445D01*
X105213402Y-66297701D01*
X105240500Y-66126611D01*
X105240500Y-65953389D01*
X105213402Y-65782299D01*
X105159873Y-65617555D01*
X105081232Y-65463212D01*
X104979414Y-65323072D01*
X104856928Y-65200586D01*
X104716788Y-65098768D01*
X104629848Y-65054470D01*
X104562447Y-65020128D01*
X104562446Y-65020127D01*
X104562445Y-65020127D01*
X104397701Y-64966598D01*
X104397699Y-64966597D01*
X104397698Y-64966597D01*
X104266271Y-64945781D01*
X104226611Y-64939500D01*
X104053389Y-64939500D01*
X104021192Y-64944599D01*
X103882301Y-64966597D01*
X103882297Y-64966598D01*
X103713026Y-65021597D01*
X103643185Y-65023592D01*
X103587028Y-64991347D01*
X102653026Y-64057344D01*
X102619541Y-63996021D01*
X102624525Y-63926329D01*
X102666397Y-63870396D01*
X102731861Y-63845979D01*
X102740707Y-63845663D01*
X103938619Y-63845663D01*
X104005658Y-63865348D01*
G37*
%TD.AperFunction*%
%TA.AperFunction,NonConductor*%
G36*
X101866658Y-64266348D02*
G01*
X101887300Y-64282982D01*
X102497306Y-64892988D01*
X103091347Y-65487028D01*
X103124832Y-65548351D01*
X103121597Y-65613026D01*
X103066598Y-65782297D01*
X103066597Y-65782301D01*
X103039500Y-65953389D01*
X103039500Y-66126610D01*
X103066597Y-66297697D01*
X103120128Y-66462447D01*
X103198770Y-66616793D01*
X103201171Y-66620710D01*
X103219416Y-66688156D01*
X103198300Y-66754758D01*
X103144528Y-66799372D01*
X103095444Y-66809500D01*
X102644556Y-66809500D01*
X102577517Y-66789815D01*
X102531762Y-66737011D01*
X102521818Y-66667853D01*
X102538829Y-66620710D01*
X102541229Y-66616793D01*
X102541232Y-66616788D01*
X102619873Y-66462445D01*
X102673402Y-66297701D01*
X102700500Y-66126611D01*
X102700500Y-65953389D01*
X102673402Y-65782299D01*
X102619873Y-65617555D01*
X102541232Y-65463212D01*
X102439414Y-65323072D01*
X102316928Y-65200586D01*
X102176788Y-65098768D01*
X102089848Y-65054470D01*
X102022447Y-65020128D01*
X102022446Y-65020127D01*
X102022445Y-65020127D01*
X101857701Y-64966598D01*
X101857699Y-64966597D01*
X101857698Y-64966597D01*
X101726271Y-64945781D01*
X101686611Y-64939500D01*
X101513389Y-64939500D01*
X101481192Y-64944599D01*
X101342301Y-64966597D01*
X101173028Y-65021597D01*
X101103186Y-65023592D01*
X101047029Y-64991347D01*
X100514026Y-64458344D01*
X100480541Y-64397021D01*
X100485525Y-64327329D01*
X100527397Y-64271396D01*
X100592861Y-64246979D01*
X100601707Y-64246663D01*
X101799619Y-64246663D01*
X101866658Y-64266348D01*
G37*
%TD.AperFunction*%
%TA.AperFunction,NonConductor*%
G36*
X99799495Y-64739185D02*
G01*
X99820137Y-64755819D01*
X100551347Y-65487029D01*
X100584832Y-65548352D01*
X100581597Y-65613028D01*
X100526597Y-65782301D01*
X100499500Y-65953389D01*
X100499500Y-66126610D01*
X100526597Y-66297697D01*
X100580128Y-66462447D01*
X100658770Y-66616793D01*
X100661171Y-66620710D01*
X100679416Y-66688156D01*
X100658300Y-66754758D01*
X100604528Y-66799372D01*
X100555444Y-66809500D01*
X100104556Y-66809500D01*
X100037517Y-66789815D01*
X99991762Y-66737011D01*
X99981818Y-66667853D01*
X99998829Y-66620710D01*
X100001229Y-66616793D01*
X100001232Y-66616788D01*
X100079873Y-66462445D01*
X100133402Y-66297701D01*
X100160500Y-66126611D01*
X100160500Y-65953389D01*
X100133402Y-65782299D01*
X100079873Y-65617555D01*
X100001232Y-65463212D01*
X99899414Y-65323072D01*
X99776928Y-65200586D01*
X99636788Y-65098768D01*
X99549848Y-65054470D01*
X99482447Y-65020128D01*
X99482446Y-65020127D01*
X99482445Y-65020127D01*
X99317701Y-64966598D01*
X99317699Y-64966597D01*
X99317697Y-64966597D01*
X99313756Y-64965973D01*
X99250621Y-64936044D01*
X99213690Y-64876732D01*
X99214688Y-64806869D01*
X99253298Y-64748637D01*
X99317262Y-64720523D01*
X99333154Y-64719500D01*
X99732456Y-64719500D01*
X99799495Y-64739185D01*
G37*
%TD.AperFunction*%
%TA.AperFunction,NonConductor*%
G36*
X97660495Y-65140185D02*
G01*
X97681137Y-65156819D01*
X98011347Y-65487029D01*
X98044832Y-65548352D01*
X98041597Y-65613028D01*
X97986597Y-65782301D01*
X97959500Y-65953389D01*
X97959500Y-66126610D01*
X97986597Y-66297697D01*
X98040128Y-66462447D01*
X98118770Y-66616793D01*
X98121171Y-66620710D01*
X98139416Y-66688156D01*
X98118300Y-66754758D01*
X98064528Y-66799372D01*
X98015444Y-66809500D01*
X97564556Y-66809500D01*
X97497517Y-66789815D01*
X97451762Y-66737011D01*
X97441818Y-66667853D01*
X97458829Y-66620710D01*
X97461229Y-66616793D01*
X97461232Y-66616788D01*
X97539873Y-66462445D01*
X97593402Y-66297701D01*
X97620500Y-66126611D01*
X97620500Y-65953389D01*
X97593402Y-65782299D01*
X97539873Y-65617555D01*
X97461232Y-65463212D01*
X97359414Y-65323072D01*
X97359410Y-65323068D01*
X97356550Y-65319131D01*
X97357975Y-65318094D01*
X97353969Y-65309150D01*
X97342584Y-65296011D01*
X97339984Y-65277929D01*
X97332515Y-65261255D01*
X97335114Y-65244062D01*
X97332640Y-65226853D01*
X97340229Y-65210233D01*
X97342961Y-65192171D01*
X97354441Y-65179114D01*
X97361665Y-65163297D01*
X97377034Y-65153419D01*
X97389098Y-65139700D01*
X97406002Y-65134802D01*
X97420443Y-65125523D01*
X97455378Y-65120500D01*
X97593456Y-65120500D01*
X97660495Y-65140185D01*
G37*
%TD.AperFunction*%
%TA.AperFunction,NonConductor*%
G36*
X94556453Y-63959962D02*
G01*
X94600802Y-63988464D01*
X95720317Y-65107978D01*
X95753802Y-65169301D01*
X95748818Y-65238993D01*
X95720318Y-65283339D01*
X95680589Y-65323068D01*
X95680588Y-65323070D01*
X95680586Y-65323072D01*
X95636859Y-65383256D01*
X95578768Y-65463211D01*
X95500128Y-65617552D01*
X95446597Y-65782302D01*
X95419500Y-65953389D01*
X95419500Y-66126610D01*
X95446597Y-66297697D01*
X95500128Y-66462447D01*
X95578770Y-66616793D01*
X95581171Y-66620710D01*
X95599416Y-66688156D01*
X95578300Y-66754758D01*
X95524528Y-66799372D01*
X95475444Y-66809500D01*
X95024556Y-66809500D01*
X94957517Y-66789815D01*
X94911762Y-66737011D01*
X94901818Y-66667853D01*
X94918829Y-66620710D01*
X94921229Y-66616793D01*
X94921232Y-66616788D01*
X94999873Y-66462445D01*
X95053402Y-66297701D01*
X95080500Y-66126611D01*
X95080500Y-65953389D01*
X95053402Y-65782299D01*
X94999873Y-65617555D01*
X94921232Y-65463212D01*
X94819414Y-65323072D01*
X94696928Y-65200586D01*
X94556788Y-65098768D01*
X94555856Y-65098293D01*
X94398205Y-65017966D01*
X94347409Y-64969991D01*
X94330500Y-64907481D01*
X94330500Y-64134768D01*
X94339144Y-64105328D01*
X94345667Y-64075343D01*
X94349422Y-64070325D01*
X94350185Y-64067729D01*
X94366813Y-64047091D01*
X94425443Y-63988462D01*
X94486761Y-63954979D01*
X94556453Y-63959962D01*
G37*
%TD.AperFunction*%
%TA.AperFunction,NonConductor*%
G36*
X93002483Y-50050185D02*
G01*
X93048238Y-50102989D01*
X93058182Y-50172147D01*
X93041171Y-50219290D01*
X93038770Y-50223206D01*
X92960128Y-50377552D01*
X92906597Y-50542302D01*
X92879500Y-50713389D01*
X92879500Y-50886610D01*
X92906597Y-51057697D01*
X92906597Y-51057699D01*
X92906598Y-51057701D01*
X92960127Y-51222445D01*
X93038768Y-51376788D01*
X93140586Y-51516928D01*
X93140588Y-51516930D01*
X93263075Y-51639417D01*
X93307172Y-51671454D01*
X93349838Y-51726783D01*
X93358288Y-51771773D01*
X93358288Y-53264870D01*
X93338603Y-53331909D01*
X93321969Y-53352551D01*
X92930170Y-53744349D01*
X92901056Y-53782288D01*
X92861797Y-53890154D01*
X92861797Y-53890155D01*
X92861797Y-54004944D01*
X92901057Y-54112810D01*
X92930165Y-54150744D01*
X93090168Y-54310745D01*
X93090171Y-54310747D01*
X93090172Y-54310748D01*
X93090173Y-54310749D01*
X93095477Y-54314819D01*
X93128102Y-54339855D01*
X93166512Y-54353835D01*
X93166515Y-54353836D01*
X93222779Y-54395261D01*
X93240627Y-54427946D01*
X93254610Y-54466363D01*
X93281777Y-54501767D01*
X93283719Y-54504298D01*
X93443722Y-54664299D01*
X93443725Y-54664301D01*
X93443726Y-54664302D01*
X93443727Y-54664303D01*
X93481653Y-54693407D01*
X93481656Y-54693409D01*
X93520069Y-54707390D01*
X93576333Y-54748816D01*
X93594180Y-54781499D01*
X93608163Y-54819916D01*
X93608164Y-54819917D01*
X93637272Y-54857851D01*
X93797275Y-55017852D01*
X93797278Y-55017854D01*
X93797279Y-55017855D01*
X93797280Y-55017856D01*
X93803927Y-55022957D01*
X93835209Y-55046962D01*
X93873619Y-55060942D01*
X93873622Y-55060943D01*
X93929886Y-55102368D01*
X93947734Y-55135053D01*
X93961717Y-55173470D01*
X93961718Y-55173471D01*
X93990826Y-55211405D01*
X94150829Y-55371406D01*
X94150832Y-55371408D01*
X94150833Y-55371409D01*
X94150834Y-55371410D01*
X94188760Y-55400514D01*
X94188763Y-55400516D01*
X94227176Y-55414497D01*
X94283440Y-55455923D01*
X94301287Y-55488606D01*
X94315270Y-55527023D01*
X94315271Y-55527024D01*
X94344379Y-55564958D01*
X94504382Y-55724959D01*
X94504385Y-55724961D01*
X94504386Y-55724962D01*
X94504387Y-55724963D01*
X94542313Y-55754067D01*
X94542316Y-55754069D01*
X94580729Y-55768050D01*
X94636993Y-55809476D01*
X94654840Y-55842159D01*
X94668823Y-55880576D01*
X94668824Y-55880577D01*
X94697932Y-55918511D01*
X94857935Y-56078512D01*
X94857938Y-56078514D01*
X94857939Y-56078515D01*
X94857940Y-56078516D01*
X94864587Y-56083617D01*
X94895869Y-56107622D01*
X94934279Y-56121602D01*
X94934282Y-56121603D01*
X94990546Y-56163028D01*
X95008394Y-56195713D01*
X95022377Y-56234130D01*
X95022378Y-56234131D01*
X95051486Y-56272065D01*
X95211489Y-56432066D01*
X95211492Y-56432068D01*
X95211493Y-56432069D01*
X95211494Y-56432070D01*
X95249420Y-56461174D01*
X95249423Y-56461176D01*
X95287836Y-56475157D01*
X95344100Y-56516583D01*
X95361947Y-56549266D01*
X95375930Y-56587683D01*
X95375931Y-56587684D01*
X95405039Y-56625618D01*
X95565042Y-56785619D01*
X95565045Y-56785621D01*
X95565046Y-56785622D01*
X95565047Y-56785623D01*
X95602973Y-56814727D01*
X95602976Y-56814729D01*
X95641389Y-56828710D01*
X95697653Y-56870136D01*
X95715500Y-56902819D01*
X95729483Y-56941236D01*
X95729484Y-56941237D01*
X95758592Y-56979171D01*
X95918595Y-57139172D01*
X95918598Y-57139174D01*
X95918599Y-57139175D01*
X95918600Y-57139176D01*
X95925247Y-57144277D01*
X95956529Y-57168282D01*
X95994939Y-57182262D01*
X95994942Y-57182263D01*
X96051206Y-57223688D01*
X96069054Y-57256373D01*
X96083037Y-57294790D01*
X96083038Y-57294791D01*
X96112146Y-57332725D01*
X96272149Y-57492726D01*
X96272152Y-57492728D01*
X96272153Y-57492729D01*
X96272154Y-57492730D01*
X96310080Y-57521834D01*
X96310083Y-57521836D01*
X96348496Y-57535817D01*
X96404760Y-57577243D01*
X96422607Y-57609926D01*
X96436590Y-57648343D01*
X96436591Y-57648344D01*
X96465699Y-57686278D01*
X96625702Y-57846279D01*
X96625705Y-57846281D01*
X96625706Y-57846282D01*
X96625707Y-57846283D01*
X96632354Y-57851384D01*
X96663636Y-57875389D01*
X96702046Y-57889369D01*
X96702049Y-57889370D01*
X96758313Y-57930795D01*
X96776161Y-57963480D01*
X96790144Y-58001897D01*
X96790145Y-58001898D01*
X96819253Y-58039832D01*
X96979256Y-58199833D01*
X96979259Y-58199835D01*
X96979260Y-58199836D01*
X96979261Y-58199837D01*
X96985908Y-58204938D01*
X97017190Y-58228943D01*
X97017189Y-58228943D01*
X97056449Y-58243232D01*
X97125056Y-58268203D01*
X97125058Y-58268203D01*
X97239843Y-58268203D01*
X97239845Y-58268203D01*
X97347712Y-58228943D01*
X97385646Y-58199835D01*
X98376497Y-57208982D01*
X98405607Y-57171048D01*
X98431619Y-57099576D01*
X98460457Y-57054311D01*
X99448951Y-56065819D01*
X99510274Y-56032334D01*
X99536632Y-56029500D01*
X117087141Y-56029500D01*
X117087144Y-56029500D01*
X117176288Y-56005614D01*
X117176951Y-56005231D01*
X117256212Y-55959470D01*
X121367031Y-51848649D01*
X121428352Y-51815166D01*
X121493029Y-51818401D01*
X121497547Y-51819869D01*
X121497555Y-51819873D01*
X121662299Y-51873402D01*
X121833389Y-51900500D01*
X121833390Y-51900500D01*
X122006610Y-51900500D01*
X122006611Y-51900500D01*
X122177701Y-51873402D01*
X122342445Y-51819873D01*
X122496788Y-51741232D01*
X122496790Y-51741230D01*
X122496793Y-51741229D01*
X122500710Y-51738829D01*
X122568156Y-51720584D01*
X122634758Y-51741700D01*
X122679372Y-51795472D01*
X122689500Y-51844556D01*
X122689500Y-64995443D01*
X122669815Y-65062482D01*
X122617011Y-65108237D01*
X122547853Y-65118181D01*
X122500719Y-65101176D01*
X122496793Y-65098771D01*
X122496790Y-65098769D01*
X122496788Y-65098768D01*
X122342445Y-65020127D01*
X122177701Y-64966598D01*
X122177699Y-64966597D01*
X122177698Y-64966597D01*
X122046271Y-64945781D01*
X122006611Y-64939500D01*
X121833389Y-64939500D01*
X121801192Y-64944599D01*
X121662301Y-64966597D01*
X121493028Y-65021597D01*
X121423186Y-65023592D01*
X121367029Y-64991347D01*
X117184376Y-60808694D01*
X117184371Y-60808690D01*
X117104454Y-60762550D01*
X117104450Y-60762548D01*
X117100481Y-60761485D01*
X117100481Y-60761484D01*
X117030894Y-60742839D01*
X117015307Y-60738663D01*
X117015306Y-60738663D01*
X99464795Y-60738663D01*
X99397756Y-60718978D01*
X99377114Y-60702344D01*
X98460459Y-59785689D01*
X98431618Y-59740418D01*
X98405607Y-59668952D01*
X98376499Y-59631018D01*
X98252756Y-59507275D01*
X97385650Y-58640170D01*
X97347711Y-58611056D01*
X97239845Y-58571797D01*
X97125056Y-58571797D01*
X97125055Y-58571797D01*
X97017189Y-58611057D01*
X97017188Y-58611058D01*
X96979260Y-58640161D01*
X96979259Y-58640162D01*
X96819251Y-58800172D01*
X96819250Y-58800173D01*
X96790145Y-58838101D01*
X96790142Y-58838106D01*
X96776161Y-58876519D01*
X96734734Y-58932782D01*
X96702053Y-58950627D01*
X96663636Y-58964610D01*
X96625706Y-58993715D01*
X96625705Y-58993716D01*
X96465697Y-59153726D01*
X96465696Y-59153727D01*
X96436594Y-59191651D01*
X96436592Y-59191654D01*
X96436591Y-59191656D01*
X96436590Y-59191659D01*
X96422608Y-59230072D01*
X96381180Y-59286335D01*
X96348500Y-59304180D01*
X96310082Y-59318163D01*
X96310079Y-59318165D01*
X96272155Y-59347266D01*
X96272152Y-59347269D01*
X96112144Y-59507279D01*
X96112143Y-59507280D01*
X96083038Y-59545208D01*
X96083035Y-59545213D01*
X96069054Y-59583626D01*
X96027627Y-59639889D01*
X95994946Y-59657734D01*
X95956529Y-59671717D01*
X95918599Y-59700822D01*
X95918598Y-59700823D01*
X95758590Y-59860833D01*
X95758589Y-59860834D01*
X95729487Y-59898758D01*
X95729485Y-59898761D01*
X95729484Y-59898763D01*
X95729483Y-59898766D01*
X95715501Y-59937179D01*
X95674073Y-59993442D01*
X95641393Y-60011287D01*
X95602975Y-60025270D01*
X95602972Y-60025272D01*
X95565048Y-60054373D01*
X95565045Y-60054376D01*
X95405037Y-60214386D01*
X95405036Y-60214387D01*
X95375934Y-60252311D01*
X95375932Y-60252314D01*
X95375931Y-60252316D01*
X95375930Y-60252319D01*
X95361948Y-60290732D01*
X95320520Y-60346995D01*
X95287840Y-60364840D01*
X95249422Y-60378823D01*
X95249419Y-60378825D01*
X95211495Y-60407926D01*
X95211492Y-60407929D01*
X95051484Y-60567939D01*
X95051483Y-60567940D01*
X95022378Y-60605868D01*
X95022375Y-60605873D01*
X95008394Y-60644286D01*
X94966967Y-60700549D01*
X94934286Y-60718394D01*
X94895869Y-60732377D01*
X94857939Y-60761482D01*
X94857938Y-60761483D01*
X94697930Y-60921493D01*
X94697929Y-60921494D01*
X94668827Y-60959418D01*
X94668825Y-60959421D01*
X94668824Y-60959423D01*
X94668823Y-60959426D01*
X94654841Y-60997839D01*
X94613413Y-61054102D01*
X94580733Y-61071947D01*
X94542315Y-61085930D01*
X94542312Y-61085932D01*
X94504388Y-61115033D01*
X94504385Y-61115036D01*
X94344377Y-61275046D01*
X94344376Y-61275047D01*
X94315274Y-61312971D01*
X94315272Y-61312974D01*
X94315271Y-61312976D01*
X94315270Y-61312979D01*
X94301288Y-61351392D01*
X94259860Y-61407655D01*
X94227180Y-61425500D01*
X94188762Y-61439483D01*
X94188759Y-61439485D01*
X94150835Y-61468586D01*
X94150832Y-61468589D01*
X93990824Y-61628599D01*
X93990823Y-61628600D01*
X93961718Y-61666528D01*
X93961715Y-61666533D01*
X93947734Y-61704946D01*
X93906307Y-61761209D01*
X93873626Y-61779054D01*
X93835209Y-61793037D01*
X93797279Y-61822142D01*
X93797278Y-61822143D01*
X93637270Y-61982153D01*
X93637269Y-61982154D01*
X93608167Y-62020078D01*
X93608165Y-62020081D01*
X93608164Y-62020083D01*
X93608163Y-62020086D01*
X93594181Y-62058499D01*
X93552753Y-62114762D01*
X93520073Y-62132607D01*
X93481655Y-62146590D01*
X93481652Y-62146592D01*
X93443728Y-62175693D01*
X93443725Y-62175696D01*
X93283717Y-62335706D01*
X93283716Y-62335707D01*
X93254611Y-62373635D01*
X93254608Y-62373640D01*
X93240627Y-62412053D01*
X93199200Y-62468316D01*
X93166519Y-62486161D01*
X93128102Y-62500144D01*
X93090172Y-62529249D01*
X93090171Y-62529250D01*
X92930163Y-62689260D01*
X92930162Y-62689261D01*
X92901056Y-62727190D01*
X92877096Y-62793021D01*
X92861797Y-62835056D01*
X92861797Y-62949845D01*
X92901057Y-63057712D01*
X92930165Y-63095646D01*
X93490865Y-63656344D01*
X93593181Y-63758660D01*
X93626666Y-63819983D01*
X93629500Y-63846341D01*
X93629500Y-64907481D01*
X93609815Y-64974520D01*
X93561795Y-65017966D01*
X93403211Y-65098768D01*
X93329497Y-65152325D01*
X93263072Y-65200586D01*
X93263070Y-65200588D01*
X93263069Y-65200588D01*
X93140588Y-65323069D01*
X93140588Y-65323070D01*
X93140586Y-65323072D01*
X93096859Y-65383256D01*
X93038768Y-65463211D01*
X92960128Y-65617552D01*
X92906597Y-65782302D01*
X92879500Y-65953389D01*
X92879500Y-66126610D01*
X92906597Y-66297697D01*
X92960128Y-66462447D01*
X93038770Y-66616793D01*
X93041171Y-66620710D01*
X93059416Y-66688156D01*
X93038300Y-66754758D01*
X92984528Y-66799372D01*
X92935444Y-66809500D01*
X92484556Y-66809500D01*
X92417517Y-66789815D01*
X92371762Y-66737011D01*
X92361818Y-66667853D01*
X92378829Y-66620710D01*
X92381229Y-66616793D01*
X92381232Y-66616788D01*
X92459873Y-66462445D01*
X92513402Y-66297701D01*
X92540500Y-66126611D01*
X92540500Y-65953389D01*
X92513402Y-65782299D01*
X92459873Y-65617555D01*
X92381232Y-65463212D01*
X92279414Y-65323072D01*
X92156928Y-65200586D01*
X92016788Y-65098768D01*
X92015856Y-65098293D01*
X91858205Y-65017966D01*
X91807409Y-64969991D01*
X91790500Y-64907481D01*
X91790500Y-63846342D01*
X91810185Y-63779303D01*
X91826819Y-63758661D01*
X92489829Y-63095650D01*
X92489828Y-63095650D01*
X92489833Y-63095646D01*
X92518943Y-63057712D01*
X92558203Y-62949845D01*
X92558203Y-62835056D01*
X92518943Y-62727190D01*
X92489835Y-62689256D01*
X92329832Y-62529255D01*
X92329827Y-62529251D01*
X92329826Y-62529250D01*
X92291898Y-62500145D01*
X92291895Y-62500144D01*
X92253481Y-62486162D01*
X92197217Y-62444735D01*
X92179370Y-62412050D01*
X92165389Y-62373636D01*
X92136281Y-62335702D01*
X91976278Y-62175701D01*
X91976273Y-62175697D01*
X91976272Y-62175696D01*
X91938344Y-62146591D01*
X91938338Y-62146587D01*
X91899927Y-62132607D01*
X91843664Y-62091181D01*
X91825818Y-62058499D01*
X91811836Y-62020083D01*
X91782728Y-61982149D01*
X91622725Y-61822148D01*
X91622720Y-61822144D01*
X91622719Y-61822143D01*
X91584791Y-61793038D01*
X91584788Y-61793037D01*
X91546374Y-61779055D01*
X91490110Y-61737628D01*
X91472263Y-61704943D01*
X91458283Y-61666533D01*
X91458282Y-61666529D01*
X91429174Y-61628595D01*
X91269171Y-61468594D01*
X91269166Y-61468590D01*
X91269165Y-61468589D01*
X91231237Y-61439484D01*
X91231231Y-61439480D01*
X91192820Y-61425500D01*
X91136557Y-61384074D01*
X91118711Y-61351392D01*
X91104729Y-61312976D01*
X91075621Y-61275042D01*
X90915618Y-61115041D01*
X90915613Y-61115037D01*
X90915612Y-61115036D01*
X90877684Y-61085931D01*
X90877678Y-61085927D01*
X90839267Y-61071947D01*
X90783004Y-61030521D01*
X90765158Y-60997839D01*
X90751176Y-60959423D01*
X90722068Y-60921489D01*
X90562065Y-60761488D01*
X90562060Y-60761484D01*
X90562059Y-60761483D01*
X90524131Y-60732378D01*
X90524128Y-60732377D01*
X90485714Y-60718395D01*
X90429450Y-60676968D01*
X90411603Y-60644283D01*
X90397623Y-60605873D01*
X90397622Y-60605869D01*
X90368514Y-60567935D01*
X90208511Y-60407934D01*
X90208506Y-60407930D01*
X90208505Y-60407929D01*
X90170577Y-60378824D01*
X90170571Y-60378820D01*
X90132160Y-60364840D01*
X90075897Y-60323414D01*
X90058051Y-60290732D01*
X90044069Y-60252316D01*
X90014961Y-60214382D01*
X89854958Y-60054381D01*
X89854953Y-60054377D01*
X89854952Y-60054376D01*
X89817024Y-60025271D01*
X89817018Y-60025267D01*
X89778607Y-60011287D01*
X89722344Y-59969861D01*
X89704498Y-59937179D01*
X89690516Y-59898763D01*
X89661408Y-59860829D01*
X89501405Y-59700828D01*
X89501400Y-59700824D01*
X89501399Y-59700823D01*
X89463471Y-59671718D01*
X89463468Y-59671717D01*
X89455871Y-59668952D01*
X89450993Y-59667176D01*
X89425054Y-59657735D01*
X89368790Y-59616308D01*
X89350943Y-59583623D01*
X89336963Y-59545213D01*
X89336962Y-59545209D01*
X89307854Y-59507275D01*
X89147851Y-59347274D01*
X89147846Y-59347270D01*
X89147845Y-59347269D01*
X89109917Y-59318164D01*
X89109911Y-59318160D01*
X89071500Y-59304180D01*
X89015237Y-59262754D01*
X88997391Y-59230072D01*
X88983409Y-59191656D01*
X88954301Y-59153722D01*
X88794298Y-58993721D01*
X88794293Y-58993717D01*
X88794292Y-58993716D01*
X88756364Y-58964611D01*
X88756361Y-58964610D01*
X88717947Y-58950628D01*
X88661683Y-58909201D01*
X88643836Y-58876516D01*
X88629856Y-58838106D01*
X88629855Y-58838102D01*
X88600747Y-58800168D01*
X88440744Y-58640167D01*
X88440739Y-58640163D01*
X88440738Y-58640162D01*
X88402811Y-58611058D01*
X88402810Y-58611057D01*
X88402808Y-58611056D01*
X88402810Y-58611056D01*
X88294944Y-58571797D01*
X88180155Y-58571797D01*
X88180154Y-58571797D01*
X88072287Y-58611057D01*
X88072286Y-58611058D01*
X88034358Y-58640161D01*
X88034348Y-58640170D01*
X87043506Y-59631013D01*
X87014393Y-59668951D01*
X87014389Y-59668957D01*
X86988379Y-59740420D01*
X86959539Y-59785689D01*
X85971049Y-60774181D01*
X85909726Y-60807666D01*
X85883368Y-60810500D01*
X68332856Y-60810500D01*
X68263021Y-60829212D01*
X68263020Y-60829211D01*
X68243714Y-60834385D01*
X68243709Y-60834387D01*
X68163791Y-60880527D01*
X68163786Y-60880531D01*
X64052969Y-64991347D01*
X63991646Y-65024832D01*
X63926970Y-65021597D01*
X63757698Y-64966597D01*
X63626271Y-64945781D01*
X63586611Y-64939500D01*
X63413389Y-64939500D01*
X63373728Y-64945781D01*
X63242302Y-64966597D01*
X63077552Y-65020128D01*
X62923206Y-65098771D01*
X62919281Y-65101176D01*
X62851833Y-65119414D01*
X62785233Y-65098293D01*
X62740624Y-65044517D01*
X62730500Y-64995443D01*
X62730500Y-51844556D01*
X62750185Y-51777517D01*
X62802989Y-51731762D01*
X62872147Y-51721818D01*
X62919290Y-51738829D01*
X62923206Y-51741229D01*
X62939887Y-51749728D01*
X63077555Y-51819873D01*
X63242299Y-51873402D01*
X63413389Y-51900500D01*
X63413390Y-51900500D01*
X63586610Y-51900500D01*
X63586611Y-51900500D01*
X63757701Y-51873402D01*
X63922445Y-51819873D01*
X63922447Y-51819871D01*
X63926971Y-51818402D01*
X63996812Y-51816407D01*
X64052970Y-51848652D01*
X68163788Y-55959470D01*
X68243022Y-56005215D01*
X68243043Y-56005237D01*
X68243047Y-56005230D01*
X68243049Y-56005231D01*
X68243712Y-56005614D01*
X68332856Y-56029500D01*
X85883368Y-56029500D01*
X85950407Y-56049185D01*
X85971049Y-56065819D01*
X86959539Y-57054309D01*
X86988379Y-57099578D01*
X87014392Y-57171046D01*
X87014394Y-57171049D01*
X87036695Y-57200113D01*
X87043501Y-57208982D01*
X87043505Y-57208986D01*
X87043506Y-57208987D01*
X88034349Y-58199829D01*
X88034353Y-58199832D01*
X88034354Y-58199833D01*
X88072288Y-58228943D01*
X88180155Y-58268203D01*
X88180157Y-58268203D01*
X88294942Y-58268203D01*
X88294944Y-58268203D01*
X88402810Y-58228943D01*
X88440744Y-58199835D01*
X88600745Y-58039832D01*
X88629855Y-58001898D01*
X88643836Y-57963482D01*
X88685260Y-57907220D01*
X88717942Y-57889372D01*
X88756364Y-57875389D01*
X88794298Y-57846281D01*
X88954299Y-57686278D01*
X88983409Y-57648344D01*
X88997391Y-57609928D01*
X89038814Y-57553666D01*
X89071500Y-57535818D01*
X89109917Y-57521836D01*
X89147851Y-57492728D01*
X89307852Y-57332725D01*
X89336962Y-57294791D01*
X89350943Y-57256375D01*
X89392367Y-57200113D01*
X89425049Y-57182265D01*
X89463471Y-57168282D01*
X89501405Y-57139174D01*
X89661406Y-56979171D01*
X89690516Y-56941237D01*
X89704498Y-56902821D01*
X89745921Y-56846559D01*
X89778607Y-56828711D01*
X89817024Y-56814729D01*
X89854958Y-56785621D01*
X90014959Y-56625618D01*
X90044069Y-56587684D01*
X90058051Y-56549268D01*
X90099474Y-56493006D01*
X90132160Y-56475158D01*
X90170577Y-56461176D01*
X90208511Y-56432068D01*
X90368512Y-56272065D01*
X90397622Y-56234131D01*
X90411603Y-56195715D01*
X90453027Y-56139453D01*
X90485709Y-56121605D01*
X90524131Y-56107622D01*
X90562065Y-56078514D01*
X90722066Y-55918511D01*
X90751176Y-55880577D01*
X90765158Y-55842161D01*
X90806581Y-55785899D01*
X90839267Y-55768051D01*
X90877684Y-55754069D01*
X90915618Y-55724961D01*
X91075619Y-55564958D01*
X91104729Y-55527024D01*
X91118711Y-55488608D01*
X91160134Y-55432346D01*
X91192820Y-55414498D01*
X91231237Y-55400516D01*
X91269171Y-55371408D01*
X91429172Y-55211405D01*
X91458282Y-55173471D01*
X91472263Y-55135055D01*
X91513687Y-55078793D01*
X91546369Y-55060945D01*
X91584791Y-55046962D01*
X91622725Y-55017854D01*
X91782726Y-54857851D01*
X91811836Y-54819917D01*
X91825818Y-54781501D01*
X91867241Y-54725239D01*
X91899927Y-54707391D01*
X91938344Y-54693409D01*
X91976278Y-54664301D01*
X92136279Y-54504298D01*
X92165389Y-54466364D01*
X92179370Y-54427948D01*
X92220794Y-54371686D01*
X92253476Y-54353838D01*
X92291898Y-54339855D01*
X92329832Y-54310747D01*
X92489833Y-54150744D01*
X92518943Y-54112810D01*
X92558203Y-54004944D01*
X92558203Y-53890155D01*
X92518943Y-53782288D01*
X92489835Y-53744354D01*
X92489830Y-53744349D01*
X92489827Y-53744345D01*
X92098031Y-53352549D01*
X92064546Y-53291226D01*
X92061712Y-53264868D01*
X92061712Y-51771773D01*
X92081397Y-51704734D01*
X92112828Y-51671454D01*
X92127376Y-51660885D01*
X92146580Y-51646931D01*
X92156924Y-51639417D01*
X92156924Y-51639416D01*
X92156928Y-51639414D01*
X92279414Y-51516928D01*
X92381232Y-51376788D01*
X92459873Y-51222445D01*
X92513402Y-51057701D01*
X92540500Y-50886611D01*
X92540500Y-50713389D01*
X92513402Y-50542299D01*
X92459873Y-50377555D01*
X92381232Y-50223212D01*
X92381229Y-50223206D01*
X92378829Y-50219290D01*
X92360584Y-50151844D01*
X92381700Y-50085242D01*
X92435472Y-50040628D01*
X92484556Y-50030500D01*
X92935444Y-50030500D01*
X93002483Y-50050185D01*
G37*
%TD.AperFunction*%
%TA.AperFunction,NonConductor*%
G36*
X90950211Y-63959963D02*
G01*
X90994558Y-63988464D01*
X91053181Y-64047087D01*
X91086666Y-64108410D01*
X91089500Y-64134768D01*
X91089500Y-64907481D01*
X91069815Y-64974520D01*
X91021795Y-65017966D01*
X90863211Y-65098768D01*
X90789497Y-65152325D01*
X90723072Y-65200586D01*
X90723070Y-65200588D01*
X90723069Y-65200588D01*
X90600588Y-65323069D01*
X90600588Y-65323070D01*
X90600586Y-65323072D01*
X90556859Y-65383256D01*
X90498768Y-65463211D01*
X90420128Y-65617552D01*
X90366597Y-65782302D01*
X90339500Y-65953389D01*
X90339500Y-66126610D01*
X90366597Y-66297697D01*
X90420128Y-66462447D01*
X90498770Y-66616793D01*
X90501171Y-66620710D01*
X90519416Y-66688156D01*
X90498300Y-66754758D01*
X90444528Y-66799372D01*
X90395444Y-66809500D01*
X89944556Y-66809500D01*
X89877517Y-66789815D01*
X89831762Y-66737011D01*
X89821818Y-66667853D01*
X89838829Y-66620710D01*
X89841229Y-66616793D01*
X89841232Y-66616788D01*
X89919873Y-66462445D01*
X89973402Y-66297701D01*
X90000500Y-66126611D01*
X90000500Y-65953389D01*
X89973402Y-65782299D01*
X89919873Y-65617555D01*
X89841232Y-65463212D01*
X89739414Y-65323072D01*
X89699681Y-65283339D01*
X89666197Y-65222017D01*
X89671181Y-65152325D01*
X89699680Y-65107980D01*
X90819198Y-63988462D01*
X90880519Y-63954979D01*
X90950211Y-63959963D01*
G37*
%TD.AperFunction*%
%TA.AperFunction,NonConductor*%
G36*
X88031661Y-65140185D02*
G01*
X88077416Y-65192989D01*
X88087360Y-65262147D01*
X88062046Y-65318111D01*
X88063450Y-65319131D01*
X88060590Y-65323068D01*
X88060586Y-65323072D01*
X88012587Y-65389135D01*
X87958768Y-65463211D01*
X87880128Y-65617552D01*
X87826597Y-65782302D01*
X87799500Y-65953389D01*
X87799500Y-66126610D01*
X87826597Y-66297697D01*
X87880128Y-66462447D01*
X87958770Y-66616793D01*
X87961171Y-66620710D01*
X87979416Y-66688156D01*
X87958300Y-66754758D01*
X87904528Y-66799372D01*
X87855444Y-66809500D01*
X87404556Y-66809500D01*
X87337517Y-66789815D01*
X87291762Y-66737011D01*
X87281818Y-66667853D01*
X87298829Y-66620710D01*
X87301229Y-66616793D01*
X87301232Y-66616788D01*
X87379873Y-66462445D01*
X87433402Y-66297701D01*
X87460500Y-66126611D01*
X87460500Y-65953389D01*
X87433402Y-65782299D01*
X87379873Y-65617555D01*
X87379869Y-65617547D01*
X87378401Y-65613029D01*
X87376406Y-65543188D01*
X87408648Y-65487033D01*
X87738865Y-65156816D01*
X87765796Y-65142111D01*
X87791609Y-65125523D01*
X87797809Y-65124631D01*
X87800186Y-65123334D01*
X87826544Y-65120500D01*
X87964622Y-65120500D01*
X88031661Y-65140185D01*
G37*
%TD.AperFunction*%
%TA.AperFunction,NonConductor*%
G36*
X86111378Y-64726703D02*
G01*
X86136741Y-64729981D01*
X86144348Y-64736384D01*
X86153885Y-64739185D01*
X86170627Y-64758506D01*
X86190193Y-64774977D01*
X86193130Y-64784476D01*
X86199640Y-64791989D01*
X86203279Y-64817299D01*
X86210833Y-64841729D01*
X86208168Y-64851305D01*
X86209584Y-64861147D01*
X86198960Y-64884409D01*
X86192108Y-64909043D01*
X86184689Y-64915659D01*
X86180559Y-64924703D01*
X86159045Y-64938528D01*
X86139963Y-64955547D01*
X86125703Y-64959955D01*
X86121781Y-64962477D01*
X86106244Y-64965973D01*
X86102302Y-64966597D01*
X85937552Y-65020128D01*
X85783211Y-65098768D01*
X85709497Y-65152325D01*
X85643072Y-65200586D01*
X85643070Y-65200588D01*
X85643069Y-65200588D01*
X85520588Y-65323069D01*
X85520588Y-65323070D01*
X85520586Y-65323072D01*
X85476859Y-65383256D01*
X85418768Y-65463211D01*
X85340128Y-65617552D01*
X85286597Y-65782302D01*
X85259500Y-65953389D01*
X85259500Y-66126610D01*
X85286597Y-66297697D01*
X85340128Y-66462447D01*
X85418770Y-66616793D01*
X85421171Y-66620710D01*
X85439416Y-66688156D01*
X85418300Y-66754758D01*
X85364528Y-66799372D01*
X85315444Y-66809500D01*
X84864556Y-66809500D01*
X84797517Y-66789815D01*
X84751762Y-66737011D01*
X84741818Y-66667853D01*
X84758829Y-66620710D01*
X84761229Y-66616793D01*
X84761232Y-66616788D01*
X84839873Y-66462445D01*
X84893402Y-66297701D01*
X84920500Y-66126611D01*
X84920500Y-65953389D01*
X84893402Y-65782299D01*
X84839873Y-65617555D01*
X84839869Y-65617547D01*
X84838401Y-65613029D01*
X84836406Y-65543188D01*
X84868649Y-65487031D01*
X85599863Y-64755819D01*
X85661186Y-64722334D01*
X85687544Y-64719500D01*
X86086846Y-64719500D01*
X86111378Y-64726703D01*
G37*
%TD.AperFunction*%
%TA.AperFunction,NonConductor*%
G36*
X84813495Y-64338185D02*
G01*
X84859250Y-64390989D01*
X84869194Y-64460147D01*
X84840169Y-64523703D01*
X84834137Y-64530181D01*
X84372969Y-64991347D01*
X84311646Y-65024832D01*
X84246970Y-65021597D01*
X84077698Y-64966597D01*
X83946271Y-64945781D01*
X83906611Y-64939500D01*
X83733389Y-64939500D01*
X83693728Y-64945781D01*
X83562302Y-64966597D01*
X83397552Y-65020128D01*
X83243211Y-65098768D01*
X83169497Y-65152325D01*
X83103072Y-65200586D01*
X83103070Y-65200588D01*
X83103069Y-65200588D01*
X82980588Y-65323069D01*
X82980588Y-65323070D01*
X82980586Y-65323072D01*
X82936859Y-65383256D01*
X82878768Y-65463211D01*
X82800128Y-65617552D01*
X82746597Y-65782302D01*
X82719500Y-65953389D01*
X82719500Y-66126610D01*
X82746597Y-66297697D01*
X82800128Y-66462447D01*
X82878770Y-66616793D01*
X82881171Y-66620710D01*
X82899416Y-66688156D01*
X82878300Y-66754758D01*
X82824528Y-66799372D01*
X82775444Y-66809500D01*
X82324556Y-66809500D01*
X82257517Y-66789815D01*
X82211762Y-66737011D01*
X82201818Y-66667853D01*
X82218829Y-66620710D01*
X82221229Y-66616793D01*
X82221232Y-66616788D01*
X82299873Y-66462445D01*
X82353402Y-66297701D01*
X82380500Y-66126611D01*
X82380500Y-65953389D01*
X82353402Y-65782299D01*
X82299873Y-65617555D01*
X82299869Y-65617547D01*
X82298401Y-65613029D01*
X82296406Y-65543188D01*
X82328649Y-65487031D01*
X83460863Y-64354819D01*
X83522186Y-64321334D01*
X83548544Y-64318500D01*
X84746456Y-64318500D01*
X84813495Y-64338185D01*
G37*
%TD.AperFunction*%
%TA.AperFunction,NonConductor*%
G36*
X82674495Y-63937185D02*
G01*
X82720250Y-63989989D01*
X82730194Y-64059147D01*
X82701169Y-64122703D01*
X82695137Y-64129181D01*
X81832969Y-64991347D01*
X81771646Y-65024832D01*
X81706970Y-65021597D01*
X81537698Y-64966597D01*
X81406271Y-64945781D01*
X81366611Y-64939500D01*
X81193389Y-64939500D01*
X81153728Y-64945781D01*
X81022302Y-64966597D01*
X80857552Y-65020128D01*
X80703211Y-65098768D01*
X80629497Y-65152325D01*
X80563072Y-65200586D01*
X80563070Y-65200588D01*
X80563069Y-65200588D01*
X80440588Y-65323069D01*
X80440588Y-65323070D01*
X80440586Y-65323072D01*
X80396859Y-65383256D01*
X80338768Y-65463211D01*
X80260128Y-65617552D01*
X80206597Y-65782302D01*
X80179500Y-65953389D01*
X80179500Y-66126610D01*
X80206597Y-66297697D01*
X80260128Y-66462447D01*
X80338770Y-66616793D01*
X80341171Y-66620710D01*
X80359416Y-66688156D01*
X80338300Y-66754758D01*
X80284528Y-66799372D01*
X80235444Y-66809500D01*
X79784556Y-66809500D01*
X79717517Y-66789815D01*
X79671762Y-66737011D01*
X79661818Y-66667853D01*
X79678829Y-66620710D01*
X79681229Y-66616793D01*
X79681232Y-66616788D01*
X79759873Y-66462445D01*
X79813402Y-66297701D01*
X79840500Y-66126611D01*
X79840500Y-65953389D01*
X79813402Y-65782299D01*
X79759873Y-65617555D01*
X79759869Y-65617547D01*
X79758401Y-65613029D01*
X79756406Y-65543188D01*
X79788649Y-65487031D01*
X81321863Y-63953819D01*
X81383186Y-63920334D01*
X81409544Y-63917500D01*
X82607456Y-63917500D01*
X82674495Y-63937185D01*
G37*
%TD.AperFunction*%
%TA.AperFunction,NonConductor*%
G36*
X80535495Y-63536185D02*
G01*
X80581250Y-63588989D01*
X80591194Y-63658147D01*
X80562169Y-63721703D01*
X80556137Y-63728181D01*
X79292969Y-64991347D01*
X79231646Y-65024832D01*
X79166970Y-65021597D01*
X78997698Y-64966597D01*
X78866271Y-64945781D01*
X78826611Y-64939500D01*
X78653389Y-64939500D01*
X78613728Y-64945781D01*
X78482302Y-64966597D01*
X78317552Y-65020128D01*
X78163211Y-65098768D01*
X78089497Y-65152325D01*
X78023072Y-65200586D01*
X78023070Y-65200588D01*
X78023069Y-65200588D01*
X77900588Y-65323069D01*
X77900588Y-65323070D01*
X77900586Y-65323072D01*
X77856859Y-65383256D01*
X77798768Y-65463211D01*
X77720128Y-65617552D01*
X77666597Y-65782302D01*
X77639500Y-65953389D01*
X77639500Y-66126610D01*
X77666597Y-66297697D01*
X77720128Y-66462447D01*
X77798770Y-66616793D01*
X77801171Y-66620710D01*
X77819416Y-66688156D01*
X77798300Y-66754758D01*
X77744528Y-66799372D01*
X77695444Y-66809500D01*
X77244556Y-66809500D01*
X77177517Y-66789815D01*
X77131762Y-66737011D01*
X77121818Y-66667853D01*
X77138829Y-66620710D01*
X77141229Y-66616793D01*
X77141232Y-66616788D01*
X77219873Y-66462445D01*
X77273402Y-66297701D01*
X77300500Y-66126611D01*
X77300500Y-65953389D01*
X77273402Y-65782299D01*
X77219873Y-65617555D01*
X77219869Y-65617547D01*
X77218401Y-65613029D01*
X77216406Y-65543188D01*
X77248649Y-65487031D01*
X79182863Y-63552819D01*
X79244186Y-63519334D01*
X79270544Y-63516500D01*
X80468456Y-63516500D01*
X80535495Y-63536185D01*
G37*
%TD.AperFunction*%
%TA.AperFunction,NonConductor*%
G36*
X78396495Y-63135185D02*
G01*
X78442250Y-63187989D01*
X78452194Y-63257147D01*
X78423169Y-63320703D01*
X78417137Y-63327181D01*
X76752969Y-64991347D01*
X76691646Y-65024832D01*
X76626970Y-65021597D01*
X76457698Y-64966597D01*
X76326271Y-64945781D01*
X76286611Y-64939500D01*
X76113389Y-64939500D01*
X76073728Y-64945781D01*
X75942302Y-64966597D01*
X75777552Y-65020128D01*
X75623211Y-65098768D01*
X75549497Y-65152325D01*
X75483072Y-65200586D01*
X75483070Y-65200588D01*
X75483069Y-65200588D01*
X75360588Y-65323069D01*
X75360588Y-65323070D01*
X75360586Y-65323072D01*
X75316859Y-65383256D01*
X75258768Y-65463211D01*
X75180128Y-65617552D01*
X75126597Y-65782302D01*
X75099500Y-65953389D01*
X75099500Y-66126610D01*
X75126597Y-66297697D01*
X75180128Y-66462447D01*
X75258770Y-66616793D01*
X75261171Y-66620710D01*
X75279416Y-66688156D01*
X75258300Y-66754758D01*
X75204528Y-66799372D01*
X75155444Y-66809500D01*
X74704556Y-66809500D01*
X74637517Y-66789815D01*
X74591762Y-66737011D01*
X74581818Y-66667853D01*
X74598829Y-66620710D01*
X74601229Y-66616793D01*
X74601232Y-66616788D01*
X74679873Y-66462445D01*
X74733402Y-66297701D01*
X74760500Y-66126611D01*
X74760500Y-65953389D01*
X74733402Y-65782299D01*
X74679873Y-65617555D01*
X74679869Y-65617547D01*
X74678401Y-65613029D01*
X74676406Y-65543188D01*
X74708649Y-65487031D01*
X77043862Y-63151819D01*
X77105185Y-63118334D01*
X77131543Y-63115500D01*
X78329456Y-63115500D01*
X78396495Y-63135185D01*
G37*
%TD.AperFunction*%
%TA.AperFunction,NonConductor*%
G36*
X76257496Y-62734185D02*
G01*
X76303251Y-62786989D01*
X76313195Y-62856147D01*
X76284170Y-62919703D01*
X76278138Y-62926181D01*
X74212969Y-64991347D01*
X74151646Y-65024832D01*
X74086970Y-65021597D01*
X73917698Y-64966597D01*
X73786271Y-64945781D01*
X73746611Y-64939500D01*
X73573389Y-64939500D01*
X73533728Y-64945781D01*
X73402302Y-64966597D01*
X73237552Y-65020128D01*
X73083211Y-65098768D01*
X73009497Y-65152325D01*
X72943072Y-65200586D01*
X72943070Y-65200588D01*
X72943069Y-65200588D01*
X72820588Y-65323069D01*
X72820588Y-65323070D01*
X72820586Y-65323072D01*
X72776859Y-65383256D01*
X72718768Y-65463211D01*
X72640128Y-65617552D01*
X72586597Y-65782302D01*
X72559500Y-65953389D01*
X72559500Y-66126610D01*
X72586597Y-66297697D01*
X72640128Y-66462447D01*
X72718770Y-66616793D01*
X72721171Y-66620710D01*
X72739416Y-66688156D01*
X72718300Y-66754758D01*
X72664528Y-66799372D01*
X72615444Y-66809500D01*
X72164556Y-66809500D01*
X72097517Y-66789815D01*
X72051762Y-66737011D01*
X72041818Y-66667853D01*
X72058829Y-66620710D01*
X72061229Y-66616793D01*
X72061232Y-66616788D01*
X72139873Y-66462445D01*
X72193402Y-66297701D01*
X72220500Y-66126611D01*
X72220500Y-65953389D01*
X72193402Y-65782299D01*
X72139873Y-65617555D01*
X72139869Y-65617547D01*
X72138401Y-65613029D01*
X72136406Y-65543188D01*
X72168649Y-65487031D01*
X74904863Y-62750819D01*
X74966186Y-62717334D01*
X74992544Y-62714500D01*
X76190457Y-62714500D01*
X76257496Y-62734185D01*
G37*
%TD.AperFunction*%
%TA.AperFunction,NonConductor*%
G36*
X74118495Y-62333185D02*
G01*
X74164250Y-62385989D01*
X74174194Y-62455147D01*
X74145169Y-62518703D01*
X74139137Y-62525181D01*
X71672969Y-64991347D01*
X71611646Y-65024832D01*
X71546970Y-65021597D01*
X71377698Y-64966597D01*
X71246271Y-64945781D01*
X71206611Y-64939500D01*
X71033389Y-64939500D01*
X70993728Y-64945781D01*
X70862302Y-64966597D01*
X70697552Y-65020128D01*
X70543211Y-65098768D01*
X70469497Y-65152325D01*
X70403072Y-65200586D01*
X70403070Y-65200588D01*
X70403069Y-65200588D01*
X70280588Y-65323069D01*
X70280588Y-65323070D01*
X70280586Y-65323072D01*
X70236859Y-65383256D01*
X70178768Y-65463211D01*
X70100128Y-65617552D01*
X70046597Y-65782302D01*
X70019500Y-65953389D01*
X70019500Y-66126610D01*
X70046597Y-66297697D01*
X70100128Y-66462447D01*
X70178770Y-66616793D01*
X70181171Y-66620710D01*
X70199416Y-66688156D01*
X70178300Y-66754758D01*
X70124528Y-66799372D01*
X70075444Y-66809500D01*
X69624556Y-66809500D01*
X69557517Y-66789815D01*
X69511762Y-66737011D01*
X69501818Y-66667853D01*
X69518829Y-66620710D01*
X69521229Y-66616793D01*
X69521232Y-66616788D01*
X69599873Y-66462445D01*
X69653402Y-66297701D01*
X69680500Y-66126611D01*
X69680500Y-65953389D01*
X69653402Y-65782299D01*
X69599873Y-65617555D01*
X69599869Y-65617547D01*
X69598401Y-65613029D01*
X69596406Y-65543188D01*
X69628649Y-65487031D01*
X72765863Y-62349819D01*
X72827186Y-62316334D01*
X72853544Y-62313500D01*
X74051456Y-62313500D01*
X74118495Y-62333185D01*
G37*
%TD.AperFunction*%
%TA.AperFunction,NonConductor*%
G36*
X71979495Y-61932185D02*
G01*
X72025250Y-61984989D01*
X72035194Y-62054147D01*
X72006169Y-62117703D01*
X72000137Y-62124181D01*
X69132969Y-64991347D01*
X69071646Y-65024832D01*
X69006970Y-65021597D01*
X68837698Y-64966597D01*
X68706271Y-64945781D01*
X68666611Y-64939500D01*
X68493389Y-64939500D01*
X68453728Y-64945781D01*
X68322302Y-64966597D01*
X68157552Y-65020128D01*
X68003211Y-65098768D01*
X67929497Y-65152325D01*
X67863072Y-65200586D01*
X67863070Y-65200588D01*
X67863069Y-65200588D01*
X67740588Y-65323069D01*
X67740588Y-65323070D01*
X67740586Y-65323072D01*
X67696859Y-65383256D01*
X67638768Y-65463211D01*
X67560128Y-65617552D01*
X67506597Y-65782302D01*
X67479500Y-65953389D01*
X67479500Y-66126610D01*
X67506597Y-66297697D01*
X67560128Y-66462447D01*
X67638770Y-66616793D01*
X67641171Y-66620710D01*
X67659416Y-66688156D01*
X67638300Y-66754758D01*
X67584528Y-66799372D01*
X67535444Y-66809500D01*
X67084556Y-66809500D01*
X67017517Y-66789815D01*
X66971762Y-66737011D01*
X66961818Y-66667853D01*
X66978829Y-66620710D01*
X66981229Y-66616793D01*
X66981232Y-66616788D01*
X67059873Y-66462445D01*
X67113402Y-66297701D01*
X67140500Y-66126611D01*
X67140500Y-65953389D01*
X67113402Y-65782299D01*
X67059873Y-65617555D01*
X67059869Y-65617547D01*
X67058401Y-65613029D01*
X67056406Y-65543188D01*
X67088649Y-65487031D01*
X70626862Y-61948819D01*
X70688185Y-61915334D01*
X70714543Y-61912500D01*
X71912456Y-61912500D01*
X71979495Y-61932185D01*
G37*
%TD.AperFunction*%
%TA.AperFunction,NonConductor*%
G36*
X69840496Y-61531185D02*
G01*
X69886251Y-61583989D01*
X69896195Y-61653147D01*
X69867170Y-61716703D01*
X69861138Y-61723181D01*
X66592969Y-64991347D01*
X66531646Y-65024832D01*
X66466970Y-65021597D01*
X66297698Y-64966597D01*
X66166271Y-64945781D01*
X66126611Y-64939500D01*
X65953389Y-64939500D01*
X65913728Y-64945781D01*
X65782302Y-64966597D01*
X65617552Y-65020128D01*
X65463211Y-65098768D01*
X65389497Y-65152325D01*
X65323072Y-65200586D01*
X65323070Y-65200588D01*
X65323069Y-65200588D01*
X65200588Y-65323069D01*
X65200588Y-65323070D01*
X65200586Y-65323072D01*
X65156859Y-65383256D01*
X65098768Y-65463211D01*
X65020128Y-65617552D01*
X64966597Y-65782302D01*
X64939500Y-65953389D01*
X64939500Y-66126610D01*
X64966597Y-66297697D01*
X65020128Y-66462447D01*
X65098770Y-66616793D01*
X65101171Y-66620710D01*
X65119416Y-66688156D01*
X65098300Y-66754758D01*
X65044528Y-66799372D01*
X64995444Y-66809500D01*
X64544556Y-66809500D01*
X64477517Y-66789815D01*
X64431762Y-66737011D01*
X64421818Y-66667853D01*
X64438829Y-66620710D01*
X64441229Y-66616793D01*
X64441232Y-66616788D01*
X64519873Y-66462445D01*
X64573402Y-66297701D01*
X64600500Y-66126611D01*
X64600500Y-65953389D01*
X64573402Y-65782299D01*
X64519873Y-65617555D01*
X64519869Y-65617547D01*
X64518401Y-65613029D01*
X64516406Y-65543188D01*
X64548649Y-65487031D01*
X68487863Y-61547819D01*
X68549186Y-61514334D01*
X68575544Y-61511500D01*
X69773457Y-61511500D01*
X69840496Y-61531185D01*
G37*
%TD.AperFunction*%
M02*
