%TF.GenerationSoftware,KiCad,Pcbnew,9.0.1*%
%TF.CreationDate,2025-05-25T20:32:58+02:00*%
%TF.ProjectId,TQFP48,54514650-3438-42e6-9b69-6361645f7063,rev?*%
%TF.SameCoordinates,Original*%
%TF.FileFunction,Legend,Top*%
%TF.FilePolarity,Positive*%
%FSLAX46Y46*%
G04 Gerber Fmt 4.6, Leading zero omitted, Abs format (unit mm)*
G04 Created by KiCad (PCBNEW 9.0.1) date 2025-05-25 20:32:58*
%MOMM*%
%LPD*%
G01*
G04 APERTURE LIST*
%ADD10C,0.150000*%
%ADD11C,0.120000*%
G04 APERTURE END LIST*
D10*
X81184762Y-63383390D02*
X81089524Y-63335771D01*
X81089524Y-63335771D02*
X81041905Y-63288152D01*
X81041905Y-63288152D02*
X80994286Y-63192914D01*
X80994286Y-63192914D02*
X80994286Y-63145295D01*
X80994286Y-63145295D02*
X81041905Y-63050057D01*
X81041905Y-63050057D02*
X81089524Y-63002438D01*
X81089524Y-63002438D02*
X81184762Y-62954819D01*
X81184762Y-62954819D02*
X81375238Y-62954819D01*
X81375238Y-62954819D02*
X81470476Y-63002438D01*
X81470476Y-63002438D02*
X81518095Y-63050057D01*
X81518095Y-63050057D02*
X81565714Y-63145295D01*
X81565714Y-63145295D02*
X81565714Y-63192914D01*
X81565714Y-63192914D02*
X81518095Y-63288152D01*
X81518095Y-63288152D02*
X81470476Y-63335771D01*
X81470476Y-63335771D02*
X81375238Y-63383390D01*
X81375238Y-63383390D02*
X81184762Y-63383390D01*
X81184762Y-63383390D02*
X81089524Y-63431009D01*
X81089524Y-63431009D02*
X81041905Y-63478628D01*
X81041905Y-63478628D02*
X80994286Y-63573866D01*
X80994286Y-63573866D02*
X80994286Y-63764342D01*
X80994286Y-63764342D02*
X81041905Y-63859580D01*
X81041905Y-63859580D02*
X81089524Y-63907200D01*
X81089524Y-63907200D02*
X81184762Y-63954819D01*
X81184762Y-63954819D02*
X81375238Y-63954819D01*
X81375238Y-63954819D02*
X81470476Y-63907200D01*
X81470476Y-63907200D02*
X81518095Y-63859580D01*
X81518095Y-63859580D02*
X81565714Y-63764342D01*
X81565714Y-63764342D02*
X81565714Y-63573866D01*
X81565714Y-63573866D02*
X81518095Y-63478628D01*
X81518095Y-63478628D02*
X81470476Y-63431009D01*
X81470476Y-63431009D02*
X81375238Y-63383390D01*
X101409523Y-63954819D02*
X100838095Y-63954819D01*
X101123809Y-63954819D02*
X101123809Y-62954819D01*
X101123809Y-62954819D02*
X101028571Y-63097676D01*
X101028571Y-63097676D02*
X100933333Y-63192914D01*
X100933333Y-63192914D02*
X100838095Y-63240533D01*
X102314285Y-62954819D02*
X101838095Y-62954819D01*
X101838095Y-62954819D02*
X101790476Y-63431009D01*
X101790476Y-63431009D02*
X101838095Y-63383390D01*
X101838095Y-63383390D02*
X101933333Y-63335771D01*
X101933333Y-63335771D02*
X102171428Y-63335771D01*
X102171428Y-63335771D02*
X102266666Y-63383390D01*
X102266666Y-63383390D02*
X102314285Y-63431009D01*
X102314285Y-63431009D02*
X102361904Y-63526247D01*
X102361904Y-63526247D02*
X102361904Y-63764342D01*
X102361904Y-63764342D02*
X102314285Y-63859580D01*
X102314285Y-63859580D02*
X102266666Y-63907200D01*
X102266666Y-63907200D02*
X102171428Y-63954819D01*
X102171428Y-63954819D02*
X101933333Y-63954819D01*
X101933333Y-63954819D02*
X101838095Y-63907200D01*
X101838095Y-63907200D02*
X101790476Y-63859580D01*
X103949523Y-63954819D02*
X103378095Y-63954819D01*
X103663809Y-63954819D02*
X103663809Y-62954819D01*
X103663809Y-62954819D02*
X103568571Y-63097676D01*
X103568571Y-63097676D02*
X103473333Y-63192914D01*
X103473333Y-63192914D02*
X103378095Y-63240533D01*
X104806666Y-62954819D02*
X104616190Y-62954819D01*
X104616190Y-62954819D02*
X104520952Y-63002438D01*
X104520952Y-63002438D02*
X104473333Y-63050057D01*
X104473333Y-63050057D02*
X104378095Y-63192914D01*
X104378095Y-63192914D02*
X104330476Y-63383390D01*
X104330476Y-63383390D02*
X104330476Y-63764342D01*
X104330476Y-63764342D02*
X104378095Y-63859580D01*
X104378095Y-63859580D02*
X104425714Y-63907200D01*
X104425714Y-63907200D02*
X104520952Y-63954819D01*
X104520952Y-63954819D02*
X104711428Y-63954819D01*
X104711428Y-63954819D02*
X104806666Y-63907200D01*
X104806666Y-63907200D02*
X104854285Y-63859580D01*
X104854285Y-63859580D02*
X104901904Y-63764342D01*
X104901904Y-63764342D02*
X104901904Y-63526247D01*
X104901904Y-63526247D02*
X104854285Y-63431009D01*
X104854285Y-63431009D02*
X104806666Y-63383390D01*
X104806666Y-63383390D02*
X104711428Y-63335771D01*
X104711428Y-63335771D02*
X104520952Y-63335771D01*
X104520952Y-63335771D02*
X104425714Y-63383390D01*
X104425714Y-63383390D02*
X104378095Y-63431009D01*
X104378095Y-63431009D02*
X104330476Y-63526247D01*
X122681904Y-53789942D02*
X122634285Y-53837561D01*
X122634285Y-53837561D02*
X122539047Y-53885180D01*
X122539047Y-53885180D02*
X122300952Y-53885180D01*
X122300952Y-53885180D02*
X122205714Y-53837561D01*
X122205714Y-53837561D02*
X122158095Y-53789942D01*
X122158095Y-53789942D02*
X122110476Y-53694704D01*
X122110476Y-53694704D02*
X122110476Y-53599466D01*
X122110476Y-53599466D02*
X122158095Y-53456609D01*
X122158095Y-53456609D02*
X122729523Y-52885180D01*
X122729523Y-52885180D02*
X122110476Y-52885180D01*
X121205714Y-53885180D02*
X121681904Y-53885180D01*
X121681904Y-53885180D02*
X121729523Y-53408990D01*
X121729523Y-53408990D02*
X121681904Y-53456609D01*
X121681904Y-53456609D02*
X121586666Y-53504228D01*
X121586666Y-53504228D02*
X121348571Y-53504228D01*
X121348571Y-53504228D02*
X121253333Y-53456609D01*
X121253333Y-53456609D02*
X121205714Y-53408990D01*
X121205714Y-53408990D02*
X121158095Y-53313752D01*
X121158095Y-53313752D02*
X121158095Y-53075657D01*
X121158095Y-53075657D02*
X121205714Y-52980419D01*
X121205714Y-52980419D02*
X121253333Y-52932800D01*
X121253333Y-52932800D02*
X121348571Y-52885180D01*
X121348571Y-52885180D02*
X121586666Y-52885180D01*
X121586666Y-52885180D02*
X121681904Y-52932800D01*
X121681904Y-52932800D02*
X121729523Y-52980419D01*
X109029523Y-63954819D02*
X108458095Y-63954819D01*
X108743809Y-63954819D02*
X108743809Y-62954819D01*
X108743809Y-62954819D02*
X108648571Y-63097676D01*
X108648571Y-63097676D02*
X108553333Y-63192914D01*
X108553333Y-63192914D02*
X108458095Y-63240533D01*
X109505714Y-63954819D02*
X109696190Y-63954819D01*
X109696190Y-63954819D02*
X109791428Y-63907200D01*
X109791428Y-63907200D02*
X109839047Y-63859580D01*
X109839047Y-63859580D02*
X109934285Y-63716723D01*
X109934285Y-63716723D02*
X109981904Y-63526247D01*
X109981904Y-63526247D02*
X109981904Y-63145295D01*
X109981904Y-63145295D02*
X109934285Y-63050057D01*
X109934285Y-63050057D02*
X109886666Y-63002438D01*
X109886666Y-63002438D02*
X109791428Y-62954819D01*
X109791428Y-62954819D02*
X109600952Y-62954819D01*
X109600952Y-62954819D02*
X109505714Y-63002438D01*
X109505714Y-63002438D02*
X109458095Y-63050057D01*
X109458095Y-63050057D02*
X109410476Y-63145295D01*
X109410476Y-63145295D02*
X109410476Y-63383390D01*
X109410476Y-63383390D02*
X109458095Y-63478628D01*
X109458095Y-63478628D02*
X109505714Y-63526247D01*
X109505714Y-63526247D02*
X109600952Y-63573866D01*
X109600952Y-63573866D02*
X109791428Y-63573866D01*
X109791428Y-63573866D02*
X109886666Y-63526247D01*
X109886666Y-63526247D02*
X109934285Y-63478628D01*
X109934285Y-63478628D02*
X109981904Y-63383390D01*
X112521904Y-53789942D02*
X112474285Y-53837561D01*
X112474285Y-53837561D02*
X112379047Y-53885180D01*
X112379047Y-53885180D02*
X112140952Y-53885180D01*
X112140952Y-53885180D02*
X112045714Y-53837561D01*
X112045714Y-53837561D02*
X111998095Y-53789942D01*
X111998095Y-53789942D02*
X111950476Y-53694704D01*
X111950476Y-53694704D02*
X111950476Y-53599466D01*
X111950476Y-53599466D02*
X111998095Y-53456609D01*
X111998095Y-53456609D02*
X112569523Y-52885180D01*
X112569523Y-52885180D02*
X111950476Y-52885180D01*
X111474285Y-52885180D02*
X111283809Y-52885180D01*
X111283809Y-52885180D02*
X111188571Y-52932800D01*
X111188571Y-52932800D02*
X111140952Y-52980419D01*
X111140952Y-52980419D02*
X111045714Y-53123276D01*
X111045714Y-53123276D02*
X110998095Y-53313752D01*
X110998095Y-53313752D02*
X110998095Y-53694704D01*
X110998095Y-53694704D02*
X111045714Y-53789942D01*
X111045714Y-53789942D02*
X111093333Y-53837561D01*
X111093333Y-53837561D02*
X111188571Y-53885180D01*
X111188571Y-53885180D02*
X111379047Y-53885180D01*
X111379047Y-53885180D02*
X111474285Y-53837561D01*
X111474285Y-53837561D02*
X111521904Y-53789942D01*
X111521904Y-53789942D02*
X111569523Y-53694704D01*
X111569523Y-53694704D02*
X111569523Y-53456609D01*
X111569523Y-53456609D02*
X111521904Y-53361371D01*
X111521904Y-53361371D02*
X111474285Y-53313752D01*
X111474285Y-53313752D02*
X111379047Y-53266133D01*
X111379047Y-53266133D02*
X111188571Y-53266133D01*
X111188571Y-53266133D02*
X111093333Y-53313752D01*
X111093333Y-53313752D02*
X111045714Y-53361371D01*
X111045714Y-53361371D02*
X110998095Y-53456609D01*
X116078095Y-63050057D02*
X116125714Y-63002438D01*
X116125714Y-63002438D02*
X116220952Y-62954819D01*
X116220952Y-62954819D02*
X116459047Y-62954819D01*
X116459047Y-62954819D02*
X116554285Y-63002438D01*
X116554285Y-63002438D02*
X116601904Y-63050057D01*
X116601904Y-63050057D02*
X116649523Y-63145295D01*
X116649523Y-63145295D02*
X116649523Y-63240533D01*
X116649523Y-63240533D02*
X116601904Y-63383390D01*
X116601904Y-63383390D02*
X116030476Y-63954819D01*
X116030476Y-63954819D02*
X116649523Y-63954819D01*
X117030476Y-63050057D02*
X117078095Y-63002438D01*
X117078095Y-63002438D02*
X117173333Y-62954819D01*
X117173333Y-62954819D02*
X117411428Y-62954819D01*
X117411428Y-62954819D02*
X117506666Y-63002438D01*
X117506666Y-63002438D02*
X117554285Y-63050057D01*
X117554285Y-63050057D02*
X117601904Y-63145295D01*
X117601904Y-63145295D02*
X117601904Y-63240533D01*
X117601904Y-63240533D02*
X117554285Y-63383390D01*
X117554285Y-63383390D02*
X116982857Y-63954819D01*
X116982857Y-63954819D02*
X117601904Y-63954819D01*
X83629524Y-63954819D02*
X83820000Y-63954819D01*
X83820000Y-63954819D02*
X83915238Y-63907200D01*
X83915238Y-63907200D02*
X83962857Y-63859580D01*
X83962857Y-63859580D02*
X84058095Y-63716723D01*
X84058095Y-63716723D02*
X84105714Y-63526247D01*
X84105714Y-63526247D02*
X84105714Y-63145295D01*
X84105714Y-63145295D02*
X84058095Y-63050057D01*
X84058095Y-63050057D02*
X84010476Y-63002438D01*
X84010476Y-63002438D02*
X83915238Y-62954819D01*
X83915238Y-62954819D02*
X83724762Y-62954819D01*
X83724762Y-62954819D02*
X83629524Y-63002438D01*
X83629524Y-63002438D02*
X83581905Y-63050057D01*
X83581905Y-63050057D02*
X83534286Y-63145295D01*
X83534286Y-63145295D02*
X83534286Y-63383390D01*
X83534286Y-63383390D02*
X83581905Y-63478628D01*
X83581905Y-63478628D02*
X83629524Y-63526247D01*
X83629524Y-63526247D02*
X83724762Y-63573866D01*
X83724762Y-63573866D02*
X83915238Y-63573866D01*
X83915238Y-63573866D02*
X84010476Y-63526247D01*
X84010476Y-63526247D02*
X84058095Y-63478628D01*
X84058095Y-63478628D02*
X84105714Y-63383390D01*
X63785714Y-63954819D02*
X63214286Y-63954819D01*
X63500000Y-63954819D02*
X63500000Y-62954819D01*
X63500000Y-62954819D02*
X63404762Y-63097676D01*
X63404762Y-63097676D02*
X63309524Y-63192914D01*
X63309524Y-63192914D02*
X63214286Y-63240533D01*
X86169523Y-63954819D02*
X85598095Y-63954819D01*
X85883809Y-63954819D02*
X85883809Y-62954819D01*
X85883809Y-62954819D02*
X85788571Y-63097676D01*
X85788571Y-63097676D02*
X85693333Y-63192914D01*
X85693333Y-63192914D02*
X85598095Y-63240533D01*
X86788571Y-62954819D02*
X86883809Y-62954819D01*
X86883809Y-62954819D02*
X86979047Y-63002438D01*
X86979047Y-63002438D02*
X87026666Y-63050057D01*
X87026666Y-63050057D02*
X87074285Y-63145295D01*
X87074285Y-63145295D02*
X87121904Y-63335771D01*
X87121904Y-63335771D02*
X87121904Y-63573866D01*
X87121904Y-63573866D02*
X87074285Y-63764342D01*
X87074285Y-63764342D02*
X87026666Y-63859580D01*
X87026666Y-63859580D02*
X86979047Y-63907200D01*
X86979047Y-63907200D02*
X86883809Y-63954819D01*
X86883809Y-63954819D02*
X86788571Y-63954819D01*
X86788571Y-63954819D02*
X86693333Y-63907200D01*
X86693333Y-63907200D02*
X86645714Y-63859580D01*
X86645714Y-63859580D02*
X86598095Y-63764342D01*
X86598095Y-63764342D02*
X86550476Y-63573866D01*
X86550476Y-63573866D02*
X86550476Y-63335771D01*
X86550476Y-63335771D02*
X86598095Y-63145295D01*
X86598095Y-63145295D02*
X86645714Y-63050057D01*
X86645714Y-63050057D02*
X86693333Y-63002438D01*
X86693333Y-63002438D02*
X86788571Y-62954819D01*
X110998095Y-63050057D02*
X111045714Y-63002438D01*
X111045714Y-63002438D02*
X111140952Y-62954819D01*
X111140952Y-62954819D02*
X111379047Y-62954819D01*
X111379047Y-62954819D02*
X111474285Y-63002438D01*
X111474285Y-63002438D02*
X111521904Y-63050057D01*
X111521904Y-63050057D02*
X111569523Y-63145295D01*
X111569523Y-63145295D02*
X111569523Y-63240533D01*
X111569523Y-63240533D02*
X111521904Y-63383390D01*
X111521904Y-63383390D02*
X110950476Y-63954819D01*
X110950476Y-63954819D02*
X111569523Y-63954819D01*
X112188571Y-62954819D02*
X112283809Y-62954819D01*
X112283809Y-62954819D02*
X112379047Y-63002438D01*
X112379047Y-63002438D02*
X112426666Y-63050057D01*
X112426666Y-63050057D02*
X112474285Y-63145295D01*
X112474285Y-63145295D02*
X112521904Y-63335771D01*
X112521904Y-63335771D02*
X112521904Y-63573866D01*
X112521904Y-63573866D02*
X112474285Y-63764342D01*
X112474285Y-63764342D02*
X112426666Y-63859580D01*
X112426666Y-63859580D02*
X112379047Y-63907200D01*
X112379047Y-63907200D02*
X112283809Y-63954819D01*
X112283809Y-63954819D02*
X112188571Y-63954819D01*
X112188571Y-63954819D02*
X112093333Y-63907200D01*
X112093333Y-63907200D02*
X112045714Y-63859580D01*
X112045714Y-63859580D02*
X111998095Y-63764342D01*
X111998095Y-63764342D02*
X111950476Y-63573866D01*
X111950476Y-63573866D02*
X111950476Y-63335771D01*
X111950476Y-63335771D02*
X111998095Y-63145295D01*
X111998095Y-63145295D02*
X112045714Y-63050057D01*
X112045714Y-63050057D02*
X112093333Y-63002438D01*
X112093333Y-63002438D02*
X112188571Y-62954819D01*
X113538095Y-63050057D02*
X113585714Y-63002438D01*
X113585714Y-63002438D02*
X113680952Y-62954819D01*
X113680952Y-62954819D02*
X113919047Y-62954819D01*
X113919047Y-62954819D02*
X114014285Y-63002438D01*
X114014285Y-63002438D02*
X114061904Y-63050057D01*
X114061904Y-63050057D02*
X114109523Y-63145295D01*
X114109523Y-63145295D02*
X114109523Y-63240533D01*
X114109523Y-63240533D02*
X114061904Y-63383390D01*
X114061904Y-63383390D02*
X113490476Y-63954819D01*
X113490476Y-63954819D02*
X114109523Y-63954819D01*
X115061904Y-63954819D02*
X114490476Y-63954819D01*
X114776190Y-63954819D02*
X114776190Y-62954819D01*
X114776190Y-62954819D02*
X114680952Y-63097676D01*
X114680952Y-63097676D02*
X114585714Y-63192914D01*
X114585714Y-63192914D02*
X114490476Y-63240533D01*
X117601904Y-53789942D02*
X117554285Y-53837561D01*
X117554285Y-53837561D02*
X117459047Y-53885180D01*
X117459047Y-53885180D02*
X117220952Y-53885180D01*
X117220952Y-53885180D02*
X117125714Y-53837561D01*
X117125714Y-53837561D02*
X117078095Y-53789942D01*
X117078095Y-53789942D02*
X117030476Y-53694704D01*
X117030476Y-53694704D02*
X117030476Y-53599466D01*
X117030476Y-53599466D02*
X117078095Y-53456609D01*
X117078095Y-53456609D02*
X117649523Y-52885180D01*
X117649523Y-52885180D02*
X117030476Y-52885180D01*
X116697142Y-53885180D02*
X116030476Y-53885180D01*
X116030476Y-53885180D02*
X116459047Y-52885180D01*
X68246667Y-62954819D02*
X68865714Y-62954819D01*
X68865714Y-62954819D02*
X68532381Y-63335771D01*
X68532381Y-63335771D02*
X68675238Y-63335771D01*
X68675238Y-63335771D02*
X68770476Y-63383390D01*
X68770476Y-63383390D02*
X68818095Y-63431009D01*
X68818095Y-63431009D02*
X68865714Y-63526247D01*
X68865714Y-63526247D02*
X68865714Y-63764342D01*
X68865714Y-63764342D02*
X68818095Y-63859580D01*
X68818095Y-63859580D02*
X68770476Y-63907200D01*
X68770476Y-63907200D02*
X68675238Y-63954819D01*
X68675238Y-63954819D02*
X68389524Y-63954819D01*
X68389524Y-63954819D02*
X68294286Y-63907200D01*
X68294286Y-63907200D02*
X68246667Y-63859580D01*
X121158095Y-63050057D02*
X121205714Y-63002438D01*
X121205714Y-63002438D02*
X121300952Y-62954819D01*
X121300952Y-62954819D02*
X121539047Y-62954819D01*
X121539047Y-62954819D02*
X121634285Y-63002438D01*
X121634285Y-63002438D02*
X121681904Y-63050057D01*
X121681904Y-63050057D02*
X121729523Y-63145295D01*
X121729523Y-63145295D02*
X121729523Y-63240533D01*
X121729523Y-63240533D02*
X121681904Y-63383390D01*
X121681904Y-63383390D02*
X121110476Y-63954819D01*
X121110476Y-63954819D02*
X121729523Y-63954819D01*
X122586666Y-63288152D02*
X122586666Y-63954819D01*
X122348571Y-62907200D02*
X122110476Y-63621485D01*
X122110476Y-63621485D02*
X122729523Y-63621485D01*
X88709523Y-63954819D02*
X88138095Y-63954819D01*
X88423809Y-63954819D02*
X88423809Y-62954819D01*
X88423809Y-62954819D02*
X88328571Y-63097676D01*
X88328571Y-63097676D02*
X88233333Y-63192914D01*
X88233333Y-63192914D02*
X88138095Y-63240533D01*
X89661904Y-63954819D02*
X89090476Y-63954819D01*
X89376190Y-63954819D02*
X89376190Y-62954819D01*
X89376190Y-62954819D02*
X89280952Y-63097676D01*
X89280952Y-63097676D02*
X89185714Y-63192914D01*
X89185714Y-63192914D02*
X89090476Y-63240533D01*
X106489523Y-63954819D02*
X105918095Y-63954819D01*
X106203809Y-63954819D02*
X106203809Y-62954819D01*
X106203809Y-62954819D02*
X106108571Y-63097676D01*
X106108571Y-63097676D02*
X106013333Y-63192914D01*
X106013333Y-63192914D02*
X105918095Y-63240533D01*
X107060952Y-63383390D02*
X106965714Y-63335771D01*
X106965714Y-63335771D02*
X106918095Y-63288152D01*
X106918095Y-63288152D02*
X106870476Y-63192914D01*
X106870476Y-63192914D02*
X106870476Y-63145295D01*
X106870476Y-63145295D02*
X106918095Y-63050057D01*
X106918095Y-63050057D02*
X106965714Y-63002438D01*
X106965714Y-63002438D02*
X107060952Y-62954819D01*
X107060952Y-62954819D02*
X107251428Y-62954819D01*
X107251428Y-62954819D02*
X107346666Y-63002438D01*
X107346666Y-63002438D02*
X107394285Y-63050057D01*
X107394285Y-63050057D02*
X107441904Y-63145295D01*
X107441904Y-63145295D02*
X107441904Y-63192914D01*
X107441904Y-63192914D02*
X107394285Y-63288152D01*
X107394285Y-63288152D02*
X107346666Y-63335771D01*
X107346666Y-63335771D02*
X107251428Y-63383390D01*
X107251428Y-63383390D02*
X107060952Y-63383390D01*
X107060952Y-63383390D02*
X106965714Y-63431009D01*
X106965714Y-63431009D02*
X106918095Y-63478628D01*
X106918095Y-63478628D02*
X106870476Y-63573866D01*
X106870476Y-63573866D02*
X106870476Y-63764342D01*
X106870476Y-63764342D02*
X106918095Y-63859580D01*
X106918095Y-63859580D02*
X106965714Y-63907200D01*
X106965714Y-63907200D02*
X107060952Y-63954819D01*
X107060952Y-63954819D02*
X107251428Y-63954819D01*
X107251428Y-63954819D02*
X107346666Y-63907200D01*
X107346666Y-63907200D02*
X107394285Y-63859580D01*
X107394285Y-63859580D02*
X107441904Y-63764342D01*
X107441904Y-63764342D02*
X107441904Y-63573866D01*
X107441904Y-63573866D02*
X107394285Y-63478628D01*
X107394285Y-63478628D02*
X107346666Y-63431009D01*
X107346666Y-63431009D02*
X107251428Y-63383390D01*
X78406667Y-62954819D02*
X79073333Y-62954819D01*
X79073333Y-62954819D02*
X78644762Y-63954819D01*
X120141904Y-53789942D02*
X120094285Y-53837561D01*
X120094285Y-53837561D02*
X119999047Y-53885180D01*
X119999047Y-53885180D02*
X119760952Y-53885180D01*
X119760952Y-53885180D02*
X119665714Y-53837561D01*
X119665714Y-53837561D02*
X119618095Y-53789942D01*
X119618095Y-53789942D02*
X119570476Y-53694704D01*
X119570476Y-53694704D02*
X119570476Y-53599466D01*
X119570476Y-53599466D02*
X119618095Y-53456609D01*
X119618095Y-53456609D02*
X120189523Y-52885180D01*
X120189523Y-52885180D02*
X119570476Y-52885180D01*
X118713333Y-53885180D02*
X118903809Y-53885180D01*
X118903809Y-53885180D02*
X118999047Y-53837561D01*
X118999047Y-53837561D02*
X119046666Y-53789942D01*
X119046666Y-53789942D02*
X119141904Y-53647085D01*
X119141904Y-53647085D02*
X119189523Y-53456609D01*
X119189523Y-53456609D02*
X119189523Y-53075657D01*
X119189523Y-53075657D02*
X119141904Y-52980419D01*
X119141904Y-52980419D02*
X119094285Y-52932800D01*
X119094285Y-52932800D02*
X118999047Y-52885180D01*
X118999047Y-52885180D02*
X118808571Y-52885180D01*
X118808571Y-52885180D02*
X118713333Y-52932800D01*
X118713333Y-52932800D02*
X118665714Y-52980419D01*
X118665714Y-52980419D02*
X118618095Y-53075657D01*
X118618095Y-53075657D02*
X118618095Y-53313752D01*
X118618095Y-53313752D02*
X118665714Y-53408990D01*
X118665714Y-53408990D02*
X118713333Y-53456609D01*
X118713333Y-53456609D02*
X118808571Y-53504228D01*
X118808571Y-53504228D02*
X118999047Y-53504228D01*
X118999047Y-53504228D02*
X119094285Y-53456609D01*
X119094285Y-53456609D02*
X119141904Y-53408990D01*
X119141904Y-53408990D02*
X119189523Y-53313752D01*
X76390476Y-62954819D02*
X76200000Y-62954819D01*
X76200000Y-62954819D02*
X76104762Y-63002438D01*
X76104762Y-63002438D02*
X76057143Y-63050057D01*
X76057143Y-63050057D02*
X75961905Y-63192914D01*
X75961905Y-63192914D02*
X75914286Y-63383390D01*
X75914286Y-63383390D02*
X75914286Y-63764342D01*
X75914286Y-63764342D02*
X75961905Y-63859580D01*
X75961905Y-63859580D02*
X76009524Y-63907200D01*
X76009524Y-63907200D02*
X76104762Y-63954819D01*
X76104762Y-63954819D02*
X76295238Y-63954819D01*
X76295238Y-63954819D02*
X76390476Y-63907200D01*
X76390476Y-63907200D02*
X76438095Y-63859580D01*
X76438095Y-63859580D02*
X76485714Y-63764342D01*
X76485714Y-63764342D02*
X76485714Y-63526247D01*
X76485714Y-63526247D02*
X76438095Y-63431009D01*
X76438095Y-63431009D02*
X76390476Y-63383390D01*
X76390476Y-63383390D02*
X76295238Y-63335771D01*
X76295238Y-63335771D02*
X76104762Y-63335771D01*
X76104762Y-63335771D02*
X76009524Y-63383390D01*
X76009524Y-63383390D02*
X75961905Y-63431009D01*
X75961905Y-63431009D02*
X75914286Y-63526247D01*
X115061904Y-53789942D02*
X115014285Y-53837561D01*
X115014285Y-53837561D02*
X114919047Y-53885180D01*
X114919047Y-53885180D02*
X114680952Y-53885180D01*
X114680952Y-53885180D02*
X114585714Y-53837561D01*
X114585714Y-53837561D02*
X114538095Y-53789942D01*
X114538095Y-53789942D02*
X114490476Y-53694704D01*
X114490476Y-53694704D02*
X114490476Y-53599466D01*
X114490476Y-53599466D02*
X114538095Y-53456609D01*
X114538095Y-53456609D02*
X115109523Y-52885180D01*
X115109523Y-52885180D02*
X114490476Y-52885180D01*
X113919047Y-53456609D02*
X114014285Y-53504228D01*
X114014285Y-53504228D02*
X114061904Y-53551847D01*
X114061904Y-53551847D02*
X114109523Y-53647085D01*
X114109523Y-53647085D02*
X114109523Y-53694704D01*
X114109523Y-53694704D02*
X114061904Y-53789942D01*
X114061904Y-53789942D02*
X114014285Y-53837561D01*
X114014285Y-53837561D02*
X113919047Y-53885180D01*
X113919047Y-53885180D02*
X113728571Y-53885180D01*
X113728571Y-53885180D02*
X113633333Y-53837561D01*
X113633333Y-53837561D02*
X113585714Y-53789942D01*
X113585714Y-53789942D02*
X113538095Y-53694704D01*
X113538095Y-53694704D02*
X113538095Y-53647085D01*
X113538095Y-53647085D02*
X113585714Y-53551847D01*
X113585714Y-53551847D02*
X113633333Y-53504228D01*
X113633333Y-53504228D02*
X113728571Y-53456609D01*
X113728571Y-53456609D02*
X113919047Y-53456609D01*
X113919047Y-53456609D02*
X114014285Y-53408990D01*
X114014285Y-53408990D02*
X114061904Y-53361371D01*
X114061904Y-53361371D02*
X114109523Y-53266133D01*
X114109523Y-53266133D02*
X114109523Y-53075657D01*
X114109523Y-53075657D02*
X114061904Y-52980419D01*
X114061904Y-52980419D02*
X114014285Y-52932800D01*
X114014285Y-52932800D02*
X113919047Y-52885180D01*
X113919047Y-52885180D02*
X113728571Y-52885180D01*
X113728571Y-52885180D02*
X113633333Y-52932800D01*
X113633333Y-52932800D02*
X113585714Y-52980419D01*
X113585714Y-52980419D02*
X113538095Y-53075657D01*
X113538095Y-53075657D02*
X113538095Y-53266133D01*
X113538095Y-53266133D02*
X113585714Y-53361371D01*
X113585714Y-53361371D02*
X113633333Y-53408990D01*
X113633333Y-53408990D02*
X113728571Y-53456609D01*
X98869523Y-63954819D02*
X98298095Y-63954819D01*
X98583809Y-63954819D02*
X98583809Y-62954819D01*
X98583809Y-62954819D02*
X98488571Y-63097676D01*
X98488571Y-63097676D02*
X98393333Y-63192914D01*
X98393333Y-63192914D02*
X98298095Y-63240533D01*
X99726666Y-63288152D02*
X99726666Y-63954819D01*
X99488571Y-62907200D02*
X99250476Y-63621485D01*
X99250476Y-63621485D02*
X99869523Y-63621485D01*
X110029523Y-53885180D02*
X109410476Y-53885180D01*
X109410476Y-53885180D02*
X109743809Y-53504228D01*
X109743809Y-53504228D02*
X109600952Y-53504228D01*
X109600952Y-53504228D02*
X109505714Y-53456609D01*
X109505714Y-53456609D02*
X109458095Y-53408990D01*
X109458095Y-53408990D02*
X109410476Y-53313752D01*
X109410476Y-53313752D02*
X109410476Y-53075657D01*
X109410476Y-53075657D02*
X109458095Y-52980419D01*
X109458095Y-52980419D02*
X109505714Y-52932800D01*
X109505714Y-52932800D02*
X109600952Y-52885180D01*
X109600952Y-52885180D02*
X109886666Y-52885180D01*
X109886666Y-52885180D02*
X109981904Y-52932800D01*
X109981904Y-52932800D02*
X110029523Y-52980419D01*
X108791428Y-53885180D02*
X108696190Y-53885180D01*
X108696190Y-53885180D02*
X108600952Y-53837561D01*
X108600952Y-53837561D02*
X108553333Y-53789942D01*
X108553333Y-53789942D02*
X108505714Y-53694704D01*
X108505714Y-53694704D02*
X108458095Y-53504228D01*
X108458095Y-53504228D02*
X108458095Y-53266133D01*
X108458095Y-53266133D02*
X108505714Y-53075657D01*
X108505714Y-53075657D02*
X108553333Y-52980419D01*
X108553333Y-52980419D02*
X108600952Y-52932800D01*
X108600952Y-52932800D02*
X108696190Y-52885180D01*
X108696190Y-52885180D02*
X108791428Y-52885180D01*
X108791428Y-52885180D02*
X108886666Y-52932800D01*
X108886666Y-52932800D02*
X108934285Y-52980419D01*
X108934285Y-52980419D02*
X108981904Y-53075657D01*
X108981904Y-53075657D02*
X109029523Y-53266133D01*
X109029523Y-53266133D02*
X109029523Y-53504228D01*
X109029523Y-53504228D02*
X108981904Y-53694704D01*
X108981904Y-53694704D02*
X108934285Y-53789942D01*
X108934285Y-53789942D02*
X108886666Y-53837561D01*
X108886666Y-53837561D02*
X108791428Y-53885180D01*
X63785714Y-53551847D02*
X63785714Y-52885180D01*
X64023809Y-53932800D02*
X64261904Y-53218514D01*
X64261904Y-53218514D02*
X63642857Y-53218514D01*
X63119047Y-53456609D02*
X63214285Y-53504228D01*
X63214285Y-53504228D02*
X63261904Y-53551847D01*
X63261904Y-53551847D02*
X63309523Y-53647085D01*
X63309523Y-53647085D02*
X63309523Y-53694704D01*
X63309523Y-53694704D02*
X63261904Y-53789942D01*
X63261904Y-53789942D02*
X63214285Y-53837561D01*
X63214285Y-53837561D02*
X63119047Y-53885180D01*
X63119047Y-53885180D02*
X62928571Y-53885180D01*
X62928571Y-53885180D02*
X62833333Y-53837561D01*
X62833333Y-53837561D02*
X62785714Y-53789942D01*
X62785714Y-53789942D02*
X62738095Y-53694704D01*
X62738095Y-53694704D02*
X62738095Y-53647085D01*
X62738095Y-53647085D02*
X62785714Y-53551847D01*
X62785714Y-53551847D02*
X62833333Y-53504228D01*
X62833333Y-53504228D02*
X62928571Y-53456609D01*
X62928571Y-53456609D02*
X63119047Y-53456609D01*
X63119047Y-53456609D02*
X63214285Y-53408990D01*
X63214285Y-53408990D02*
X63261904Y-53361371D01*
X63261904Y-53361371D02*
X63309523Y-53266133D01*
X63309523Y-53266133D02*
X63309523Y-53075657D01*
X63309523Y-53075657D02*
X63261904Y-52980419D01*
X63261904Y-52980419D02*
X63214285Y-52932800D01*
X63214285Y-52932800D02*
X63119047Y-52885180D01*
X63119047Y-52885180D02*
X62928571Y-52885180D01*
X62928571Y-52885180D02*
X62833333Y-52932800D01*
X62833333Y-52932800D02*
X62785714Y-52980419D01*
X62785714Y-52980419D02*
X62738095Y-53075657D01*
X62738095Y-53075657D02*
X62738095Y-53266133D01*
X62738095Y-53266133D02*
X62785714Y-53361371D01*
X62785714Y-53361371D02*
X62833333Y-53408990D01*
X62833333Y-53408990D02*
X62928571Y-53456609D01*
X96329523Y-63954819D02*
X95758095Y-63954819D01*
X96043809Y-63954819D02*
X96043809Y-62954819D01*
X96043809Y-62954819D02*
X95948571Y-63097676D01*
X95948571Y-63097676D02*
X95853333Y-63192914D01*
X95853333Y-63192914D02*
X95758095Y-63240533D01*
X96662857Y-62954819D02*
X97281904Y-62954819D01*
X97281904Y-62954819D02*
X96948571Y-63335771D01*
X96948571Y-63335771D02*
X97091428Y-63335771D01*
X97091428Y-63335771D02*
X97186666Y-63383390D01*
X97186666Y-63383390D02*
X97234285Y-63431009D01*
X97234285Y-63431009D02*
X97281904Y-63526247D01*
X97281904Y-63526247D02*
X97281904Y-63764342D01*
X97281904Y-63764342D02*
X97234285Y-63859580D01*
X97234285Y-63859580D02*
X97186666Y-63907200D01*
X97186666Y-63907200D02*
X97091428Y-63954819D01*
X97091428Y-63954819D02*
X96805714Y-63954819D01*
X96805714Y-63954819D02*
X96710476Y-63907200D01*
X96710476Y-63907200D02*
X96662857Y-63859580D01*
X65754286Y-63050057D02*
X65801905Y-63002438D01*
X65801905Y-63002438D02*
X65897143Y-62954819D01*
X65897143Y-62954819D02*
X66135238Y-62954819D01*
X66135238Y-62954819D02*
X66230476Y-63002438D01*
X66230476Y-63002438D02*
X66278095Y-63050057D01*
X66278095Y-63050057D02*
X66325714Y-63145295D01*
X66325714Y-63145295D02*
X66325714Y-63240533D01*
X66325714Y-63240533D02*
X66278095Y-63383390D01*
X66278095Y-63383390D02*
X65706667Y-63954819D01*
X65706667Y-63954819D02*
X66325714Y-63954819D01*
X73898095Y-62954819D02*
X73421905Y-62954819D01*
X73421905Y-62954819D02*
X73374286Y-63431009D01*
X73374286Y-63431009D02*
X73421905Y-63383390D01*
X73421905Y-63383390D02*
X73517143Y-63335771D01*
X73517143Y-63335771D02*
X73755238Y-63335771D01*
X73755238Y-63335771D02*
X73850476Y-63383390D01*
X73850476Y-63383390D02*
X73898095Y-63431009D01*
X73898095Y-63431009D02*
X73945714Y-63526247D01*
X73945714Y-63526247D02*
X73945714Y-63764342D01*
X73945714Y-63764342D02*
X73898095Y-63859580D01*
X73898095Y-63859580D02*
X73850476Y-63907200D01*
X73850476Y-63907200D02*
X73755238Y-63954819D01*
X73755238Y-63954819D02*
X73517143Y-63954819D01*
X73517143Y-63954819D02*
X73421905Y-63907200D01*
X73421905Y-63907200D02*
X73374286Y-63859580D01*
X71310476Y-63288152D02*
X71310476Y-63954819D01*
X71072381Y-62907200D02*
X70834286Y-63621485D01*
X70834286Y-63621485D02*
X71453333Y-63621485D01*
X118618095Y-63050057D02*
X118665714Y-63002438D01*
X118665714Y-63002438D02*
X118760952Y-62954819D01*
X118760952Y-62954819D02*
X118999047Y-62954819D01*
X118999047Y-62954819D02*
X119094285Y-63002438D01*
X119094285Y-63002438D02*
X119141904Y-63050057D01*
X119141904Y-63050057D02*
X119189523Y-63145295D01*
X119189523Y-63145295D02*
X119189523Y-63240533D01*
X119189523Y-63240533D02*
X119141904Y-63383390D01*
X119141904Y-63383390D02*
X118570476Y-63954819D01*
X118570476Y-63954819D02*
X119189523Y-63954819D01*
X119522857Y-62954819D02*
X120141904Y-62954819D01*
X120141904Y-62954819D02*
X119808571Y-63335771D01*
X119808571Y-63335771D02*
X119951428Y-63335771D01*
X119951428Y-63335771D02*
X120046666Y-63383390D01*
X120046666Y-63383390D02*
X120094285Y-63431009D01*
X120094285Y-63431009D02*
X120141904Y-63526247D01*
X120141904Y-63526247D02*
X120141904Y-63764342D01*
X120141904Y-63764342D02*
X120094285Y-63859580D01*
X120094285Y-63859580D02*
X120046666Y-63907200D01*
X120046666Y-63907200D02*
X119951428Y-63954819D01*
X119951428Y-63954819D02*
X119665714Y-63954819D01*
X119665714Y-63954819D02*
X119570476Y-63907200D01*
X119570476Y-63907200D02*
X119522857Y-63859580D01*
D11*
%TO.C,U1*%
X87604689Y-58420000D02*
X87922887Y-58738198D01*
X87922887Y-58101802D02*
X87604689Y-58420000D01*
X92391802Y-53632887D02*
X92710000Y-53314689D01*
X92710000Y-53314689D02*
X93028198Y-53632887D01*
X92710000Y-63525311D02*
X92391802Y-63207113D01*
X93028198Y-63207113D02*
X92710000Y-63525311D01*
X97497113Y-58738198D02*
X97815311Y-58420000D01*
X97815311Y-58420000D02*
X97497113Y-58101802D01*
X87505694Y-59155391D02*
X86932938Y-59063467D01*
X87413770Y-58582635D01*
X87505694Y-59155391D01*
G36*
X87505694Y-59155391D02*
G01*
X86932938Y-59063467D01*
X87413770Y-58582635D01*
X87505694Y-59155391D01*
G37*
%TD*%
M02*
