M48
; DRILL file {KiCad 9.0.1} date 2025-05-27T23:04:12+0200
; FORMAT={-:-/ absolute / metric / decimal}
; #@! TF.CreationDate,2025-05-27T23:04:12+02:00
; #@! TF.GenerationSoftware,Kicad,Pcbnew,9.0.1
; #@! TF.FileFunction,Plated,1,2,PTH
FMAT,2
METRIC
; #@! TA.AperFunction,Plated,PTH,ComponentDrill
T1C1.000
%
G90
G05
T1
X63.5Y-50.8
X63.5Y-66.04
X66.04Y-50.8
X66.04Y-66.04
X68.58Y-50.8
X68.58Y-66.04
X71.12Y-50.8
X71.12Y-66.04
X73.66Y-50.8
X73.66Y-66.04
X76.2Y-50.8
X76.2Y-66.04
X78.74Y-50.8
X78.74Y-66.04
X81.28Y-50.8
X81.28Y-66.04
X83.82Y-50.8
X83.82Y-66.04
X86.36Y-50.8
X86.36Y-66.04
X88.9Y-50.8
X88.9Y-66.04
X91.44Y-50.8
X91.44Y-66.04
X93.98Y-50.8
X93.98Y-66.04
X96.52Y-50.8
X96.52Y-66.04
X99.06Y-50.8
X99.06Y-66.04
X101.6Y-50.8
X101.6Y-66.04
X104.14Y-50.8
X104.14Y-66.04
X106.68Y-50.8
X106.68Y-66.04
X109.22Y-50.8
X109.22Y-66.04
X111.76Y-50.8
X111.76Y-66.04
X114.3Y-50.8
X114.3Y-66.04
X116.84Y-50.8
X116.84Y-66.04
X119.38Y-50.8
X119.38Y-66.04
X121.92Y-50.8
X121.92Y-66.04
M30
