%TF.GenerationSoftware,KiCad,Pcbnew,9.0.1*%
%TF.CreationDate,2025-05-25T20:32:58+02:00*%
%TF.ProjectId,TQFP48,54514650-3438-42e6-9b69-6361645f7063,rev?*%
%TF.SameCoordinates,Original*%
%TF.FileFunction,Legend,Bot*%
%TF.FilePolarity,Positive*%
%FSLAX46Y46*%
G04 Gerber Fmt 4.6, Leading zero omitted, Abs format (unit mm)*
G04 Created by KiCad (PCBNEW 9.0.1) date 2025-05-25 20:32:58*
%MOMM*%
%LPD*%
G01*
G04 APERTURE LIST*
%ADD10C,0.150000*%
G04 APERTURE END LIST*
D10*
X65265180Y-61401077D02*
X65265180Y-60829649D01*
X64265180Y-61115363D02*
X65265180Y-61115363D01*
X64169942Y-59829649D02*
X64217561Y-59924887D01*
X64217561Y-59924887D02*
X64312800Y-60020125D01*
X64312800Y-60020125D02*
X64455657Y-60162982D01*
X64455657Y-60162982D02*
X64503276Y-60258220D01*
X64503276Y-60258220D02*
X64503276Y-60353458D01*
X64265180Y-60305839D02*
X64312800Y-60401077D01*
X64312800Y-60401077D02*
X64408038Y-60496315D01*
X64408038Y-60496315D02*
X64598514Y-60543934D01*
X64598514Y-60543934D02*
X64931847Y-60543934D01*
X64931847Y-60543934D02*
X65122323Y-60496315D01*
X65122323Y-60496315D02*
X65217561Y-60401077D01*
X65217561Y-60401077D02*
X65265180Y-60305839D01*
X65265180Y-60305839D02*
X65265180Y-60115363D01*
X65265180Y-60115363D02*
X65217561Y-60020125D01*
X65217561Y-60020125D02*
X65122323Y-59924887D01*
X65122323Y-59924887D02*
X64931847Y-59877268D01*
X64931847Y-59877268D02*
X64598514Y-59877268D01*
X64598514Y-59877268D02*
X64408038Y-59924887D01*
X64408038Y-59924887D02*
X64312800Y-60020125D01*
X64312800Y-60020125D02*
X64265180Y-60115363D01*
X64265180Y-60115363D02*
X64265180Y-60305839D01*
X64788990Y-59115363D02*
X64788990Y-59448696D01*
X64265180Y-59448696D02*
X65265180Y-59448696D01*
X65265180Y-59448696D02*
X65265180Y-58972506D01*
X64265180Y-58591553D02*
X65265180Y-58591553D01*
X65265180Y-58591553D02*
X65265180Y-58210601D01*
X65265180Y-58210601D02*
X65217561Y-58115363D01*
X65217561Y-58115363D02*
X65169942Y-58067744D01*
X65169942Y-58067744D02*
X65074704Y-58020125D01*
X65074704Y-58020125D02*
X64931847Y-58020125D01*
X64931847Y-58020125D02*
X64836609Y-58067744D01*
X64836609Y-58067744D02*
X64788990Y-58115363D01*
X64788990Y-58115363D02*
X64741371Y-58210601D01*
X64741371Y-58210601D02*
X64741371Y-58591553D01*
X64646133Y-57591553D02*
X64646133Y-56829649D01*
X64931847Y-55924887D02*
X64265180Y-55924887D01*
X65312800Y-56162982D02*
X64598514Y-56401077D01*
X64598514Y-56401077D02*
X64598514Y-55782030D01*
X64836609Y-55258220D02*
X64884228Y-55353458D01*
X64884228Y-55353458D02*
X64931847Y-55401077D01*
X64931847Y-55401077D02*
X65027085Y-55448696D01*
X65027085Y-55448696D02*
X65074704Y-55448696D01*
X65074704Y-55448696D02*
X65169942Y-55401077D01*
X65169942Y-55401077D02*
X65217561Y-55353458D01*
X65217561Y-55353458D02*
X65265180Y-55258220D01*
X65265180Y-55258220D02*
X65265180Y-55067744D01*
X65265180Y-55067744D02*
X65217561Y-54972506D01*
X65217561Y-54972506D02*
X65169942Y-54924887D01*
X65169942Y-54924887D02*
X65074704Y-54877268D01*
X65074704Y-54877268D02*
X65027085Y-54877268D01*
X65027085Y-54877268D02*
X64931847Y-54924887D01*
X64931847Y-54924887D02*
X64884228Y-54972506D01*
X64884228Y-54972506D02*
X64836609Y-55067744D01*
X64836609Y-55067744D02*
X64836609Y-55258220D01*
X64836609Y-55258220D02*
X64788990Y-55353458D01*
X64788990Y-55353458D02*
X64741371Y-55401077D01*
X64741371Y-55401077D02*
X64646133Y-55448696D01*
X64646133Y-55448696D02*
X64455657Y-55448696D01*
X64455657Y-55448696D02*
X64360419Y-55401077D01*
X64360419Y-55401077D02*
X64312800Y-55353458D01*
X64312800Y-55353458D02*
X64265180Y-55258220D01*
X64265180Y-55258220D02*
X64265180Y-55067744D01*
X64265180Y-55067744D02*
X64312800Y-54972506D01*
X64312800Y-54972506D02*
X64360419Y-54924887D01*
X64360419Y-54924887D02*
X64455657Y-54877268D01*
X64455657Y-54877268D02*
X64646133Y-54877268D01*
X64646133Y-54877268D02*
X64741371Y-54924887D01*
X64741371Y-54924887D02*
X64788990Y-54972506D01*
X64788990Y-54972506D02*
X64836609Y-55067744D01*
M02*
