%TF.GenerationSoftware,KiCad,Pcbnew,9.0.1*%
%TF.CreationDate,2025-05-27T23:04:16+02:00*%
%TF.ProjectId,TQFP48,54514650-3438-42e6-9b69-6361645f7063,rev?*%
%TF.SameCoordinates,Original*%
%TF.FileFunction,Legend,Top*%
%TF.FilePolarity,Positive*%
%FSLAX46Y46*%
G04 Gerber Fmt 4.6, Leading zero omitted, Abs format (unit mm)*
G04 Created by KiCad (PCBNEW 9.0.1) date 2025-05-27 23:04:16*
%MOMM*%
%LPD*%
G01*
G04 APERTURE LIST*
%ADD10C,0.150000*%
%ADD11C,0.120000*%
%ADD12C,0.549999*%
G04 APERTURE END LIST*
D10*
X97329523Y-53631180D02*
X96710476Y-53631180D01*
X96710476Y-53631180D02*
X97043809Y-53250228D01*
X97043809Y-53250228D02*
X96900952Y-53250228D01*
X96900952Y-53250228D02*
X96805714Y-53202609D01*
X96805714Y-53202609D02*
X96758095Y-53154990D01*
X96758095Y-53154990D02*
X96710476Y-53059752D01*
X96710476Y-53059752D02*
X96710476Y-52821657D01*
X96710476Y-52821657D02*
X96758095Y-52726419D01*
X96758095Y-52726419D02*
X96805714Y-52678800D01*
X96805714Y-52678800D02*
X96900952Y-52631180D01*
X96900952Y-52631180D02*
X97186666Y-52631180D01*
X97186666Y-52631180D02*
X97281904Y-52678800D01*
X97281904Y-52678800D02*
X97329523Y-52726419D01*
X95805714Y-53631180D02*
X96281904Y-53631180D01*
X96281904Y-53631180D02*
X96329523Y-53154990D01*
X96329523Y-53154990D02*
X96281904Y-53202609D01*
X96281904Y-53202609D02*
X96186666Y-53250228D01*
X96186666Y-53250228D02*
X95948571Y-53250228D01*
X95948571Y-53250228D02*
X95853333Y-53202609D01*
X95853333Y-53202609D02*
X95805714Y-53154990D01*
X95805714Y-53154990D02*
X95758095Y-53059752D01*
X95758095Y-53059752D02*
X95758095Y-52821657D01*
X95758095Y-52821657D02*
X95805714Y-52726419D01*
X95805714Y-52726419D02*
X95853333Y-52678800D01*
X95853333Y-52678800D02*
X95948571Y-52631180D01*
X95948571Y-52631180D02*
X96186666Y-52631180D01*
X96186666Y-52631180D02*
X96281904Y-52678800D01*
X96281904Y-52678800D02*
X96329523Y-52726419D01*
X102409523Y-53631180D02*
X101790476Y-53631180D01*
X101790476Y-53631180D02*
X102123809Y-53250228D01*
X102123809Y-53250228D02*
X101980952Y-53250228D01*
X101980952Y-53250228D02*
X101885714Y-53202609D01*
X101885714Y-53202609D02*
X101838095Y-53154990D01*
X101838095Y-53154990D02*
X101790476Y-53059752D01*
X101790476Y-53059752D02*
X101790476Y-52821657D01*
X101790476Y-52821657D02*
X101838095Y-52726419D01*
X101838095Y-52726419D02*
X101885714Y-52678800D01*
X101885714Y-52678800D02*
X101980952Y-52631180D01*
X101980952Y-52631180D02*
X102266666Y-52631180D01*
X102266666Y-52631180D02*
X102361904Y-52678800D01*
X102361904Y-52678800D02*
X102409523Y-52726419D01*
X101457142Y-53631180D02*
X100838095Y-53631180D01*
X100838095Y-53631180D02*
X101171428Y-53250228D01*
X101171428Y-53250228D02*
X101028571Y-53250228D01*
X101028571Y-53250228D02*
X100933333Y-53202609D01*
X100933333Y-53202609D02*
X100885714Y-53154990D01*
X100885714Y-53154990D02*
X100838095Y-53059752D01*
X100838095Y-53059752D02*
X100838095Y-52821657D01*
X100838095Y-52821657D02*
X100885714Y-52726419D01*
X100885714Y-52726419D02*
X100933333Y-52678800D01*
X100933333Y-52678800D02*
X101028571Y-52631180D01*
X101028571Y-52631180D02*
X101314285Y-52631180D01*
X101314285Y-52631180D02*
X101409523Y-52678800D01*
X101409523Y-52678800D02*
X101457142Y-52726419D01*
X81184762Y-63637390D02*
X81089524Y-63589771D01*
X81089524Y-63589771D02*
X81041905Y-63542152D01*
X81041905Y-63542152D02*
X80994286Y-63446914D01*
X80994286Y-63446914D02*
X80994286Y-63399295D01*
X80994286Y-63399295D02*
X81041905Y-63304057D01*
X81041905Y-63304057D02*
X81089524Y-63256438D01*
X81089524Y-63256438D02*
X81184762Y-63208819D01*
X81184762Y-63208819D02*
X81375238Y-63208819D01*
X81375238Y-63208819D02*
X81470476Y-63256438D01*
X81470476Y-63256438D02*
X81518095Y-63304057D01*
X81518095Y-63304057D02*
X81565714Y-63399295D01*
X81565714Y-63399295D02*
X81565714Y-63446914D01*
X81565714Y-63446914D02*
X81518095Y-63542152D01*
X81518095Y-63542152D02*
X81470476Y-63589771D01*
X81470476Y-63589771D02*
X81375238Y-63637390D01*
X81375238Y-63637390D02*
X81184762Y-63637390D01*
X81184762Y-63637390D02*
X81089524Y-63685009D01*
X81089524Y-63685009D02*
X81041905Y-63732628D01*
X81041905Y-63732628D02*
X80994286Y-63827866D01*
X80994286Y-63827866D02*
X80994286Y-64018342D01*
X80994286Y-64018342D02*
X81041905Y-64113580D01*
X81041905Y-64113580D02*
X81089524Y-64161200D01*
X81089524Y-64161200D02*
X81184762Y-64208819D01*
X81184762Y-64208819D02*
X81375238Y-64208819D01*
X81375238Y-64208819D02*
X81470476Y-64161200D01*
X81470476Y-64161200D02*
X81518095Y-64113580D01*
X81518095Y-64113580D02*
X81565714Y-64018342D01*
X81565714Y-64018342D02*
X81565714Y-63827866D01*
X81565714Y-63827866D02*
X81518095Y-63732628D01*
X81518095Y-63732628D02*
X81470476Y-63685009D01*
X81470476Y-63685009D02*
X81375238Y-63637390D01*
X81565714Y-53297847D02*
X81565714Y-52631180D01*
X81803809Y-53678800D02*
X82041904Y-52964514D01*
X82041904Y-52964514D02*
X81422857Y-52964514D01*
X80518095Y-52631180D02*
X81089523Y-52631180D01*
X80803809Y-52631180D02*
X80803809Y-53631180D01*
X80803809Y-53631180D02*
X80899047Y-53488323D01*
X80899047Y-53488323D02*
X80994285Y-53393085D01*
X80994285Y-53393085D02*
X81089523Y-53345466D01*
X101409523Y-64208819D02*
X100838095Y-64208819D01*
X101123809Y-64208819D02*
X101123809Y-63208819D01*
X101123809Y-63208819D02*
X101028571Y-63351676D01*
X101028571Y-63351676D02*
X100933333Y-63446914D01*
X100933333Y-63446914D02*
X100838095Y-63494533D01*
X102314285Y-63208819D02*
X101838095Y-63208819D01*
X101838095Y-63208819D02*
X101790476Y-63685009D01*
X101790476Y-63685009D02*
X101838095Y-63637390D01*
X101838095Y-63637390D02*
X101933333Y-63589771D01*
X101933333Y-63589771D02*
X102171428Y-63589771D01*
X102171428Y-63589771D02*
X102266666Y-63637390D01*
X102266666Y-63637390D02*
X102314285Y-63685009D01*
X102314285Y-63685009D02*
X102361904Y-63780247D01*
X102361904Y-63780247D02*
X102361904Y-64018342D01*
X102361904Y-64018342D02*
X102314285Y-64113580D01*
X102314285Y-64113580D02*
X102266666Y-64161200D01*
X102266666Y-64161200D02*
X102171428Y-64208819D01*
X102171428Y-64208819D02*
X101933333Y-64208819D01*
X101933333Y-64208819D02*
X101838095Y-64161200D01*
X101838095Y-64161200D02*
X101790476Y-64113580D01*
X103949523Y-64208819D02*
X103378095Y-64208819D01*
X103663809Y-64208819D02*
X103663809Y-63208819D01*
X103663809Y-63208819D02*
X103568571Y-63351676D01*
X103568571Y-63351676D02*
X103473333Y-63446914D01*
X103473333Y-63446914D02*
X103378095Y-63494533D01*
X104806666Y-63208819D02*
X104616190Y-63208819D01*
X104616190Y-63208819D02*
X104520952Y-63256438D01*
X104520952Y-63256438D02*
X104473333Y-63304057D01*
X104473333Y-63304057D02*
X104378095Y-63446914D01*
X104378095Y-63446914D02*
X104330476Y-63637390D01*
X104330476Y-63637390D02*
X104330476Y-64018342D01*
X104330476Y-64018342D02*
X104378095Y-64113580D01*
X104378095Y-64113580D02*
X104425714Y-64161200D01*
X104425714Y-64161200D02*
X104520952Y-64208819D01*
X104520952Y-64208819D02*
X104711428Y-64208819D01*
X104711428Y-64208819D02*
X104806666Y-64161200D01*
X104806666Y-64161200D02*
X104854285Y-64113580D01*
X104854285Y-64113580D02*
X104901904Y-64018342D01*
X104901904Y-64018342D02*
X104901904Y-63780247D01*
X104901904Y-63780247D02*
X104854285Y-63685009D01*
X104854285Y-63685009D02*
X104806666Y-63637390D01*
X104806666Y-63637390D02*
X104711428Y-63589771D01*
X104711428Y-63589771D02*
X104520952Y-63589771D01*
X104520952Y-63589771D02*
X104425714Y-63637390D01*
X104425714Y-63637390D02*
X104378095Y-63685009D01*
X104378095Y-63685009D02*
X104330476Y-63780247D01*
X84105714Y-53297847D02*
X84105714Y-52631180D01*
X84343809Y-53678800D02*
X84581904Y-52964514D01*
X84581904Y-52964514D02*
X83962857Y-52964514D01*
X83391428Y-53631180D02*
X83296190Y-53631180D01*
X83296190Y-53631180D02*
X83200952Y-53583561D01*
X83200952Y-53583561D02*
X83153333Y-53535942D01*
X83153333Y-53535942D02*
X83105714Y-53440704D01*
X83105714Y-53440704D02*
X83058095Y-53250228D01*
X83058095Y-53250228D02*
X83058095Y-53012133D01*
X83058095Y-53012133D02*
X83105714Y-52821657D01*
X83105714Y-52821657D02*
X83153333Y-52726419D01*
X83153333Y-52726419D02*
X83200952Y-52678800D01*
X83200952Y-52678800D02*
X83296190Y-52631180D01*
X83296190Y-52631180D02*
X83391428Y-52631180D01*
X83391428Y-52631180D02*
X83486666Y-52678800D01*
X83486666Y-52678800D02*
X83534285Y-52726419D01*
X83534285Y-52726419D02*
X83581904Y-52821657D01*
X83581904Y-52821657D02*
X83629523Y-53012133D01*
X83629523Y-53012133D02*
X83629523Y-53250228D01*
X83629523Y-53250228D02*
X83581904Y-53440704D01*
X83581904Y-53440704D02*
X83534285Y-53535942D01*
X83534285Y-53535942D02*
X83486666Y-53583561D01*
X83486666Y-53583561D02*
X83391428Y-53631180D01*
X122681904Y-53535942D02*
X122634285Y-53583561D01*
X122634285Y-53583561D02*
X122539047Y-53631180D01*
X122539047Y-53631180D02*
X122300952Y-53631180D01*
X122300952Y-53631180D02*
X122205714Y-53583561D01*
X122205714Y-53583561D02*
X122158095Y-53535942D01*
X122158095Y-53535942D02*
X122110476Y-53440704D01*
X122110476Y-53440704D02*
X122110476Y-53345466D01*
X122110476Y-53345466D02*
X122158095Y-53202609D01*
X122158095Y-53202609D02*
X122729523Y-52631180D01*
X122729523Y-52631180D02*
X122110476Y-52631180D01*
X121205714Y-53631180D02*
X121681904Y-53631180D01*
X121681904Y-53631180D02*
X121729523Y-53154990D01*
X121729523Y-53154990D02*
X121681904Y-53202609D01*
X121681904Y-53202609D02*
X121586666Y-53250228D01*
X121586666Y-53250228D02*
X121348571Y-53250228D01*
X121348571Y-53250228D02*
X121253333Y-53202609D01*
X121253333Y-53202609D02*
X121205714Y-53154990D01*
X121205714Y-53154990D02*
X121158095Y-53059752D01*
X121158095Y-53059752D02*
X121158095Y-52821657D01*
X121158095Y-52821657D02*
X121205714Y-52726419D01*
X121205714Y-52726419D02*
X121253333Y-52678800D01*
X121253333Y-52678800D02*
X121348571Y-52631180D01*
X121348571Y-52631180D02*
X121586666Y-52631180D01*
X121586666Y-52631180D02*
X121681904Y-52678800D01*
X121681904Y-52678800D02*
X121729523Y-52726419D01*
X109029523Y-64208819D02*
X108458095Y-64208819D01*
X108743809Y-64208819D02*
X108743809Y-63208819D01*
X108743809Y-63208819D02*
X108648571Y-63351676D01*
X108648571Y-63351676D02*
X108553333Y-63446914D01*
X108553333Y-63446914D02*
X108458095Y-63494533D01*
X109505714Y-64208819D02*
X109696190Y-64208819D01*
X109696190Y-64208819D02*
X109791428Y-64161200D01*
X109791428Y-64161200D02*
X109839047Y-64113580D01*
X109839047Y-64113580D02*
X109934285Y-63970723D01*
X109934285Y-63970723D02*
X109981904Y-63780247D01*
X109981904Y-63780247D02*
X109981904Y-63399295D01*
X109981904Y-63399295D02*
X109934285Y-63304057D01*
X109934285Y-63304057D02*
X109886666Y-63256438D01*
X109886666Y-63256438D02*
X109791428Y-63208819D01*
X109791428Y-63208819D02*
X109600952Y-63208819D01*
X109600952Y-63208819D02*
X109505714Y-63256438D01*
X109505714Y-63256438D02*
X109458095Y-63304057D01*
X109458095Y-63304057D02*
X109410476Y-63399295D01*
X109410476Y-63399295D02*
X109410476Y-63637390D01*
X109410476Y-63637390D02*
X109458095Y-63732628D01*
X109458095Y-63732628D02*
X109505714Y-63780247D01*
X109505714Y-63780247D02*
X109600952Y-63827866D01*
X109600952Y-63827866D02*
X109791428Y-63827866D01*
X109791428Y-63827866D02*
X109886666Y-63780247D01*
X109886666Y-63780247D02*
X109934285Y-63732628D01*
X109934285Y-63732628D02*
X109981904Y-63637390D01*
X104949523Y-53631180D02*
X104330476Y-53631180D01*
X104330476Y-53631180D02*
X104663809Y-53250228D01*
X104663809Y-53250228D02*
X104520952Y-53250228D01*
X104520952Y-53250228D02*
X104425714Y-53202609D01*
X104425714Y-53202609D02*
X104378095Y-53154990D01*
X104378095Y-53154990D02*
X104330476Y-53059752D01*
X104330476Y-53059752D02*
X104330476Y-52821657D01*
X104330476Y-52821657D02*
X104378095Y-52726419D01*
X104378095Y-52726419D02*
X104425714Y-52678800D01*
X104425714Y-52678800D02*
X104520952Y-52631180D01*
X104520952Y-52631180D02*
X104806666Y-52631180D01*
X104806666Y-52631180D02*
X104901904Y-52678800D01*
X104901904Y-52678800D02*
X104949523Y-52726419D01*
X103949523Y-53535942D02*
X103901904Y-53583561D01*
X103901904Y-53583561D02*
X103806666Y-53631180D01*
X103806666Y-53631180D02*
X103568571Y-53631180D01*
X103568571Y-53631180D02*
X103473333Y-53583561D01*
X103473333Y-53583561D02*
X103425714Y-53535942D01*
X103425714Y-53535942D02*
X103378095Y-53440704D01*
X103378095Y-53440704D02*
X103378095Y-53345466D01*
X103378095Y-53345466D02*
X103425714Y-53202609D01*
X103425714Y-53202609D02*
X103997142Y-52631180D01*
X103997142Y-52631180D02*
X103378095Y-52631180D01*
X112521904Y-53535942D02*
X112474285Y-53583561D01*
X112474285Y-53583561D02*
X112379047Y-53631180D01*
X112379047Y-53631180D02*
X112140952Y-53631180D01*
X112140952Y-53631180D02*
X112045714Y-53583561D01*
X112045714Y-53583561D02*
X111998095Y-53535942D01*
X111998095Y-53535942D02*
X111950476Y-53440704D01*
X111950476Y-53440704D02*
X111950476Y-53345466D01*
X111950476Y-53345466D02*
X111998095Y-53202609D01*
X111998095Y-53202609D02*
X112569523Y-52631180D01*
X112569523Y-52631180D02*
X111950476Y-52631180D01*
X111474285Y-52631180D02*
X111283809Y-52631180D01*
X111283809Y-52631180D02*
X111188571Y-52678800D01*
X111188571Y-52678800D02*
X111140952Y-52726419D01*
X111140952Y-52726419D02*
X111045714Y-52869276D01*
X111045714Y-52869276D02*
X110998095Y-53059752D01*
X110998095Y-53059752D02*
X110998095Y-53440704D01*
X110998095Y-53440704D02*
X111045714Y-53535942D01*
X111045714Y-53535942D02*
X111093333Y-53583561D01*
X111093333Y-53583561D02*
X111188571Y-53631180D01*
X111188571Y-53631180D02*
X111379047Y-53631180D01*
X111379047Y-53631180D02*
X111474285Y-53583561D01*
X111474285Y-53583561D02*
X111521904Y-53535942D01*
X111521904Y-53535942D02*
X111569523Y-53440704D01*
X111569523Y-53440704D02*
X111569523Y-53202609D01*
X111569523Y-53202609D02*
X111521904Y-53107371D01*
X111521904Y-53107371D02*
X111474285Y-53059752D01*
X111474285Y-53059752D02*
X111379047Y-53012133D01*
X111379047Y-53012133D02*
X111188571Y-53012133D01*
X111188571Y-53012133D02*
X111093333Y-53059752D01*
X111093333Y-53059752D02*
X111045714Y-53107371D01*
X111045714Y-53107371D02*
X110998095Y-53202609D01*
X116078095Y-63304057D02*
X116125714Y-63256438D01*
X116125714Y-63256438D02*
X116220952Y-63208819D01*
X116220952Y-63208819D02*
X116459047Y-63208819D01*
X116459047Y-63208819D02*
X116554285Y-63256438D01*
X116554285Y-63256438D02*
X116601904Y-63304057D01*
X116601904Y-63304057D02*
X116649523Y-63399295D01*
X116649523Y-63399295D02*
X116649523Y-63494533D01*
X116649523Y-63494533D02*
X116601904Y-63637390D01*
X116601904Y-63637390D02*
X116030476Y-64208819D01*
X116030476Y-64208819D02*
X116649523Y-64208819D01*
X117030476Y-63304057D02*
X117078095Y-63256438D01*
X117078095Y-63256438D02*
X117173333Y-63208819D01*
X117173333Y-63208819D02*
X117411428Y-63208819D01*
X117411428Y-63208819D02*
X117506666Y-63256438D01*
X117506666Y-63256438D02*
X117554285Y-63304057D01*
X117554285Y-63304057D02*
X117601904Y-63399295D01*
X117601904Y-63399295D02*
X117601904Y-63494533D01*
X117601904Y-63494533D02*
X117554285Y-63637390D01*
X117554285Y-63637390D02*
X116982857Y-64208819D01*
X116982857Y-64208819D02*
X117601904Y-64208819D01*
X83629524Y-64208819D02*
X83820000Y-64208819D01*
X83820000Y-64208819D02*
X83915238Y-64161200D01*
X83915238Y-64161200D02*
X83962857Y-64113580D01*
X83962857Y-64113580D02*
X84058095Y-63970723D01*
X84058095Y-63970723D02*
X84105714Y-63780247D01*
X84105714Y-63780247D02*
X84105714Y-63399295D01*
X84105714Y-63399295D02*
X84058095Y-63304057D01*
X84058095Y-63304057D02*
X84010476Y-63256438D01*
X84010476Y-63256438D02*
X83915238Y-63208819D01*
X83915238Y-63208819D02*
X83724762Y-63208819D01*
X83724762Y-63208819D02*
X83629524Y-63256438D01*
X83629524Y-63256438D02*
X83581905Y-63304057D01*
X83581905Y-63304057D02*
X83534286Y-63399295D01*
X83534286Y-63399295D02*
X83534286Y-63637390D01*
X83534286Y-63637390D02*
X83581905Y-63732628D01*
X83581905Y-63732628D02*
X83629524Y-63780247D01*
X83629524Y-63780247D02*
X83724762Y-63827866D01*
X83724762Y-63827866D02*
X83915238Y-63827866D01*
X83915238Y-63827866D02*
X84010476Y-63780247D01*
X84010476Y-63780247D02*
X84058095Y-63732628D01*
X84058095Y-63732628D02*
X84105714Y-63637390D01*
X63785714Y-64208819D02*
X63214286Y-64208819D01*
X63500000Y-64208819D02*
X63500000Y-63208819D01*
X63500000Y-63208819D02*
X63404762Y-63351676D01*
X63404762Y-63351676D02*
X63309524Y-63446914D01*
X63309524Y-63446914D02*
X63214286Y-63494533D01*
X86169523Y-64208819D02*
X85598095Y-64208819D01*
X85883809Y-64208819D02*
X85883809Y-63208819D01*
X85883809Y-63208819D02*
X85788571Y-63351676D01*
X85788571Y-63351676D02*
X85693333Y-63446914D01*
X85693333Y-63446914D02*
X85598095Y-63494533D01*
X86788571Y-63208819D02*
X86883809Y-63208819D01*
X86883809Y-63208819D02*
X86979047Y-63256438D01*
X86979047Y-63256438D02*
X87026666Y-63304057D01*
X87026666Y-63304057D02*
X87074285Y-63399295D01*
X87074285Y-63399295D02*
X87121904Y-63589771D01*
X87121904Y-63589771D02*
X87121904Y-63827866D01*
X87121904Y-63827866D02*
X87074285Y-64018342D01*
X87074285Y-64018342D02*
X87026666Y-64113580D01*
X87026666Y-64113580D02*
X86979047Y-64161200D01*
X86979047Y-64161200D02*
X86883809Y-64208819D01*
X86883809Y-64208819D02*
X86788571Y-64208819D01*
X86788571Y-64208819D02*
X86693333Y-64161200D01*
X86693333Y-64161200D02*
X86645714Y-64113580D01*
X86645714Y-64113580D02*
X86598095Y-64018342D01*
X86598095Y-64018342D02*
X86550476Y-63827866D01*
X86550476Y-63827866D02*
X86550476Y-63589771D01*
X86550476Y-63589771D02*
X86598095Y-63399295D01*
X86598095Y-63399295D02*
X86645714Y-63304057D01*
X86645714Y-63304057D02*
X86693333Y-63256438D01*
X86693333Y-63256438D02*
X86788571Y-63208819D01*
X110998095Y-63304057D02*
X111045714Y-63256438D01*
X111045714Y-63256438D02*
X111140952Y-63208819D01*
X111140952Y-63208819D02*
X111379047Y-63208819D01*
X111379047Y-63208819D02*
X111474285Y-63256438D01*
X111474285Y-63256438D02*
X111521904Y-63304057D01*
X111521904Y-63304057D02*
X111569523Y-63399295D01*
X111569523Y-63399295D02*
X111569523Y-63494533D01*
X111569523Y-63494533D02*
X111521904Y-63637390D01*
X111521904Y-63637390D02*
X110950476Y-64208819D01*
X110950476Y-64208819D02*
X111569523Y-64208819D01*
X112188571Y-63208819D02*
X112283809Y-63208819D01*
X112283809Y-63208819D02*
X112379047Y-63256438D01*
X112379047Y-63256438D02*
X112426666Y-63304057D01*
X112426666Y-63304057D02*
X112474285Y-63399295D01*
X112474285Y-63399295D02*
X112521904Y-63589771D01*
X112521904Y-63589771D02*
X112521904Y-63827866D01*
X112521904Y-63827866D02*
X112474285Y-64018342D01*
X112474285Y-64018342D02*
X112426666Y-64113580D01*
X112426666Y-64113580D02*
X112379047Y-64161200D01*
X112379047Y-64161200D02*
X112283809Y-64208819D01*
X112283809Y-64208819D02*
X112188571Y-64208819D01*
X112188571Y-64208819D02*
X112093333Y-64161200D01*
X112093333Y-64161200D02*
X112045714Y-64113580D01*
X112045714Y-64113580D02*
X111998095Y-64018342D01*
X111998095Y-64018342D02*
X111950476Y-63827866D01*
X111950476Y-63827866D02*
X111950476Y-63589771D01*
X111950476Y-63589771D02*
X111998095Y-63399295D01*
X111998095Y-63399295D02*
X112045714Y-63304057D01*
X112045714Y-63304057D02*
X112093333Y-63256438D01*
X112093333Y-63256438D02*
X112188571Y-63208819D01*
X113538095Y-63304057D02*
X113585714Y-63256438D01*
X113585714Y-63256438D02*
X113680952Y-63208819D01*
X113680952Y-63208819D02*
X113919047Y-63208819D01*
X113919047Y-63208819D02*
X114014285Y-63256438D01*
X114014285Y-63256438D02*
X114061904Y-63304057D01*
X114061904Y-63304057D02*
X114109523Y-63399295D01*
X114109523Y-63399295D02*
X114109523Y-63494533D01*
X114109523Y-63494533D02*
X114061904Y-63637390D01*
X114061904Y-63637390D02*
X113490476Y-64208819D01*
X113490476Y-64208819D02*
X114109523Y-64208819D01*
X115061904Y-64208819D02*
X114490476Y-64208819D01*
X114776190Y-64208819D02*
X114776190Y-63208819D01*
X114776190Y-63208819D02*
X114680952Y-63351676D01*
X114680952Y-63351676D02*
X114585714Y-63446914D01*
X114585714Y-63446914D02*
X114490476Y-63494533D01*
X117601904Y-53535942D02*
X117554285Y-53583561D01*
X117554285Y-53583561D02*
X117459047Y-53631180D01*
X117459047Y-53631180D02*
X117220952Y-53631180D01*
X117220952Y-53631180D02*
X117125714Y-53583561D01*
X117125714Y-53583561D02*
X117078095Y-53535942D01*
X117078095Y-53535942D02*
X117030476Y-53440704D01*
X117030476Y-53440704D02*
X117030476Y-53345466D01*
X117030476Y-53345466D02*
X117078095Y-53202609D01*
X117078095Y-53202609D02*
X117649523Y-52631180D01*
X117649523Y-52631180D02*
X117030476Y-52631180D01*
X116697142Y-53631180D02*
X116030476Y-53631180D01*
X116030476Y-53631180D02*
X116459047Y-52631180D01*
X68246667Y-63208819D02*
X68865714Y-63208819D01*
X68865714Y-63208819D02*
X68532381Y-63589771D01*
X68532381Y-63589771D02*
X68675238Y-63589771D01*
X68675238Y-63589771D02*
X68770476Y-63637390D01*
X68770476Y-63637390D02*
X68818095Y-63685009D01*
X68818095Y-63685009D02*
X68865714Y-63780247D01*
X68865714Y-63780247D02*
X68865714Y-64018342D01*
X68865714Y-64018342D02*
X68818095Y-64113580D01*
X68818095Y-64113580D02*
X68770476Y-64161200D01*
X68770476Y-64161200D02*
X68675238Y-64208819D01*
X68675238Y-64208819D02*
X68389524Y-64208819D01*
X68389524Y-64208819D02*
X68294286Y-64161200D01*
X68294286Y-64161200D02*
X68246667Y-64113580D01*
X121158095Y-63304057D02*
X121205714Y-63256438D01*
X121205714Y-63256438D02*
X121300952Y-63208819D01*
X121300952Y-63208819D02*
X121539047Y-63208819D01*
X121539047Y-63208819D02*
X121634285Y-63256438D01*
X121634285Y-63256438D02*
X121681904Y-63304057D01*
X121681904Y-63304057D02*
X121729523Y-63399295D01*
X121729523Y-63399295D02*
X121729523Y-63494533D01*
X121729523Y-63494533D02*
X121681904Y-63637390D01*
X121681904Y-63637390D02*
X121110476Y-64208819D01*
X121110476Y-64208819D02*
X121729523Y-64208819D01*
X122586666Y-63542152D02*
X122586666Y-64208819D01*
X122348571Y-63161200D02*
X122110476Y-63875485D01*
X122110476Y-63875485D02*
X122729523Y-63875485D01*
X71405714Y-53297847D02*
X71405714Y-52631180D01*
X71643809Y-53678800D02*
X71881904Y-52964514D01*
X71881904Y-52964514D02*
X71262857Y-52964514D01*
X70405714Y-53631180D02*
X70881904Y-53631180D01*
X70881904Y-53631180D02*
X70929523Y-53154990D01*
X70929523Y-53154990D02*
X70881904Y-53202609D01*
X70881904Y-53202609D02*
X70786666Y-53250228D01*
X70786666Y-53250228D02*
X70548571Y-53250228D01*
X70548571Y-53250228D02*
X70453333Y-53202609D01*
X70453333Y-53202609D02*
X70405714Y-53154990D01*
X70405714Y-53154990D02*
X70358095Y-53059752D01*
X70358095Y-53059752D02*
X70358095Y-52821657D01*
X70358095Y-52821657D02*
X70405714Y-52726419D01*
X70405714Y-52726419D02*
X70453333Y-52678800D01*
X70453333Y-52678800D02*
X70548571Y-52631180D01*
X70548571Y-52631180D02*
X70786666Y-52631180D01*
X70786666Y-52631180D02*
X70881904Y-52678800D01*
X70881904Y-52678800D02*
X70929523Y-52726419D01*
X88709523Y-64208819D02*
X88138095Y-64208819D01*
X88423809Y-64208819D02*
X88423809Y-63208819D01*
X88423809Y-63208819D02*
X88328571Y-63351676D01*
X88328571Y-63351676D02*
X88233333Y-63446914D01*
X88233333Y-63446914D02*
X88138095Y-63494533D01*
X89661904Y-64208819D02*
X89090476Y-64208819D01*
X89376190Y-64208819D02*
X89376190Y-63208819D01*
X89376190Y-63208819D02*
X89280952Y-63351676D01*
X89280952Y-63351676D02*
X89185714Y-63446914D01*
X89185714Y-63446914D02*
X89090476Y-63494533D01*
X106489523Y-64208819D02*
X105918095Y-64208819D01*
X106203809Y-64208819D02*
X106203809Y-63208819D01*
X106203809Y-63208819D02*
X106108571Y-63351676D01*
X106108571Y-63351676D02*
X106013333Y-63446914D01*
X106013333Y-63446914D02*
X105918095Y-63494533D01*
X107060952Y-63637390D02*
X106965714Y-63589771D01*
X106965714Y-63589771D02*
X106918095Y-63542152D01*
X106918095Y-63542152D02*
X106870476Y-63446914D01*
X106870476Y-63446914D02*
X106870476Y-63399295D01*
X106870476Y-63399295D02*
X106918095Y-63304057D01*
X106918095Y-63304057D02*
X106965714Y-63256438D01*
X106965714Y-63256438D02*
X107060952Y-63208819D01*
X107060952Y-63208819D02*
X107251428Y-63208819D01*
X107251428Y-63208819D02*
X107346666Y-63256438D01*
X107346666Y-63256438D02*
X107394285Y-63304057D01*
X107394285Y-63304057D02*
X107441904Y-63399295D01*
X107441904Y-63399295D02*
X107441904Y-63446914D01*
X107441904Y-63446914D02*
X107394285Y-63542152D01*
X107394285Y-63542152D02*
X107346666Y-63589771D01*
X107346666Y-63589771D02*
X107251428Y-63637390D01*
X107251428Y-63637390D02*
X107060952Y-63637390D01*
X107060952Y-63637390D02*
X106965714Y-63685009D01*
X106965714Y-63685009D02*
X106918095Y-63732628D01*
X106918095Y-63732628D02*
X106870476Y-63827866D01*
X106870476Y-63827866D02*
X106870476Y-64018342D01*
X106870476Y-64018342D02*
X106918095Y-64113580D01*
X106918095Y-64113580D02*
X106965714Y-64161200D01*
X106965714Y-64161200D02*
X107060952Y-64208819D01*
X107060952Y-64208819D02*
X107251428Y-64208819D01*
X107251428Y-64208819D02*
X107346666Y-64161200D01*
X107346666Y-64161200D02*
X107394285Y-64113580D01*
X107394285Y-64113580D02*
X107441904Y-64018342D01*
X107441904Y-64018342D02*
X107441904Y-63827866D01*
X107441904Y-63827866D02*
X107394285Y-63732628D01*
X107394285Y-63732628D02*
X107346666Y-63685009D01*
X107346666Y-63685009D02*
X107251428Y-63637390D01*
X78406667Y-63208819D02*
X79073333Y-63208819D01*
X79073333Y-63208819D02*
X78644762Y-64208819D01*
X120141904Y-53535942D02*
X120094285Y-53583561D01*
X120094285Y-53583561D02*
X119999047Y-53631180D01*
X119999047Y-53631180D02*
X119760952Y-53631180D01*
X119760952Y-53631180D02*
X119665714Y-53583561D01*
X119665714Y-53583561D02*
X119618095Y-53535942D01*
X119618095Y-53535942D02*
X119570476Y-53440704D01*
X119570476Y-53440704D02*
X119570476Y-53345466D01*
X119570476Y-53345466D02*
X119618095Y-53202609D01*
X119618095Y-53202609D02*
X120189523Y-52631180D01*
X120189523Y-52631180D02*
X119570476Y-52631180D01*
X118713333Y-53631180D02*
X118903809Y-53631180D01*
X118903809Y-53631180D02*
X118999047Y-53583561D01*
X118999047Y-53583561D02*
X119046666Y-53535942D01*
X119046666Y-53535942D02*
X119141904Y-53393085D01*
X119141904Y-53393085D02*
X119189523Y-53202609D01*
X119189523Y-53202609D02*
X119189523Y-52821657D01*
X119189523Y-52821657D02*
X119141904Y-52726419D01*
X119141904Y-52726419D02*
X119094285Y-52678800D01*
X119094285Y-52678800D02*
X118999047Y-52631180D01*
X118999047Y-52631180D02*
X118808571Y-52631180D01*
X118808571Y-52631180D02*
X118713333Y-52678800D01*
X118713333Y-52678800D02*
X118665714Y-52726419D01*
X118665714Y-52726419D02*
X118618095Y-52821657D01*
X118618095Y-52821657D02*
X118618095Y-53059752D01*
X118618095Y-53059752D02*
X118665714Y-53154990D01*
X118665714Y-53154990D02*
X118713333Y-53202609D01*
X118713333Y-53202609D02*
X118808571Y-53250228D01*
X118808571Y-53250228D02*
X118999047Y-53250228D01*
X118999047Y-53250228D02*
X119094285Y-53202609D01*
X119094285Y-53202609D02*
X119141904Y-53154990D01*
X119141904Y-53154990D02*
X119189523Y-53059752D01*
X76390476Y-63208819D02*
X76200000Y-63208819D01*
X76200000Y-63208819D02*
X76104762Y-63256438D01*
X76104762Y-63256438D02*
X76057143Y-63304057D01*
X76057143Y-63304057D02*
X75961905Y-63446914D01*
X75961905Y-63446914D02*
X75914286Y-63637390D01*
X75914286Y-63637390D02*
X75914286Y-64018342D01*
X75914286Y-64018342D02*
X75961905Y-64113580D01*
X75961905Y-64113580D02*
X76009524Y-64161200D01*
X76009524Y-64161200D02*
X76104762Y-64208819D01*
X76104762Y-64208819D02*
X76295238Y-64208819D01*
X76295238Y-64208819D02*
X76390476Y-64161200D01*
X76390476Y-64161200D02*
X76438095Y-64113580D01*
X76438095Y-64113580D02*
X76485714Y-64018342D01*
X76485714Y-64018342D02*
X76485714Y-63780247D01*
X76485714Y-63780247D02*
X76438095Y-63685009D01*
X76438095Y-63685009D02*
X76390476Y-63637390D01*
X76390476Y-63637390D02*
X76295238Y-63589771D01*
X76295238Y-63589771D02*
X76104762Y-63589771D01*
X76104762Y-63589771D02*
X76009524Y-63637390D01*
X76009524Y-63637390D02*
X75961905Y-63685009D01*
X75961905Y-63685009D02*
X75914286Y-63780247D01*
X89709523Y-53631180D02*
X89090476Y-53631180D01*
X89090476Y-53631180D02*
X89423809Y-53250228D01*
X89423809Y-53250228D02*
X89280952Y-53250228D01*
X89280952Y-53250228D02*
X89185714Y-53202609D01*
X89185714Y-53202609D02*
X89138095Y-53154990D01*
X89138095Y-53154990D02*
X89090476Y-53059752D01*
X89090476Y-53059752D02*
X89090476Y-52821657D01*
X89090476Y-52821657D02*
X89138095Y-52726419D01*
X89138095Y-52726419D02*
X89185714Y-52678800D01*
X89185714Y-52678800D02*
X89280952Y-52631180D01*
X89280952Y-52631180D02*
X89566666Y-52631180D01*
X89566666Y-52631180D02*
X89661904Y-52678800D01*
X89661904Y-52678800D02*
X89709523Y-52726419D01*
X88519047Y-53202609D02*
X88614285Y-53250228D01*
X88614285Y-53250228D02*
X88661904Y-53297847D01*
X88661904Y-53297847D02*
X88709523Y-53393085D01*
X88709523Y-53393085D02*
X88709523Y-53440704D01*
X88709523Y-53440704D02*
X88661904Y-53535942D01*
X88661904Y-53535942D02*
X88614285Y-53583561D01*
X88614285Y-53583561D02*
X88519047Y-53631180D01*
X88519047Y-53631180D02*
X88328571Y-53631180D01*
X88328571Y-53631180D02*
X88233333Y-53583561D01*
X88233333Y-53583561D02*
X88185714Y-53535942D01*
X88185714Y-53535942D02*
X88138095Y-53440704D01*
X88138095Y-53440704D02*
X88138095Y-53393085D01*
X88138095Y-53393085D02*
X88185714Y-53297847D01*
X88185714Y-53297847D02*
X88233333Y-53250228D01*
X88233333Y-53250228D02*
X88328571Y-53202609D01*
X88328571Y-53202609D02*
X88519047Y-53202609D01*
X88519047Y-53202609D02*
X88614285Y-53154990D01*
X88614285Y-53154990D02*
X88661904Y-53107371D01*
X88661904Y-53107371D02*
X88709523Y-53012133D01*
X88709523Y-53012133D02*
X88709523Y-52821657D01*
X88709523Y-52821657D02*
X88661904Y-52726419D01*
X88661904Y-52726419D02*
X88614285Y-52678800D01*
X88614285Y-52678800D02*
X88519047Y-52631180D01*
X88519047Y-52631180D02*
X88328571Y-52631180D01*
X88328571Y-52631180D02*
X88233333Y-52678800D01*
X88233333Y-52678800D02*
X88185714Y-52726419D01*
X88185714Y-52726419D02*
X88138095Y-52821657D01*
X88138095Y-52821657D02*
X88138095Y-53012133D01*
X88138095Y-53012133D02*
X88185714Y-53107371D01*
X88185714Y-53107371D02*
X88233333Y-53154990D01*
X88233333Y-53154990D02*
X88328571Y-53202609D01*
X68865714Y-53297847D02*
X68865714Y-52631180D01*
X69103809Y-53678800D02*
X69341904Y-52964514D01*
X69341904Y-52964514D02*
X68722857Y-52964514D01*
X67913333Y-53631180D02*
X68103809Y-53631180D01*
X68103809Y-53631180D02*
X68199047Y-53583561D01*
X68199047Y-53583561D02*
X68246666Y-53535942D01*
X68246666Y-53535942D02*
X68341904Y-53393085D01*
X68341904Y-53393085D02*
X68389523Y-53202609D01*
X68389523Y-53202609D02*
X68389523Y-52821657D01*
X68389523Y-52821657D02*
X68341904Y-52726419D01*
X68341904Y-52726419D02*
X68294285Y-52678800D01*
X68294285Y-52678800D02*
X68199047Y-52631180D01*
X68199047Y-52631180D02*
X68008571Y-52631180D01*
X68008571Y-52631180D02*
X67913333Y-52678800D01*
X67913333Y-52678800D02*
X67865714Y-52726419D01*
X67865714Y-52726419D02*
X67818095Y-52821657D01*
X67818095Y-52821657D02*
X67818095Y-53059752D01*
X67818095Y-53059752D02*
X67865714Y-53154990D01*
X67865714Y-53154990D02*
X67913333Y-53202609D01*
X67913333Y-53202609D02*
X68008571Y-53250228D01*
X68008571Y-53250228D02*
X68199047Y-53250228D01*
X68199047Y-53250228D02*
X68294285Y-53202609D01*
X68294285Y-53202609D02*
X68341904Y-53154990D01*
X68341904Y-53154990D02*
X68389523Y-53059752D01*
X115061904Y-53535942D02*
X115014285Y-53583561D01*
X115014285Y-53583561D02*
X114919047Y-53631180D01*
X114919047Y-53631180D02*
X114680952Y-53631180D01*
X114680952Y-53631180D02*
X114585714Y-53583561D01*
X114585714Y-53583561D02*
X114538095Y-53535942D01*
X114538095Y-53535942D02*
X114490476Y-53440704D01*
X114490476Y-53440704D02*
X114490476Y-53345466D01*
X114490476Y-53345466D02*
X114538095Y-53202609D01*
X114538095Y-53202609D02*
X115109523Y-52631180D01*
X115109523Y-52631180D02*
X114490476Y-52631180D01*
X113919047Y-53202609D02*
X114014285Y-53250228D01*
X114014285Y-53250228D02*
X114061904Y-53297847D01*
X114061904Y-53297847D02*
X114109523Y-53393085D01*
X114109523Y-53393085D02*
X114109523Y-53440704D01*
X114109523Y-53440704D02*
X114061904Y-53535942D01*
X114061904Y-53535942D02*
X114014285Y-53583561D01*
X114014285Y-53583561D02*
X113919047Y-53631180D01*
X113919047Y-53631180D02*
X113728571Y-53631180D01*
X113728571Y-53631180D02*
X113633333Y-53583561D01*
X113633333Y-53583561D02*
X113585714Y-53535942D01*
X113585714Y-53535942D02*
X113538095Y-53440704D01*
X113538095Y-53440704D02*
X113538095Y-53393085D01*
X113538095Y-53393085D02*
X113585714Y-53297847D01*
X113585714Y-53297847D02*
X113633333Y-53250228D01*
X113633333Y-53250228D02*
X113728571Y-53202609D01*
X113728571Y-53202609D02*
X113919047Y-53202609D01*
X113919047Y-53202609D02*
X114014285Y-53154990D01*
X114014285Y-53154990D02*
X114061904Y-53107371D01*
X114061904Y-53107371D02*
X114109523Y-53012133D01*
X114109523Y-53012133D02*
X114109523Y-52821657D01*
X114109523Y-52821657D02*
X114061904Y-52726419D01*
X114061904Y-52726419D02*
X114014285Y-52678800D01*
X114014285Y-52678800D02*
X113919047Y-52631180D01*
X113919047Y-52631180D02*
X113728571Y-52631180D01*
X113728571Y-52631180D02*
X113633333Y-52678800D01*
X113633333Y-52678800D02*
X113585714Y-52726419D01*
X113585714Y-52726419D02*
X113538095Y-52821657D01*
X113538095Y-52821657D02*
X113538095Y-53012133D01*
X113538095Y-53012133D02*
X113585714Y-53107371D01*
X113585714Y-53107371D02*
X113633333Y-53154990D01*
X113633333Y-53154990D02*
X113728571Y-53202609D01*
X98869523Y-64208819D02*
X98298095Y-64208819D01*
X98583809Y-64208819D02*
X98583809Y-63208819D01*
X98583809Y-63208819D02*
X98488571Y-63351676D01*
X98488571Y-63351676D02*
X98393333Y-63446914D01*
X98393333Y-63446914D02*
X98298095Y-63494533D01*
X99726666Y-63542152D02*
X99726666Y-64208819D01*
X99488571Y-63161200D02*
X99250476Y-63875485D01*
X99250476Y-63875485D02*
X99869523Y-63875485D01*
X107489523Y-53631180D02*
X106870476Y-53631180D01*
X106870476Y-53631180D02*
X107203809Y-53250228D01*
X107203809Y-53250228D02*
X107060952Y-53250228D01*
X107060952Y-53250228D02*
X106965714Y-53202609D01*
X106965714Y-53202609D02*
X106918095Y-53154990D01*
X106918095Y-53154990D02*
X106870476Y-53059752D01*
X106870476Y-53059752D02*
X106870476Y-52821657D01*
X106870476Y-52821657D02*
X106918095Y-52726419D01*
X106918095Y-52726419D02*
X106965714Y-52678800D01*
X106965714Y-52678800D02*
X107060952Y-52631180D01*
X107060952Y-52631180D02*
X107346666Y-52631180D01*
X107346666Y-52631180D02*
X107441904Y-52678800D01*
X107441904Y-52678800D02*
X107489523Y-52726419D01*
X105918095Y-52631180D02*
X106489523Y-52631180D01*
X106203809Y-52631180D02*
X106203809Y-53631180D01*
X106203809Y-53631180D02*
X106299047Y-53488323D01*
X106299047Y-53488323D02*
X106394285Y-53393085D01*
X106394285Y-53393085D02*
X106489523Y-53345466D01*
X110029523Y-53631180D02*
X109410476Y-53631180D01*
X109410476Y-53631180D02*
X109743809Y-53250228D01*
X109743809Y-53250228D02*
X109600952Y-53250228D01*
X109600952Y-53250228D02*
X109505714Y-53202609D01*
X109505714Y-53202609D02*
X109458095Y-53154990D01*
X109458095Y-53154990D02*
X109410476Y-53059752D01*
X109410476Y-53059752D02*
X109410476Y-52821657D01*
X109410476Y-52821657D02*
X109458095Y-52726419D01*
X109458095Y-52726419D02*
X109505714Y-52678800D01*
X109505714Y-52678800D02*
X109600952Y-52631180D01*
X109600952Y-52631180D02*
X109886666Y-52631180D01*
X109886666Y-52631180D02*
X109981904Y-52678800D01*
X109981904Y-52678800D02*
X110029523Y-52726419D01*
X108791428Y-53631180D02*
X108696190Y-53631180D01*
X108696190Y-53631180D02*
X108600952Y-53583561D01*
X108600952Y-53583561D02*
X108553333Y-53535942D01*
X108553333Y-53535942D02*
X108505714Y-53440704D01*
X108505714Y-53440704D02*
X108458095Y-53250228D01*
X108458095Y-53250228D02*
X108458095Y-53012133D01*
X108458095Y-53012133D02*
X108505714Y-52821657D01*
X108505714Y-52821657D02*
X108553333Y-52726419D01*
X108553333Y-52726419D02*
X108600952Y-52678800D01*
X108600952Y-52678800D02*
X108696190Y-52631180D01*
X108696190Y-52631180D02*
X108791428Y-52631180D01*
X108791428Y-52631180D02*
X108886666Y-52678800D01*
X108886666Y-52678800D02*
X108934285Y-52726419D01*
X108934285Y-52726419D02*
X108981904Y-52821657D01*
X108981904Y-52821657D02*
X109029523Y-53012133D01*
X109029523Y-53012133D02*
X109029523Y-53250228D01*
X109029523Y-53250228D02*
X108981904Y-53440704D01*
X108981904Y-53440704D02*
X108934285Y-53535942D01*
X108934285Y-53535942D02*
X108886666Y-53583561D01*
X108886666Y-53583561D02*
X108791428Y-53631180D01*
X79025714Y-53297847D02*
X79025714Y-52631180D01*
X79263809Y-53678800D02*
X79501904Y-52964514D01*
X79501904Y-52964514D02*
X78882857Y-52964514D01*
X78549523Y-53535942D02*
X78501904Y-53583561D01*
X78501904Y-53583561D02*
X78406666Y-53631180D01*
X78406666Y-53631180D02*
X78168571Y-53631180D01*
X78168571Y-53631180D02*
X78073333Y-53583561D01*
X78073333Y-53583561D02*
X78025714Y-53535942D01*
X78025714Y-53535942D02*
X77978095Y-53440704D01*
X77978095Y-53440704D02*
X77978095Y-53345466D01*
X77978095Y-53345466D02*
X78025714Y-53202609D01*
X78025714Y-53202609D02*
X78597142Y-52631180D01*
X78597142Y-52631180D02*
X77978095Y-52631180D01*
X73945714Y-53297847D02*
X73945714Y-52631180D01*
X74183809Y-53678800D02*
X74421904Y-52964514D01*
X74421904Y-52964514D02*
X73802857Y-52964514D01*
X72993333Y-53297847D02*
X72993333Y-52631180D01*
X73231428Y-53678800D02*
X73469523Y-52964514D01*
X73469523Y-52964514D02*
X72850476Y-52964514D01*
X63785714Y-53297847D02*
X63785714Y-52631180D01*
X64023809Y-53678800D02*
X64261904Y-52964514D01*
X64261904Y-52964514D02*
X63642857Y-52964514D01*
X63119047Y-53202609D02*
X63214285Y-53250228D01*
X63214285Y-53250228D02*
X63261904Y-53297847D01*
X63261904Y-53297847D02*
X63309523Y-53393085D01*
X63309523Y-53393085D02*
X63309523Y-53440704D01*
X63309523Y-53440704D02*
X63261904Y-53535942D01*
X63261904Y-53535942D02*
X63214285Y-53583561D01*
X63214285Y-53583561D02*
X63119047Y-53631180D01*
X63119047Y-53631180D02*
X62928571Y-53631180D01*
X62928571Y-53631180D02*
X62833333Y-53583561D01*
X62833333Y-53583561D02*
X62785714Y-53535942D01*
X62785714Y-53535942D02*
X62738095Y-53440704D01*
X62738095Y-53440704D02*
X62738095Y-53393085D01*
X62738095Y-53393085D02*
X62785714Y-53297847D01*
X62785714Y-53297847D02*
X62833333Y-53250228D01*
X62833333Y-53250228D02*
X62928571Y-53202609D01*
X62928571Y-53202609D02*
X63119047Y-53202609D01*
X63119047Y-53202609D02*
X63214285Y-53154990D01*
X63214285Y-53154990D02*
X63261904Y-53107371D01*
X63261904Y-53107371D02*
X63309523Y-53012133D01*
X63309523Y-53012133D02*
X63309523Y-52821657D01*
X63309523Y-52821657D02*
X63261904Y-52726419D01*
X63261904Y-52726419D02*
X63214285Y-52678800D01*
X63214285Y-52678800D02*
X63119047Y-52631180D01*
X63119047Y-52631180D02*
X62928571Y-52631180D01*
X62928571Y-52631180D02*
X62833333Y-52678800D01*
X62833333Y-52678800D02*
X62785714Y-52726419D01*
X62785714Y-52726419D02*
X62738095Y-52821657D01*
X62738095Y-52821657D02*
X62738095Y-53012133D01*
X62738095Y-53012133D02*
X62785714Y-53107371D01*
X62785714Y-53107371D02*
X62833333Y-53154990D01*
X62833333Y-53154990D02*
X62928571Y-53202609D01*
X96329523Y-64208819D02*
X95758095Y-64208819D01*
X96043809Y-64208819D02*
X96043809Y-63208819D01*
X96043809Y-63208819D02*
X95948571Y-63351676D01*
X95948571Y-63351676D02*
X95853333Y-63446914D01*
X95853333Y-63446914D02*
X95758095Y-63494533D01*
X96662857Y-63208819D02*
X97281904Y-63208819D01*
X97281904Y-63208819D02*
X96948571Y-63589771D01*
X96948571Y-63589771D02*
X97091428Y-63589771D01*
X97091428Y-63589771D02*
X97186666Y-63637390D01*
X97186666Y-63637390D02*
X97234285Y-63685009D01*
X97234285Y-63685009D02*
X97281904Y-63780247D01*
X97281904Y-63780247D02*
X97281904Y-64018342D01*
X97281904Y-64018342D02*
X97234285Y-64113580D01*
X97234285Y-64113580D02*
X97186666Y-64161200D01*
X97186666Y-64161200D02*
X97091428Y-64208819D01*
X97091428Y-64208819D02*
X96805714Y-64208819D01*
X96805714Y-64208819D02*
X96710476Y-64161200D01*
X96710476Y-64161200D02*
X96662857Y-64113580D01*
X65754286Y-63304057D02*
X65801905Y-63256438D01*
X65801905Y-63256438D02*
X65897143Y-63208819D01*
X65897143Y-63208819D02*
X66135238Y-63208819D01*
X66135238Y-63208819D02*
X66230476Y-63256438D01*
X66230476Y-63256438D02*
X66278095Y-63304057D01*
X66278095Y-63304057D02*
X66325714Y-63399295D01*
X66325714Y-63399295D02*
X66325714Y-63494533D01*
X66325714Y-63494533D02*
X66278095Y-63637390D01*
X66278095Y-63637390D02*
X65706667Y-64208819D01*
X65706667Y-64208819D02*
X66325714Y-64208819D01*
X87169523Y-53631180D02*
X86550476Y-53631180D01*
X86550476Y-53631180D02*
X86883809Y-53250228D01*
X86883809Y-53250228D02*
X86740952Y-53250228D01*
X86740952Y-53250228D02*
X86645714Y-53202609D01*
X86645714Y-53202609D02*
X86598095Y-53154990D01*
X86598095Y-53154990D02*
X86550476Y-53059752D01*
X86550476Y-53059752D02*
X86550476Y-52821657D01*
X86550476Y-52821657D02*
X86598095Y-52726419D01*
X86598095Y-52726419D02*
X86645714Y-52678800D01*
X86645714Y-52678800D02*
X86740952Y-52631180D01*
X86740952Y-52631180D02*
X87026666Y-52631180D01*
X87026666Y-52631180D02*
X87121904Y-52678800D01*
X87121904Y-52678800D02*
X87169523Y-52726419D01*
X86074285Y-52631180D02*
X85883809Y-52631180D01*
X85883809Y-52631180D02*
X85788571Y-52678800D01*
X85788571Y-52678800D02*
X85740952Y-52726419D01*
X85740952Y-52726419D02*
X85645714Y-52869276D01*
X85645714Y-52869276D02*
X85598095Y-53059752D01*
X85598095Y-53059752D02*
X85598095Y-53440704D01*
X85598095Y-53440704D02*
X85645714Y-53535942D01*
X85645714Y-53535942D02*
X85693333Y-53583561D01*
X85693333Y-53583561D02*
X85788571Y-53631180D01*
X85788571Y-53631180D02*
X85979047Y-53631180D01*
X85979047Y-53631180D02*
X86074285Y-53583561D01*
X86074285Y-53583561D02*
X86121904Y-53535942D01*
X86121904Y-53535942D02*
X86169523Y-53440704D01*
X86169523Y-53440704D02*
X86169523Y-53202609D01*
X86169523Y-53202609D02*
X86121904Y-53107371D01*
X86121904Y-53107371D02*
X86074285Y-53059752D01*
X86074285Y-53059752D02*
X85979047Y-53012133D01*
X85979047Y-53012133D02*
X85788571Y-53012133D01*
X85788571Y-53012133D02*
X85693333Y-53059752D01*
X85693333Y-53059752D02*
X85645714Y-53107371D01*
X85645714Y-53107371D02*
X85598095Y-53202609D01*
X99869523Y-53631180D02*
X99250476Y-53631180D01*
X99250476Y-53631180D02*
X99583809Y-53250228D01*
X99583809Y-53250228D02*
X99440952Y-53250228D01*
X99440952Y-53250228D02*
X99345714Y-53202609D01*
X99345714Y-53202609D02*
X99298095Y-53154990D01*
X99298095Y-53154990D02*
X99250476Y-53059752D01*
X99250476Y-53059752D02*
X99250476Y-52821657D01*
X99250476Y-52821657D02*
X99298095Y-52726419D01*
X99298095Y-52726419D02*
X99345714Y-52678800D01*
X99345714Y-52678800D02*
X99440952Y-52631180D01*
X99440952Y-52631180D02*
X99726666Y-52631180D01*
X99726666Y-52631180D02*
X99821904Y-52678800D01*
X99821904Y-52678800D02*
X99869523Y-52726419D01*
X98393333Y-53297847D02*
X98393333Y-52631180D01*
X98631428Y-53678800D02*
X98869523Y-52964514D01*
X98869523Y-52964514D02*
X98250476Y-52964514D01*
X66325714Y-53297847D02*
X66325714Y-52631180D01*
X66563809Y-53678800D02*
X66801904Y-52964514D01*
X66801904Y-52964514D02*
X66182857Y-52964514D01*
X65897142Y-53631180D02*
X65230476Y-53631180D01*
X65230476Y-53631180D02*
X65659047Y-52631180D01*
X73898095Y-63208819D02*
X73421905Y-63208819D01*
X73421905Y-63208819D02*
X73374286Y-63685009D01*
X73374286Y-63685009D02*
X73421905Y-63637390D01*
X73421905Y-63637390D02*
X73517143Y-63589771D01*
X73517143Y-63589771D02*
X73755238Y-63589771D01*
X73755238Y-63589771D02*
X73850476Y-63637390D01*
X73850476Y-63637390D02*
X73898095Y-63685009D01*
X73898095Y-63685009D02*
X73945714Y-63780247D01*
X73945714Y-63780247D02*
X73945714Y-64018342D01*
X73945714Y-64018342D02*
X73898095Y-64113580D01*
X73898095Y-64113580D02*
X73850476Y-64161200D01*
X73850476Y-64161200D02*
X73755238Y-64208819D01*
X73755238Y-64208819D02*
X73517143Y-64208819D01*
X73517143Y-64208819D02*
X73421905Y-64161200D01*
X73421905Y-64161200D02*
X73374286Y-64113580D01*
X71310476Y-63542152D02*
X71310476Y-64208819D01*
X71072381Y-63161200D02*
X70834286Y-63875485D01*
X70834286Y-63875485D02*
X71453333Y-63875485D01*
X76485714Y-53297847D02*
X76485714Y-52631180D01*
X76723809Y-53678800D02*
X76961904Y-52964514D01*
X76961904Y-52964514D02*
X76342857Y-52964514D01*
X76057142Y-53631180D02*
X75438095Y-53631180D01*
X75438095Y-53631180D02*
X75771428Y-53250228D01*
X75771428Y-53250228D02*
X75628571Y-53250228D01*
X75628571Y-53250228D02*
X75533333Y-53202609D01*
X75533333Y-53202609D02*
X75485714Y-53154990D01*
X75485714Y-53154990D02*
X75438095Y-53059752D01*
X75438095Y-53059752D02*
X75438095Y-52821657D01*
X75438095Y-52821657D02*
X75485714Y-52726419D01*
X75485714Y-52726419D02*
X75533333Y-52678800D01*
X75533333Y-52678800D02*
X75628571Y-52631180D01*
X75628571Y-52631180D02*
X75914285Y-52631180D01*
X75914285Y-52631180D02*
X76009523Y-52678800D01*
X76009523Y-52678800D02*
X76057142Y-52726419D01*
X118618095Y-63304057D02*
X118665714Y-63256438D01*
X118665714Y-63256438D02*
X118760952Y-63208819D01*
X118760952Y-63208819D02*
X118999047Y-63208819D01*
X118999047Y-63208819D02*
X119094285Y-63256438D01*
X119094285Y-63256438D02*
X119141904Y-63304057D01*
X119141904Y-63304057D02*
X119189523Y-63399295D01*
X119189523Y-63399295D02*
X119189523Y-63494533D01*
X119189523Y-63494533D02*
X119141904Y-63637390D01*
X119141904Y-63637390D02*
X118570476Y-64208819D01*
X118570476Y-64208819D02*
X119189523Y-64208819D01*
X119522857Y-63208819D02*
X120141904Y-63208819D01*
X120141904Y-63208819D02*
X119808571Y-63589771D01*
X119808571Y-63589771D02*
X119951428Y-63589771D01*
X119951428Y-63589771D02*
X120046666Y-63637390D01*
X120046666Y-63637390D02*
X120094285Y-63685009D01*
X120094285Y-63685009D02*
X120141904Y-63780247D01*
X120141904Y-63780247D02*
X120141904Y-64018342D01*
X120141904Y-64018342D02*
X120094285Y-64113580D01*
X120094285Y-64113580D02*
X120046666Y-64161200D01*
X120046666Y-64161200D02*
X119951428Y-64208819D01*
X119951428Y-64208819D02*
X119665714Y-64208819D01*
X119665714Y-64208819D02*
X119570476Y-64161200D01*
X119570476Y-64161200D02*
X119522857Y-64113580D01*
D11*
%TO.C,U1*%
X87604689Y-58420000D02*
X87922887Y-58738198D01*
X87922887Y-58101802D02*
X87604689Y-58420000D01*
X92391802Y-53632887D02*
X92710000Y-53314689D01*
X92710000Y-53314689D02*
X93028198Y-53632887D01*
X92710000Y-63525311D02*
X92391802Y-63207113D01*
X93028198Y-63207113D02*
X92710000Y-63525311D01*
X97497113Y-58738198D02*
X97815311Y-58420000D01*
X97815311Y-58420000D02*
X97497113Y-58101802D01*
D12*
X86621038Y-58420000D02*
G75*
G02*
X86071040Y-58420000I-274999J0D01*
G01*
X86071040Y-58420000D02*
G75*
G02*
X86621038Y-58420000I274999J0D01*
G01*
%TD*%
M02*
