%TF.GenerationSoftware,KiCad,Pcbnew,9.0.1*%
%TF.CreationDate,2025-05-27T23:04:16+02:00*%
%TF.ProjectId,TQFP48,54514650-3438-42e6-9b69-6361645f7063,rev?*%
%TF.SameCoordinates,Original*%
%TF.FileFunction,Copper,L1,Top*%
%TF.FilePolarity,Positive*%
%FSLAX46Y46*%
G04 Gerber Fmt 4.6, Leading zero omitted, Abs format (unit mm)*
G04 Created by KiCad (PCBNEW 9.0.1) date 2025-05-27 23:04:16*
%MOMM*%
%LPD*%
G01*
G04 APERTURE LIST*
G04 Aperture macros list*
%AMRoundRect*
0 Rectangle with rounded corners*
0 $1 Rounding radius*
0 $2 $3 $4 $5 $6 $7 $8 $9 X,Y pos of 4 corners*
0 Add a 4 corners polygon primitive as box body*
4,1,4,$2,$3,$4,$5,$6,$7,$8,$9,$2,$3,0*
0 Add four circle primitives for the rounded corners*
1,1,$1+$1,$2,$3*
1,1,$1+$1,$4,$5*
1,1,$1+$1,$6,$7*
1,1,$1+$1,$8,$9*
0 Add four rect primitives between the rounded corners*
20,1,$1+$1,$2,$3,$4,$5,0*
20,1,$1+$1,$4,$5,$6,$7,0*
20,1,$1+$1,$6,$7,$8,$9,0*
20,1,$1+$1,$8,$9,$2,$3,0*%
G04 Aperture macros list end*
%TA.AperFunction,SMDPad,CuDef*%
%ADD10RoundRect,0.075000X-0.415425X-0.521491X0.521491X0.415425X0.415425X0.521491X-0.521491X-0.415425X0*%
%TD*%
%TA.AperFunction,SMDPad,CuDef*%
%ADD11RoundRect,0.075000X0.415425X-0.521491X0.521491X-0.415425X-0.415425X0.521491X-0.521491X0.415425X0*%
%TD*%
%TA.AperFunction,ComponentPad*%
%ADD12C,1.700000*%
%TD*%
%TA.AperFunction,Conductor*%
%ADD13C,0.300000*%
%TD*%
%TA.AperFunction,Conductor*%
%ADD14C,0.200000*%
%TD*%
G04 APERTURE END LIST*
D10*
%TO.P,U1,1,P1*%
%TO.N,P1*%
X87822124Y-59418788D03*
%TO.P,U1,2,P2*%
%TO.N,P2*%
X88175678Y-59772342D03*
%TO.P,U1,3,P3*%
%TO.N,P3*%
X88529231Y-60125895D03*
%TO.P,U1,4,P4*%
%TO.N,P4*%
X88882785Y-60479449D03*
%TO.P,U1,5,P5*%
%TO.N,P5*%
X89236338Y-60833002D03*
%TO.P,U1,6,P6*%
%TO.N,P6*%
X89589891Y-61186555D03*
%TO.P,U1,7,P7*%
%TO.N,P7*%
X89943445Y-61540109D03*
%TO.P,U1,8,P8*%
%TO.N,P8*%
X90296998Y-61893662D03*
%TO.P,U1,9,P9*%
%TO.N,P9*%
X90650551Y-62247215D03*
%TO.P,U1,10,P10*%
%TO.N,P10*%
X91004105Y-62600769D03*
%TO.P,U1,11,P11*%
%TO.N,P11*%
X91357658Y-62954322D03*
%TO.P,U1,12,P12*%
%TO.N,P12*%
X91711212Y-63307876D03*
D11*
%TO.P,U1,13,P13*%
%TO.N,P13*%
X93708788Y-63307876D03*
%TO.P,U1,14,P14*%
%TO.N,P14*%
X94062342Y-62954322D03*
%TO.P,U1,15,P15*%
%TO.N,P15*%
X94415895Y-62600769D03*
%TO.P,U1,16,P16*%
%TO.N,P16*%
X94769449Y-62247215D03*
%TO.P,U1,17,P17*%
%TO.N,P17*%
X95123002Y-61893662D03*
%TO.P,U1,18,P18*%
%TO.N,P18*%
X95476555Y-61540109D03*
%TO.P,U1,19,P19*%
%TO.N,P19*%
X95830109Y-61186555D03*
%TO.P,U1,20,P20*%
%TO.N,P20*%
X96183662Y-60833002D03*
%TO.P,U1,21,P21*%
%TO.N,P21*%
X96537215Y-60479449D03*
%TO.P,U1,22,P22*%
%TO.N,P22*%
X96890769Y-60125895D03*
%TO.P,U1,23,P23*%
%TO.N,P23*%
X97244322Y-59772342D03*
%TO.P,U1,24,P24*%
%TO.N,P24*%
X97597876Y-59418788D03*
D10*
%TO.P,U1,25,P25*%
%TO.N,P25*%
X97597876Y-57421212D03*
%TO.P,U1,26,P26*%
%TO.N,P26*%
X97244322Y-57067658D03*
%TO.P,U1,27,P27*%
%TO.N,P27*%
X96890769Y-56714105D03*
%TO.P,U1,28,P28*%
%TO.N,P28*%
X96537215Y-56360551D03*
%TO.P,U1,29,P29*%
%TO.N,P29*%
X96183662Y-56006998D03*
%TO.P,U1,30,P30*%
%TO.N,P30*%
X95830109Y-55653445D03*
%TO.P,U1,31,P31*%
%TO.N,P31*%
X95476555Y-55299891D03*
%TO.P,U1,32,P32*%
%TO.N,P32*%
X95123002Y-54946338D03*
%TO.P,U1,33,P33*%
%TO.N,P33*%
X94769449Y-54592785D03*
%TO.P,U1,34,P34*%
%TO.N,P34*%
X94415895Y-54239231D03*
%TO.P,U1,35,P35*%
%TO.N,P35*%
X94062342Y-53885678D03*
%TO.P,U1,36,P36*%
%TO.N,P36*%
X93708788Y-53532124D03*
D11*
%TO.P,U1,37,P37*%
%TO.N,P37*%
X91711212Y-53532124D03*
%TO.P,U1,38,P38*%
%TO.N,P38*%
X91357658Y-53885678D03*
%TO.P,U1,39,P39*%
%TO.N,P39*%
X91004105Y-54239231D03*
%TO.P,U1,40,P40*%
%TO.N,P40*%
X90650551Y-54592785D03*
%TO.P,U1,41,P41*%
%TO.N,P41*%
X90296998Y-54946338D03*
%TO.P,U1,42,P42*%
%TO.N,P42*%
X89943445Y-55299891D03*
%TO.P,U1,43,P43*%
%TO.N,P43*%
X89589891Y-55653445D03*
%TO.P,U1,44,P44*%
%TO.N,P44*%
X89236338Y-56006998D03*
%TO.P,U1,45,P45*%
%TO.N,P45*%
X88882785Y-56360551D03*
%TO.P,U1,46,P46*%
%TO.N,P46*%
X88529231Y-56714105D03*
%TO.P,U1,47,P47*%
%TO.N,P47*%
X88175678Y-57067658D03*
%TO.P,U1,48,P48*%
%TO.N,P48*%
X87822124Y-57421212D03*
%TD*%
D12*
%TO.P,J1,1,Pin_1*%
%TO.N,P1*%
X63500000Y-66040000D03*
%TO.P,J1,2,Pin_2*%
%TO.N,P2*%
X66040000Y-66040000D03*
%TO.P,J1,3,Pin_3*%
%TO.N,P3*%
X68580000Y-66040000D03*
%TO.P,J1,4,Pin_4*%
%TO.N,P4*%
X71120000Y-66040000D03*
%TO.P,J1,5,Pin_5*%
%TO.N,P5*%
X73660000Y-66040000D03*
%TO.P,J1,6,Pin_6*%
%TO.N,P6*%
X76200000Y-66040000D03*
%TO.P,J1,7,Pin_7*%
%TO.N,P7*%
X78740000Y-66040000D03*
%TO.P,J1,8,Pin_8*%
%TO.N,P8*%
X81280000Y-66040000D03*
%TO.P,J1,9,Pin_9*%
%TO.N,P9*%
X83820000Y-66040000D03*
%TO.P,J1,10,Pin_10*%
%TO.N,P10*%
X86360000Y-66040000D03*
%TO.P,J1,11,Pin_11*%
%TO.N,P11*%
X88900000Y-66040000D03*
%TO.P,J1,12,Pin_12*%
%TO.N,P12*%
X91440000Y-66040000D03*
%TO.P,J1,13,Pin_13*%
%TO.N,P13*%
X93980000Y-66040000D03*
%TO.P,J1,14,Pin_14*%
%TO.N,P14*%
X96520000Y-66040000D03*
%TO.P,J1,15,Pin_15*%
%TO.N,P15*%
X99060000Y-66040000D03*
%TO.P,J1,16,Pin_16*%
%TO.N,P16*%
X101600000Y-66040000D03*
%TO.P,J1,17,Pin_17*%
%TO.N,P17*%
X104140000Y-66040000D03*
%TO.P,J1,18,Pin_18*%
%TO.N,P18*%
X106680000Y-66040000D03*
%TO.P,J1,19,Pin_19*%
%TO.N,P19*%
X109220000Y-66040000D03*
%TO.P,J1,20,Pin_20*%
%TO.N,P20*%
X111760000Y-66040000D03*
%TO.P,J1,21,Pin_21*%
%TO.N,P21*%
X114300000Y-66040000D03*
%TO.P,J1,22,Pin_22*%
%TO.N,P22*%
X116840000Y-66040000D03*
%TO.P,J1,23,Pin_23*%
%TO.N,P23*%
X119380000Y-66040000D03*
%TO.P,J1,24,Pin_24*%
%TO.N,P24*%
X121920000Y-66040000D03*
%TD*%
%TO.P,J2,1,Pin_1*%
%TO.N,P25*%
X121920000Y-50800000D03*
%TO.P,J2,2,Pin_2*%
%TO.N,P26*%
X119380000Y-50800000D03*
%TO.P,J2,3,Pin_3*%
%TO.N,P27*%
X116840000Y-50800000D03*
%TO.P,J2,4,Pin_4*%
%TO.N,P28*%
X114300000Y-50800000D03*
%TO.P,J2,5,Pin_5*%
%TO.N,P29*%
X111760000Y-50800000D03*
%TO.P,J2,6,Pin_6*%
%TO.N,P30*%
X109220000Y-50800000D03*
%TO.P,J2,7,Pin_7*%
%TO.N,P31*%
X106680000Y-50800000D03*
%TO.P,J2,8,Pin_8*%
%TO.N,P32*%
X104140000Y-50800000D03*
%TO.P,J2,9,Pin_9*%
%TO.N,P33*%
X101600000Y-50800000D03*
%TO.P,J2,10,Pin_10*%
%TO.N,P34*%
X99060000Y-50800000D03*
%TO.P,J2,11,Pin_11*%
%TO.N,P35*%
X96520000Y-50800000D03*
%TO.P,J2,12,Pin_12*%
%TO.N,P36*%
X93980000Y-50800000D03*
%TO.P,J2,13,Pin_13*%
%TO.N,P37*%
X91440000Y-50800000D03*
%TO.P,J2,14,Pin_14*%
%TO.N,P38*%
X88900000Y-50800000D03*
%TO.P,J2,15,Pin_15*%
%TO.N,P39*%
X86360000Y-50800000D03*
%TO.P,J2,16,Pin_16*%
%TO.N,P40*%
X83820000Y-50800000D03*
%TO.P,J2,17,Pin_17*%
%TO.N,P41*%
X81280000Y-50800000D03*
%TO.P,J2,18,Pin_18*%
%TO.N,P42*%
X78740000Y-50800000D03*
%TO.P,J2,19,Pin_19*%
%TO.N,P43*%
X76200000Y-50800000D03*
%TO.P,J2,20,Pin_20*%
%TO.N,P44*%
X73660000Y-50800000D03*
%TO.P,J2,21,Pin_21*%
%TO.N,P45*%
X71120000Y-50800000D03*
%TO.P,J2,22,Pin_22*%
%TO.N,P46*%
X68580000Y-50800000D03*
%TO.P,J2,23,Pin_23*%
%TO.N,P47*%
X66040000Y-50800000D03*
%TO.P,J2,24,Pin_24*%
%TO.N,P48*%
X63500000Y-50800000D03*
%TD*%
D13*
%TO.N,P38*%
X91357658Y-53885678D02*
X90424000Y-52952020D01*
X90424000Y-52952020D02*
X90424000Y-52324000D01*
X90424000Y-52324000D02*
X88900000Y-50800000D01*
%TO.N,P35*%
X94062342Y-53885678D02*
X94996000Y-52952020D01*
X94996000Y-52952020D02*
X94996000Y-52324000D01*
X94996000Y-52324000D02*
X96520000Y-50800000D01*
%TO.N,P37*%
X91711212Y-53532124D02*
X92329000Y-52914336D01*
X92329000Y-51689000D02*
X91711212Y-51071212D01*
X92329000Y-52914336D02*
X92329000Y-51689000D01*
%TO.N,P36*%
X93708788Y-53532124D02*
X93091000Y-52914336D01*
X93091000Y-52914336D02*
X93091000Y-51689000D01*
X93091000Y-51689000D02*
X93708788Y-51071212D01*
%TO.N,P11*%
X91357658Y-62954322D02*
X90297000Y-64014980D01*
X90297000Y-64014980D02*
X90297000Y-64643000D01*
X90297000Y-64643000D02*
X88900000Y-66040000D01*
%TO.N,P14*%
X94062342Y-62954322D02*
X95123000Y-64014980D01*
X95123000Y-64014980D02*
X95123000Y-64643000D01*
X95123000Y-64643000D02*
X96520000Y-66040000D01*
%TO.N,P13*%
X93708788Y-63307876D02*
X93091000Y-63925664D01*
X93091000Y-63925664D02*
X93091000Y-65151000D01*
X93091000Y-65151000D02*
X93980000Y-66040000D01*
%TO.N,P12*%
X91711212Y-63307876D02*
X92329000Y-63925664D01*
X92329000Y-63925664D02*
X92329000Y-65151000D01*
X92329000Y-65151000D02*
X91440000Y-66040000D01*
%TO.N,P41*%
X90296998Y-54946338D02*
X88436660Y-53086000D01*
X83566000Y-53086000D02*
X81280000Y-50800000D01*
X88436660Y-53086000D02*
X83566000Y-53086000D01*
%TO.N,P4*%
X88882785Y-60479449D02*
X87640234Y-61722000D01*
X87640234Y-61722000D02*
X75438000Y-61722000D01*
X75438000Y-61722000D02*
X71120000Y-66040000D01*
%TO.N,P17*%
X95123002Y-61893662D02*
X96983340Y-63754000D01*
X101854000Y-63754000D02*
X104140000Y-66040000D01*
X96983340Y-63754000D02*
X101854000Y-63754000D01*
%TO.N,P28*%
X97779766Y-55118000D02*
X109982000Y-55118000D01*
X96537215Y-56360551D02*
X97779766Y-55118000D01*
X109982000Y-55118000D02*
X114300000Y-50800000D01*
%TO.N,P25*%
X116078000Y-56642000D02*
X121920000Y-50800000D01*
X97597876Y-57421212D02*
X98377088Y-56642000D01*
X98377088Y-56642000D02*
X116078000Y-56642000D01*
%TO.N,P30*%
X95830109Y-55653445D02*
X97381554Y-54102000D01*
X97381554Y-54102000D02*
X105918000Y-54102000D01*
X105918000Y-54102000D02*
X109220000Y-50800000D01*
%TO.N,P26*%
X98177980Y-56134000D02*
X114046000Y-56134000D01*
X114046000Y-56134000D02*
X119380000Y-50800000D01*
X97244322Y-57067658D02*
X98177980Y-56134000D01*
%TO.N,P10*%
X91004105Y-62600769D02*
X88834874Y-64770000D01*
X88834874Y-64770000D02*
X87630000Y-64770000D01*
X87630000Y-64770000D02*
X86360000Y-66040000D01*
%TO.N,P46*%
X87441126Y-55626000D02*
X73406000Y-55626000D01*
X73406000Y-55626000D02*
X68580000Y-50800000D01*
X88529231Y-56714105D02*
X87441126Y-55626000D01*
%TO.N,P33*%
X96784234Y-52578000D02*
X99822000Y-52578000D01*
X99822000Y-52578000D02*
X101600000Y-50800000D01*
X94769449Y-54592785D02*
X96784234Y-52578000D01*
%TO.N,P47*%
X87242020Y-56134000D02*
X71374000Y-56134000D01*
X88175678Y-57067658D02*
X87242020Y-56134000D01*
X71374000Y-56134000D02*
X66040000Y-50800000D01*
%TO.N,P3*%
X73406000Y-61214000D02*
X68580000Y-66040000D01*
X87441126Y-61214000D02*
X73406000Y-61214000D01*
X88529231Y-60125895D02*
X87441126Y-61214000D01*
%TO.N,P21*%
X96537215Y-60479449D02*
X97779766Y-61722000D01*
X109982000Y-61722000D02*
X114300000Y-66040000D01*
X97779766Y-61722000D02*
X109982000Y-61722000D01*
%TO.N,P5*%
X89236338Y-60833002D02*
X87839340Y-62230000D01*
X77470000Y-62230000D02*
X73660000Y-66040000D01*
X87839340Y-62230000D02*
X77470000Y-62230000D01*
%TO.N,P34*%
X94415895Y-54239231D02*
X96585126Y-52070000D01*
X96585126Y-52070000D02*
X97790000Y-52070000D01*
X97790000Y-52070000D02*
X99060000Y-50800000D01*
%TO.N,P19*%
X105918000Y-62738000D02*
X109220000Y-66040000D01*
X97381554Y-62738000D02*
X105918000Y-62738000D01*
X95830109Y-61186555D02*
X97381554Y-62738000D01*
%TO.N,P8*%
X83566000Y-63754000D02*
X81280000Y-66040000D01*
X90296998Y-61893662D02*
X88436660Y-63754000D01*
X88436660Y-63754000D02*
X83566000Y-63754000D01*
%TO.N,P31*%
X103886000Y-53594000D02*
X106680000Y-50800000D01*
X97182446Y-53594000D02*
X103886000Y-53594000D01*
X95476555Y-55299891D02*
X97182446Y-53594000D01*
%TO.N,P29*%
X96183662Y-56006998D02*
X97580660Y-54610000D01*
X107950000Y-54610000D02*
X111760000Y-50800000D01*
X97580660Y-54610000D02*
X107950000Y-54610000D01*
%TO.N,P2*%
X71381000Y-60699000D02*
X87249020Y-60699000D01*
X87249020Y-60699000D02*
X88175678Y-59772342D01*
X66040000Y-66040000D02*
X71381000Y-60699000D01*
%TO.N,P39*%
X88834874Y-52070000D02*
X87630000Y-52070000D01*
X87630000Y-52070000D02*
X86360000Y-50800000D01*
X91004105Y-54239231D02*
X88834874Y-52070000D01*
%TO.N,P32*%
X101854000Y-53086000D02*
X104140000Y-50800000D01*
X96983340Y-53086000D02*
X101854000Y-53086000D01*
X95123002Y-54946338D02*
X96983340Y-53086000D01*
%TO.N,P44*%
X87839340Y-54610000D02*
X77470000Y-54610000D01*
X89236338Y-56006998D02*
X87839340Y-54610000D01*
X77470000Y-54610000D02*
X73660000Y-50800000D01*
%TO.N,P24*%
X121920000Y-66040000D02*
X116078000Y-60198000D01*
X116078000Y-60198000D02*
X98377088Y-60198000D01*
X98377088Y-60198000D02*
X97597876Y-59418788D01*
%TO.N,P1*%
X87042912Y-60198000D02*
X69342000Y-60198000D01*
X87822124Y-59418788D02*
X87042912Y-60198000D01*
X69342000Y-60198000D02*
X63500000Y-66040000D01*
%TO.N,P16*%
X94769449Y-62247215D02*
X96784234Y-64262000D01*
X99822000Y-64262000D02*
X101600000Y-66040000D01*
X96784234Y-64262000D02*
X99822000Y-64262000D01*
%TO.N,P40*%
X90650551Y-54592785D02*
X88635766Y-52578000D01*
X88635766Y-52578000D02*
X85598000Y-52578000D01*
X85598000Y-52578000D02*
X83820000Y-50800000D01*
%TO.N,P15*%
X96585126Y-64770000D02*
X97790000Y-64770000D01*
X97790000Y-64770000D02*
X99060000Y-66040000D01*
X94415895Y-62600769D02*
X96585126Y-64770000D01*
%TO.N,P7*%
X89943445Y-61540109D02*
X88237554Y-63246000D01*
X81534000Y-63246000D02*
X78740000Y-66040000D01*
X88237554Y-63246000D02*
X81534000Y-63246000D01*
%TO.N,P9*%
X90650551Y-62247215D02*
X88635766Y-64262000D01*
X85598000Y-64262000D02*
X83820000Y-66040000D01*
X88635766Y-64262000D02*
X85598000Y-64262000D01*
%TO.N,P23*%
X114046000Y-60706000D02*
X119380000Y-66040000D01*
X98177980Y-60706000D02*
X114046000Y-60706000D01*
X97244322Y-59772342D02*
X98177980Y-60706000D01*
%TO.N,P20*%
X97580660Y-62230000D02*
X107950000Y-62230000D01*
X107950000Y-62230000D02*
X111760000Y-66040000D01*
X96183662Y-60833002D02*
X97580660Y-62230000D01*
%TO.N,P43*%
X88038446Y-54102000D02*
X79502000Y-54102000D01*
X79502000Y-54102000D02*
X76200000Y-50800000D01*
X89589891Y-55653445D02*
X88038446Y-54102000D01*
%TO.N,P42*%
X89943445Y-55299891D02*
X88237554Y-53594000D01*
X88237554Y-53594000D02*
X81534000Y-53594000D01*
X81534000Y-53594000D02*
X78740000Y-50800000D01*
%TO.N,P48*%
X87822124Y-57421212D02*
X87042912Y-56642000D01*
X69342000Y-56642000D02*
X63500000Y-50800000D01*
X87042912Y-56642000D02*
X69342000Y-56642000D01*
%TO.N,P6*%
X89589891Y-61186555D02*
X88038446Y-62738000D01*
X88038446Y-62738000D02*
X79502000Y-62738000D01*
X79502000Y-62738000D02*
X76200000Y-66040000D01*
D14*
%TO.N,P36*%
X93708788Y-51071212D02*
X93980000Y-50800000D01*
%TO.N,P37*%
X91711212Y-51071212D02*
X91440000Y-50800000D01*
D13*
%TO.N,P27*%
X112014000Y-55626000D02*
X116840000Y-50800000D01*
X97978874Y-55626000D02*
X112014000Y-55626000D01*
X96890769Y-56714105D02*
X97978874Y-55626000D01*
%TO.N,P22*%
X112014000Y-61214000D02*
X116840000Y-66040000D01*
X96890769Y-60125895D02*
X97978874Y-61214000D01*
X97978874Y-61214000D02*
X112014000Y-61214000D01*
%TO.N,P45*%
X75438000Y-55118000D02*
X71120000Y-50800000D01*
X87640234Y-55118000D02*
X75438000Y-55118000D01*
X88882785Y-56360551D02*
X87640234Y-55118000D01*
%TO.N,P18*%
X95476555Y-61540109D02*
X97182446Y-63246000D01*
X97182446Y-63246000D02*
X103886000Y-63246000D01*
X103886000Y-63246000D02*
X106680000Y-66040000D01*
%TD*%
%TA.AperFunction,Conductor*%
%TO.N,P38*%
G36*
X89731670Y-50638060D02*
G01*
X89736472Y-50644794D01*
X90014568Y-51697649D01*
X90013368Y-51706523D01*
X90011529Y-51708910D01*
X89808910Y-51911529D01*
X89800637Y-51914956D01*
X89797650Y-51914568D01*
X89435873Y-51819010D01*
X88744794Y-51636472D01*
X88737670Y-51631046D01*
X88736305Y-51622891D01*
X88897772Y-50806977D01*
X88902739Y-50799527D01*
X88906977Y-50797772D01*
X89722891Y-50636305D01*
X89731670Y-50638060D01*
G37*
%TD.AperFunction*%
%TD*%
%TA.AperFunction,Conductor*%
%TO.N,P35*%
G36*
X96475592Y-50790365D02*
G01*
X96513021Y-50797772D01*
X96520472Y-50802739D01*
X96522227Y-50806978D01*
X96683694Y-51622889D01*
X96681939Y-51631670D01*
X96675205Y-51636472D01*
X95622350Y-51914568D01*
X95613476Y-51913368D01*
X95611089Y-51911529D01*
X95408470Y-51708910D01*
X95405043Y-51700637D01*
X95405429Y-51697657D01*
X95683527Y-50644792D01*
X95688953Y-50637670D01*
X95697107Y-50636305D01*
X96475592Y-50790365D01*
G37*
%TD.AperFunction*%
%TD*%
%TA.AperFunction,Conductor*%
%TO.N,P37*%
G36*
X92270628Y-50638266D02*
G01*
X92275595Y-50645718D01*
X92275656Y-50646055D01*
X92476717Y-51846800D01*
X92474704Y-51855525D01*
X92467110Y-51860271D01*
X92465178Y-51860432D01*
X92180443Y-51860432D01*
X92177599Y-51860081D01*
X91284974Y-51636374D01*
X91277782Y-51631039D01*
X91276342Y-51622747D01*
X91438474Y-50806678D01*
X91443448Y-50799232D01*
X91447679Y-50797481D01*
X92261849Y-50636509D01*
X92270628Y-50638266D01*
G37*
%TD.AperFunction*%
%TD*%
%TA.AperFunction,Conductor*%
%TO.N,P36*%
G36*
X93158116Y-50636502D02*
G01*
X93972318Y-50797481D01*
X93979770Y-50802448D01*
X93981525Y-50806679D01*
X94143657Y-51622745D01*
X94141908Y-51631527D01*
X94135025Y-51636374D01*
X93608493Y-51768331D01*
X93254675Y-51857005D01*
X93242401Y-51860081D01*
X93239557Y-51860432D01*
X92954822Y-51860432D01*
X92946549Y-51857005D01*
X92943122Y-51848732D01*
X92943283Y-51846800D01*
X93118733Y-50799000D01*
X93144343Y-50646054D01*
X93149089Y-50638461D01*
X93157814Y-50636448D01*
X93158116Y-50636502D01*
G37*
%TD.AperFunction*%
%TD*%
%TA.AperFunction,Conductor*%
%TO.N,P11*%
G36*
X89806523Y-64926631D02*
G01*
X89808910Y-64928470D01*
X90011529Y-65131089D01*
X90014956Y-65139362D01*
X90014568Y-65142350D01*
X89736472Y-66195205D01*
X89731046Y-66202329D01*
X89722889Y-66203694D01*
X88906978Y-66042227D01*
X88899527Y-66037260D01*
X88897772Y-66033021D01*
X88890365Y-65995592D01*
X88736305Y-65217108D01*
X88738060Y-65208329D01*
X88744792Y-65203527D01*
X89797651Y-64925431D01*
X89806523Y-64926631D01*
G37*
%TD.AperFunction*%
%TD*%
%TA.AperFunction,Conductor*%
%TO.N,P14*%
G36*
X95622343Y-64925430D02*
G01*
X96675205Y-65203527D01*
X96682329Y-65208953D01*
X96683694Y-65217110D01*
X96522227Y-66033021D01*
X96517260Y-66040472D01*
X96513021Y-66042227D01*
X95697110Y-66203694D01*
X95688329Y-66201939D01*
X95683527Y-66195205D01*
X95405431Y-65142347D01*
X95406631Y-65133476D01*
X95408466Y-65131093D01*
X95611090Y-64928469D01*
X95619362Y-64925043D01*
X95622343Y-64925430D01*
G37*
%TD.AperFunction*%
%TD*%
%TA.AperFunction,Conductor*%
%TO.N,P13*%
G36*
X93242400Y-64979918D02*
G01*
X94135026Y-65203626D01*
X94142217Y-65208960D01*
X94143657Y-65217254D01*
X93981525Y-66033320D01*
X93976551Y-66040767D01*
X93972318Y-66042518D01*
X93158151Y-66203490D01*
X93149371Y-66201733D01*
X93144404Y-66194281D01*
X93144343Y-66193944D01*
X92943283Y-64993200D01*
X92945296Y-64984475D01*
X92952890Y-64979729D01*
X92954822Y-64979568D01*
X93239557Y-64979568D01*
X93242400Y-64979918D01*
G37*
%TD.AperFunction*%
%TD*%
%TA.AperFunction,Conductor*%
%TO.N,P12*%
G36*
X92473451Y-64982995D02*
G01*
X92476878Y-64991268D01*
X92476717Y-64993200D01*
X92275656Y-66193944D01*
X92270910Y-66201538D01*
X92262185Y-66203551D01*
X92261848Y-66203490D01*
X91447681Y-66042518D01*
X91440229Y-66037551D01*
X91438474Y-66033320D01*
X91276342Y-65217252D01*
X91278091Y-65208472D01*
X91284971Y-65203626D01*
X92177599Y-64979918D01*
X92180443Y-64979568D01*
X92465178Y-64979568D01*
X92473451Y-64982995D01*
G37*
%TD.AperFunction*%
%TD*%
%TA.AperFunction,Conductor*%
%TO.N,P41*%
G36*
X82111670Y-50638060D02*
G01*
X82116472Y-50644794D01*
X82394568Y-51697649D01*
X82393368Y-51706523D01*
X82391529Y-51708910D01*
X82188910Y-51911529D01*
X82180637Y-51914956D01*
X82177650Y-51914568D01*
X81815873Y-51819010D01*
X81124794Y-51636472D01*
X81117670Y-51631046D01*
X81116305Y-51622891D01*
X81277772Y-50806977D01*
X81282739Y-50799527D01*
X81286977Y-50797772D01*
X82102891Y-50636305D01*
X82111670Y-50638060D01*
G37*
%TD.AperFunction*%
%TD*%
%TA.AperFunction,Conductor*%
%TO.N,P4*%
G36*
X72026523Y-64926631D02*
G01*
X72028910Y-64928470D01*
X72231529Y-65131089D01*
X72234956Y-65139362D01*
X72234568Y-65142350D01*
X71956472Y-66195205D01*
X71951046Y-66202329D01*
X71942889Y-66203694D01*
X71126978Y-66042227D01*
X71119527Y-66037260D01*
X71117772Y-66033021D01*
X71110365Y-65995592D01*
X70956305Y-65217108D01*
X70958060Y-65208329D01*
X70964792Y-65203527D01*
X72017651Y-64925431D01*
X72026523Y-64926631D01*
G37*
%TD.AperFunction*%
%TD*%
%TA.AperFunction,Conductor*%
%TO.N,P17*%
G36*
X103242343Y-64925430D02*
G01*
X104295205Y-65203527D01*
X104302329Y-65208953D01*
X104303694Y-65217110D01*
X104142227Y-66033021D01*
X104137260Y-66040472D01*
X104133021Y-66042227D01*
X103317110Y-66203694D01*
X103308329Y-66201939D01*
X103303527Y-66195205D01*
X103025431Y-65142347D01*
X103026631Y-65133476D01*
X103028466Y-65131093D01*
X103231090Y-64928469D01*
X103239362Y-64925043D01*
X103242343Y-64925430D01*
G37*
%TD.AperFunction*%
%TD*%
%TA.AperFunction,Conductor*%
%TO.N,P28*%
G36*
X114255592Y-50790365D02*
G01*
X114293021Y-50797772D01*
X114300472Y-50802739D01*
X114302227Y-50806978D01*
X114463694Y-51622889D01*
X114461939Y-51631670D01*
X114455205Y-51636472D01*
X113402350Y-51914568D01*
X113393476Y-51913368D01*
X113391089Y-51911529D01*
X113188470Y-51708910D01*
X113185043Y-51700637D01*
X113185429Y-51697657D01*
X113463527Y-50644792D01*
X113468953Y-50637670D01*
X113477107Y-50636305D01*
X114255592Y-50790365D01*
G37*
%TD.AperFunction*%
%TD*%
%TA.AperFunction,Conductor*%
%TO.N,P25*%
G36*
X121875592Y-50790365D02*
G01*
X121913021Y-50797772D01*
X121920472Y-50802739D01*
X121922227Y-50806978D01*
X122083694Y-51622889D01*
X122081939Y-51631670D01*
X122075205Y-51636472D01*
X121022350Y-51914568D01*
X121013476Y-51913368D01*
X121011089Y-51911529D01*
X120808470Y-51708910D01*
X120805043Y-51700637D01*
X120805429Y-51697657D01*
X121083527Y-50644792D01*
X121088953Y-50637670D01*
X121097107Y-50636305D01*
X121875592Y-50790365D01*
G37*
%TD.AperFunction*%
%TD*%
%TA.AperFunction,Conductor*%
%TO.N,P30*%
G36*
X109175592Y-50790365D02*
G01*
X109213021Y-50797772D01*
X109220472Y-50802739D01*
X109222227Y-50806978D01*
X109383694Y-51622889D01*
X109381939Y-51631670D01*
X109375205Y-51636472D01*
X108322350Y-51914568D01*
X108313476Y-51913368D01*
X108311089Y-51911529D01*
X108108470Y-51708910D01*
X108105043Y-51700637D01*
X108105429Y-51697657D01*
X108383527Y-50644792D01*
X108388953Y-50637670D01*
X108397107Y-50636305D01*
X109175592Y-50790365D01*
G37*
%TD.AperFunction*%
%TD*%
%TA.AperFunction,Conductor*%
%TO.N,P26*%
G36*
X119335592Y-50790365D02*
G01*
X119373021Y-50797772D01*
X119380472Y-50802739D01*
X119382227Y-50806978D01*
X119543694Y-51622889D01*
X119541939Y-51631670D01*
X119535205Y-51636472D01*
X118482350Y-51914568D01*
X118473476Y-51913368D01*
X118471089Y-51911529D01*
X118268470Y-51708910D01*
X118265043Y-51700637D01*
X118265429Y-51697657D01*
X118543527Y-50644792D01*
X118548953Y-50637670D01*
X118557107Y-50636305D01*
X119335592Y-50790365D01*
G37*
%TD.AperFunction*%
%TD*%
%TA.AperFunction,Conductor*%
%TO.N,P10*%
G36*
X87266523Y-64926631D02*
G01*
X87268910Y-64928470D01*
X87471529Y-65131089D01*
X87474956Y-65139362D01*
X87474568Y-65142350D01*
X87196472Y-66195205D01*
X87191046Y-66202329D01*
X87182889Y-66203694D01*
X86366978Y-66042227D01*
X86359527Y-66037260D01*
X86357772Y-66033021D01*
X86350365Y-65995592D01*
X86196305Y-65217108D01*
X86198060Y-65208329D01*
X86204792Y-65203527D01*
X87257651Y-64925431D01*
X87266523Y-64926631D01*
G37*
%TD.AperFunction*%
%TD*%
%TA.AperFunction,Conductor*%
%TO.N,P46*%
G36*
X69411670Y-50638060D02*
G01*
X69416472Y-50644794D01*
X69694568Y-51697649D01*
X69693368Y-51706523D01*
X69691529Y-51708910D01*
X69488910Y-51911529D01*
X69480637Y-51914956D01*
X69477650Y-51914568D01*
X69115873Y-51819010D01*
X68424794Y-51636472D01*
X68417670Y-51631046D01*
X68416305Y-51622891D01*
X68577772Y-50806977D01*
X68582739Y-50799527D01*
X68586977Y-50797772D01*
X69402891Y-50636305D01*
X69411670Y-50638060D01*
G37*
%TD.AperFunction*%
%TD*%
%TA.AperFunction,Conductor*%
%TO.N,P33*%
G36*
X101555592Y-50790365D02*
G01*
X101593021Y-50797772D01*
X101600472Y-50802739D01*
X101602227Y-50806978D01*
X101763694Y-51622889D01*
X101761939Y-51631670D01*
X101755205Y-51636472D01*
X100702350Y-51914568D01*
X100693476Y-51913368D01*
X100691089Y-51911529D01*
X100488470Y-51708910D01*
X100485043Y-51700637D01*
X100485429Y-51697657D01*
X100763527Y-50644792D01*
X100768953Y-50637670D01*
X100777107Y-50636305D01*
X101555592Y-50790365D01*
G37*
%TD.AperFunction*%
%TD*%
%TA.AperFunction,Conductor*%
%TO.N,P47*%
G36*
X66871670Y-50638060D02*
G01*
X66876472Y-50644794D01*
X67154568Y-51697649D01*
X67153368Y-51706523D01*
X67151529Y-51708910D01*
X66948910Y-51911529D01*
X66940637Y-51914956D01*
X66937650Y-51914568D01*
X66575873Y-51819010D01*
X65884794Y-51636472D01*
X65877670Y-51631046D01*
X65876305Y-51622891D01*
X66037772Y-50806977D01*
X66042739Y-50799527D01*
X66046977Y-50797772D01*
X66862891Y-50636305D01*
X66871670Y-50638060D01*
G37*
%TD.AperFunction*%
%TD*%
%TA.AperFunction,Conductor*%
%TO.N,P3*%
G36*
X69486523Y-64926631D02*
G01*
X69488910Y-64928470D01*
X69691529Y-65131089D01*
X69694956Y-65139362D01*
X69694568Y-65142350D01*
X69416472Y-66195205D01*
X69411046Y-66202329D01*
X69402889Y-66203694D01*
X68586978Y-66042227D01*
X68579527Y-66037260D01*
X68577772Y-66033021D01*
X68570365Y-65995592D01*
X68416305Y-65217108D01*
X68418060Y-65208329D01*
X68424792Y-65203527D01*
X69477651Y-64925431D01*
X69486523Y-64926631D01*
G37*
%TD.AperFunction*%
%TD*%
%TA.AperFunction,Conductor*%
%TO.N,P21*%
G36*
X113402343Y-64925430D02*
G01*
X114455205Y-65203527D01*
X114462329Y-65208953D01*
X114463694Y-65217110D01*
X114302227Y-66033021D01*
X114297260Y-66040472D01*
X114293021Y-66042227D01*
X113477110Y-66203694D01*
X113468329Y-66201939D01*
X113463527Y-66195205D01*
X113185431Y-65142347D01*
X113186631Y-65133476D01*
X113188466Y-65131093D01*
X113391090Y-64928469D01*
X113399362Y-64925043D01*
X113402343Y-64925430D01*
G37*
%TD.AperFunction*%
%TD*%
%TA.AperFunction,Conductor*%
%TO.N,P5*%
G36*
X74566523Y-64926631D02*
G01*
X74568910Y-64928470D01*
X74771529Y-65131089D01*
X74774956Y-65139362D01*
X74774568Y-65142350D01*
X74496472Y-66195205D01*
X74491046Y-66202329D01*
X74482889Y-66203694D01*
X73666978Y-66042227D01*
X73659527Y-66037260D01*
X73657772Y-66033021D01*
X73650365Y-65995592D01*
X73496305Y-65217108D01*
X73498060Y-65208329D01*
X73504792Y-65203527D01*
X74557651Y-64925431D01*
X74566523Y-64926631D01*
G37*
%TD.AperFunction*%
%TD*%
%TA.AperFunction,Conductor*%
%TO.N,P34*%
G36*
X99015592Y-50790365D02*
G01*
X99053021Y-50797772D01*
X99060472Y-50802739D01*
X99062227Y-50806978D01*
X99223694Y-51622889D01*
X99221939Y-51631670D01*
X99215205Y-51636472D01*
X98162350Y-51914568D01*
X98153476Y-51913368D01*
X98151089Y-51911529D01*
X97948470Y-51708910D01*
X97945043Y-51700637D01*
X97945429Y-51697657D01*
X98223527Y-50644792D01*
X98228953Y-50637670D01*
X98237107Y-50636305D01*
X99015592Y-50790365D01*
G37*
%TD.AperFunction*%
%TD*%
%TA.AperFunction,Conductor*%
%TO.N,P19*%
G36*
X108322343Y-64925430D02*
G01*
X109375205Y-65203527D01*
X109382329Y-65208953D01*
X109383694Y-65217110D01*
X109222227Y-66033021D01*
X109217260Y-66040472D01*
X109213021Y-66042227D01*
X108397110Y-66203694D01*
X108388329Y-66201939D01*
X108383527Y-66195205D01*
X108105431Y-65142347D01*
X108106631Y-65133476D01*
X108108466Y-65131093D01*
X108311090Y-64928469D01*
X108319362Y-64925043D01*
X108322343Y-64925430D01*
G37*
%TD.AperFunction*%
%TD*%
%TA.AperFunction,Conductor*%
%TO.N,P8*%
G36*
X82186523Y-64926631D02*
G01*
X82188910Y-64928470D01*
X82391529Y-65131089D01*
X82394956Y-65139362D01*
X82394568Y-65142350D01*
X82116472Y-66195205D01*
X82111046Y-66202329D01*
X82102889Y-66203694D01*
X81286978Y-66042227D01*
X81279527Y-66037260D01*
X81277772Y-66033021D01*
X81270365Y-65995592D01*
X81116305Y-65217108D01*
X81118060Y-65208329D01*
X81124792Y-65203527D01*
X82177651Y-64925431D01*
X82186523Y-64926631D01*
G37*
%TD.AperFunction*%
%TD*%
%TA.AperFunction,Conductor*%
%TO.N,P31*%
G36*
X106635592Y-50790365D02*
G01*
X106673021Y-50797772D01*
X106680472Y-50802739D01*
X106682227Y-50806978D01*
X106843694Y-51622889D01*
X106841939Y-51631670D01*
X106835205Y-51636472D01*
X105782350Y-51914568D01*
X105773476Y-51913368D01*
X105771089Y-51911529D01*
X105568470Y-51708910D01*
X105565043Y-51700637D01*
X105565429Y-51697657D01*
X105843527Y-50644792D01*
X105848953Y-50637670D01*
X105857107Y-50636305D01*
X106635592Y-50790365D01*
G37*
%TD.AperFunction*%
%TD*%
%TA.AperFunction,Conductor*%
%TO.N,P29*%
G36*
X111715592Y-50790365D02*
G01*
X111753021Y-50797772D01*
X111760472Y-50802739D01*
X111762227Y-50806978D01*
X111923694Y-51622889D01*
X111921939Y-51631670D01*
X111915205Y-51636472D01*
X110862350Y-51914568D01*
X110853476Y-51913368D01*
X110851089Y-51911529D01*
X110648470Y-51708910D01*
X110645043Y-51700637D01*
X110645429Y-51697657D01*
X110923527Y-50644792D01*
X110928953Y-50637670D01*
X110937107Y-50636305D01*
X111715592Y-50790365D01*
G37*
%TD.AperFunction*%
%TD*%
%TA.AperFunction,Conductor*%
%TO.N,P2*%
G36*
X66946523Y-64926631D02*
G01*
X66948910Y-64928470D01*
X67151529Y-65131089D01*
X67154956Y-65139362D01*
X67154568Y-65142350D01*
X66876472Y-66195205D01*
X66871046Y-66202329D01*
X66862889Y-66203694D01*
X66046978Y-66042227D01*
X66039527Y-66037260D01*
X66037772Y-66033021D01*
X66030365Y-65995592D01*
X65876305Y-65217108D01*
X65878060Y-65208329D01*
X65884792Y-65203527D01*
X66937651Y-64925431D01*
X66946523Y-64926631D01*
G37*
%TD.AperFunction*%
%TD*%
%TA.AperFunction,Conductor*%
%TO.N,P39*%
G36*
X87191670Y-50638060D02*
G01*
X87196472Y-50644794D01*
X87474568Y-51697649D01*
X87473368Y-51706523D01*
X87471529Y-51708910D01*
X87268910Y-51911529D01*
X87260637Y-51914956D01*
X87257650Y-51914568D01*
X86895873Y-51819010D01*
X86204794Y-51636472D01*
X86197670Y-51631046D01*
X86196305Y-51622891D01*
X86357772Y-50806977D01*
X86362739Y-50799527D01*
X86366977Y-50797772D01*
X87182891Y-50636305D01*
X87191670Y-50638060D01*
G37*
%TD.AperFunction*%
%TD*%
%TA.AperFunction,Conductor*%
%TO.N,P32*%
G36*
X104095592Y-50790365D02*
G01*
X104133021Y-50797772D01*
X104140472Y-50802739D01*
X104142227Y-50806978D01*
X104303694Y-51622889D01*
X104301939Y-51631670D01*
X104295205Y-51636472D01*
X103242350Y-51914568D01*
X103233476Y-51913368D01*
X103231089Y-51911529D01*
X103028470Y-51708910D01*
X103025043Y-51700637D01*
X103025429Y-51697657D01*
X103303527Y-50644792D01*
X103308953Y-50637670D01*
X103317107Y-50636305D01*
X104095592Y-50790365D01*
G37*
%TD.AperFunction*%
%TD*%
%TA.AperFunction,Conductor*%
%TO.N,P44*%
G36*
X74491670Y-50638060D02*
G01*
X74496472Y-50644794D01*
X74774568Y-51697649D01*
X74773368Y-51706523D01*
X74771529Y-51708910D01*
X74568910Y-51911529D01*
X74560637Y-51914956D01*
X74557650Y-51914568D01*
X74195873Y-51819010D01*
X73504794Y-51636472D01*
X73497670Y-51631046D01*
X73496305Y-51622891D01*
X73657772Y-50806977D01*
X73662739Y-50799527D01*
X73666977Y-50797772D01*
X74482891Y-50636305D01*
X74491670Y-50638060D01*
G37*
%TD.AperFunction*%
%TD*%
%TA.AperFunction,Conductor*%
%TO.N,P24*%
G36*
X121022343Y-64925430D02*
G01*
X122075205Y-65203527D01*
X122082329Y-65208953D01*
X122083694Y-65217110D01*
X121922227Y-66033021D01*
X121917260Y-66040472D01*
X121913021Y-66042227D01*
X121097110Y-66203694D01*
X121088329Y-66201939D01*
X121083527Y-66195205D01*
X120805431Y-65142347D01*
X120806631Y-65133476D01*
X120808466Y-65131093D01*
X121011090Y-64928469D01*
X121019362Y-64925043D01*
X121022343Y-64925430D01*
G37*
%TD.AperFunction*%
%TD*%
%TA.AperFunction,Conductor*%
%TO.N,P1*%
G36*
X64406523Y-64926631D02*
G01*
X64408910Y-64928470D01*
X64611529Y-65131089D01*
X64614956Y-65139362D01*
X64614568Y-65142350D01*
X64336472Y-66195205D01*
X64331046Y-66202329D01*
X64322889Y-66203694D01*
X63506978Y-66042227D01*
X63499527Y-66037260D01*
X63497772Y-66033021D01*
X63490365Y-65995592D01*
X63336305Y-65217108D01*
X63338060Y-65208329D01*
X63344792Y-65203527D01*
X64397651Y-64925431D01*
X64406523Y-64926631D01*
G37*
%TD.AperFunction*%
%TD*%
%TA.AperFunction,Conductor*%
%TO.N,P16*%
G36*
X100702343Y-64925430D02*
G01*
X101755205Y-65203527D01*
X101762329Y-65208953D01*
X101763694Y-65217110D01*
X101602227Y-66033021D01*
X101597260Y-66040472D01*
X101593021Y-66042227D01*
X100777110Y-66203694D01*
X100768329Y-66201939D01*
X100763527Y-66195205D01*
X100485431Y-65142347D01*
X100486631Y-65133476D01*
X100488466Y-65131093D01*
X100691090Y-64928469D01*
X100699362Y-64925043D01*
X100702343Y-64925430D01*
G37*
%TD.AperFunction*%
%TD*%
%TA.AperFunction,Conductor*%
%TO.N,P40*%
G36*
X84651670Y-50638060D02*
G01*
X84656472Y-50644794D01*
X84934568Y-51697649D01*
X84933368Y-51706523D01*
X84931529Y-51708910D01*
X84728910Y-51911529D01*
X84720637Y-51914956D01*
X84717650Y-51914568D01*
X84355873Y-51819010D01*
X83664794Y-51636472D01*
X83657670Y-51631046D01*
X83656305Y-51622891D01*
X83817772Y-50806977D01*
X83822739Y-50799527D01*
X83826977Y-50797772D01*
X84642891Y-50636305D01*
X84651670Y-50638060D01*
G37*
%TD.AperFunction*%
%TD*%
%TA.AperFunction,Conductor*%
%TO.N,P15*%
G36*
X98162343Y-64925430D02*
G01*
X99215205Y-65203527D01*
X99222329Y-65208953D01*
X99223694Y-65217110D01*
X99062227Y-66033021D01*
X99057260Y-66040472D01*
X99053021Y-66042227D01*
X98237110Y-66203694D01*
X98228329Y-66201939D01*
X98223527Y-66195205D01*
X97945431Y-65142347D01*
X97946631Y-65133476D01*
X97948466Y-65131093D01*
X98151090Y-64928469D01*
X98159362Y-64925043D01*
X98162343Y-64925430D01*
G37*
%TD.AperFunction*%
%TD*%
%TA.AperFunction,Conductor*%
%TO.N,P7*%
G36*
X79646523Y-64926631D02*
G01*
X79648910Y-64928470D01*
X79851529Y-65131089D01*
X79854956Y-65139362D01*
X79854568Y-65142350D01*
X79576472Y-66195205D01*
X79571046Y-66202329D01*
X79562889Y-66203694D01*
X78746978Y-66042227D01*
X78739527Y-66037260D01*
X78737772Y-66033021D01*
X78730365Y-65995592D01*
X78576305Y-65217108D01*
X78578060Y-65208329D01*
X78584792Y-65203527D01*
X79637651Y-64925431D01*
X79646523Y-64926631D01*
G37*
%TD.AperFunction*%
%TD*%
%TA.AperFunction,Conductor*%
%TO.N,P9*%
G36*
X84726523Y-64926631D02*
G01*
X84728910Y-64928470D01*
X84931529Y-65131089D01*
X84934956Y-65139362D01*
X84934568Y-65142350D01*
X84656472Y-66195205D01*
X84651046Y-66202329D01*
X84642889Y-66203694D01*
X83826978Y-66042227D01*
X83819527Y-66037260D01*
X83817772Y-66033021D01*
X83810365Y-65995592D01*
X83656305Y-65217108D01*
X83658060Y-65208329D01*
X83664792Y-65203527D01*
X84717651Y-64925431D01*
X84726523Y-64926631D01*
G37*
%TD.AperFunction*%
%TD*%
%TA.AperFunction,Conductor*%
%TO.N,P23*%
G36*
X118482343Y-64925430D02*
G01*
X119535205Y-65203527D01*
X119542329Y-65208953D01*
X119543694Y-65217110D01*
X119382227Y-66033021D01*
X119377260Y-66040472D01*
X119373021Y-66042227D01*
X118557110Y-66203694D01*
X118548329Y-66201939D01*
X118543527Y-66195205D01*
X118265431Y-65142347D01*
X118266631Y-65133476D01*
X118268466Y-65131093D01*
X118471090Y-64928469D01*
X118479362Y-64925043D01*
X118482343Y-64925430D01*
G37*
%TD.AperFunction*%
%TD*%
%TA.AperFunction,Conductor*%
%TO.N,P20*%
G36*
X110862343Y-64925430D02*
G01*
X111915205Y-65203527D01*
X111922329Y-65208953D01*
X111923694Y-65217110D01*
X111762227Y-66033021D01*
X111757260Y-66040472D01*
X111753021Y-66042227D01*
X110937110Y-66203694D01*
X110928329Y-66201939D01*
X110923527Y-66195205D01*
X110645431Y-65142347D01*
X110646631Y-65133476D01*
X110648466Y-65131093D01*
X110851090Y-64928469D01*
X110859362Y-64925043D01*
X110862343Y-64925430D01*
G37*
%TD.AperFunction*%
%TD*%
%TA.AperFunction,Conductor*%
%TO.N,P43*%
G36*
X77031670Y-50638060D02*
G01*
X77036472Y-50644794D01*
X77314568Y-51697649D01*
X77313368Y-51706523D01*
X77311529Y-51708910D01*
X77108910Y-51911529D01*
X77100637Y-51914956D01*
X77097650Y-51914568D01*
X76735873Y-51819010D01*
X76044794Y-51636472D01*
X76037670Y-51631046D01*
X76036305Y-51622891D01*
X76197772Y-50806977D01*
X76202739Y-50799527D01*
X76206977Y-50797772D01*
X77022891Y-50636305D01*
X77031670Y-50638060D01*
G37*
%TD.AperFunction*%
%TD*%
%TA.AperFunction,Conductor*%
%TO.N,P42*%
G36*
X79571670Y-50638060D02*
G01*
X79576472Y-50644794D01*
X79854568Y-51697649D01*
X79853368Y-51706523D01*
X79851529Y-51708910D01*
X79648910Y-51911529D01*
X79640637Y-51914956D01*
X79637650Y-51914568D01*
X79275873Y-51819010D01*
X78584794Y-51636472D01*
X78577670Y-51631046D01*
X78576305Y-51622891D01*
X78737772Y-50806977D01*
X78742739Y-50799527D01*
X78746977Y-50797772D01*
X79562891Y-50636305D01*
X79571670Y-50638060D01*
G37*
%TD.AperFunction*%
%TD*%
%TA.AperFunction,Conductor*%
%TO.N,P48*%
G36*
X64331670Y-50638060D02*
G01*
X64336472Y-50644794D01*
X64614568Y-51697649D01*
X64613368Y-51706523D01*
X64611529Y-51708910D01*
X64408910Y-51911529D01*
X64400637Y-51914956D01*
X64397650Y-51914568D01*
X64035873Y-51819010D01*
X63344794Y-51636472D01*
X63337670Y-51631046D01*
X63336305Y-51622891D01*
X63497772Y-50806977D01*
X63502739Y-50799527D01*
X63506977Y-50797772D01*
X64322891Y-50636305D01*
X64331670Y-50638060D01*
G37*
%TD.AperFunction*%
%TD*%
%TA.AperFunction,Conductor*%
%TO.N,P6*%
G36*
X77106523Y-64926631D02*
G01*
X77108910Y-64928470D01*
X77311529Y-65131089D01*
X77314956Y-65139362D01*
X77314568Y-65142350D01*
X77036472Y-66195205D01*
X77031046Y-66202329D01*
X77022889Y-66203694D01*
X76206978Y-66042227D01*
X76199527Y-66037260D01*
X76197772Y-66033021D01*
X76190365Y-65995592D01*
X76036305Y-65217108D01*
X76038060Y-65208329D01*
X76044792Y-65203527D01*
X77097651Y-64925431D01*
X77106523Y-64926631D01*
G37*
%TD.AperFunction*%
%TD*%
%TA.AperFunction,Conductor*%
%TO.N,P27*%
G36*
X116795592Y-50790365D02*
G01*
X116833021Y-50797772D01*
X116840472Y-50802739D01*
X116842227Y-50806978D01*
X117003694Y-51622889D01*
X117001939Y-51631670D01*
X116995205Y-51636472D01*
X115942350Y-51914568D01*
X115933476Y-51913368D01*
X115931089Y-51911529D01*
X115728470Y-51708910D01*
X115725043Y-51700637D01*
X115725429Y-51697657D01*
X116003527Y-50644792D01*
X116008953Y-50637670D01*
X116017107Y-50636305D01*
X116795592Y-50790365D01*
G37*
%TD.AperFunction*%
%TD*%
%TA.AperFunction,Conductor*%
%TO.N,P22*%
G36*
X115942343Y-64925430D02*
G01*
X116995205Y-65203527D01*
X117002329Y-65208953D01*
X117003694Y-65217110D01*
X116842227Y-66033021D01*
X116837260Y-66040472D01*
X116833021Y-66042227D01*
X116017110Y-66203694D01*
X116008329Y-66201939D01*
X116003527Y-66195205D01*
X115725431Y-65142347D01*
X115726631Y-65133476D01*
X115728466Y-65131093D01*
X115931090Y-64928469D01*
X115939362Y-64925043D01*
X115942343Y-64925430D01*
G37*
%TD.AperFunction*%
%TD*%
%TA.AperFunction,Conductor*%
%TO.N,P45*%
G36*
X71951670Y-50638060D02*
G01*
X71956472Y-50644794D01*
X72234568Y-51697649D01*
X72233368Y-51706523D01*
X72231529Y-51708910D01*
X72028910Y-51911529D01*
X72020637Y-51914956D01*
X72017650Y-51914568D01*
X71655873Y-51819010D01*
X70964794Y-51636472D01*
X70957670Y-51631046D01*
X70956305Y-51622891D01*
X71117772Y-50806977D01*
X71122739Y-50799527D01*
X71126977Y-50797772D01*
X71942891Y-50636305D01*
X71951670Y-50638060D01*
G37*
%TD.AperFunction*%
%TD*%
%TA.AperFunction,Conductor*%
%TO.N,P18*%
G36*
X105782343Y-64925430D02*
G01*
X106835205Y-65203527D01*
X106842329Y-65208953D01*
X106843694Y-65217110D01*
X106682227Y-66033021D01*
X106677260Y-66040472D01*
X106673021Y-66042227D01*
X105857110Y-66203694D01*
X105848329Y-66201939D01*
X105843527Y-66195205D01*
X105565431Y-65142347D01*
X105566631Y-65133476D01*
X105568466Y-65131093D01*
X105771090Y-64928469D01*
X105779362Y-64925043D01*
X105782343Y-64925430D01*
G37*
%TD.AperFunction*%
%TD*%
M02*
