%TF.GenerationSoftware,KiCad,Pcbnew,9.0.1*%
%TF.CreationDate,2025-05-27T23:04:16+02:00*%
%TF.ProjectId,TQFP48,54514650-3438-42e6-9b69-6361645f7063,rev?*%
%TF.SameCoordinates,Original*%
%TF.FileFunction,Paste,Top*%
%TF.FilePolarity,Positive*%
%FSLAX46Y46*%
G04 Gerber Fmt 4.6, Leading zero omitted, Abs format (unit mm)*
G04 Created by KiCad (PCBNEW 9.0.1) date 2025-05-27 23:04:16*
%MOMM*%
%LPD*%
G01*
G04 APERTURE LIST*
G04 Aperture macros list*
%AMRoundRect*
0 Rectangle with rounded corners*
0 $1 Rounding radius*
0 $2 $3 $4 $5 $6 $7 $8 $9 X,Y pos of 4 corners*
0 Add a 4 corners polygon primitive as box body*
4,1,4,$2,$3,$4,$5,$6,$7,$8,$9,$2,$3,0*
0 Add four circle primitives for the rounded corners*
1,1,$1+$1,$2,$3*
1,1,$1+$1,$4,$5*
1,1,$1+$1,$6,$7*
1,1,$1+$1,$8,$9*
0 Add four rect primitives between the rounded corners*
20,1,$1+$1,$2,$3,$4,$5,0*
20,1,$1+$1,$4,$5,$6,$7,0*
20,1,$1+$1,$6,$7,$8,$9,0*
20,1,$1+$1,$8,$9,$2,$3,0*%
G04 Aperture macros list end*
%ADD10RoundRect,0.075000X-0.415425X-0.521491X0.521491X0.415425X0.415425X0.521491X-0.521491X-0.415425X0*%
%ADD11RoundRect,0.075000X0.415425X-0.521491X0.521491X-0.415425X-0.415425X0.521491X-0.521491X0.415425X0*%
G04 APERTURE END LIST*
D10*
%TO.C,U1*%
X87822124Y-59418788D03*
X88175678Y-59772342D03*
X88529231Y-60125895D03*
X88882785Y-60479449D03*
X89236338Y-60833002D03*
X89589891Y-61186555D03*
X89943445Y-61540109D03*
X90296998Y-61893662D03*
X90650551Y-62247215D03*
X91004105Y-62600769D03*
X91357658Y-62954322D03*
X91711212Y-63307876D03*
D11*
X93708788Y-63307876D03*
X94062342Y-62954322D03*
X94415895Y-62600769D03*
X94769449Y-62247215D03*
X95123002Y-61893662D03*
X95476555Y-61540109D03*
X95830109Y-61186555D03*
X96183662Y-60833002D03*
X96537215Y-60479449D03*
X96890769Y-60125895D03*
X97244322Y-59772342D03*
X97597876Y-59418788D03*
D10*
X97597876Y-57421212D03*
X97244322Y-57067658D03*
X96890769Y-56714105D03*
X96537215Y-56360551D03*
X96183662Y-56006998D03*
X95830109Y-55653445D03*
X95476555Y-55299891D03*
X95123002Y-54946338D03*
X94769449Y-54592785D03*
X94415895Y-54239231D03*
X94062342Y-53885678D03*
X93708788Y-53532124D03*
D11*
X91711212Y-53532124D03*
X91357658Y-53885678D03*
X91004105Y-54239231D03*
X90650551Y-54592785D03*
X90296998Y-54946338D03*
X89943445Y-55299891D03*
X89589891Y-55653445D03*
X89236338Y-56006998D03*
X88882785Y-56360551D03*
X88529231Y-56714105D03*
X88175678Y-57067658D03*
X87822124Y-57421212D03*
%TD*%
M02*
