%TF.GenerationSoftware,KiCad,Pcbnew,9.0.1*%
%TF.CreationDate,2025-05-25T20:32:58+02:00*%
%TF.ProjectId,TQFP48,54514650-3438-42e6-9b69-6361645f7063,rev?*%
%TF.SameCoordinates,Original*%
%TF.FileFunction,Copper,L2,Bot*%
%TF.FilePolarity,Positive*%
%FSLAX46Y46*%
G04 Gerber Fmt 4.6, Leading zero omitted, Abs format (unit mm)*
G04 Created by KiCad (PCBNEW 9.0.1) date 2025-05-25 20:32:58*
%MOMM*%
%LPD*%
G01*
G04 APERTURE LIST*
%TA.AperFunction,ComponentPad*%
%ADD10C,1.700000*%
%TD*%
G04 APERTURE END LIST*
D10*
%TO.P,J1,1,Pin_1*%
%TO.N,P1*%
X63500000Y-66040000D03*
%TO.P,J1,2,Pin_2*%
%TO.N,P2*%
X66040000Y-66040000D03*
%TO.P,J1,3,Pin_3*%
%TO.N,P3*%
X68580000Y-66040000D03*
%TO.P,J1,4,Pin_4*%
%TO.N,P4*%
X71120000Y-66040000D03*
%TO.P,J1,5,Pin_5*%
%TO.N,P5*%
X73660000Y-66040000D03*
%TO.P,J1,6,Pin_6*%
%TO.N,P6*%
X76200000Y-66040000D03*
%TO.P,J1,7,Pin_7*%
%TO.N,P7*%
X78740000Y-66040000D03*
%TO.P,J1,8,Pin_8*%
%TO.N,P8*%
X81280000Y-66040000D03*
%TO.P,J1,9,Pin_9*%
%TO.N,P9*%
X83820000Y-66040000D03*
%TO.P,J1,10,Pin_10*%
%TO.N,P10*%
X86360000Y-66040000D03*
%TO.P,J1,11,Pin_11*%
%TO.N,P11*%
X88900000Y-66040000D03*
%TO.P,J1,12,Pin_12*%
%TO.N,P12*%
X91440000Y-66040000D03*
%TO.P,J1,13,Pin_13*%
%TO.N,P13*%
X93980000Y-66040000D03*
%TO.P,J1,14,Pin_14*%
%TO.N,P14*%
X96520000Y-66040000D03*
%TO.P,J1,15,Pin_15*%
%TO.N,P15*%
X99060000Y-66040000D03*
%TO.P,J1,16,Pin_16*%
%TO.N,P16*%
X101600000Y-66040000D03*
%TO.P,J1,17,Pin_17*%
%TO.N,P17*%
X104140000Y-66040000D03*
%TO.P,J1,18,Pin_18*%
%TO.N,P18*%
X106680000Y-66040000D03*
%TO.P,J1,19,Pin_19*%
%TO.N,P19*%
X109220000Y-66040000D03*
%TO.P,J1,20,Pin_20*%
%TO.N,P20*%
X111760000Y-66040000D03*
%TO.P,J1,21,Pin_21*%
%TO.N,P21*%
X114300000Y-66040000D03*
%TO.P,J1,22,Pin_22*%
%TO.N,P22*%
X116840000Y-66040000D03*
%TO.P,J1,23,Pin_23*%
%TO.N,P23*%
X119380000Y-66040000D03*
%TO.P,J1,24,Pin_24*%
%TO.N,P24*%
X121920000Y-66040000D03*
%TD*%
%TO.P,J2,1,Pin_1*%
%TO.N,P25*%
X121920000Y-50800000D03*
%TO.P,J2,2,Pin_2*%
%TO.N,P26*%
X119380000Y-50800000D03*
%TO.P,J2,3,Pin_3*%
%TO.N,P27*%
X116840000Y-50800000D03*
%TO.P,J2,4,Pin_4*%
%TO.N,P28*%
X114300000Y-50800000D03*
%TO.P,J2,5,Pin_5*%
%TO.N,P29*%
X111760000Y-50800000D03*
%TO.P,J2,6,Pin_6*%
%TO.N,P30*%
X109220000Y-50800000D03*
%TO.P,J2,7,Pin_7*%
%TO.N,P31*%
X106680000Y-50800000D03*
%TO.P,J2,8,Pin_8*%
%TO.N,P32*%
X104140000Y-50800000D03*
%TO.P,J2,9,Pin_9*%
%TO.N,P33*%
X101600000Y-50800000D03*
%TO.P,J2,10,Pin_10*%
%TO.N,P34*%
X99060000Y-50800000D03*
%TO.P,J2,11,Pin_11*%
%TO.N,P35*%
X96520000Y-50800000D03*
%TO.P,J2,12,Pin_12*%
%TO.N,P36*%
X93980000Y-50800000D03*
%TO.P,J2,13,Pin_13*%
%TO.N,P37*%
X91440000Y-50800000D03*
%TO.P,J2,14,Pin_14*%
%TO.N,P38*%
X88900000Y-50800000D03*
%TO.P,J2,15,Pin_15*%
%TO.N,P39*%
X86360000Y-50800000D03*
%TO.P,J2,16,Pin_16*%
%TO.N,P40*%
X83820000Y-50800000D03*
%TO.P,J2,17,Pin_17*%
%TO.N,P41*%
X81280000Y-50800000D03*
%TO.P,J2,18,Pin_18*%
%TO.N,P42*%
X78740000Y-50800000D03*
%TO.P,J2,19,Pin_19*%
%TO.N,P43*%
X76200000Y-50800000D03*
%TO.P,J2,20,Pin_20*%
%TO.N,P44*%
X73660000Y-50800000D03*
%TO.P,J2,21,Pin_21*%
%TO.N,P45*%
X71120000Y-50800000D03*
%TO.P,J2,22,Pin_22*%
%TO.N,P46*%
X68580000Y-50800000D03*
%TO.P,J2,23,Pin_23*%
%TO.N,P47*%
X66040000Y-50800000D03*
%TO.P,J2,24,Pin_24*%
%TO.N,P48*%
X63500000Y-50800000D03*
%TD*%
%TA.AperFunction,NonConductor*%
G36*
X65062483Y-50050185D02*
G01*
X65108238Y-50102989D01*
X65118182Y-50172147D01*
X65101171Y-50219290D01*
X65098770Y-50223206D01*
X65020128Y-50377552D01*
X64966597Y-50542302D01*
X64945838Y-50673371D01*
X64939500Y-50713389D01*
X64939500Y-50886611D01*
X64966598Y-51057701D01*
X65020127Y-51222445D01*
X65098768Y-51376788D01*
X65200586Y-51516928D01*
X65323072Y-51639414D01*
X65463212Y-51741232D01*
X65617555Y-51819873D01*
X65782299Y-51873402D01*
X65953389Y-51900500D01*
X65953390Y-51900500D01*
X66126610Y-51900500D01*
X66126611Y-51900500D01*
X66297701Y-51873402D01*
X66462445Y-51819873D01*
X66616788Y-51741232D01*
X66756928Y-51639414D01*
X66879414Y-51516928D01*
X66981232Y-51376788D01*
X67059873Y-51222445D01*
X67113402Y-51057701D01*
X67140500Y-50886611D01*
X67140500Y-50713389D01*
X67113402Y-50542299D01*
X67059873Y-50377555D01*
X66981232Y-50223212D01*
X66981229Y-50223206D01*
X66978829Y-50219290D01*
X66960584Y-50151844D01*
X66981700Y-50085242D01*
X67035472Y-50040628D01*
X67084556Y-50030500D01*
X67535444Y-50030500D01*
X67602483Y-50050185D01*
X67648238Y-50102989D01*
X67658182Y-50172147D01*
X67641171Y-50219290D01*
X67638770Y-50223206D01*
X67560128Y-50377552D01*
X67506597Y-50542302D01*
X67485838Y-50673371D01*
X67479500Y-50713389D01*
X67479500Y-50886611D01*
X67506598Y-51057701D01*
X67560127Y-51222445D01*
X67638768Y-51376788D01*
X67740586Y-51516928D01*
X67863072Y-51639414D01*
X68003212Y-51741232D01*
X68157555Y-51819873D01*
X68322299Y-51873402D01*
X68493389Y-51900500D01*
X68493390Y-51900500D01*
X68666610Y-51900500D01*
X68666611Y-51900500D01*
X68837701Y-51873402D01*
X69002445Y-51819873D01*
X69156788Y-51741232D01*
X69296928Y-51639414D01*
X69419414Y-51516928D01*
X69521232Y-51376788D01*
X69599873Y-51222445D01*
X69653402Y-51057701D01*
X69680500Y-50886611D01*
X69680500Y-50713389D01*
X69653402Y-50542299D01*
X69599873Y-50377555D01*
X69521232Y-50223212D01*
X69521229Y-50223206D01*
X69518829Y-50219290D01*
X69500584Y-50151844D01*
X69521700Y-50085242D01*
X69575472Y-50040628D01*
X69624556Y-50030500D01*
X70075444Y-50030500D01*
X70142483Y-50050185D01*
X70188238Y-50102989D01*
X70198182Y-50172147D01*
X70181171Y-50219290D01*
X70178770Y-50223206D01*
X70100128Y-50377552D01*
X70046597Y-50542302D01*
X70025838Y-50673371D01*
X70019500Y-50713389D01*
X70019500Y-50886611D01*
X70046598Y-51057701D01*
X70100127Y-51222445D01*
X70178768Y-51376788D01*
X70280586Y-51516928D01*
X70403072Y-51639414D01*
X70543212Y-51741232D01*
X70697555Y-51819873D01*
X70862299Y-51873402D01*
X71033389Y-51900500D01*
X71033390Y-51900500D01*
X71206610Y-51900500D01*
X71206611Y-51900500D01*
X71377701Y-51873402D01*
X71542445Y-51819873D01*
X71696788Y-51741232D01*
X71836928Y-51639414D01*
X71959414Y-51516928D01*
X72061232Y-51376788D01*
X72139873Y-51222445D01*
X72193402Y-51057701D01*
X72220500Y-50886611D01*
X72220500Y-50713389D01*
X72193402Y-50542299D01*
X72139873Y-50377555D01*
X72061232Y-50223212D01*
X72061229Y-50223206D01*
X72058829Y-50219290D01*
X72040584Y-50151844D01*
X72061700Y-50085242D01*
X72115472Y-50040628D01*
X72164556Y-50030500D01*
X72615444Y-50030500D01*
X72682483Y-50050185D01*
X72728238Y-50102989D01*
X72738182Y-50172147D01*
X72721171Y-50219290D01*
X72718770Y-50223206D01*
X72640128Y-50377552D01*
X72586597Y-50542302D01*
X72565838Y-50673371D01*
X72559500Y-50713389D01*
X72559500Y-50886611D01*
X72586598Y-51057701D01*
X72640127Y-51222445D01*
X72718768Y-51376788D01*
X72820586Y-51516928D01*
X72943072Y-51639414D01*
X73083212Y-51741232D01*
X73237555Y-51819873D01*
X73402299Y-51873402D01*
X73573389Y-51900500D01*
X73573390Y-51900500D01*
X73746610Y-51900500D01*
X73746611Y-51900500D01*
X73917701Y-51873402D01*
X74082445Y-51819873D01*
X74236788Y-51741232D01*
X74376928Y-51639414D01*
X74499414Y-51516928D01*
X74601232Y-51376788D01*
X74679873Y-51222445D01*
X74733402Y-51057701D01*
X74760500Y-50886611D01*
X74760500Y-50713389D01*
X74733402Y-50542299D01*
X74679873Y-50377555D01*
X74601232Y-50223212D01*
X74601229Y-50223206D01*
X74598829Y-50219290D01*
X74580584Y-50151844D01*
X74601700Y-50085242D01*
X74655472Y-50040628D01*
X74704556Y-50030500D01*
X75155444Y-50030500D01*
X75222483Y-50050185D01*
X75268238Y-50102989D01*
X75278182Y-50172147D01*
X75261171Y-50219290D01*
X75258770Y-50223206D01*
X75180128Y-50377552D01*
X75126597Y-50542302D01*
X75105838Y-50673371D01*
X75099500Y-50713389D01*
X75099500Y-50886611D01*
X75126598Y-51057701D01*
X75180127Y-51222445D01*
X75258768Y-51376788D01*
X75360586Y-51516928D01*
X75483072Y-51639414D01*
X75623212Y-51741232D01*
X75777555Y-51819873D01*
X75942299Y-51873402D01*
X76113389Y-51900500D01*
X76113390Y-51900500D01*
X76286610Y-51900500D01*
X76286611Y-51900500D01*
X76457701Y-51873402D01*
X76622445Y-51819873D01*
X76776788Y-51741232D01*
X76916928Y-51639414D01*
X77039414Y-51516928D01*
X77141232Y-51376788D01*
X77219873Y-51222445D01*
X77273402Y-51057701D01*
X77300500Y-50886611D01*
X77300500Y-50713389D01*
X77273402Y-50542299D01*
X77219873Y-50377555D01*
X77141232Y-50223212D01*
X77141229Y-50223206D01*
X77138829Y-50219290D01*
X77120584Y-50151844D01*
X77141700Y-50085242D01*
X77195472Y-50040628D01*
X77244556Y-50030500D01*
X77695444Y-50030500D01*
X77762483Y-50050185D01*
X77808238Y-50102989D01*
X77818182Y-50172147D01*
X77801171Y-50219290D01*
X77798770Y-50223206D01*
X77720128Y-50377552D01*
X77666597Y-50542302D01*
X77645838Y-50673371D01*
X77639500Y-50713389D01*
X77639500Y-50886611D01*
X77666598Y-51057701D01*
X77720127Y-51222445D01*
X77798768Y-51376788D01*
X77900586Y-51516928D01*
X78023072Y-51639414D01*
X78163212Y-51741232D01*
X78317555Y-51819873D01*
X78482299Y-51873402D01*
X78653389Y-51900500D01*
X78653390Y-51900500D01*
X78826610Y-51900500D01*
X78826611Y-51900500D01*
X78997701Y-51873402D01*
X79162445Y-51819873D01*
X79316788Y-51741232D01*
X79456928Y-51639414D01*
X79579414Y-51516928D01*
X79681232Y-51376788D01*
X79759873Y-51222445D01*
X79813402Y-51057701D01*
X79840500Y-50886611D01*
X79840500Y-50713389D01*
X79813402Y-50542299D01*
X79759873Y-50377555D01*
X79681232Y-50223212D01*
X79681229Y-50223206D01*
X79678829Y-50219290D01*
X79660584Y-50151844D01*
X79681700Y-50085242D01*
X79735472Y-50040628D01*
X79784556Y-50030500D01*
X80235444Y-50030500D01*
X80302483Y-50050185D01*
X80348238Y-50102989D01*
X80358182Y-50172147D01*
X80341171Y-50219290D01*
X80338770Y-50223206D01*
X80260128Y-50377552D01*
X80206597Y-50542302D01*
X80185838Y-50673371D01*
X80179500Y-50713389D01*
X80179500Y-50886611D01*
X80206598Y-51057701D01*
X80260127Y-51222445D01*
X80338768Y-51376788D01*
X80440586Y-51516928D01*
X80563072Y-51639414D01*
X80703212Y-51741232D01*
X80857555Y-51819873D01*
X81022299Y-51873402D01*
X81193389Y-51900500D01*
X81193390Y-51900500D01*
X81366610Y-51900500D01*
X81366611Y-51900500D01*
X81537701Y-51873402D01*
X81702445Y-51819873D01*
X81856788Y-51741232D01*
X81996928Y-51639414D01*
X82119414Y-51516928D01*
X82221232Y-51376788D01*
X82299873Y-51222445D01*
X82353402Y-51057701D01*
X82380500Y-50886611D01*
X82380500Y-50713389D01*
X82353402Y-50542299D01*
X82299873Y-50377555D01*
X82221232Y-50223212D01*
X82221229Y-50223206D01*
X82218829Y-50219290D01*
X82200584Y-50151844D01*
X82221700Y-50085242D01*
X82275472Y-50040628D01*
X82324556Y-50030500D01*
X82775444Y-50030500D01*
X82842483Y-50050185D01*
X82888238Y-50102989D01*
X82898182Y-50172147D01*
X82881171Y-50219290D01*
X82878770Y-50223206D01*
X82800128Y-50377552D01*
X82746597Y-50542302D01*
X82725838Y-50673371D01*
X82719500Y-50713389D01*
X82719500Y-50886611D01*
X82746598Y-51057701D01*
X82800127Y-51222445D01*
X82878768Y-51376788D01*
X82980586Y-51516928D01*
X83103072Y-51639414D01*
X83243212Y-51741232D01*
X83397555Y-51819873D01*
X83562299Y-51873402D01*
X83733389Y-51900500D01*
X83733390Y-51900500D01*
X83906610Y-51900500D01*
X83906611Y-51900500D01*
X84077701Y-51873402D01*
X84242445Y-51819873D01*
X84396788Y-51741232D01*
X84536928Y-51639414D01*
X84659414Y-51516928D01*
X84761232Y-51376788D01*
X84839873Y-51222445D01*
X84893402Y-51057701D01*
X84920500Y-50886611D01*
X84920500Y-50713389D01*
X84893402Y-50542299D01*
X84839873Y-50377555D01*
X84761232Y-50223212D01*
X84761229Y-50223206D01*
X84758829Y-50219290D01*
X84740584Y-50151844D01*
X84761700Y-50085242D01*
X84815472Y-50040628D01*
X84864556Y-50030500D01*
X85315444Y-50030500D01*
X85382483Y-50050185D01*
X85428238Y-50102989D01*
X85438182Y-50172147D01*
X85421171Y-50219290D01*
X85418770Y-50223206D01*
X85340128Y-50377552D01*
X85286597Y-50542302D01*
X85265838Y-50673371D01*
X85259500Y-50713389D01*
X85259500Y-50886611D01*
X85286598Y-51057701D01*
X85340127Y-51222445D01*
X85418768Y-51376788D01*
X85520586Y-51516928D01*
X85643072Y-51639414D01*
X85783212Y-51741232D01*
X85937555Y-51819873D01*
X86102299Y-51873402D01*
X86273389Y-51900500D01*
X86273390Y-51900500D01*
X86446610Y-51900500D01*
X86446611Y-51900500D01*
X86617701Y-51873402D01*
X86782445Y-51819873D01*
X86936788Y-51741232D01*
X87076928Y-51639414D01*
X87199414Y-51516928D01*
X87301232Y-51376788D01*
X87379873Y-51222445D01*
X87433402Y-51057701D01*
X87460500Y-50886611D01*
X87460500Y-50713389D01*
X87433402Y-50542299D01*
X87379873Y-50377555D01*
X87301232Y-50223212D01*
X87301229Y-50223206D01*
X87298829Y-50219290D01*
X87280584Y-50151844D01*
X87301700Y-50085242D01*
X87355472Y-50040628D01*
X87404556Y-50030500D01*
X87855444Y-50030500D01*
X87922483Y-50050185D01*
X87968238Y-50102989D01*
X87978182Y-50172147D01*
X87961171Y-50219290D01*
X87958770Y-50223206D01*
X87880128Y-50377552D01*
X87826597Y-50542302D01*
X87805838Y-50673371D01*
X87799500Y-50713389D01*
X87799500Y-50886611D01*
X87826598Y-51057701D01*
X87880127Y-51222445D01*
X87958768Y-51376788D01*
X88060586Y-51516928D01*
X88183072Y-51639414D01*
X88323212Y-51741232D01*
X88477555Y-51819873D01*
X88642299Y-51873402D01*
X88813389Y-51900500D01*
X88813390Y-51900500D01*
X88986610Y-51900500D01*
X88986611Y-51900500D01*
X89157701Y-51873402D01*
X89322445Y-51819873D01*
X89476788Y-51741232D01*
X89616928Y-51639414D01*
X89739414Y-51516928D01*
X89841232Y-51376788D01*
X89919873Y-51222445D01*
X89973402Y-51057701D01*
X90000500Y-50886611D01*
X90000500Y-50713389D01*
X89973402Y-50542299D01*
X89919873Y-50377555D01*
X89841232Y-50223212D01*
X89841229Y-50223206D01*
X89838829Y-50219290D01*
X89820584Y-50151844D01*
X89841700Y-50085242D01*
X89895472Y-50040628D01*
X89944556Y-50030500D01*
X90395444Y-50030500D01*
X90462483Y-50050185D01*
X90508238Y-50102989D01*
X90518182Y-50172147D01*
X90501171Y-50219290D01*
X90498770Y-50223206D01*
X90420128Y-50377552D01*
X90366597Y-50542302D01*
X90345838Y-50673371D01*
X90339500Y-50713389D01*
X90339500Y-50886611D01*
X90366598Y-51057701D01*
X90420127Y-51222445D01*
X90498768Y-51376788D01*
X90600586Y-51516928D01*
X90723072Y-51639414D01*
X90863212Y-51741232D01*
X91017555Y-51819873D01*
X91182299Y-51873402D01*
X91353389Y-51900500D01*
X91353390Y-51900500D01*
X91526610Y-51900500D01*
X91526611Y-51900500D01*
X91697701Y-51873402D01*
X91862445Y-51819873D01*
X92016788Y-51741232D01*
X92156928Y-51639414D01*
X92279414Y-51516928D01*
X92381232Y-51376788D01*
X92459873Y-51222445D01*
X92513402Y-51057701D01*
X92540500Y-50886611D01*
X92540500Y-50713389D01*
X92513402Y-50542299D01*
X92459873Y-50377555D01*
X92381232Y-50223212D01*
X92381229Y-50223206D01*
X92378829Y-50219290D01*
X92360584Y-50151844D01*
X92381700Y-50085242D01*
X92435472Y-50040628D01*
X92484556Y-50030500D01*
X92935444Y-50030500D01*
X93002483Y-50050185D01*
X93048238Y-50102989D01*
X93058182Y-50172147D01*
X93041171Y-50219290D01*
X93038770Y-50223206D01*
X92960128Y-50377552D01*
X92906597Y-50542302D01*
X92885838Y-50673371D01*
X92879500Y-50713389D01*
X92879500Y-50886611D01*
X92906598Y-51057701D01*
X92960127Y-51222445D01*
X93038768Y-51376788D01*
X93140586Y-51516928D01*
X93263072Y-51639414D01*
X93403212Y-51741232D01*
X93557555Y-51819873D01*
X93722299Y-51873402D01*
X93893389Y-51900500D01*
X93893390Y-51900500D01*
X94066610Y-51900500D01*
X94066611Y-51900500D01*
X94237701Y-51873402D01*
X94402445Y-51819873D01*
X94556788Y-51741232D01*
X94696928Y-51639414D01*
X94819414Y-51516928D01*
X94921232Y-51376788D01*
X94999873Y-51222445D01*
X95053402Y-51057701D01*
X95080500Y-50886611D01*
X95080500Y-50713389D01*
X95053402Y-50542299D01*
X94999873Y-50377555D01*
X94921232Y-50223212D01*
X94921229Y-50223206D01*
X94918829Y-50219290D01*
X94900584Y-50151844D01*
X94921700Y-50085242D01*
X94975472Y-50040628D01*
X95024556Y-50030500D01*
X95475444Y-50030500D01*
X95542483Y-50050185D01*
X95588238Y-50102989D01*
X95598182Y-50172147D01*
X95581171Y-50219290D01*
X95578770Y-50223206D01*
X95500128Y-50377552D01*
X95446597Y-50542302D01*
X95425838Y-50673371D01*
X95419500Y-50713389D01*
X95419500Y-50886611D01*
X95446598Y-51057701D01*
X95500127Y-51222445D01*
X95578768Y-51376788D01*
X95680586Y-51516928D01*
X95803072Y-51639414D01*
X95943212Y-51741232D01*
X96097555Y-51819873D01*
X96262299Y-51873402D01*
X96433389Y-51900500D01*
X96433390Y-51900500D01*
X96606610Y-51900500D01*
X96606611Y-51900500D01*
X96777701Y-51873402D01*
X96942445Y-51819873D01*
X97096788Y-51741232D01*
X97236928Y-51639414D01*
X97359414Y-51516928D01*
X97461232Y-51376788D01*
X97539873Y-51222445D01*
X97593402Y-51057701D01*
X97620500Y-50886611D01*
X97620500Y-50713389D01*
X97593402Y-50542299D01*
X97539873Y-50377555D01*
X97461232Y-50223212D01*
X97461229Y-50223206D01*
X97458829Y-50219290D01*
X97440584Y-50151844D01*
X97461700Y-50085242D01*
X97515472Y-50040628D01*
X97564556Y-50030500D01*
X98015444Y-50030500D01*
X98082483Y-50050185D01*
X98128238Y-50102989D01*
X98138182Y-50172147D01*
X98121171Y-50219290D01*
X98118770Y-50223206D01*
X98040128Y-50377552D01*
X97986597Y-50542302D01*
X97965838Y-50673371D01*
X97959500Y-50713389D01*
X97959500Y-50886611D01*
X97986598Y-51057701D01*
X98040127Y-51222445D01*
X98118768Y-51376788D01*
X98220586Y-51516928D01*
X98343072Y-51639414D01*
X98483212Y-51741232D01*
X98637555Y-51819873D01*
X98802299Y-51873402D01*
X98973389Y-51900500D01*
X98973390Y-51900500D01*
X99146610Y-51900500D01*
X99146611Y-51900500D01*
X99317701Y-51873402D01*
X99482445Y-51819873D01*
X99636788Y-51741232D01*
X99776928Y-51639414D01*
X99899414Y-51516928D01*
X100001232Y-51376788D01*
X100079873Y-51222445D01*
X100133402Y-51057701D01*
X100160500Y-50886611D01*
X100160500Y-50713389D01*
X100133402Y-50542299D01*
X100079873Y-50377555D01*
X100001232Y-50223212D01*
X100001229Y-50223206D01*
X99998829Y-50219290D01*
X99980584Y-50151844D01*
X100001700Y-50085242D01*
X100055472Y-50040628D01*
X100104556Y-50030500D01*
X100555444Y-50030500D01*
X100622483Y-50050185D01*
X100668238Y-50102989D01*
X100678182Y-50172147D01*
X100661171Y-50219290D01*
X100658770Y-50223206D01*
X100580128Y-50377552D01*
X100526597Y-50542302D01*
X100505838Y-50673371D01*
X100499500Y-50713389D01*
X100499500Y-50886611D01*
X100526598Y-51057701D01*
X100580127Y-51222445D01*
X100658768Y-51376788D01*
X100760586Y-51516928D01*
X100883072Y-51639414D01*
X101023212Y-51741232D01*
X101177555Y-51819873D01*
X101342299Y-51873402D01*
X101513389Y-51900500D01*
X101513390Y-51900500D01*
X101686610Y-51900500D01*
X101686611Y-51900500D01*
X101857701Y-51873402D01*
X102022445Y-51819873D01*
X102176788Y-51741232D01*
X102316928Y-51639414D01*
X102439414Y-51516928D01*
X102541232Y-51376788D01*
X102619873Y-51222445D01*
X102673402Y-51057701D01*
X102700500Y-50886611D01*
X102700500Y-50713389D01*
X102673402Y-50542299D01*
X102619873Y-50377555D01*
X102541232Y-50223212D01*
X102541229Y-50223206D01*
X102538829Y-50219290D01*
X102520584Y-50151844D01*
X102541700Y-50085242D01*
X102595472Y-50040628D01*
X102644556Y-50030500D01*
X103095444Y-50030500D01*
X103162483Y-50050185D01*
X103208238Y-50102989D01*
X103218182Y-50172147D01*
X103201171Y-50219290D01*
X103198770Y-50223206D01*
X103120128Y-50377552D01*
X103066597Y-50542302D01*
X103045838Y-50673371D01*
X103039500Y-50713389D01*
X103039500Y-50886611D01*
X103066598Y-51057701D01*
X103120127Y-51222445D01*
X103198768Y-51376788D01*
X103300586Y-51516928D01*
X103423072Y-51639414D01*
X103563212Y-51741232D01*
X103717555Y-51819873D01*
X103882299Y-51873402D01*
X104053389Y-51900500D01*
X104053390Y-51900500D01*
X104226610Y-51900500D01*
X104226611Y-51900500D01*
X104397701Y-51873402D01*
X104562445Y-51819873D01*
X104716788Y-51741232D01*
X104856928Y-51639414D01*
X104979414Y-51516928D01*
X105081232Y-51376788D01*
X105159873Y-51222445D01*
X105213402Y-51057701D01*
X105240500Y-50886611D01*
X105240500Y-50713389D01*
X105213402Y-50542299D01*
X105159873Y-50377555D01*
X105081232Y-50223212D01*
X105081229Y-50223206D01*
X105078829Y-50219290D01*
X105060584Y-50151844D01*
X105081700Y-50085242D01*
X105135472Y-50040628D01*
X105184556Y-50030500D01*
X105635444Y-50030500D01*
X105702483Y-50050185D01*
X105748238Y-50102989D01*
X105758182Y-50172147D01*
X105741171Y-50219290D01*
X105738770Y-50223206D01*
X105660128Y-50377552D01*
X105606597Y-50542302D01*
X105585838Y-50673371D01*
X105579500Y-50713389D01*
X105579500Y-50886611D01*
X105606598Y-51057701D01*
X105660127Y-51222445D01*
X105738768Y-51376788D01*
X105840586Y-51516928D01*
X105963072Y-51639414D01*
X106103212Y-51741232D01*
X106257555Y-51819873D01*
X106422299Y-51873402D01*
X106593389Y-51900500D01*
X106593390Y-51900500D01*
X106766610Y-51900500D01*
X106766611Y-51900500D01*
X106937701Y-51873402D01*
X107102445Y-51819873D01*
X107256788Y-51741232D01*
X107396928Y-51639414D01*
X107519414Y-51516928D01*
X107621232Y-51376788D01*
X107699873Y-51222445D01*
X107753402Y-51057701D01*
X107780500Y-50886611D01*
X107780500Y-50713389D01*
X107753402Y-50542299D01*
X107699873Y-50377555D01*
X107621232Y-50223212D01*
X107621229Y-50223206D01*
X107618829Y-50219290D01*
X107600584Y-50151844D01*
X107621700Y-50085242D01*
X107675472Y-50040628D01*
X107724556Y-50030500D01*
X108175444Y-50030500D01*
X108242483Y-50050185D01*
X108288238Y-50102989D01*
X108298182Y-50172147D01*
X108281171Y-50219290D01*
X108278770Y-50223206D01*
X108200128Y-50377552D01*
X108146597Y-50542302D01*
X108125838Y-50673371D01*
X108119500Y-50713389D01*
X108119500Y-50886611D01*
X108146598Y-51057701D01*
X108200127Y-51222445D01*
X108278768Y-51376788D01*
X108380586Y-51516928D01*
X108503072Y-51639414D01*
X108643212Y-51741232D01*
X108797555Y-51819873D01*
X108962299Y-51873402D01*
X109133389Y-51900500D01*
X109133390Y-51900500D01*
X109306610Y-51900500D01*
X109306611Y-51900500D01*
X109477701Y-51873402D01*
X109642445Y-51819873D01*
X109796788Y-51741232D01*
X109936928Y-51639414D01*
X110059414Y-51516928D01*
X110161232Y-51376788D01*
X110239873Y-51222445D01*
X110293402Y-51057701D01*
X110320500Y-50886611D01*
X110320500Y-50713389D01*
X110293402Y-50542299D01*
X110239873Y-50377555D01*
X110161232Y-50223212D01*
X110161229Y-50223206D01*
X110158829Y-50219290D01*
X110140584Y-50151844D01*
X110161700Y-50085242D01*
X110215472Y-50040628D01*
X110264556Y-50030500D01*
X110715444Y-50030500D01*
X110782483Y-50050185D01*
X110828238Y-50102989D01*
X110838182Y-50172147D01*
X110821171Y-50219290D01*
X110818770Y-50223206D01*
X110740128Y-50377552D01*
X110686597Y-50542302D01*
X110665838Y-50673371D01*
X110659500Y-50713389D01*
X110659500Y-50886611D01*
X110686598Y-51057701D01*
X110740127Y-51222445D01*
X110818768Y-51376788D01*
X110920586Y-51516928D01*
X111043072Y-51639414D01*
X111183212Y-51741232D01*
X111337555Y-51819873D01*
X111502299Y-51873402D01*
X111673389Y-51900500D01*
X111673390Y-51900500D01*
X111846610Y-51900500D01*
X111846611Y-51900500D01*
X112017701Y-51873402D01*
X112182445Y-51819873D01*
X112336788Y-51741232D01*
X112476928Y-51639414D01*
X112599414Y-51516928D01*
X112701232Y-51376788D01*
X112779873Y-51222445D01*
X112833402Y-51057701D01*
X112860500Y-50886611D01*
X112860500Y-50713389D01*
X112833402Y-50542299D01*
X112779873Y-50377555D01*
X112701232Y-50223212D01*
X112701229Y-50223206D01*
X112698829Y-50219290D01*
X112680584Y-50151844D01*
X112701700Y-50085242D01*
X112755472Y-50040628D01*
X112804556Y-50030500D01*
X113255444Y-50030500D01*
X113322483Y-50050185D01*
X113368238Y-50102989D01*
X113378182Y-50172147D01*
X113361171Y-50219290D01*
X113358770Y-50223206D01*
X113280128Y-50377552D01*
X113226597Y-50542302D01*
X113205838Y-50673371D01*
X113199500Y-50713389D01*
X113199500Y-50886611D01*
X113226598Y-51057701D01*
X113280127Y-51222445D01*
X113358768Y-51376788D01*
X113460586Y-51516928D01*
X113583072Y-51639414D01*
X113723212Y-51741232D01*
X113877555Y-51819873D01*
X114042299Y-51873402D01*
X114213389Y-51900500D01*
X114213390Y-51900500D01*
X114386610Y-51900500D01*
X114386611Y-51900500D01*
X114557701Y-51873402D01*
X114722445Y-51819873D01*
X114876788Y-51741232D01*
X115016928Y-51639414D01*
X115139414Y-51516928D01*
X115241232Y-51376788D01*
X115319873Y-51222445D01*
X115373402Y-51057701D01*
X115400500Y-50886611D01*
X115400500Y-50713389D01*
X115373402Y-50542299D01*
X115319873Y-50377555D01*
X115241232Y-50223212D01*
X115241229Y-50223206D01*
X115238829Y-50219290D01*
X115220584Y-50151844D01*
X115241700Y-50085242D01*
X115295472Y-50040628D01*
X115344556Y-50030500D01*
X115795444Y-50030500D01*
X115862483Y-50050185D01*
X115908238Y-50102989D01*
X115918182Y-50172147D01*
X115901171Y-50219290D01*
X115898770Y-50223206D01*
X115820128Y-50377552D01*
X115766597Y-50542302D01*
X115745838Y-50673371D01*
X115739500Y-50713389D01*
X115739500Y-50886611D01*
X115766598Y-51057701D01*
X115820127Y-51222445D01*
X115898768Y-51376788D01*
X116000586Y-51516928D01*
X116123072Y-51639414D01*
X116263212Y-51741232D01*
X116417555Y-51819873D01*
X116582299Y-51873402D01*
X116753389Y-51900500D01*
X116753390Y-51900500D01*
X116926610Y-51900500D01*
X116926611Y-51900500D01*
X117097701Y-51873402D01*
X117262445Y-51819873D01*
X117416788Y-51741232D01*
X117556928Y-51639414D01*
X117679414Y-51516928D01*
X117781232Y-51376788D01*
X117859873Y-51222445D01*
X117913402Y-51057701D01*
X117940500Y-50886611D01*
X117940500Y-50713389D01*
X117913402Y-50542299D01*
X117859873Y-50377555D01*
X117781232Y-50223212D01*
X117781229Y-50223206D01*
X117778829Y-50219290D01*
X117760584Y-50151844D01*
X117781700Y-50085242D01*
X117835472Y-50040628D01*
X117884556Y-50030500D01*
X118335444Y-50030500D01*
X118402483Y-50050185D01*
X118448238Y-50102989D01*
X118458182Y-50172147D01*
X118441171Y-50219290D01*
X118438770Y-50223206D01*
X118360128Y-50377552D01*
X118306597Y-50542302D01*
X118285838Y-50673371D01*
X118279500Y-50713389D01*
X118279500Y-50886611D01*
X118306598Y-51057701D01*
X118360127Y-51222445D01*
X118438768Y-51376788D01*
X118540586Y-51516928D01*
X118663072Y-51639414D01*
X118803212Y-51741232D01*
X118957555Y-51819873D01*
X119122299Y-51873402D01*
X119293389Y-51900500D01*
X119293390Y-51900500D01*
X119466610Y-51900500D01*
X119466611Y-51900500D01*
X119637701Y-51873402D01*
X119802445Y-51819873D01*
X119956788Y-51741232D01*
X120096928Y-51639414D01*
X120219414Y-51516928D01*
X120321232Y-51376788D01*
X120399873Y-51222445D01*
X120453402Y-51057701D01*
X120480500Y-50886611D01*
X120480500Y-50713389D01*
X120453402Y-50542299D01*
X120399873Y-50377555D01*
X120321232Y-50223212D01*
X120321229Y-50223206D01*
X120318829Y-50219290D01*
X120300584Y-50151844D01*
X120321700Y-50085242D01*
X120375472Y-50040628D01*
X120424556Y-50030500D01*
X120875444Y-50030500D01*
X120942483Y-50050185D01*
X120988238Y-50102989D01*
X120998182Y-50172147D01*
X120981171Y-50219290D01*
X120978770Y-50223206D01*
X120900128Y-50377552D01*
X120846597Y-50542302D01*
X120825838Y-50673371D01*
X120819500Y-50713389D01*
X120819500Y-50886611D01*
X120846598Y-51057701D01*
X120900127Y-51222445D01*
X120978768Y-51376788D01*
X121080586Y-51516928D01*
X121203072Y-51639414D01*
X121343212Y-51741232D01*
X121497555Y-51819873D01*
X121662299Y-51873402D01*
X121833389Y-51900500D01*
X121833390Y-51900500D01*
X122006610Y-51900500D01*
X122006611Y-51900500D01*
X122177701Y-51873402D01*
X122342445Y-51819873D01*
X122496788Y-51741232D01*
X122496790Y-51741230D01*
X122496793Y-51741229D01*
X122500710Y-51738829D01*
X122568156Y-51720584D01*
X122634758Y-51741700D01*
X122679372Y-51795472D01*
X122689500Y-51844556D01*
X122689500Y-64995443D01*
X122669815Y-65062482D01*
X122617011Y-65108237D01*
X122547853Y-65118181D01*
X122500719Y-65101176D01*
X122496793Y-65098771D01*
X122496790Y-65098769D01*
X122496788Y-65098768D01*
X122342445Y-65020127D01*
X122177701Y-64966598D01*
X122177699Y-64966597D01*
X122177698Y-64966597D01*
X122046271Y-64945781D01*
X122006611Y-64939500D01*
X121833389Y-64939500D01*
X121793728Y-64945781D01*
X121662302Y-64966597D01*
X121497552Y-65020128D01*
X121343211Y-65098768D01*
X121316492Y-65118181D01*
X121203072Y-65200586D01*
X121203070Y-65200588D01*
X121203069Y-65200588D01*
X121080588Y-65323069D01*
X121080588Y-65323070D01*
X121080586Y-65323072D01*
X121036859Y-65383256D01*
X120978768Y-65463211D01*
X120900128Y-65617552D01*
X120846597Y-65782302D01*
X120819500Y-65953389D01*
X120819500Y-66126610D01*
X120846597Y-66297697D01*
X120900128Y-66462447D01*
X120978770Y-66616793D01*
X120981171Y-66620710D01*
X120999416Y-66688156D01*
X120978300Y-66754758D01*
X120924528Y-66799372D01*
X120875444Y-66809500D01*
X120424556Y-66809500D01*
X120357517Y-66789815D01*
X120311762Y-66737011D01*
X120301818Y-66667853D01*
X120318829Y-66620710D01*
X120321229Y-66616793D01*
X120321232Y-66616788D01*
X120399873Y-66462445D01*
X120453402Y-66297701D01*
X120480500Y-66126611D01*
X120480500Y-65953389D01*
X120453402Y-65782299D01*
X120399873Y-65617555D01*
X120321232Y-65463212D01*
X120219414Y-65323072D01*
X120096928Y-65200586D01*
X119956788Y-65098768D01*
X119885572Y-65062482D01*
X119802447Y-65020128D01*
X119802446Y-65020127D01*
X119802445Y-65020127D01*
X119637701Y-64966598D01*
X119637699Y-64966597D01*
X119637698Y-64966597D01*
X119506271Y-64945781D01*
X119466611Y-64939500D01*
X119293389Y-64939500D01*
X119253728Y-64945781D01*
X119122302Y-64966597D01*
X118957552Y-65020128D01*
X118803211Y-65098768D01*
X118776492Y-65118181D01*
X118663072Y-65200586D01*
X118663070Y-65200588D01*
X118663069Y-65200588D01*
X118540588Y-65323069D01*
X118540588Y-65323070D01*
X118540586Y-65323072D01*
X118496859Y-65383256D01*
X118438768Y-65463211D01*
X118360128Y-65617552D01*
X118306597Y-65782302D01*
X118279500Y-65953389D01*
X118279500Y-66126610D01*
X118306597Y-66297697D01*
X118360128Y-66462447D01*
X118438770Y-66616793D01*
X118441171Y-66620710D01*
X118459416Y-66688156D01*
X118438300Y-66754758D01*
X118384528Y-66799372D01*
X118335444Y-66809500D01*
X117884556Y-66809500D01*
X117817517Y-66789815D01*
X117771762Y-66737011D01*
X117761818Y-66667853D01*
X117778829Y-66620710D01*
X117781229Y-66616793D01*
X117781232Y-66616788D01*
X117859873Y-66462445D01*
X117913402Y-66297701D01*
X117940500Y-66126611D01*
X117940500Y-65953389D01*
X117913402Y-65782299D01*
X117859873Y-65617555D01*
X117781232Y-65463212D01*
X117679414Y-65323072D01*
X117556928Y-65200586D01*
X117416788Y-65098768D01*
X117345572Y-65062482D01*
X117262447Y-65020128D01*
X117262446Y-65020127D01*
X117262445Y-65020127D01*
X117097701Y-64966598D01*
X117097699Y-64966597D01*
X117097698Y-64966597D01*
X116966271Y-64945781D01*
X116926611Y-64939500D01*
X116753389Y-64939500D01*
X116713728Y-64945781D01*
X116582302Y-64966597D01*
X116417552Y-65020128D01*
X116263211Y-65098768D01*
X116236492Y-65118181D01*
X116123072Y-65200586D01*
X116123070Y-65200588D01*
X116123069Y-65200588D01*
X116000588Y-65323069D01*
X116000588Y-65323070D01*
X116000586Y-65323072D01*
X115956859Y-65383256D01*
X115898768Y-65463211D01*
X115820128Y-65617552D01*
X115766597Y-65782302D01*
X115739500Y-65953389D01*
X115739500Y-66126610D01*
X115766597Y-66297697D01*
X115820128Y-66462447D01*
X115898770Y-66616793D01*
X115901171Y-66620710D01*
X115919416Y-66688156D01*
X115898300Y-66754758D01*
X115844528Y-66799372D01*
X115795444Y-66809500D01*
X115344556Y-66809500D01*
X115277517Y-66789815D01*
X115231762Y-66737011D01*
X115221818Y-66667853D01*
X115238829Y-66620710D01*
X115241229Y-66616793D01*
X115241232Y-66616788D01*
X115319873Y-66462445D01*
X115373402Y-66297701D01*
X115400500Y-66126611D01*
X115400500Y-65953389D01*
X115373402Y-65782299D01*
X115319873Y-65617555D01*
X115241232Y-65463212D01*
X115139414Y-65323072D01*
X115016928Y-65200586D01*
X114876788Y-65098768D01*
X114805572Y-65062482D01*
X114722447Y-65020128D01*
X114722446Y-65020127D01*
X114722445Y-65020127D01*
X114557701Y-64966598D01*
X114557699Y-64966597D01*
X114557698Y-64966597D01*
X114426271Y-64945781D01*
X114386611Y-64939500D01*
X114213389Y-64939500D01*
X114173728Y-64945781D01*
X114042302Y-64966597D01*
X113877552Y-65020128D01*
X113723211Y-65098768D01*
X113696492Y-65118181D01*
X113583072Y-65200586D01*
X113583070Y-65200588D01*
X113583069Y-65200588D01*
X113460588Y-65323069D01*
X113460588Y-65323070D01*
X113460586Y-65323072D01*
X113416859Y-65383256D01*
X113358768Y-65463211D01*
X113280128Y-65617552D01*
X113226597Y-65782302D01*
X113199500Y-65953389D01*
X113199500Y-66126610D01*
X113226597Y-66297697D01*
X113280128Y-66462447D01*
X113358770Y-66616793D01*
X113361171Y-66620710D01*
X113379416Y-66688156D01*
X113358300Y-66754758D01*
X113304528Y-66799372D01*
X113255444Y-66809500D01*
X112804556Y-66809500D01*
X112737517Y-66789815D01*
X112691762Y-66737011D01*
X112681818Y-66667853D01*
X112698829Y-66620710D01*
X112701229Y-66616793D01*
X112701232Y-66616788D01*
X112779873Y-66462445D01*
X112833402Y-66297701D01*
X112860500Y-66126611D01*
X112860500Y-65953389D01*
X112833402Y-65782299D01*
X112779873Y-65617555D01*
X112701232Y-65463212D01*
X112599414Y-65323072D01*
X112476928Y-65200586D01*
X112336788Y-65098768D01*
X112265572Y-65062482D01*
X112182447Y-65020128D01*
X112182446Y-65020127D01*
X112182445Y-65020127D01*
X112017701Y-64966598D01*
X112017699Y-64966597D01*
X112017698Y-64966597D01*
X111886271Y-64945781D01*
X111846611Y-64939500D01*
X111673389Y-64939500D01*
X111633728Y-64945781D01*
X111502302Y-64966597D01*
X111337552Y-65020128D01*
X111183211Y-65098768D01*
X111156492Y-65118181D01*
X111043072Y-65200586D01*
X111043070Y-65200588D01*
X111043069Y-65200588D01*
X110920588Y-65323069D01*
X110920588Y-65323070D01*
X110920586Y-65323072D01*
X110876859Y-65383256D01*
X110818768Y-65463211D01*
X110740128Y-65617552D01*
X110686597Y-65782302D01*
X110659500Y-65953389D01*
X110659500Y-66126610D01*
X110686597Y-66297697D01*
X110740128Y-66462447D01*
X110818770Y-66616793D01*
X110821171Y-66620710D01*
X110839416Y-66688156D01*
X110818300Y-66754758D01*
X110764528Y-66799372D01*
X110715444Y-66809500D01*
X110264556Y-66809500D01*
X110197517Y-66789815D01*
X110151762Y-66737011D01*
X110141818Y-66667853D01*
X110158829Y-66620710D01*
X110161229Y-66616793D01*
X110161232Y-66616788D01*
X110239873Y-66462445D01*
X110293402Y-66297701D01*
X110320500Y-66126611D01*
X110320500Y-65953389D01*
X110293402Y-65782299D01*
X110239873Y-65617555D01*
X110161232Y-65463212D01*
X110059414Y-65323072D01*
X109936928Y-65200586D01*
X109796788Y-65098768D01*
X109725572Y-65062482D01*
X109642447Y-65020128D01*
X109642446Y-65020127D01*
X109642445Y-65020127D01*
X109477701Y-64966598D01*
X109477699Y-64966597D01*
X109477698Y-64966597D01*
X109346271Y-64945781D01*
X109306611Y-64939500D01*
X109133389Y-64939500D01*
X109093728Y-64945781D01*
X108962302Y-64966597D01*
X108797552Y-65020128D01*
X108643211Y-65098768D01*
X108616492Y-65118181D01*
X108503072Y-65200586D01*
X108503070Y-65200588D01*
X108503069Y-65200588D01*
X108380588Y-65323069D01*
X108380588Y-65323070D01*
X108380586Y-65323072D01*
X108336859Y-65383256D01*
X108278768Y-65463211D01*
X108200128Y-65617552D01*
X108146597Y-65782302D01*
X108119500Y-65953389D01*
X108119500Y-66126610D01*
X108146597Y-66297697D01*
X108200128Y-66462447D01*
X108278770Y-66616793D01*
X108281171Y-66620710D01*
X108299416Y-66688156D01*
X108278300Y-66754758D01*
X108224528Y-66799372D01*
X108175444Y-66809500D01*
X107724556Y-66809500D01*
X107657517Y-66789815D01*
X107611762Y-66737011D01*
X107601818Y-66667853D01*
X107618829Y-66620710D01*
X107621229Y-66616793D01*
X107621232Y-66616788D01*
X107699873Y-66462445D01*
X107753402Y-66297701D01*
X107780500Y-66126611D01*
X107780500Y-65953389D01*
X107753402Y-65782299D01*
X107699873Y-65617555D01*
X107621232Y-65463212D01*
X107519414Y-65323072D01*
X107396928Y-65200586D01*
X107256788Y-65098768D01*
X107185572Y-65062482D01*
X107102447Y-65020128D01*
X107102446Y-65020127D01*
X107102445Y-65020127D01*
X106937701Y-64966598D01*
X106937699Y-64966597D01*
X106937698Y-64966597D01*
X106806271Y-64945781D01*
X106766611Y-64939500D01*
X106593389Y-64939500D01*
X106553728Y-64945781D01*
X106422302Y-64966597D01*
X106257552Y-65020128D01*
X106103211Y-65098768D01*
X106076492Y-65118181D01*
X105963072Y-65200586D01*
X105963070Y-65200588D01*
X105963069Y-65200588D01*
X105840588Y-65323069D01*
X105840588Y-65323070D01*
X105840586Y-65323072D01*
X105796859Y-65383256D01*
X105738768Y-65463211D01*
X105660128Y-65617552D01*
X105606597Y-65782302D01*
X105579500Y-65953389D01*
X105579500Y-66126610D01*
X105606597Y-66297697D01*
X105660128Y-66462447D01*
X105738770Y-66616793D01*
X105741171Y-66620710D01*
X105759416Y-66688156D01*
X105738300Y-66754758D01*
X105684528Y-66799372D01*
X105635444Y-66809500D01*
X105184556Y-66809500D01*
X105117517Y-66789815D01*
X105071762Y-66737011D01*
X105061818Y-66667853D01*
X105078829Y-66620710D01*
X105081229Y-66616793D01*
X105081232Y-66616788D01*
X105159873Y-66462445D01*
X105213402Y-66297701D01*
X105240500Y-66126611D01*
X105240500Y-65953389D01*
X105213402Y-65782299D01*
X105159873Y-65617555D01*
X105081232Y-65463212D01*
X104979414Y-65323072D01*
X104856928Y-65200586D01*
X104716788Y-65098768D01*
X104645572Y-65062482D01*
X104562447Y-65020128D01*
X104562446Y-65020127D01*
X104562445Y-65020127D01*
X104397701Y-64966598D01*
X104397699Y-64966597D01*
X104397698Y-64966597D01*
X104266271Y-64945781D01*
X104226611Y-64939500D01*
X104053389Y-64939500D01*
X104013728Y-64945781D01*
X103882302Y-64966597D01*
X103717552Y-65020128D01*
X103563211Y-65098768D01*
X103536492Y-65118181D01*
X103423072Y-65200586D01*
X103423070Y-65200588D01*
X103423069Y-65200588D01*
X103300588Y-65323069D01*
X103300588Y-65323070D01*
X103300586Y-65323072D01*
X103256859Y-65383256D01*
X103198768Y-65463211D01*
X103120128Y-65617552D01*
X103066597Y-65782302D01*
X103039500Y-65953389D01*
X103039500Y-66126610D01*
X103066597Y-66297697D01*
X103120128Y-66462447D01*
X103198770Y-66616793D01*
X103201171Y-66620710D01*
X103219416Y-66688156D01*
X103198300Y-66754758D01*
X103144528Y-66799372D01*
X103095444Y-66809500D01*
X102644556Y-66809500D01*
X102577517Y-66789815D01*
X102531762Y-66737011D01*
X102521818Y-66667853D01*
X102538829Y-66620710D01*
X102541229Y-66616793D01*
X102541232Y-66616788D01*
X102619873Y-66462445D01*
X102673402Y-66297701D01*
X102700500Y-66126611D01*
X102700500Y-65953389D01*
X102673402Y-65782299D01*
X102619873Y-65617555D01*
X102541232Y-65463212D01*
X102439414Y-65323072D01*
X102316928Y-65200586D01*
X102176788Y-65098768D01*
X102105572Y-65062482D01*
X102022447Y-65020128D01*
X102022446Y-65020127D01*
X102022445Y-65020127D01*
X101857701Y-64966598D01*
X101857699Y-64966597D01*
X101857698Y-64966597D01*
X101726271Y-64945781D01*
X101686611Y-64939500D01*
X101513389Y-64939500D01*
X101473728Y-64945781D01*
X101342302Y-64966597D01*
X101177552Y-65020128D01*
X101023211Y-65098768D01*
X100996492Y-65118181D01*
X100883072Y-65200586D01*
X100883070Y-65200588D01*
X100883069Y-65200588D01*
X100760588Y-65323069D01*
X100760588Y-65323070D01*
X100760586Y-65323072D01*
X100716859Y-65383256D01*
X100658768Y-65463211D01*
X100580128Y-65617552D01*
X100526597Y-65782302D01*
X100499500Y-65953389D01*
X100499500Y-66126610D01*
X100526597Y-66297697D01*
X100580128Y-66462447D01*
X100658770Y-66616793D01*
X100661171Y-66620710D01*
X100679416Y-66688156D01*
X100658300Y-66754758D01*
X100604528Y-66799372D01*
X100555444Y-66809500D01*
X100104556Y-66809500D01*
X100037517Y-66789815D01*
X99991762Y-66737011D01*
X99981818Y-66667853D01*
X99998829Y-66620710D01*
X100001229Y-66616793D01*
X100001232Y-66616788D01*
X100079873Y-66462445D01*
X100133402Y-66297701D01*
X100160500Y-66126611D01*
X100160500Y-65953389D01*
X100133402Y-65782299D01*
X100079873Y-65617555D01*
X100001232Y-65463212D01*
X99899414Y-65323072D01*
X99776928Y-65200586D01*
X99636788Y-65098768D01*
X99565572Y-65062482D01*
X99482447Y-65020128D01*
X99482446Y-65020127D01*
X99482445Y-65020127D01*
X99317701Y-64966598D01*
X99317699Y-64966597D01*
X99317698Y-64966597D01*
X99186271Y-64945781D01*
X99146611Y-64939500D01*
X98973389Y-64939500D01*
X98933728Y-64945781D01*
X98802302Y-64966597D01*
X98637552Y-65020128D01*
X98483211Y-65098768D01*
X98456492Y-65118181D01*
X98343072Y-65200586D01*
X98343070Y-65200588D01*
X98343069Y-65200588D01*
X98220588Y-65323069D01*
X98220588Y-65323070D01*
X98220586Y-65323072D01*
X98176859Y-65383256D01*
X98118768Y-65463211D01*
X98040128Y-65617552D01*
X97986597Y-65782302D01*
X97959500Y-65953389D01*
X97959500Y-66126610D01*
X97986597Y-66297697D01*
X98040128Y-66462447D01*
X98118770Y-66616793D01*
X98121171Y-66620710D01*
X98139416Y-66688156D01*
X98118300Y-66754758D01*
X98064528Y-66799372D01*
X98015444Y-66809500D01*
X97564556Y-66809500D01*
X97497517Y-66789815D01*
X97451762Y-66737011D01*
X97441818Y-66667853D01*
X97458829Y-66620710D01*
X97461229Y-66616793D01*
X97461232Y-66616788D01*
X97539873Y-66462445D01*
X97593402Y-66297701D01*
X97620500Y-66126611D01*
X97620500Y-65953389D01*
X97593402Y-65782299D01*
X97539873Y-65617555D01*
X97461232Y-65463212D01*
X97359414Y-65323072D01*
X97236928Y-65200586D01*
X97096788Y-65098768D01*
X97025572Y-65062482D01*
X96942447Y-65020128D01*
X96942446Y-65020127D01*
X96942445Y-65020127D01*
X96777701Y-64966598D01*
X96777699Y-64966597D01*
X96777698Y-64966597D01*
X96646271Y-64945781D01*
X96606611Y-64939500D01*
X96433389Y-64939500D01*
X96393728Y-64945781D01*
X96262302Y-64966597D01*
X96097552Y-65020128D01*
X95943211Y-65098768D01*
X95916492Y-65118181D01*
X95803072Y-65200586D01*
X95803070Y-65200588D01*
X95803069Y-65200588D01*
X95680588Y-65323069D01*
X95680588Y-65323070D01*
X95680586Y-65323072D01*
X95636859Y-65383256D01*
X95578768Y-65463211D01*
X95500128Y-65617552D01*
X95446597Y-65782302D01*
X95419500Y-65953389D01*
X95419500Y-66126610D01*
X95446597Y-66297697D01*
X95500128Y-66462447D01*
X95578770Y-66616793D01*
X95581171Y-66620710D01*
X95599416Y-66688156D01*
X95578300Y-66754758D01*
X95524528Y-66799372D01*
X95475444Y-66809500D01*
X95024556Y-66809500D01*
X94957517Y-66789815D01*
X94911762Y-66737011D01*
X94901818Y-66667853D01*
X94918829Y-66620710D01*
X94921229Y-66616793D01*
X94921232Y-66616788D01*
X94999873Y-66462445D01*
X95053402Y-66297701D01*
X95080500Y-66126611D01*
X95080500Y-65953389D01*
X95053402Y-65782299D01*
X94999873Y-65617555D01*
X94921232Y-65463212D01*
X94819414Y-65323072D01*
X94696928Y-65200586D01*
X94556788Y-65098768D01*
X94485572Y-65062482D01*
X94402447Y-65020128D01*
X94402446Y-65020127D01*
X94402445Y-65020127D01*
X94237701Y-64966598D01*
X94237699Y-64966597D01*
X94237698Y-64966597D01*
X94106271Y-64945781D01*
X94066611Y-64939500D01*
X93893389Y-64939500D01*
X93853728Y-64945781D01*
X93722302Y-64966597D01*
X93557552Y-65020128D01*
X93403211Y-65098768D01*
X93376492Y-65118181D01*
X93263072Y-65200586D01*
X93263070Y-65200588D01*
X93263069Y-65200588D01*
X93140588Y-65323069D01*
X93140588Y-65323070D01*
X93140586Y-65323072D01*
X93096859Y-65383256D01*
X93038768Y-65463211D01*
X92960128Y-65617552D01*
X92906597Y-65782302D01*
X92879500Y-65953389D01*
X92879500Y-66126610D01*
X92906597Y-66297697D01*
X92960128Y-66462447D01*
X93038770Y-66616793D01*
X93041171Y-66620710D01*
X93059416Y-66688156D01*
X93038300Y-66754758D01*
X92984528Y-66799372D01*
X92935444Y-66809500D01*
X92484556Y-66809500D01*
X92417517Y-66789815D01*
X92371762Y-66737011D01*
X92361818Y-66667853D01*
X92378829Y-66620710D01*
X92381229Y-66616793D01*
X92381232Y-66616788D01*
X92459873Y-66462445D01*
X92513402Y-66297701D01*
X92540500Y-66126611D01*
X92540500Y-65953389D01*
X92513402Y-65782299D01*
X92459873Y-65617555D01*
X92381232Y-65463212D01*
X92279414Y-65323072D01*
X92156928Y-65200586D01*
X92016788Y-65098768D01*
X91945572Y-65062482D01*
X91862447Y-65020128D01*
X91862446Y-65020127D01*
X91862445Y-65020127D01*
X91697701Y-64966598D01*
X91697699Y-64966597D01*
X91697698Y-64966597D01*
X91566271Y-64945781D01*
X91526611Y-64939500D01*
X91353389Y-64939500D01*
X91313728Y-64945781D01*
X91182302Y-64966597D01*
X91017552Y-65020128D01*
X90863211Y-65098768D01*
X90836492Y-65118181D01*
X90723072Y-65200586D01*
X90723070Y-65200588D01*
X90723069Y-65200588D01*
X90600588Y-65323069D01*
X90600588Y-65323070D01*
X90600586Y-65323072D01*
X90556859Y-65383256D01*
X90498768Y-65463211D01*
X90420128Y-65617552D01*
X90366597Y-65782302D01*
X90339500Y-65953389D01*
X90339500Y-66126610D01*
X90366597Y-66297697D01*
X90420128Y-66462447D01*
X90498770Y-66616793D01*
X90501171Y-66620710D01*
X90519416Y-66688156D01*
X90498300Y-66754758D01*
X90444528Y-66799372D01*
X90395444Y-66809500D01*
X89944556Y-66809500D01*
X89877517Y-66789815D01*
X89831762Y-66737011D01*
X89821818Y-66667853D01*
X89838829Y-66620710D01*
X89841229Y-66616793D01*
X89841232Y-66616788D01*
X89919873Y-66462445D01*
X89973402Y-66297701D01*
X90000500Y-66126611D01*
X90000500Y-65953389D01*
X89973402Y-65782299D01*
X89919873Y-65617555D01*
X89841232Y-65463212D01*
X89739414Y-65323072D01*
X89616928Y-65200586D01*
X89476788Y-65098768D01*
X89405572Y-65062482D01*
X89322447Y-65020128D01*
X89322446Y-65020127D01*
X89322445Y-65020127D01*
X89157701Y-64966598D01*
X89157699Y-64966597D01*
X89157698Y-64966597D01*
X89026271Y-64945781D01*
X88986611Y-64939500D01*
X88813389Y-64939500D01*
X88773728Y-64945781D01*
X88642302Y-64966597D01*
X88477552Y-65020128D01*
X88323211Y-65098768D01*
X88296492Y-65118181D01*
X88183072Y-65200586D01*
X88183070Y-65200588D01*
X88183069Y-65200588D01*
X88060588Y-65323069D01*
X88060588Y-65323070D01*
X88060586Y-65323072D01*
X88016859Y-65383256D01*
X87958768Y-65463211D01*
X87880128Y-65617552D01*
X87826597Y-65782302D01*
X87799500Y-65953389D01*
X87799500Y-66126610D01*
X87826597Y-66297697D01*
X87880128Y-66462447D01*
X87958770Y-66616793D01*
X87961171Y-66620710D01*
X87979416Y-66688156D01*
X87958300Y-66754758D01*
X87904528Y-66799372D01*
X87855444Y-66809500D01*
X87404556Y-66809500D01*
X87337517Y-66789815D01*
X87291762Y-66737011D01*
X87281818Y-66667853D01*
X87298829Y-66620710D01*
X87301229Y-66616793D01*
X87301232Y-66616788D01*
X87379873Y-66462445D01*
X87433402Y-66297701D01*
X87460500Y-66126611D01*
X87460500Y-65953389D01*
X87433402Y-65782299D01*
X87379873Y-65617555D01*
X87301232Y-65463212D01*
X87199414Y-65323072D01*
X87076928Y-65200586D01*
X86936788Y-65098768D01*
X86865572Y-65062482D01*
X86782447Y-65020128D01*
X86782446Y-65020127D01*
X86782445Y-65020127D01*
X86617701Y-64966598D01*
X86617699Y-64966597D01*
X86617698Y-64966597D01*
X86486271Y-64945781D01*
X86446611Y-64939500D01*
X86273389Y-64939500D01*
X86233728Y-64945781D01*
X86102302Y-64966597D01*
X85937552Y-65020128D01*
X85783211Y-65098768D01*
X85756492Y-65118181D01*
X85643072Y-65200586D01*
X85643070Y-65200588D01*
X85643069Y-65200588D01*
X85520588Y-65323069D01*
X85520588Y-65323070D01*
X85520586Y-65323072D01*
X85476859Y-65383256D01*
X85418768Y-65463211D01*
X85340128Y-65617552D01*
X85286597Y-65782302D01*
X85259500Y-65953389D01*
X85259500Y-66126610D01*
X85286597Y-66297697D01*
X85340128Y-66462447D01*
X85418770Y-66616793D01*
X85421171Y-66620710D01*
X85439416Y-66688156D01*
X85418300Y-66754758D01*
X85364528Y-66799372D01*
X85315444Y-66809500D01*
X84864556Y-66809500D01*
X84797517Y-66789815D01*
X84751762Y-66737011D01*
X84741818Y-66667853D01*
X84758829Y-66620710D01*
X84761229Y-66616793D01*
X84761232Y-66616788D01*
X84839873Y-66462445D01*
X84893402Y-66297701D01*
X84920500Y-66126611D01*
X84920500Y-65953389D01*
X84893402Y-65782299D01*
X84839873Y-65617555D01*
X84761232Y-65463212D01*
X84659414Y-65323072D01*
X84536928Y-65200586D01*
X84396788Y-65098768D01*
X84325572Y-65062482D01*
X84242447Y-65020128D01*
X84242446Y-65020127D01*
X84242445Y-65020127D01*
X84077701Y-64966598D01*
X84077699Y-64966597D01*
X84077698Y-64966597D01*
X83946271Y-64945781D01*
X83906611Y-64939500D01*
X83733389Y-64939500D01*
X83693728Y-64945781D01*
X83562302Y-64966597D01*
X83397552Y-65020128D01*
X83243211Y-65098768D01*
X83216492Y-65118181D01*
X83103072Y-65200586D01*
X83103070Y-65200588D01*
X83103069Y-65200588D01*
X82980588Y-65323069D01*
X82980588Y-65323070D01*
X82980586Y-65323072D01*
X82936859Y-65383256D01*
X82878768Y-65463211D01*
X82800128Y-65617552D01*
X82746597Y-65782302D01*
X82719500Y-65953389D01*
X82719500Y-66126610D01*
X82746597Y-66297697D01*
X82800128Y-66462447D01*
X82878770Y-66616793D01*
X82881171Y-66620710D01*
X82899416Y-66688156D01*
X82878300Y-66754758D01*
X82824528Y-66799372D01*
X82775444Y-66809500D01*
X82324556Y-66809500D01*
X82257517Y-66789815D01*
X82211762Y-66737011D01*
X82201818Y-66667853D01*
X82218829Y-66620710D01*
X82221229Y-66616793D01*
X82221232Y-66616788D01*
X82299873Y-66462445D01*
X82353402Y-66297701D01*
X82380500Y-66126611D01*
X82380500Y-65953389D01*
X82353402Y-65782299D01*
X82299873Y-65617555D01*
X82221232Y-65463212D01*
X82119414Y-65323072D01*
X81996928Y-65200586D01*
X81856788Y-65098768D01*
X81785572Y-65062482D01*
X81702447Y-65020128D01*
X81702446Y-65020127D01*
X81702445Y-65020127D01*
X81537701Y-64966598D01*
X81537699Y-64966597D01*
X81537698Y-64966597D01*
X81406271Y-64945781D01*
X81366611Y-64939500D01*
X81193389Y-64939500D01*
X81153728Y-64945781D01*
X81022302Y-64966597D01*
X80857552Y-65020128D01*
X80703211Y-65098768D01*
X80676492Y-65118181D01*
X80563072Y-65200586D01*
X80563070Y-65200588D01*
X80563069Y-65200588D01*
X80440588Y-65323069D01*
X80440588Y-65323070D01*
X80440586Y-65323072D01*
X80396859Y-65383256D01*
X80338768Y-65463211D01*
X80260128Y-65617552D01*
X80206597Y-65782302D01*
X80179500Y-65953389D01*
X80179500Y-66126610D01*
X80206597Y-66297697D01*
X80260128Y-66462447D01*
X80338770Y-66616793D01*
X80341171Y-66620710D01*
X80359416Y-66688156D01*
X80338300Y-66754758D01*
X80284528Y-66799372D01*
X80235444Y-66809500D01*
X79784556Y-66809500D01*
X79717517Y-66789815D01*
X79671762Y-66737011D01*
X79661818Y-66667853D01*
X79678829Y-66620710D01*
X79681229Y-66616793D01*
X79681232Y-66616788D01*
X79759873Y-66462445D01*
X79813402Y-66297701D01*
X79840500Y-66126611D01*
X79840500Y-65953389D01*
X79813402Y-65782299D01*
X79759873Y-65617555D01*
X79681232Y-65463212D01*
X79579414Y-65323072D01*
X79456928Y-65200586D01*
X79316788Y-65098768D01*
X79245572Y-65062482D01*
X79162447Y-65020128D01*
X79162446Y-65020127D01*
X79162445Y-65020127D01*
X78997701Y-64966598D01*
X78997699Y-64966597D01*
X78997698Y-64966597D01*
X78866271Y-64945781D01*
X78826611Y-64939500D01*
X78653389Y-64939500D01*
X78613728Y-64945781D01*
X78482302Y-64966597D01*
X78317552Y-65020128D01*
X78163211Y-65098768D01*
X78136492Y-65118181D01*
X78023072Y-65200586D01*
X78023070Y-65200588D01*
X78023069Y-65200588D01*
X77900588Y-65323069D01*
X77900588Y-65323070D01*
X77900586Y-65323072D01*
X77856859Y-65383256D01*
X77798768Y-65463211D01*
X77720128Y-65617552D01*
X77666597Y-65782302D01*
X77639500Y-65953389D01*
X77639500Y-66126610D01*
X77666597Y-66297697D01*
X77720128Y-66462447D01*
X77798770Y-66616793D01*
X77801171Y-66620710D01*
X77819416Y-66688156D01*
X77798300Y-66754758D01*
X77744528Y-66799372D01*
X77695444Y-66809500D01*
X77244556Y-66809500D01*
X77177517Y-66789815D01*
X77131762Y-66737011D01*
X77121818Y-66667853D01*
X77138829Y-66620710D01*
X77141229Y-66616793D01*
X77141232Y-66616788D01*
X77219873Y-66462445D01*
X77273402Y-66297701D01*
X77300500Y-66126611D01*
X77300500Y-65953389D01*
X77273402Y-65782299D01*
X77219873Y-65617555D01*
X77141232Y-65463212D01*
X77039414Y-65323072D01*
X76916928Y-65200586D01*
X76776788Y-65098768D01*
X76705572Y-65062482D01*
X76622447Y-65020128D01*
X76622446Y-65020127D01*
X76622445Y-65020127D01*
X76457701Y-64966598D01*
X76457699Y-64966597D01*
X76457698Y-64966597D01*
X76326271Y-64945781D01*
X76286611Y-64939500D01*
X76113389Y-64939500D01*
X76073728Y-64945781D01*
X75942302Y-64966597D01*
X75777552Y-65020128D01*
X75623211Y-65098768D01*
X75596492Y-65118181D01*
X75483072Y-65200586D01*
X75483070Y-65200588D01*
X75483069Y-65200588D01*
X75360588Y-65323069D01*
X75360588Y-65323070D01*
X75360586Y-65323072D01*
X75316859Y-65383256D01*
X75258768Y-65463211D01*
X75180128Y-65617552D01*
X75126597Y-65782302D01*
X75099500Y-65953389D01*
X75099500Y-66126610D01*
X75126597Y-66297697D01*
X75180128Y-66462447D01*
X75258770Y-66616793D01*
X75261171Y-66620710D01*
X75279416Y-66688156D01*
X75258300Y-66754758D01*
X75204528Y-66799372D01*
X75155444Y-66809500D01*
X74704556Y-66809500D01*
X74637517Y-66789815D01*
X74591762Y-66737011D01*
X74581818Y-66667853D01*
X74598829Y-66620710D01*
X74601229Y-66616793D01*
X74601232Y-66616788D01*
X74679873Y-66462445D01*
X74733402Y-66297701D01*
X74760500Y-66126611D01*
X74760500Y-65953389D01*
X74733402Y-65782299D01*
X74679873Y-65617555D01*
X74601232Y-65463212D01*
X74499414Y-65323072D01*
X74376928Y-65200586D01*
X74236788Y-65098768D01*
X74165572Y-65062482D01*
X74082447Y-65020128D01*
X74082446Y-65020127D01*
X74082445Y-65020127D01*
X73917701Y-64966598D01*
X73917699Y-64966597D01*
X73917698Y-64966597D01*
X73786271Y-64945781D01*
X73746611Y-64939500D01*
X73573389Y-64939500D01*
X73533728Y-64945781D01*
X73402302Y-64966597D01*
X73237552Y-65020128D01*
X73083211Y-65098768D01*
X73056492Y-65118181D01*
X72943072Y-65200586D01*
X72943070Y-65200588D01*
X72943069Y-65200588D01*
X72820588Y-65323069D01*
X72820588Y-65323070D01*
X72820586Y-65323072D01*
X72776859Y-65383256D01*
X72718768Y-65463211D01*
X72640128Y-65617552D01*
X72586597Y-65782302D01*
X72559500Y-65953389D01*
X72559500Y-66126610D01*
X72586597Y-66297697D01*
X72640128Y-66462447D01*
X72718770Y-66616793D01*
X72721171Y-66620710D01*
X72739416Y-66688156D01*
X72718300Y-66754758D01*
X72664528Y-66799372D01*
X72615444Y-66809500D01*
X72164556Y-66809500D01*
X72097517Y-66789815D01*
X72051762Y-66737011D01*
X72041818Y-66667853D01*
X72058829Y-66620710D01*
X72061229Y-66616793D01*
X72061232Y-66616788D01*
X72139873Y-66462445D01*
X72193402Y-66297701D01*
X72220500Y-66126611D01*
X72220500Y-65953389D01*
X72193402Y-65782299D01*
X72139873Y-65617555D01*
X72061232Y-65463212D01*
X71959414Y-65323072D01*
X71836928Y-65200586D01*
X71696788Y-65098768D01*
X71625572Y-65062482D01*
X71542447Y-65020128D01*
X71542446Y-65020127D01*
X71542445Y-65020127D01*
X71377701Y-64966598D01*
X71377699Y-64966597D01*
X71377698Y-64966597D01*
X71246271Y-64945781D01*
X71206611Y-64939500D01*
X71033389Y-64939500D01*
X70993728Y-64945781D01*
X70862302Y-64966597D01*
X70697552Y-65020128D01*
X70543211Y-65098768D01*
X70516492Y-65118181D01*
X70403072Y-65200586D01*
X70403070Y-65200588D01*
X70403069Y-65200588D01*
X70280588Y-65323069D01*
X70280588Y-65323070D01*
X70280586Y-65323072D01*
X70236859Y-65383256D01*
X70178768Y-65463211D01*
X70100128Y-65617552D01*
X70046597Y-65782302D01*
X70019500Y-65953389D01*
X70019500Y-66126610D01*
X70046597Y-66297697D01*
X70100128Y-66462447D01*
X70178770Y-66616793D01*
X70181171Y-66620710D01*
X70199416Y-66688156D01*
X70178300Y-66754758D01*
X70124528Y-66799372D01*
X70075444Y-66809500D01*
X69624556Y-66809500D01*
X69557517Y-66789815D01*
X69511762Y-66737011D01*
X69501818Y-66667853D01*
X69518829Y-66620710D01*
X69521229Y-66616793D01*
X69521232Y-66616788D01*
X69599873Y-66462445D01*
X69653402Y-66297701D01*
X69680500Y-66126611D01*
X69680500Y-65953389D01*
X69653402Y-65782299D01*
X69599873Y-65617555D01*
X69521232Y-65463212D01*
X69419414Y-65323072D01*
X69296928Y-65200586D01*
X69156788Y-65098768D01*
X69085572Y-65062482D01*
X69002447Y-65020128D01*
X69002446Y-65020127D01*
X69002445Y-65020127D01*
X68837701Y-64966598D01*
X68837699Y-64966597D01*
X68837698Y-64966597D01*
X68706271Y-64945781D01*
X68666611Y-64939500D01*
X68493389Y-64939500D01*
X68453728Y-64945781D01*
X68322302Y-64966597D01*
X68157552Y-65020128D01*
X68003211Y-65098768D01*
X67976492Y-65118181D01*
X67863072Y-65200586D01*
X67863070Y-65200588D01*
X67863069Y-65200588D01*
X67740588Y-65323069D01*
X67740588Y-65323070D01*
X67740586Y-65323072D01*
X67696859Y-65383256D01*
X67638768Y-65463211D01*
X67560128Y-65617552D01*
X67506597Y-65782302D01*
X67479500Y-65953389D01*
X67479500Y-66126610D01*
X67506597Y-66297697D01*
X67560128Y-66462447D01*
X67638770Y-66616793D01*
X67641171Y-66620710D01*
X67659416Y-66688156D01*
X67638300Y-66754758D01*
X67584528Y-66799372D01*
X67535444Y-66809500D01*
X67084556Y-66809500D01*
X67017517Y-66789815D01*
X66971762Y-66737011D01*
X66961818Y-66667853D01*
X66978829Y-66620710D01*
X66981229Y-66616793D01*
X66981232Y-66616788D01*
X67059873Y-66462445D01*
X67113402Y-66297701D01*
X67140500Y-66126611D01*
X67140500Y-65953389D01*
X67113402Y-65782299D01*
X67059873Y-65617555D01*
X66981232Y-65463212D01*
X66879414Y-65323072D01*
X66756928Y-65200586D01*
X66616788Y-65098768D01*
X66545572Y-65062482D01*
X66462447Y-65020128D01*
X66462446Y-65020127D01*
X66462445Y-65020127D01*
X66297701Y-64966598D01*
X66297699Y-64966597D01*
X66297698Y-64966597D01*
X66166271Y-64945781D01*
X66126611Y-64939500D01*
X65953389Y-64939500D01*
X65913728Y-64945781D01*
X65782302Y-64966597D01*
X65617552Y-65020128D01*
X65463211Y-65098768D01*
X65436492Y-65118181D01*
X65323072Y-65200586D01*
X65323070Y-65200588D01*
X65323069Y-65200588D01*
X65200588Y-65323069D01*
X65200588Y-65323070D01*
X65200586Y-65323072D01*
X65156859Y-65383256D01*
X65098768Y-65463211D01*
X65020128Y-65617552D01*
X64966597Y-65782302D01*
X64939500Y-65953389D01*
X64939500Y-66126610D01*
X64966597Y-66297697D01*
X65020128Y-66462447D01*
X65098770Y-66616793D01*
X65101171Y-66620710D01*
X65119416Y-66688156D01*
X65098300Y-66754758D01*
X65044528Y-66799372D01*
X64995444Y-66809500D01*
X64544556Y-66809500D01*
X64477517Y-66789815D01*
X64431762Y-66737011D01*
X64421818Y-66667853D01*
X64438829Y-66620710D01*
X64441229Y-66616793D01*
X64441232Y-66616788D01*
X64519873Y-66462445D01*
X64573402Y-66297701D01*
X64600500Y-66126611D01*
X64600500Y-65953389D01*
X64573402Y-65782299D01*
X64519873Y-65617555D01*
X64441232Y-65463212D01*
X64339414Y-65323072D01*
X64216928Y-65200586D01*
X64076788Y-65098768D01*
X64005572Y-65062482D01*
X63922447Y-65020128D01*
X63922446Y-65020127D01*
X63922445Y-65020127D01*
X63757701Y-64966598D01*
X63757699Y-64966597D01*
X63757698Y-64966597D01*
X63626271Y-64945781D01*
X63586611Y-64939500D01*
X63413389Y-64939500D01*
X63373728Y-64945781D01*
X63242302Y-64966597D01*
X63077552Y-65020128D01*
X62923206Y-65098771D01*
X62919281Y-65101176D01*
X62851833Y-65119414D01*
X62785233Y-65098293D01*
X62740624Y-65044517D01*
X62730500Y-64995443D01*
X62730500Y-51844556D01*
X62750185Y-51777517D01*
X62802989Y-51731762D01*
X62872147Y-51721818D01*
X62919290Y-51738829D01*
X62923206Y-51741229D01*
X62939887Y-51749728D01*
X63077555Y-51819873D01*
X63242299Y-51873402D01*
X63413389Y-51900500D01*
X63413390Y-51900500D01*
X63586610Y-51900500D01*
X63586611Y-51900500D01*
X63757701Y-51873402D01*
X63922445Y-51819873D01*
X64076788Y-51741232D01*
X64216928Y-51639414D01*
X64339414Y-51516928D01*
X64441232Y-51376788D01*
X64519873Y-51222445D01*
X64573402Y-51057701D01*
X64600500Y-50886611D01*
X64600500Y-50713389D01*
X64573402Y-50542299D01*
X64519873Y-50377555D01*
X64441232Y-50223212D01*
X64441229Y-50223206D01*
X64438829Y-50219290D01*
X64420584Y-50151844D01*
X64441700Y-50085242D01*
X64495472Y-50040628D01*
X64544556Y-50030500D01*
X64995444Y-50030500D01*
X65062483Y-50050185D01*
G37*
%TD.AperFunction*%
M02*
