%TF.GenerationSoftware,KiCad,Pcbnew,9.0.1*%
%TF.CreationDate,2025-05-27T23:10:51+02:00*%
%TF.ProjectId,SOIC16,534f4943-3136-42e6-9b69-6361645f7063,rev?*%
%TF.SameCoordinates,Original*%
%TF.FileFunction,Legend,Bot*%
%TF.FilePolarity,Positive*%
%FSLAX46Y46*%
G04 Gerber Fmt 4.6, Leading zero omitted, Abs format (unit mm)*
G04 Created by KiCad (PCBNEW 9.0.1) date 2025-05-27 23:10:51*
%MOMM*%
%LPD*%
G01*
G04 APERTURE LIST*
%ADD10C,0.150000*%
G04 APERTURE END LIST*
D10*
X96189800Y-107152839D02*
X96142180Y-107009982D01*
X96142180Y-107009982D02*
X96142180Y-106771887D01*
X96142180Y-106771887D02*
X96189800Y-106676649D01*
X96189800Y-106676649D02*
X96237419Y-106629030D01*
X96237419Y-106629030D02*
X96332657Y-106581411D01*
X96332657Y-106581411D02*
X96427895Y-106581411D01*
X96427895Y-106581411D02*
X96523133Y-106629030D01*
X96523133Y-106629030D02*
X96570752Y-106676649D01*
X96570752Y-106676649D02*
X96618371Y-106771887D01*
X96618371Y-106771887D02*
X96665990Y-106962363D01*
X96665990Y-106962363D02*
X96713609Y-107057601D01*
X96713609Y-107057601D02*
X96761228Y-107105220D01*
X96761228Y-107105220D02*
X96856466Y-107152839D01*
X96856466Y-107152839D02*
X96951704Y-107152839D01*
X96951704Y-107152839D02*
X97046942Y-107105220D01*
X97046942Y-107105220D02*
X97094561Y-107057601D01*
X97094561Y-107057601D02*
X97142180Y-106962363D01*
X97142180Y-106962363D02*
X97142180Y-106724268D01*
X97142180Y-106724268D02*
X97094561Y-106581411D01*
X97142180Y-105962363D02*
X97142180Y-105771887D01*
X97142180Y-105771887D02*
X97094561Y-105676649D01*
X97094561Y-105676649D02*
X96999323Y-105581411D01*
X96999323Y-105581411D02*
X96808847Y-105533792D01*
X96808847Y-105533792D02*
X96475514Y-105533792D01*
X96475514Y-105533792D02*
X96285038Y-105581411D01*
X96285038Y-105581411D02*
X96189800Y-105676649D01*
X96189800Y-105676649D02*
X96142180Y-105771887D01*
X96142180Y-105771887D02*
X96142180Y-105962363D01*
X96142180Y-105962363D02*
X96189800Y-106057601D01*
X96189800Y-106057601D02*
X96285038Y-106152839D01*
X96285038Y-106152839D02*
X96475514Y-106200458D01*
X96475514Y-106200458D02*
X96808847Y-106200458D01*
X96808847Y-106200458D02*
X96999323Y-106152839D01*
X96999323Y-106152839D02*
X97094561Y-106057601D01*
X97094561Y-106057601D02*
X97142180Y-105962363D01*
X96142180Y-105105220D02*
X97142180Y-105105220D01*
X96237419Y-104057602D02*
X96189800Y-104105221D01*
X96189800Y-104105221D02*
X96142180Y-104248078D01*
X96142180Y-104248078D02*
X96142180Y-104343316D01*
X96142180Y-104343316D02*
X96189800Y-104486173D01*
X96189800Y-104486173D02*
X96285038Y-104581411D01*
X96285038Y-104581411D02*
X96380276Y-104629030D01*
X96380276Y-104629030D02*
X96570752Y-104676649D01*
X96570752Y-104676649D02*
X96713609Y-104676649D01*
X96713609Y-104676649D02*
X96904085Y-104629030D01*
X96904085Y-104629030D02*
X96999323Y-104581411D01*
X96999323Y-104581411D02*
X97094561Y-104486173D01*
X97094561Y-104486173D02*
X97142180Y-104343316D01*
X97142180Y-104343316D02*
X97142180Y-104248078D01*
X97142180Y-104248078D02*
X97094561Y-104105221D01*
X97094561Y-104105221D02*
X97046942Y-104057602D01*
X96523133Y-103629030D02*
X96523133Y-102867126D01*
X96142180Y-101867126D02*
X96142180Y-102438554D01*
X96142180Y-102152840D02*
X97142180Y-102152840D01*
X97142180Y-102152840D02*
X96999323Y-102248078D01*
X96999323Y-102248078D02*
X96904085Y-102343316D01*
X96904085Y-102343316D02*
X96856466Y-102438554D01*
X97142180Y-101009983D02*
X97142180Y-101200459D01*
X97142180Y-101200459D02*
X97094561Y-101295697D01*
X97094561Y-101295697D02*
X97046942Y-101343316D01*
X97046942Y-101343316D02*
X96904085Y-101438554D01*
X96904085Y-101438554D02*
X96713609Y-101486173D01*
X96713609Y-101486173D02*
X96332657Y-101486173D01*
X96332657Y-101486173D02*
X96237419Y-101438554D01*
X96237419Y-101438554D02*
X96189800Y-101390935D01*
X96189800Y-101390935D02*
X96142180Y-101295697D01*
X96142180Y-101295697D02*
X96142180Y-101105221D01*
X96142180Y-101105221D02*
X96189800Y-101009983D01*
X96189800Y-101009983D02*
X96237419Y-100962364D01*
X96237419Y-100962364D02*
X96332657Y-100914745D01*
X96332657Y-100914745D02*
X96570752Y-100914745D01*
X96570752Y-100914745D02*
X96665990Y-100962364D01*
X96665990Y-100962364D02*
X96713609Y-101009983D01*
X96713609Y-101009983D02*
X96761228Y-101105221D01*
X96761228Y-101105221D02*
X96761228Y-101295697D01*
X96761228Y-101295697D02*
X96713609Y-101390935D01*
X96713609Y-101390935D02*
X96665990Y-101438554D01*
X96665990Y-101438554D02*
X96570752Y-101486173D01*
M02*
